M48
;Layer_Color=9474304
;FILE_FORMAT=4:3
METRIC,TZ
;TYPE=PLATED
T1F00S00C0.300
T2F00S00C0.900
;TYPE=NON_PLATED
T3F00S00C0.787
%
T01
X191478Y-83871
X191732Y-82109
X193577Y-82490
X187493Y-80839
X186144Y-79839
X150979Y-82490
X149133Y-82109
X148879Y-83871
X144894Y-80839
X143545Y-79839
X108380Y-82490
X106535Y-82109
X106281Y-83871
X102296Y-80839
X100947Y-79839
X65781Y-82490
X63936Y-82109
X63682Y-83871
X59697Y-80839
X58348Y-79839
X23183Y-82490
X21337Y-82109
X21083Y-83871
X17098Y-80839
X15749Y-79839
X15622Y-70425
X17781Y-70425
X16765Y-67758
X14606Y-68647
X10161Y-67885
X8129Y-68647
X5970Y-67885
X7621Y-62297
X8256Y-57225
X11483Y-56209
X14352Y-55447
X17123Y-52559
X19940Y-53706
X23010Y-53644
X26036Y-55410
X29503Y-57733
X11939Y-60900
X11939Y-63948
X5451Y-54726
X2798Y-56120
X351Y-57849
X382Y-59003
X42981Y-59003
X42950Y-57849
X45397Y-56120
X48049Y-54726
X50855Y-57225
X54082Y-56209
X56951Y-55447
X59722Y-52559
X62539Y-53706
X65609Y-53644
X68635Y-55410
X54538Y-60900
X54538Y-63948
X52760Y-67885
X50728Y-68647
X48569Y-67885
X50220Y-62297
X57205Y-68647
X58221Y-70425
X60380Y-70425
X59364Y-67758
X72102Y-57733
X85549Y-57849
X85580Y-59003
X87996Y-56120
X90648Y-54726
X93454Y-57225
X96680Y-56209
X99550Y-55447
X102321Y-52559
X105137Y-53706
X108208Y-53644
X97137Y-60900
X97137Y-63948
X95359Y-67885
X93327Y-68647
X91168Y-67885
X92819Y-62297
X99804Y-68647
X100820Y-70425
X102979Y-70425
X101963Y-67758
X111234Y-55410
X114701Y-57733
X128147Y-57849
X128178Y-59003
X130594Y-56120
X133247Y-54726
X136052Y-57225
X139279Y-56209
X142148Y-55447
X144919Y-52559
X147736Y-53706
X139735Y-60900
X139735Y-63948
X137957Y-67885
X135925Y-68647
X133766Y-67885
X135417Y-62297
X142402Y-68647
X143418Y-70425
X145577Y-70425
X144561Y-67758
X150806Y-53644
X153832Y-55410
X157300Y-57733
X170746Y-57849
X170777Y-59003
X173193Y-56120
X175846Y-54726
X178651Y-57225
X181878Y-56209
X184747Y-55447
X187518Y-52559
X182334Y-60900
X182334Y-63948
X180556Y-67885
X178524Y-68647
X176365Y-67885
X178016Y-62297
X185001Y-68647
X186017Y-70425
X188176Y-70425
X187160Y-67758
X190335Y-53706
X193405Y-53644
X196431Y-55410
X199898Y-57733
X193577Y-31179
X191732Y-30798
X191478Y-32560
X190335Y-2395
X193405Y-2333
X196431Y-4100
X199898Y-6422
X184747Y-4136
X181878Y-4898
X178651Y-5914
X175846Y-3415
X173193Y-4809
X170746Y-6539
X170777Y-7692
X178016Y-10986
X182334Y-9589
X182334Y-12637
X180556Y-16574
X178524Y-17336
X176365Y-16574
X185001Y-17336
X186017Y-19114
X188176Y-19114
X187160Y-16447
X186144Y-28528
X187493Y-29528
X187518Y-1248
X157300Y-6422
X153832Y-4100
X150806Y-2333
X150979Y-31179
X149133Y-30798
X148879Y-32560
X144894Y-29528
X143545Y-28528
X143418Y-19114
X145577Y-19114
X144561Y-16447
X142402Y-17336
X137957Y-16574
X135925Y-17336
X133766Y-16574
X135417Y-10986
X136052Y-5914
X139279Y-4898
X142148Y-4136
X144919Y-1248
X147736Y-2395
X139735Y-9589
X139735Y-12637
X133247Y-3415
X130594Y-4809
X128147Y-6539
X128178Y-7692
X114701Y-6422
X111234Y-4100
X108208Y-2333
X105137Y-2395
X102321Y-1248
X99550Y-4136
X96680Y-4898
X93454Y-5914
X90648Y-3415
X87996Y-4809
X85549Y-6539
X85580Y-7692
X92819Y-10986
X97137Y-9589
X97137Y-12637
X95359Y-16574
X93327Y-17336
X91168Y-16574
X99804Y-17336
X100820Y-19114
X102979Y-19114
X101963Y-16447
X100947Y-28528
X102296Y-29528
X106535Y-30798
X106281Y-32560
X108380Y-31179
X72102Y-6422
X68635Y-4100
X65609Y-2333
X62539Y-2395
X59722Y-1248
X56951Y-4136
X54082Y-4898
X50855Y-5914
X48049Y-3415
X45397Y-4809
X42950Y-6539
X42981Y-7692
X50220Y-10986
X54538Y-9589
X54538Y-12637
X52760Y-16574
X50728Y-17336
X48569Y-16574
X57205Y-17336
X58221Y-19114
X60380Y-19114
X59364Y-16447
X58348Y-28528
X59697Y-29528
X63936Y-30798
X63682Y-32560
X65781Y-31179
X23183Y-31179
X21337Y-30798
X21083Y-32560
X17098Y-29528
X15749Y-28528
X15622Y-19114
X17781Y-19114
X16765Y-16447
X14606Y-17336
X10161Y-16574
X8129Y-17336
X5970Y-16574
X7621Y-10986
X8256Y-5914
X11483Y-4898
X14352Y-4136
X17123Y-1248
X19940Y-2395
X23010Y-2333
X26036Y-4100
X29503Y-6422
X11939Y-9589
X11939Y-12637
X5451Y-3415
X2798Y-4809
X351Y-6539
X382Y-7692
X15749Y22783
X17098Y21783
X21337Y20513
X21083Y18751
X23183Y20132
X17781Y32197
X15622Y32197
X14606Y33975
X16765Y34864
X10161Y34737
X8129Y33975
X5970Y34737
X7621Y40325
X8256Y45397
X11939Y41722
X11939Y38674
X382Y43619
X351Y44772
X29503Y44889
X42950Y44772
X42981Y43619
X50855Y45397
X50220Y40325
X54538Y41722
X54538Y38674
X52760Y34737
X50728Y33975
X48569Y34737
X57205Y33975
X58221Y32197
X60380Y32197
X59364Y34864
X58348Y22783
X59697Y21783
X63936Y20513
X63682Y18751
X65781Y20132
X72102Y44889
X85549Y44772
X85580Y43619
X93454Y45397
X92819Y40325
X97137Y41722
X97137Y38674
X95359Y34737
X93327Y33975
X91168Y34737
X99804Y33975
X100820Y32197
X102979Y32197
X101963Y34864
X100947Y22783
X102296Y21783
X106535Y20513
X106281Y18751
X108380Y20132
X114701Y44889
X128147Y44772
X128178Y43619
X136052Y45397
X135417Y40325
X139735Y41722
X139735Y38674
X137957Y34737
X135925Y33975
X133766Y34737
X142402Y33975
X143418Y32197
X145577Y32197
X144561Y34864
X143545Y22783
X144894Y21783
X148879Y18751
X149133Y20513
X150979Y20132
X157300Y44889
X170746Y44772
X170777Y43619
X178651Y45397
X178016Y40325
X182334Y41722
X182334Y38674
X180556Y34737
X178524Y33975
X176365Y34737
X185001Y33975
X186017Y32197
X188176Y32197
X187160Y34864
X186144Y22783
X187493Y21783
X191732Y20513
X191478Y18751
X193577Y20132
X199898Y44889
X196431Y47211
X193405Y48978
X190335Y48916
X187518Y50063
X184747Y47175
X181878Y46413
X175846Y47896
X173193Y46502
X153832Y47211
X150806Y48978
X147736Y48916
X144919Y50063
X142148Y47175
X139279Y46413
X133247Y47896
X130594Y46502
X111234Y47211
X108208Y48978
X105137Y48916
X102321Y50063
X99550Y47175
X96680Y46413
X90648Y47896
X87996Y46502
X68635Y47211
X65609Y48978
X62539Y48916
X59722Y50063
X56951Y47175
X54082Y46413
X48049Y47896
X45397Y46502
X26036Y47211
X23010Y48978
X19940Y48916
X17123Y50063
X14352Y47175
X11483Y46413
X5451Y47896
X2798Y46502
T02
X197371Y-86401
X197371Y-83861
X197371Y-81321
X197371Y-78781
X197371Y-76241
X197371Y-73701
X174503Y-73711
X174503Y-76251
X174503Y-78791
X174503Y-81331
X174503Y-83871
X174503Y-86411
X154772Y-86401
X154772Y-83861
X154772Y-81321
X154772Y-78781
X154772Y-76241
X154772Y-73701
X131904Y-73711
X131904Y-76251
X131904Y-78791
X131904Y-81331
X131904Y-83871
X131904Y-86411
X112173Y-86401
X112173Y-83861
X112173Y-81321
X112173Y-78781
X112173Y-76241
X112173Y-73701
X89306Y-73711
X89306Y-76251
X89306Y-78791
X89306Y-81331
X89306Y-83871
X89306Y-86411
X69575Y-86401
X69575Y-83861
X69575Y-81321
X69575Y-78781
X69575Y-76241
X69575Y-73701
X46707Y-73711
X46707Y-76251
X46707Y-78791
X46707Y-81331
X46707Y-83871
X46707Y-86411
X26976Y-86401
X26976Y-83861
X26976Y-81321
X26976Y-78781
X26976Y-76241
X26976Y-73701
X4108Y-73711
X4108Y-76251
X4108Y-78791
X4108Y-81331
X4108Y-83871
X4108Y-86411
X4108Y-71171
X4108Y-68631
X26976Y-68621
X26976Y-71161
X26976Y-35091
X4108Y-35100
X46707Y-35100
X69575Y-35091
X69575Y-68621
X69575Y-71161
X46707Y-71171
X46707Y-68631
X89306Y-68631
X89306Y-71171
X89306Y-35100
X112173Y-35091
X131904Y-35100
X131904Y-68631
X131904Y-71171
X112173Y-71161
X112173Y-68621
X154772Y-68621
X154772Y-71161
X174503Y-71171
X174503Y-68631
X174503Y-35100
X154772Y-35091
X197371Y-35091
X197371Y-68621
X197371Y-71161
X197371Y-32551
X197371Y-30011
X197371Y-27471
X197371Y-24931
X197371Y-22391
X197371Y-19851
X197371Y-17311
X174503Y-17320
X174503Y-19860
X174503Y-22400
X174503Y-24940
X174503Y-27480
X174503Y-30020
X174503Y-32560
X154772Y-32551
X154772Y-30011
X154772Y-27471
X154772Y-24931
X154772Y-22391
X154772Y-19851
X154772Y-17311
X131904Y-17320
X131904Y-19860
X131904Y-22400
X131904Y-24940
X131904Y-27480
X131904Y-30020
X131904Y-32560
X112173Y-32551
X112173Y-30011
X112173Y-27471
X112173Y-24931
X112173Y-22391
X112173Y-19851
X112173Y-17311
X89306Y-17320
X89306Y-19860
X89306Y-22400
X89306Y-24940
X89306Y-27480
X89306Y-30020
X89306Y-32560
X69575Y-32551
X69575Y-30011
X69575Y-27471
X69575Y-24931
X69575Y-22391
X69575Y-19851
X69575Y-17311
X46707Y-17320
X46707Y-19860
X46707Y-22400
X46707Y-24940
X46707Y-27480
X46707Y-30020
X46707Y-32560
X26976Y-32551
X26976Y-30011
X26976Y-27471
X26976Y-24931
X26976Y-22391
X26976Y-19851
X26976Y-17311
X4108Y-17320
X4108Y-19860
X4108Y-22400
X4108Y-24940
X4108Y-27480
X4108Y-30020
X4108Y-32560
X4108Y16211
X4108Y18751
X4108Y21291
X4108Y23831
X4108Y26371
X4108Y28911
X4108Y31451
X4108Y33991
X26976Y34000
X26976Y31460
X26976Y28920
X26976Y26380
X26976Y23840
X26976Y21300
X26976Y18760
X26976Y16220
X46707Y16211
X46707Y18751
X46707Y21291
X46707Y23831
X46707Y26371
X46707Y28911
X46707Y31451
X46707Y33991
X69575Y34000
X69575Y31460
X69575Y28920
X69575Y26380
X69575Y23840
X69575Y21300
X69575Y18760
X69575Y16220
X89306Y16211
X89306Y18751
X89306Y21291
X89306Y23831
X89306Y26371
X89306Y28911
X89306Y31451
X89306Y33991
X112173Y34000
X112173Y31460
X112173Y28920
X112173Y26380
X112173Y23840
X112173Y21300
X112173Y18760
X112173Y16220
X131904Y16211
X131904Y18751
X131904Y21291
X131904Y23831
X131904Y26371
X131904Y28911
X131904Y31451
X131904Y33991
X154772Y34000
X154772Y31460
X154772Y28920
X154772Y26380
X154772Y23840
X154772Y21300
X154772Y18760
X154772Y16220
X174503Y16211
X174503Y18751
X174503Y21291
X174503Y23831
X174503Y26371
X174503Y28911
X174503Y31451
X174503Y33991
X197371Y34000
X197371Y31460
X197371Y28920
X197371Y26380
X197371Y23840
X197371Y21300
X197371Y18760
X197371Y16220
T03
X-456Y-66640
X-456Y-65370
X-456Y-64100
X2592Y-64100
X2592Y-65370
X2592Y-66640
X1728Y-48581
X1728Y-47311
X1728Y-46041
X-1320Y-46041
X-1320Y-47311
X-1320Y-48581
X28525Y-64100
X28525Y-65370
X28525Y-66640
X31573Y-66640
X31573Y-65370
X31573Y-64100
X42143Y-64100
X42143Y-65370
X42143Y-66640
X45191Y-66640
X45191Y-65370
X45191Y-64100
X44327Y-48581
X44327Y-47311
X44327Y-46041
X41279Y-46041
X41279Y-47311
X41279Y-48581
X83878Y-48581
X83878Y-47311
X83878Y-46041
X86926Y-46041
X86926Y-47311
X86926Y-48581
X87789Y-64100
X87789Y-65370
X87789Y-66640
X84741Y-66640
X84741Y-65370
X84741Y-64100
X74172Y-64100
X74172Y-65370
X74172Y-66640
X71124Y-66640
X71124Y-65370
X71124Y-64100
X113723Y-64100
X113723Y-65370
X113723Y-66640
X116771Y-66640
X116771Y-65370
X116771Y-64100
X127340Y-64100
X127340Y-65370
X127340Y-66640
X130388Y-66640
X130388Y-65370
X130388Y-64100
X129524Y-48581
X129524Y-47311
X129524Y-46041
X126476Y-46041
X126476Y-47311
X126476Y-48581
X169075Y-48581
X169075Y-47311
X169075Y-46041
X172123Y-46041
X172123Y-47311
X172123Y-48581
X172987Y-64100
X172987Y-65370
X172987Y-66640
X169939Y-66640
X169939Y-65370
X169939Y-64100
X159369Y-64100
X159369Y-65370
X159369Y-66640
X156321Y-66640
X156321Y-65370
X156321Y-64100
X198920Y-64100
X198920Y-65370
X198920Y-66640
X201968Y-66640
X201968Y-65370
X201968Y-64100
X201968Y-15329
X201968Y-14059
X201968Y-12789
X198920Y-12789
X198920Y-14059
X198920Y-15329
X172987Y-15329
X172987Y-14059
X172987Y-12789
X169939Y-12789
X169939Y-14059
X169939Y-15329
X159369Y-15329
X159369Y-14059
X159369Y-12789
X156321Y-12789
X156321Y-14059
X156321Y-15329
X169075Y2730
X169075Y4000
X169075Y5270
X172123Y5270
X172123Y4000
X172123Y2730
X129524Y2730
X129524Y4000
X129524Y5270
X126476Y5270
X126476Y4000
X126476Y2730
X127340Y-12789
X127340Y-14059
X127340Y-15329
X130388Y-15329
X130388Y-14059
X130388Y-12789
X116771Y-12789
X116771Y-14059
X116771Y-15329
X113723Y-15329
X113723Y-14059
X113723Y-12789
X87789Y-12789
X87789Y-14059
X87789Y-15329
X84741Y-15329
X84741Y-14059
X84741Y-12789
X74172Y-12789
X74172Y-14059
X74172Y-15329
X71124Y-15329
X71124Y-14059
X71124Y-12789
X83878Y2730
X83878Y4000
X83878Y5270
X86926Y5270
X86926Y4000
X86926Y2730
X44327Y2730
X44327Y4000
X44327Y5270
X41279Y5270
X41279Y4000
X41279Y2730
X42143Y-12789
X42143Y-14059
X42143Y-15329
X45191Y-15329
X45191Y-14059
X45191Y-12789
X31573Y-12789
X31573Y-14059
X31573Y-15329
X28525Y-15329
X28525Y-14059
X28525Y-12789
X2592Y-12789
X2592Y-14059
X2592Y-15329
X-456Y-15329
X-456Y-14059
X-456Y-12789
X-1320Y2730
X-1320Y4000
X-1320Y5270
X1728Y5270
X1728Y4000
X1728Y2730
X2592Y35981
X2592Y37251
X2592Y38521
X-456Y38521
X-456Y37251
X-456Y35981
X28525Y35981
X28525Y37251
X28525Y38521
X31573Y38521
X31573Y37251
X31573Y35981
X42143Y35981
X42143Y37251
X42143Y38521
X45191Y38521
X45191Y37251
X45191Y35981
X71124Y35981
X71124Y37251
X71124Y38521
X74172Y38521
X74172Y37251
X74172Y35981
X84741Y35981
X84741Y37251
X84741Y38521
X87789Y38521
X87789Y37251
X87789Y35981
X113723Y35981
X113723Y37251
X113723Y38521
X116771Y38521
X116771Y37251
X116771Y35981
X127340Y35981
X127340Y37251
X127340Y38521
X130388Y38521
X130388Y37251
X130388Y35981
X156321Y35981
X156321Y37251
X156321Y38521
X159369Y38521
X159369Y37251
X159369Y35981
X169939Y35981
X169939Y37251
X169939Y38521
X172987Y38521
X172987Y37251
X172987Y35981
X198920Y35981
X198920Y37251
X198920Y38521
X201968Y38521
X201968Y37251
X201968Y35981
X172123Y54041
X172123Y55311
X172123Y56581
X169075Y56581
X169075Y55311
X169075Y54041
X129524Y54041
X129524Y55311
X129524Y56581
X126476Y56581
X126476Y55311
X126476Y54041
X86926Y54041
X86926Y55311
X86926Y56581
X83878Y56581
X83878Y55311
X83878Y54041
X44327Y54041
X44327Y55311
X44327Y56581
X41279Y56581
X41279Y55311
X41279Y54041
X1728Y54041
X1728Y55311
X1728Y56581
X-1320Y56581
X-1320Y55311
X-1320Y54041
M30
