G04*
G04 #@! TF.GenerationSoftware,Altium Limited,Altium Designer,18.1.7 (191)*
G04*
G04 Layer_Color=2752767*
%FSLAX43Y43*%
%MOMM*%
G71*
G01*
G75*
%ADD10C,0.150*%
%ADD11C,0.178*%
%ADD29C,0.381*%
%ADD31C,0.127*%
%ADD32C,0.254*%
%ADD33C,0.100*%
%ADD34C,0.200*%
%ADD35C,0.178*%
%ADD78C,0.051*%
%ADD79C,0.406*%
G36*
X259343Y-135552D02*
X259427Y-135580D01*
X259540Y-135622D01*
X259639Y-135679D01*
X259724Y-135777D01*
X259780Y-135919D01*
X259808Y-136088D01*
X259808Y-136116D01*
X259794Y-136172D01*
X259780Y-136271D01*
X259738Y-136370D01*
X259681Y-136483D01*
X259582Y-136568D01*
X259441Y-136638D01*
X259258Y-136666D01*
X259216Y-136666D01*
X259173Y-136652D01*
X259117Y-136638D01*
X258976Y-136596D01*
X258905Y-136553D01*
X258835Y-136497D01*
X258835Y-136483D01*
X258806Y-136469D01*
X258750Y-136384D01*
X258694Y-136257D01*
X258679Y-136172D01*
X258665Y-136088D01*
X258665Y-136074D01*
X258665Y-136045D01*
X258679Y-136003D01*
X258694Y-135961D01*
X258750Y-135834D01*
X258792Y-135763D01*
X258849Y-135707D01*
X258863Y-135693D01*
X258877Y-135679D01*
X258962Y-135622D01*
X259089Y-135566D01*
X259173Y-135538D01*
X259286Y-135538D01*
X259343Y-135552D01*
X259343Y-135552D02*
G37*
G36*
X255731Y-135058D02*
X255843Y-135072D01*
X255985Y-135072D01*
X256126Y-135100D01*
X256450Y-135142D01*
X256803Y-135227D01*
X257156Y-135326D01*
X257508Y-135467D01*
X260669Y-140504D01*
X260669Y-140518D01*
X260669Y-140546D01*
X260655Y-140603D01*
X260655Y-140659D01*
X260641Y-140744D01*
X260627Y-140843D01*
X260584Y-141054D01*
X260584Y-141069D01*
X260570Y-141111D01*
X260556Y-141167D01*
X260542Y-141238D01*
X260514Y-141337D01*
X260486Y-141435D01*
X260415Y-141675D01*
X257664Y-137372D01*
X257649Y-137358D01*
X257635Y-137315D01*
X257579Y-137259D01*
X257522Y-137202D01*
X257452Y-137146D01*
X257367Y-137090D01*
X257283Y-137047D01*
X257170Y-137033D01*
X257127Y-137033D01*
X257085Y-137047D01*
X257029Y-137076D01*
X256958Y-137118D01*
X256873Y-137174D01*
X256803Y-137245D01*
X256718Y-137358D01*
X255801Y-138613D01*
X259032Y-143707D01*
X259018Y-143721D01*
X258962Y-143764D01*
X258877Y-143834D01*
X258764Y-143919D01*
X258609Y-144032D01*
X258425Y-144144D01*
X258228Y-144271D01*
X257988Y-144398D01*
X257734Y-144525D01*
X257438Y-144652D01*
X257142Y-144765D01*
X256803Y-144878D01*
X256450Y-144963D01*
X256083Y-145033D01*
X255702Y-145076D01*
X255293Y-145090D01*
X255194Y-145090D01*
X255081Y-145076D01*
X254926Y-145062D01*
X254729Y-145033D01*
X254503Y-145005D01*
X254263Y-144949D01*
X253981Y-144878D01*
X253699Y-144794D01*
X253388Y-144681D01*
X253064Y-144554D01*
X252739Y-144398D01*
X252415Y-144201D01*
X252090Y-143989D01*
X251780Y-143735D01*
X251469Y-143439D01*
X252838Y-141548D01*
X252852Y-141534D01*
X252866Y-141478D01*
X252894Y-141393D01*
X252909Y-141323D01*
X252923Y-141238D01*
X252923Y-141210D01*
X252909Y-141139D01*
X252866Y-141012D01*
X252782Y-140857D01*
X251766Y-139263D01*
X250256Y-141365D01*
X250256Y-141351D01*
X250242Y-141337D01*
X250228Y-141252D01*
X250200Y-141125D01*
X250171Y-140956D01*
X250129Y-140744D01*
X250101Y-140518D01*
X250087Y-140250D01*
X250073Y-139982D01*
X250073Y-139954D01*
X250073Y-139897D01*
X250087Y-139785D01*
X250101Y-139658D01*
X250115Y-139488D01*
X250143Y-139291D01*
X250200Y-139065D01*
X250256Y-138825D01*
X250327Y-138571D01*
X250425Y-138289D01*
X250552Y-138007D01*
X250679Y-137725D01*
X250849Y-137442D01*
X251046Y-137146D01*
X251272Y-136864D01*
X251526Y-136596D01*
X251540Y-136582D01*
X251596Y-136525D01*
X251681Y-136455D01*
X251808Y-136356D01*
X251963Y-136229D01*
X252147Y-136102D01*
X252358Y-135961D01*
X252598Y-135820D01*
X252866Y-135679D01*
X253163Y-135538D01*
X253487Y-135396D01*
X253826Y-135284D01*
X254193Y-135185D01*
X254588Y-135114D01*
X254997Y-135058D01*
X255434Y-135044D01*
X255632Y-135044D01*
X255731Y-135058D01*
X255731Y-135058D02*
G37*
G36*
X260979Y-146515D02*
X261050Y-146529D01*
X261106Y-146543D01*
X261120Y-146543D01*
X261149Y-146557D01*
X261247Y-146600D01*
X261304Y-146656D01*
X261346Y-146712D01*
X261389Y-146783D01*
X261417Y-146882D01*
X261417Y-146896D01*
X261431Y-146910D01*
X261431Y-146952D01*
X261445Y-147023D01*
X261445Y-147093D01*
X261459Y-147192D01*
X261459Y-147305D01*
X261459Y-147432D01*
X259568Y-147390D01*
X259554Y-147390D01*
X259498Y-147404D01*
X259427Y-147418D01*
X259357Y-147474D01*
X259272Y-147545D01*
X259202Y-147672D01*
X259173Y-147757D01*
X259145Y-147855D01*
X259131Y-147954D01*
X259131Y-148081D01*
X259131Y-148462D01*
X259131Y-148476D01*
X259131Y-148490D01*
X259145Y-148575D01*
X259159Y-148674D01*
X259187Y-148801D01*
X259230Y-148928D01*
X259314Y-149041D01*
X259413Y-149125D01*
X259484Y-149139D01*
X259554Y-149153D01*
X261487Y-149153D01*
X261487Y-149182D01*
X261487Y-149238D01*
X261487Y-149337D01*
X261473Y-149450D01*
X261459Y-149563D01*
X261445Y-149675D01*
X261417Y-149774D01*
X261374Y-149845D01*
X261374Y-149859D01*
X261346Y-149873D01*
X261304Y-149901D01*
X261247Y-149929D01*
X261163Y-149972D01*
X261050Y-150000D01*
X260909Y-150014D01*
X260739Y-150028D01*
X259329Y-150028D01*
X259216Y-150014D01*
X259075Y-149986D01*
X258933Y-149944D01*
X258778Y-149873D01*
X258651Y-149788D01*
X258552Y-149661D01*
X258552Y-149647D01*
X258524Y-149605D01*
X258496Y-149534D01*
X258468Y-149450D01*
X258440Y-149323D01*
X258411Y-149182D01*
X258397Y-148998D01*
X258383Y-148801D01*
X258383Y-147757D01*
X258383Y-147742D01*
X258383Y-147714D01*
X258383Y-147672D01*
X258397Y-147615D01*
X258411Y-147474D01*
X258440Y-147291D01*
X258482Y-147107D01*
X258567Y-146924D01*
X258665Y-146769D01*
X258736Y-146698D01*
X258806Y-146642D01*
X258821Y-146642D01*
X258849Y-146614D01*
X258891Y-146600D01*
X258962Y-146571D01*
X259046Y-146543D01*
X259159Y-146529D01*
X259286Y-146501D01*
X260810Y-146501D01*
X260979Y-146515D01*
X260979Y-146515D02*
G37*
G36*
X264902Y-150000D02*
X264182Y-150000D01*
X264182Y-148688D01*
X262616Y-148688D01*
X262616Y-150000D01*
X261939Y-150000D01*
X261939Y-146543D01*
X262616Y-146543D01*
X262616Y-147757D01*
X264182Y-147757D01*
X264182Y-146543D01*
X264902Y-146543D01*
X264902Y-150000D01*
X264902Y-150000D02*
G37*
G36*
X245205Y-145414D02*
X245275Y-145428D01*
X245360Y-145471D01*
X245430Y-145527D01*
X245501Y-145626D01*
X245572Y-145753D01*
X245600Y-145936D01*
X246065Y-150000D01*
X245191Y-150000D01*
X244951Y-147079D01*
X244937Y-147079D01*
X244048Y-149421D01*
X244048Y-149436D01*
X244019Y-149478D01*
X243977Y-149548D01*
X243921Y-149619D01*
X243850Y-149690D01*
X243766Y-149760D01*
X243667Y-149802D01*
X243540Y-149817D01*
X243483Y-149817D01*
X243413Y-149788D01*
X243328Y-149760D01*
X243229Y-149718D01*
X243145Y-149647D01*
X243074Y-149548D01*
X243004Y-149421D01*
X242115Y-147122D01*
X242101Y-147122D01*
X241847Y-150000D01*
X241000Y-150000D01*
X241437Y-145894D01*
X241437Y-145866D01*
X241452Y-145809D01*
X241480Y-145739D01*
X241522Y-145640D01*
X241579Y-145555D01*
X241663Y-145471D01*
X241776Y-145414D01*
X241903Y-145400D01*
X241974Y-145400D01*
X242058Y-145428D01*
X242157Y-145457D01*
X242256Y-145513D01*
X242369Y-145598D01*
X242453Y-145711D01*
X242538Y-145866D01*
X243526Y-148377D01*
X243540Y-148377D01*
X244527Y-145866D01*
X244542Y-145852D01*
X244556Y-145795D01*
X244612Y-145725D01*
X244669Y-145626D01*
X244753Y-145541D01*
X244866Y-145471D01*
X244993Y-145414D01*
X245148Y-145400D01*
X245162Y-145400D01*
X245205Y-145414D01*
X245205Y-145414D02*
G37*
G36*
X269036Y-146557D02*
X269149Y-146571D01*
X269276Y-146614D01*
X269417Y-146684D01*
X269544Y-146783D01*
X269657Y-146924D01*
X269741Y-147122D01*
X269741Y-147136D01*
X269756Y-147164D01*
X269756Y-147220D01*
X269770Y-147291D01*
X269784Y-147376D01*
X269784Y-147474D01*
X269798Y-147601D01*
X269798Y-147728D01*
X269798Y-147996D01*
X269798Y-148025D01*
X269798Y-148095D01*
X269784Y-148208D01*
X269770Y-148335D01*
X269741Y-148490D01*
X269713Y-148645D01*
X269657Y-148772D01*
X269586Y-148899D01*
X269586Y-148914D01*
X269558Y-148928D01*
X269516Y-148970D01*
X269473Y-149012D01*
X269403Y-149055D01*
X269318Y-149083D01*
X269234Y-149111D01*
X269121Y-149125D01*
X267399Y-149125D01*
X267399Y-150000D01*
X266694Y-150000D01*
X266694Y-146543D01*
X268965Y-146543D01*
X269036Y-146557D01*
X269036Y-146557D02*
G37*
G36*
X266228Y-150000D02*
X265410Y-150000D01*
X265410Y-146543D01*
X266228Y-146543D01*
X266228Y-150000D01*
X266228Y-150000D02*
G37*
G36*
X253727Y-146557D02*
X253840Y-146600D01*
X253967Y-146670D01*
X254023Y-146727D01*
X254094Y-146797D01*
X254150Y-146882D01*
X254193Y-146981D01*
X254249Y-147093D01*
X254277Y-147234D01*
X254291Y-147390D01*
X254305Y-147573D01*
X254305Y-147785D01*
X254305Y-147799D01*
X254305Y-147813D01*
X254305Y-147898D01*
X254291Y-148025D01*
X254263Y-148166D01*
X254207Y-148307D01*
X254136Y-148448D01*
X254037Y-148561D01*
X253910Y-148645D01*
X253910Y-148660D01*
X253924Y-148660D01*
X253967Y-148688D01*
X254037Y-148730D01*
X254108Y-148801D01*
X254178Y-148899D01*
X254249Y-149026D01*
X254291Y-149196D01*
X254305Y-149421D01*
X254305Y-150000D01*
X253572Y-150000D01*
X253572Y-149591D01*
X253572Y-149577D01*
X253572Y-149548D01*
X253572Y-149492D01*
X253572Y-149436D01*
X253558Y-149323D01*
X253558Y-149266D01*
X253544Y-149224D01*
X253529Y-149210D01*
X253487Y-149153D01*
X253417Y-149111D01*
X253290Y-149097D01*
X252006Y-149097D01*
X252006Y-150000D01*
X251272Y-150000D01*
X251272Y-146543D01*
X253642Y-146543D01*
X253727Y-146557D01*
X253727Y-146557D02*
G37*
G36*
X247307Y-150000D02*
X246503Y-150000D01*
X246503Y-146543D01*
X247307Y-146543D01*
X247307Y-150000D01*
X247307Y-150000D02*
G37*
G36*
X257156Y-146515D02*
X257283Y-146543D01*
X257410Y-146571D01*
X257551Y-146628D01*
X257664Y-146712D01*
X257762Y-146811D01*
X257776Y-146825D01*
X257805Y-146868D01*
X257833Y-146938D01*
X257875Y-147037D01*
X257918Y-147178D01*
X257960Y-147333D01*
X257974Y-147517D01*
X257988Y-147742D01*
X257988Y-148787D01*
X257988Y-148801D01*
X257988Y-148829D01*
X257988Y-148871D01*
X257974Y-148942D01*
X257960Y-149097D01*
X257932Y-149294D01*
X257861Y-149492D01*
X257776Y-149690D01*
X257649Y-149845D01*
X257565Y-149915D01*
X257480Y-149958D01*
X257466Y-149958D01*
X257438Y-149972D01*
X257395Y-149986D01*
X257339Y-149986D01*
X257268Y-150000D01*
X257184Y-150014D01*
X256958Y-150028D01*
X255688Y-150028D01*
X255575Y-150014D01*
X255448Y-149986D01*
X255307Y-149944D01*
X255166Y-149887D01*
X255039Y-149802D01*
X254926Y-149690D01*
X254912Y-149675D01*
X254898Y-149633D01*
X254870Y-149563D01*
X254842Y-149464D01*
X254799Y-149351D01*
X254771Y-149196D01*
X254757Y-148998D01*
X254743Y-148787D01*
X254743Y-147742D01*
X254743Y-147728D01*
X254743Y-147700D01*
X254743Y-147644D01*
X254757Y-147573D01*
X254771Y-147404D01*
X254813Y-147206D01*
X254884Y-146995D01*
X254997Y-146811D01*
X255067Y-146727D01*
X255138Y-146656D01*
X255237Y-146600D01*
X255335Y-146557D01*
X255350Y-146557D01*
X255364Y-146543D01*
X255406Y-146543D01*
X255462Y-146529D01*
X255604Y-146515D01*
X255787Y-146501D01*
X257057Y-146501D01*
X257156Y-146515D01*
X257156Y-146515D02*
G37*
G36*
X250087Y-146515D02*
X250256Y-146515D01*
X250411Y-146529D01*
X250538Y-146557D01*
X250581Y-146571D01*
X250609Y-146585D01*
X250623Y-146585D01*
X250637Y-146614D01*
X250665Y-146656D01*
X250707Y-146727D01*
X250750Y-146825D01*
X250778Y-146966D01*
X250792Y-147150D01*
X250806Y-147390D01*
X248901Y-147390D01*
X248817Y-147404D01*
X248718Y-147446D01*
X248619Y-147531D01*
X248605Y-147559D01*
X248591Y-147587D01*
X248563Y-147644D01*
X248549Y-147714D01*
X248520Y-147813D01*
X248506Y-147940D01*
X248506Y-148081D01*
X248506Y-148462D01*
X248506Y-148476D01*
X248506Y-148533D01*
X248506Y-148603D01*
X248520Y-148674D01*
X248535Y-148857D01*
X248549Y-148928D01*
X248563Y-148984D01*
X248577Y-149012D01*
X248633Y-149069D01*
X248690Y-149097D01*
X248746Y-149125D01*
X248831Y-149139D01*
X248916Y-149153D01*
X250849Y-149153D01*
X250849Y-149182D01*
X250849Y-149238D01*
X250849Y-149323D01*
X250834Y-149421D01*
X250806Y-149647D01*
X250778Y-149746D01*
X250750Y-149817D01*
X250750Y-149831D01*
X250722Y-149845D01*
X250679Y-149887D01*
X250623Y-149915D01*
X250524Y-149958D01*
X250411Y-150000D01*
X250270Y-150014D01*
X250101Y-150028D01*
X248704Y-150028D01*
X248605Y-150014D01*
X248478Y-149986D01*
X248337Y-149958D01*
X248196Y-149915D01*
X248069Y-149845D01*
X247970Y-149746D01*
X247956Y-149732D01*
X247942Y-149690D01*
X247900Y-149619D01*
X247857Y-149520D01*
X247815Y-149393D01*
X247787Y-149224D01*
X247759Y-149026D01*
X247744Y-148787D01*
X247744Y-147742D01*
X247744Y-147728D01*
X247744Y-147700D01*
X247744Y-147644D01*
X247759Y-147573D01*
X247787Y-147390D01*
X247829Y-147178D01*
X247914Y-146966D01*
X248041Y-146769D01*
X248125Y-146684D01*
X248224Y-146614D01*
X248323Y-146557D01*
X248450Y-146529D01*
X248478Y-146529D01*
X248549Y-146515D01*
X248662Y-146501D01*
X249917Y-146501D01*
X250087Y-146515D01*
X250087Y-146515D02*
G37*
%LPC*%
G36*
X259258Y-135636D02*
X259187Y-135636D01*
X259103Y-135665D01*
X259018Y-135693D01*
X258919Y-135749D01*
X258849Y-135820D01*
X258792Y-135933D01*
X258764Y-136088D01*
X258764Y-136102D01*
X258764Y-136116D01*
X258778Y-136201D01*
X258821Y-136314D01*
X258905Y-136441D01*
X258933Y-136469D01*
X259004Y-136511D01*
X259117Y-136553D01*
X259258Y-136582D01*
X259272Y-136582D01*
X259329Y-136568D01*
X259399Y-136553D01*
X259498Y-136525D01*
X259582Y-136455D01*
X259653Y-136370D01*
X259709Y-136257D01*
X259724Y-136088D01*
X259724Y-136074D01*
X259724Y-136017D01*
X259695Y-135947D01*
X259667Y-135862D01*
X259611Y-135777D01*
X259526Y-135707D01*
X259413Y-135650D01*
X259258Y-135636D01*
X259258Y-135636D02*
G37*
%LPD*%
G36*
X259385Y-135792D02*
X259456Y-135848D01*
X259484Y-135890D01*
X259498Y-135961D01*
X259498Y-135975D01*
X259498Y-135989D01*
X259484Y-136060D01*
X259427Y-136116D01*
X259385Y-136144D01*
X259329Y-136158D01*
X259512Y-136441D01*
X259399Y-136441D01*
X259230Y-136158D01*
X259117Y-136158D01*
X259117Y-136441D01*
X259018Y-136441D01*
X259018Y-135763D01*
X259300Y-135763D01*
X259385Y-135792D01*
X259385Y-135792D02*
G37*
%LPC*%
G36*
X259286Y-135862D02*
X259117Y-135862D01*
X259117Y-136074D01*
X259300Y-136074D01*
X259343Y-136060D01*
X259371Y-136031D01*
X259385Y-135961D01*
X259385Y-135947D01*
X259371Y-135904D01*
X259343Y-135876D01*
X259286Y-135862D01*
X259286Y-135862D02*
G37*
G36*
X253600Y-137019D02*
X253558Y-137019D01*
X253501Y-137033D01*
X253445Y-137061D01*
X253374Y-137104D01*
X253290Y-137160D01*
X253205Y-137231D01*
X253120Y-137344D01*
X252231Y-138599D01*
X254926Y-142875D01*
X254940Y-142889D01*
X254969Y-142931D01*
X255011Y-143002D01*
X255067Y-143058D01*
X255138Y-143129D01*
X255223Y-143199D01*
X255293Y-143241D01*
X255378Y-143256D01*
X255420Y-143256D01*
X255477Y-143241D01*
X255533Y-143213D01*
X255604Y-143185D01*
X255688Y-143143D01*
X255773Y-143072D01*
X255843Y-142973D01*
X256789Y-141619D01*
X254080Y-137358D01*
X254066Y-137344D01*
X254037Y-137301D01*
X253995Y-137245D01*
X253939Y-137188D01*
X253868Y-137132D01*
X253783Y-137076D01*
X253699Y-137033D01*
X253600Y-137019D01*
X253600Y-137019D02*
G37*
G36*
X268768Y-147376D02*
X267399Y-147376D01*
X267399Y-148250D01*
X268853Y-148250D01*
X268881Y-148236D01*
X268923Y-148208D01*
X268965Y-148166D01*
X269008Y-148095D01*
X269022Y-148011D01*
X269036Y-147898D01*
X269036Y-147757D01*
X269036Y-147742D01*
X269036Y-147700D01*
X269022Y-147630D01*
X269008Y-147559D01*
X268965Y-147503D01*
X268923Y-147432D01*
X268853Y-147390D01*
X268768Y-147376D01*
X268768Y-147376D02*
G37*
G36*
X253261Y-147376D02*
X252006Y-147376D01*
X252006Y-148236D01*
X253374Y-148236D01*
X253417Y-148222D01*
X253473Y-148194D01*
X253529Y-148152D01*
X253572Y-148081D01*
X253600Y-147996D01*
X253614Y-147869D01*
X253614Y-147757D01*
X253614Y-147742D01*
X253614Y-147700D01*
X253600Y-147630D01*
X253572Y-147559D01*
X253529Y-147503D01*
X253459Y-147432D01*
X253374Y-147390D01*
X253261Y-147376D01*
X253261Y-147376D02*
G37*
G36*
X256859Y-147376D02*
X255900Y-147376D01*
X255815Y-147390D01*
X255702Y-147446D01*
X255646Y-147474D01*
X255604Y-147531D01*
X255589Y-147559D01*
X255575Y-147601D01*
X255547Y-147658D01*
X255533Y-147728D01*
X255505Y-147827D01*
X255491Y-147940D01*
X255491Y-148081D01*
X255491Y-148462D01*
X255491Y-148476D01*
X255491Y-148533D01*
X255491Y-148589D01*
X255505Y-148674D01*
X255519Y-148857D01*
X255533Y-148942D01*
X255561Y-149012D01*
X255575Y-149041D01*
X255632Y-149083D01*
X255731Y-149125D01*
X255801Y-149153D01*
X256831Y-149153D01*
X256888Y-149139D01*
X256958Y-149111D01*
X257043Y-149069D01*
X257127Y-148984D01*
X257198Y-148857D01*
X257226Y-148787D01*
X257254Y-148688D01*
X257268Y-148589D01*
X257268Y-148462D01*
X257268Y-148081D01*
X257268Y-148067D01*
X257268Y-148011D01*
X257268Y-147954D01*
X257254Y-147869D01*
X257212Y-147686D01*
X257170Y-147601D01*
X257127Y-147531D01*
X257127Y-147517D01*
X257099Y-147503D01*
X257029Y-147446D01*
X256930Y-147404D01*
X256859Y-147376D01*
X256859Y-147376D02*
G37*
%LPD*%
D10*
X330000Y-135524D02*
X330428Y-135524D01*
X330571Y-135476D01*
X330619Y-135429D01*
X330667Y-135333D01*
X330667Y-135191D01*
X330619Y-135095D01*
X330571Y-135048D01*
X330428Y-135000D01*
X330000Y-135000D01*
X330000Y-136000D01*
X331652Y-136000D02*
X331271Y-135000D01*
X330890Y-136000D01*
X331033Y-135667D02*
X331509Y-135667D01*
X331885Y-135000D02*
X331885Y-136000D01*
X331885Y-135000D02*
X332314Y-135000D01*
X332457Y-135048D01*
X332504Y-135095D01*
X332552Y-135191D01*
X332552Y-135286D01*
X332504Y-135381D01*
X332457Y-135429D01*
X332314Y-135476D01*
X331885Y-135476D01*
X332219Y-135476D02*
X332552Y-136000D01*
X333109Y-135000D02*
X333109Y-136000D01*
X332776Y-135000D02*
X333442Y-135000D01*
X334347Y-135000D02*
X334347Y-136000D01*
X334347Y-135000D02*
X335013Y-136000D01*
X335013Y-135000D02*
X335013Y-136000D01*
X335289Y-135000D02*
X335289Y-135714D01*
X335337Y-135857D01*
X335432Y-135952D01*
X335575Y-136000D01*
X335670Y-136000D01*
X335813Y-135952D01*
X335908Y-135857D01*
X335956Y-135714D01*
X335956Y-135000D01*
X336232Y-135000D02*
X336232Y-136000D01*
X336232Y-135000D02*
X336613Y-136000D01*
X336994Y-135000D02*
X336613Y-136000D01*
X336994Y-135000D02*
X336994Y-136000D01*
X337279Y-135000D02*
X337279Y-136000D01*
X337279Y-135000D02*
X337708Y-135000D01*
X337851Y-135048D01*
X337898Y-135095D01*
X337946Y-135191D01*
X337946Y-135286D01*
X337898Y-135381D01*
X337851Y-135429D01*
X337708Y-135476D01*
X337279Y-135476D02*
X337708Y-135476D01*
X337851Y-135524D01*
X337898Y-135571D01*
X337946Y-135667D01*
X337946Y-135810D01*
X337898Y-135905D01*
X337851Y-135952D01*
X337708Y-136000D01*
X337279Y-136000D01*
X338789Y-135000D02*
X338170Y-135000D01*
X338170Y-136000D01*
X338789Y-136000D01*
X338170Y-135476D02*
X338551Y-135476D01*
X338955Y-135000D02*
X338955Y-136000D01*
X338955Y-135000D02*
X339384Y-135000D01*
X339527Y-135048D01*
X339574Y-135095D01*
X339622Y-135191D01*
X339622Y-135286D01*
X339574Y-135381D01*
X339527Y-135429D01*
X339384Y-135476D01*
X338955Y-135476D01*
X339289Y-135476D02*
X339622Y-136000D01*
X339893Y-135333D02*
X339846Y-135381D01*
X339893Y-135429D01*
X339941Y-135381D01*
X339893Y-135333D01*
X339893Y-135905D02*
X339846Y-135952D01*
X339893Y-136000D01*
X339941Y-135952D01*
X339893Y-135905D01*
X340557Y-152715D02*
X340486Y-152572D01*
X340271Y-152500D01*
X340128Y-152500D01*
X339914Y-152572D01*
X339771Y-152786D01*
X339700Y-153143D01*
X339700Y-153500D01*
X339771Y-153786D01*
X339914Y-153929D01*
X340128Y-154000D01*
X340200Y-154000D01*
X340414Y-153929D01*
X340557Y-153786D01*
X340628Y-153572D01*
X340628Y-153500D01*
X340557Y-153286D01*
X340414Y-153143D01*
X340200Y-153072D01*
X340128Y-153072D01*
X339914Y-153143D01*
X339771Y-153286D01*
X339700Y-153500D01*
X340957Y-154214D02*
X341957Y-152500D01*
X342128Y-152857D02*
X342128Y-152786D01*
X342199Y-152643D01*
X342271Y-152572D01*
X342414Y-152500D01*
X342699Y-152500D01*
X342842Y-152572D01*
X342914Y-152643D01*
X342985Y-152786D01*
X342985Y-152929D01*
X342914Y-153072D01*
X342771Y-153286D01*
X342057Y-154000D01*
X343056Y-154000D01*
X344106Y-152500D02*
X343392Y-153500D01*
X344463Y-153500D01*
X344106Y-152500D02*
X344106Y-154000D01*
X344728Y-154214D02*
X345727Y-152500D01*
X345899Y-152857D02*
X345899Y-152786D01*
X345970Y-152643D01*
X346042Y-152572D01*
X346184Y-152500D01*
X346470Y-152500D01*
X346613Y-152572D01*
X346684Y-152643D01*
X346756Y-152786D01*
X346756Y-152929D01*
X346684Y-153072D01*
X346541Y-153286D01*
X345827Y-154000D01*
X346827Y-154000D01*
X347591Y-152500D02*
X347377Y-152572D01*
X347234Y-152786D01*
X347163Y-153143D01*
X347163Y-153357D01*
X347234Y-153714D01*
X347377Y-153929D01*
X347591Y-154000D01*
X347734Y-154000D01*
X347948Y-153929D01*
X348091Y-153714D01*
X348162Y-153357D01*
X348162Y-153143D01*
X348091Y-152786D01*
X347948Y-152572D01*
X347734Y-152500D01*
X347591Y-152500D01*
X348498Y-152786D02*
X348641Y-152715D01*
X348855Y-152500D01*
X348855Y-154000D01*
X349955Y-152500D02*
X349741Y-152572D01*
X349669Y-152715D01*
X349669Y-152857D01*
X349741Y-153000D01*
X349884Y-153072D01*
X350169Y-153143D01*
X350383Y-153214D01*
X350526Y-153357D01*
X350598Y-153500D01*
X350598Y-153714D01*
X350526Y-153857D01*
X350455Y-153929D01*
X350241Y-154000D01*
X349955Y-154000D01*
X349741Y-153929D01*
X349669Y-153857D01*
X349598Y-153714D01*
X349598Y-153500D01*
X349669Y-153357D01*
X349812Y-153214D01*
X350026Y-153143D01*
X350312Y-153072D01*
X350455Y-153000D01*
X350526Y-152857D01*
X350526Y-152715D01*
X350455Y-152572D01*
X350241Y-152500D01*
X349955Y-152500D01*
D11*
X301428Y-146500D02*
X301214Y-146572D01*
X301071Y-146786D01*
X301000Y-147143D01*
X301000Y-147357D01*
X301071Y-147714D01*
X301214Y-147929D01*
X301428Y-148000D01*
X301571Y-148000D01*
X301786Y-147929D01*
X301928Y-147714D01*
X302000Y-147357D01*
X302000Y-147143D01*
X301928Y-146786D01*
X301786Y-146572D01*
X301571Y-146500D01*
X301428Y-146500D01*
X303192Y-146500D02*
X302478Y-146500D01*
X302407Y-147143D01*
X302478Y-147072D01*
X302693Y-147000D01*
X302907Y-147000D01*
X303121Y-147072D01*
X303264Y-147214D01*
X303335Y-147429D01*
X303335Y-147572D01*
X303264Y-147786D01*
X303121Y-147929D01*
X302907Y-148000D01*
X302693Y-148000D01*
X302478Y-147929D01*
X302407Y-147857D01*
X302335Y-147714D01*
X303671Y-147357D02*
X304956Y-147357D01*
X306327Y-146500D02*
X305399Y-146500D01*
X305399Y-148000D01*
X306327Y-148000D01*
X305399Y-147214D02*
X305970Y-147214D01*
X307506Y-146500D02*
X306577Y-146500D01*
X306577Y-148000D01*
X307506Y-148000D01*
X306577Y-147214D02*
X307149Y-147214D01*
X307756Y-146500D02*
X307756Y-148000D01*
X307756Y-146500D02*
X308398Y-146500D01*
X308613Y-146572D01*
X308684Y-146643D01*
X308755Y-146786D01*
X308755Y-146929D01*
X308684Y-147072D01*
X308613Y-147143D01*
X308398Y-147214D01*
X307756Y-147214D01*
X308256Y-147214D02*
X308755Y-148000D01*
X310234Y-148000D02*
X309662Y-146500D01*
X309091Y-148000D01*
X309305Y-147500D02*
X310020Y-147500D01*
X310584Y-146500D02*
X310584Y-148000D01*
X310584Y-146500D02*
X311155Y-148000D01*
X311726Y-146500D02*
X311155Y-148000D01*
X311726Y-146500D02*
X311726Y-148000D01*
X312155Y-148500D02*
X313297Y-148500D01*
X313490Y-146500D02*
X313490Y-148000D01*
X313490Y-146500D02*
X313990Y-146500D01*
X314204Y-146572D01*
X314347Y-146715D01*
X314419Y-146857D01*
X314490Y-147072D01*
X314490Y-147429D01*
X314419Y-147643D01*
X314347Y-147786D01*
X314204Y-147929D01*
X313990Y-148000D01*
X313490Y-148000D01*
X315754Y-146500D02*
X314826Y-146500D01*
X314826Y-148000D01*
X315754Y-148000D01*
X314826Y-147214D02*
X315397Y-147214D01*
X316004Y-146500D02*
X316004Y-148000D01*
X316004Y-146500D02*
X316575Y-148000D01*
X317147Y-146500D02*
X316575Y-148000D01*
X317147Y-146500D02*
X317147Y-148000D01*
X318004Y-146500D02*
X317861Y-146572D01*
X317718Y-146715D01*
X317646Y-146857D01*
X317575Y-147072D01*
X317575Y-147429D01*
X317646Y-147643D01*
X317718Y-147786D01*
X317861Y-147929D01*
X318004Y-148000D01*
X318289Y-148000D01*
X318432Y-147929D01*
X318575Y-147786D01*
X318646Y-147643D01*
X318718Y-147429D01*
X318718Y-147072D01*
X318646Y-146857D01*
X318575Y-146715D01*
X318432Y-146572D01*
X318289Y-146500D01*
X318004Y-146500D01*
X319068Y-148500D02*
X320210Y-148500D01*
X320403Y-146500D02*
X320403Y-148000D01*
X320403Y-146500D02*
X321331Y-146500D01*
X320403Y-147214D02*
X320974Y-147214D01*
X322645Y-148000D02*
X322074Y-146500D01*
X321503Y-148000D01*
X321717Y-147500D02*
X322431Y-147500D01*
X323924Y-146500D02*
X322995Y-146500D01*
X322995Y-148000D01*
X323924Y-148000D01*
X322995Y-147214D02*
X323567Y-147214D01*
X324174Y-148500D02*
X325316Y-148500D01*
X325509Y-146786D02*
X325652Y-146715D01*
X325866Y-146500D01*
X325866Y-148000D01*
X326680Y-147857D02*
X326609Y-147929D01*
X326680Y-148000D01*
X326752Y-147929D01*
X326680Y-147857D01*
X327509Y-146500D02*
X327294Y-146572D01*
X327152Y-146786D01*
X327080Y-147143D01*
X327080Y-147357D01*
X327152Y-147714D01*
X327294Y-147929D01*
X327509Y-148000D01*
X327651Y-148000D01*
X327866Y-147929D01*
X328009Y-147714D01*
X328080Y-147357D01*
X328080Y-147143D01*
X328009Y-146786D01*
X327866Y-146572D01*
X327651Y-146500D01*
X327509Y-146500D01*
X328844Y-146500D02*
X328630Y-146572D01*
X328487Y-146786D01*
X328416Y-147143D01*
X328416Y-147357D01*
X328487Y-147714D01*
X328630Y-147929D01*
X328844Y-148000D01*
X328987Y-148000D01*
X329201Y-147929D01*
X329344Y-147714D01*
X329415Y-147357D01*
X329415Y-147143D01*
X329344Y-146786D01*
X329201Y-146572D01*
X328987Y-146500D01*
X328844Y-146500D01*
X329751Y-147357D02*
X331036Y-147357D01*
X331479Y-146500D02*
X331479Y-148000D01*
X331479Y-146500D02*
X332122Y-146500D01*
X332336Y-146572D01*
X332408Y-146643D01*
X332479Y-146786D01*
X332479Y-146929D01*
X332408Y-147072D01*
X332336Y-147143D01*
X332122Y-147214D01*
X331479Y-147214D01*
X331979Y-147214D02*
X332479Y-148000D01*
X332815Y-146786D02*
X332957Y-146715D01*
X333172Y-146500D01*
X333172Y-148000D01*
X333986Y-147857D02*
X333914Y-147929D01*
X333986Y-148000D01*
X334057Y-147929D01*
X333986Y-147857D01*
X334814Y-146500D02*
X334600Y-146572D01*
X334457Y-146786D01*
X334386Y-147143D01*
X334386Y-147357D01*
X334457Y-147714D01*
X334600Y-147929D01*
X334814Y-148000D01*
X334957Y-148000D01*
X335171Y-147929D01*
X335314Y-147714D01*
X335385Y-147357D01*
X335385Y-147143D01*
X335314Y-146786D01*
X335171Y-146572D01*
X334957Y-146500D01*
X334814Y-146500D01*
X336150Y-146500D02*
X335935Y-146572D01*
X335793Y-146786D01*
X335721Y-147143D01*
X335721Y-147357D01*
X335793Y-147714D01*
X335935Y-147929D01*
X336150Y-148000D01*
X336292Y-148000D01*
X336507Y-147929D01*
X336650Y-147714D01*
X336721Y-147357D01*
X336721Y-147143D01*
X336650Y-146786D01*
X336507Y-146572D01*
X336292Y-146500D01*
X336150Y-146500D01*
X337128Y-147857D02*
X337057Y-147929D01*
X337128Y-148000D01*
X337199Y-147929D01*
X337128Y-147857D01*
X338599Y-146857D02*
X338528Y-146715D01*
X338385Y-146572D01*
X338242Y-146500D01*
X337956Y-146500D01*
X337814Y-146572D01*
X337671Y-146715D01*
X337599Y-146857D01*
X337528Y-147072D01*
X337528Y-147429D01*
X337599Y-147643D01*
X337671Y-147786D01*
X337814Y-147929D01*
X337956Y-148000D01*
X338242Y-148000D01*
X338385Y-147929D01*
X338528Y-147786D01*
X338599Y-147643D01*
X338599Y-147429D01*
X338242Y-147429D02*
X338599Y-147429D01*
X338942Y-146500D02*
X338942Y-148000D01*
X338942Y-146500D02*
X339442Y-146500D01*
X339656Y-146572D01*
X339799Y-146715D01*
X339870Y-146857D01*
X339942Y-147072D01*
X339942Y-147429D01*
X339870Y-147643D01*
X339799Y-147786D01*
X339656Y-147929D01*
X339442Y-148000D01*
X338942Y-148000D01*
X340277Y-146786D02*
X340420Y-146715D01*
X340634Y-146500D01*
X340634Y-148000D01*
X273000Y-152222D02*
X273000Y-154000D01*
X273000Y-152222D02*
X273593Y-152222D01*
X273846Y-152307D01*
X274016Y-152476D01*
X274100Y-152646D01*
X274185Y-152900D01*
X274185Y-153323D01*
X274100Y-153577D01*
X274016Y-153746D01*
X273846Y-153915D01*
X273593Y-154000D01*
X273000Y-154000D01*
X274583Y-152815D02*
X274583Y-154000D01*
X274583Y-153323D02*
X274668Y-153069D01*
X274837Y-152900D01*
X275006Y-152815D01*
X275260Y-152815D01*
X276437Y-152815D02*
X276437Y-154000D01*
X276437Y-153069D02*
X276267Y-152900D01*
X276098Y-152815D01*
X275844Y-152815D01*
X275675Y-152900D01*
X275506Y-153069D01*
X275421Y-153323D01*
X275421Y-153492D01*
X275506Y-153746D01*
X275675Y-153915D01*
X275844Y-154000D01*
X276098Y-154000D01*
X276267Y-153915D01*
X276437Y-153746D01*
X277927Y-152815D02*
X277927Y-154169D01*
X277842Y-154423D01*
X277757Y-154508D01*
X277588Y-154593D01*
X277334Y-154593D01*
X277165Y-154508D01*
X277927Y-153069D02*
X277757Y-152900D01*
X277588Y-152815D01*
X277334Y-152815D01*
X277165Y-152900D01*
X276995Y-153069D01*
X276911Y-153323D01*
X276911Y-153492D01*
X276995Y-153746D01*
X277165Y-153915D01*
X277334Y-154000D01*
X277588Y-154000D01*
X277757Y-153915D01*
X277927Y-153746D01*
X278824Y-152815D02*
X278655Y-152900D01*
X278485Y-153069D01*
X278401Y-153323D01*
X278401Y-153492D01*
X278485Y-153746D01*
X278655Y-153915D01*
X278824Y-154000D01*
X279078Y-154000D01*
X279247Y-153915D01*
X279416Y-153746D01*
X279501Y-153492D01*
X279501Y-153323D01*
X279416Y-153069D01*
X279247Y-152900D01*
X279078Y-152815D01*
X278824Y-152815D01*
X280822Y-153069D02*
X280737Y-152900D01*
X280483Y-152815D01*
X280229Y-152815D01*
X279975Y-152900D01*
X279890Y-153069D01*
X279975Y-153238D01*
X280144Y-153323D01*
X280568Y-153407D01*
X280737Y-153492D01*
X280822Y-153661D01*
X280822Y-153746D01*
X280737Y-153915D01*
X280483Y-154000D01*
X280229Y-154000D01*
X279975Y-153915D01*
X279890Y-153746D01*
X283860Y-152646D02*
X283776Y-152476D01*
X283606Y-152307D01*
X283437Y-152222D01*
X283099Y-152222D01*
X282929Y-152307D01*
X282760Y-152476D01*
X282675Y-152646D01*
X282591Y-152900D01*
X282591Y-153323D01*
X282675Y-153577D01*
X282760Y-153746D01*
X282929Y-153915D01*
X283099Y-154000D01*
X283437Y-154000D01*
X283606Y-153915D01*
X283776Y-153746D01*
X283860Y-153577D01*
X284529Y-152222D02*
X284614Y-152307D01*
X284698Y-152222D01*
X284614Y-152138D01*
X284529Y-152222D01*
X284614Y-152815D02*
X284614Y-154000D01*
X285435Y-152815D02*
X285266Y-152900D01*
X285096Y-153069D01*
X285012Y-153323D01*
X285012Y-153492D01*
X285096Y-153746D01*
X285266Y-153915D01*
X285435Y-154000D01*
X285689Y-154000D01*
X285858Y-153915D01*
X286027Y-153746D01*
X286112Y-153492D01*
X286112Y-153323D01*
X286027Y-153069D01*
X285858Y-152900D01*
X285689Y-152815D01*
X285435Y-152815D01*
X287179Y-152222D02*
X287009Y-152222D01*
X286840Y-152307D01*
X286755Y-152561D01*
X286755Y-154000D01*
X286501Y-152815D02*
X287094Y-152815D01*
X287433Y-152815D02*
X287433Y-153661D01*
X287517Y-153915D01*
X287687Y-154000D01*
X287940Y-154000D01*
X288110Y-153915D01*
X288364Y-153661D01*
X288364Y-152815D02*
X288364Y-154000D01*
X273000Y-146222D02*
X273000Y-148000D01*
X273000Y-146222D02*
X273593Y-146222D01*
X273846Y-146307D01*
X274016Y-146476D01*
X274100Y-146646D01*
X274185Y-146900D01*
X274185Y-147323D01*
X274100Y-147577D01*
X274016Y-147746D01*
X273846Y-147915D01*
X273593Y-148000D01*
X273000Y-148000D01*
X274583Y-146815D02*
X274583Y-148000D01*
X274583Y-147323D02*
X274668Y-147069D01*
X274837Y-146900D01*
X275006Y-146815D01*
X275260Y-146815D01*
X276437Y-146815D02*
X276437Y-148000D01*
X276437Y-147069D02*
X276267Y-146900D01*
X276098Y-146815D01*
X275844Y-146815D01*
X275675Y-146900D01*
X275506Y-147069D01*
X275421Y-147323D01*
X275421Y-147492D01*
X275506Y-147746D01*
X275675Y-147915D01*
X275844Y-148000D01*
X276098Y-148000D01*
X276267Y-147915D01*
X276437Y-147746D01*
X277927Y-146815D02*
X277927Y-148169D01*
X277842Y-148423D01*
X277757Y-148508D01*
X277588Y-148593D01*
X277334Y-148593D01*
X277165Y-148508D01*
X277927Y-147069D02*
X277757Y-146900D01*
X277588Y-146815D01*
X277334Y-146815D01*
X277165Y-146900D01*
X276995Y-147069D01*
X276911Y-147323D01*
X276911Y-147492D01*
X276995Y-147746D01*
X277165Y-147915D01*
X277334Y-148000D01*
X277588Y-148000D01*
X277757Y-147915D01*
X277927Y-147746D01*
X278824Y-146815D02*
X278655Y-146900D01*
X278485Y-147069D01*
X278401Y-147323D01*
X278401Y-147492D01*
X278485Y-147746D01*
X278655Y-147915D01*
X278824Y-148000D01*
X279078Y-148000D01*
X279247Y-147915D01*
X279416Y-147746D01*
X279501Y-147492D01*
X279501Y-147323D01*
X279416Y-147069D01*
X279247Y-146900D01*
X279078Y-146815D01*
X278824Y-146815D01*
X280822Y-147069D02*
X280737Y-146900D01*
X280483Y-146815D01*
X280229Y-146815D01*
X279975Y-146900D01*
X279890Y-147069D01*
X279975Y-147238D01*
X280144Y-147323D01*
X280568Y-147407D01*
X280737Y-147492D01*
X280822Y-147661D01*
X280822Y-147746D01*
X280737Y-147915D01*
X280483Y-148000D01*
X280229Y-148000D01*
X279975Y-147915D01*
X279890Y-147746D01*
X283860Y-146646D02*
X283776Y-146476D01*
X283606Y-146307D01*
X283437Y-146222D01*
X283099Y-146222D01*
X282929Y-146307D01*
X282760Y-146476D01*
X282675Y-146646D01*
X282591Y-146900D01*
X282591Y-147323D01*
X282675Y-147577D01*
X282760Y-147746D01*
X282929Y-147915D01*
X283099Y-148000D01*
X283437Y-148000D01*
X283606Y-147915D01*
X283776Y-147746D01*
X283860Y-147577D01*
X284529Y-146222D02*
X284614Y-146307D01*
X284698Y-146222D01*
X284614Y-146138D01*
X284529Y-146222D01*
X284614Y-146815D02*
X284614Y-148000D01*
X285435Y-146815D02*
X285266Y-146900D01*
X285096Y-147069D01*
X285012Y-147323D01*
X285012Y-147492D01*
X285096Y-147746D01*
X285266Y-147915D01*
X285435Y-148000D01*
X285689Y-148000D01*
X285858Y-147915D01*
X286027Y-147746D01*
X286112Y-147492D01*
X286112Y-147323D01*
X286027Y-147069D01*
X285858Y-146900D01*
X285689Y-146815D01*
X285435Y-146815D01*
X287179Y-146222D02*
X287009Y-146222D01*
X286840Y-146307D01*
X286755Y-146561D01*
X286755Y-148000D01*
X286501Y-146815D02*
X287094Y-146815D01*
X287433Y-146815D02*
X287433Y-147661D01*
X287517Y-147915D01*
X287687Y-148000D01*
X287940Y-148000D01*
X288110Y-147915D01*
X288364Y-147661D01*
X288364Y-146815D02*
X288364Y-148000D01*
X239770Y-151482D02*
X239770Y-153260D01*
X239770Y-151482D02*
X240447Y-153260D01*
X241124Y-151482D02*
X240447Y-153260D01*
X241124Y-151482D02*
X241124Y-153260D01*
X241802Y-151482D02*
X241886Y-151567D01*
X241971Y-151482D01*
X241886Y-151398D01*
X241802Y-151482D01*
X241886Y-152075D02*
X241886Y-153260D01*
X243300Y-152329D02*
X243131Y-152160D01*
X242961Y-152075D01*
X242707Y-152075D01*
X242538Y-152160D01*
X242369Y-152329D01*
X242284Y-152583D01*
X242284Y-152752D01*
X242369Y-153006D01*
X242538Y-153175D01*
X242707Y-153260D01*
X242961Y-153260D01*
X243131Y-153175D01*
X243300Y-153006D01*
X243681Y-152075D02*
X243681Y-153260D01*
X243681Y-152583D02*
X243765Y-152329D01*
X243935Y-152160D01*
X244104Y-152075D01*
X244358Y-152075D01*
X244942Y-152075D02*
X244773Y-152160D01*
X244603Y-152329D01*
X244519Y-152583D01*
X244519Y-152752D01*
X244603Y-153006D01*
X244773Y-153175D01*
X244942Y-153260D01*
X245196Y-153260D01*
X245365Y-153175D01*
X245535Y-153006D01*
X245619Y-152752D01*
X245619Y-152583D01*
X245535Y-152329D01*
X245365Y-152160D01*
X245196Y-152075D01*
X244942Y-152075D01*
X247024Y-152329D02*
X246855Y-152160D01*
X246686Y-152075D01*
X246432Y-152075D01*
X246263Y-152160D01*
X246093Y-152329D01*
X246009Y-152583D01*
X246009Y-152752D01*
X246093Y-153006D01*
X246263Y-153175D01*
X246432Y-153260D01*
X246686Y-153260D01*
X246855Y-153175D01*
X247024Y-153006D01*
X247405Y-151482D02*
X247405Y-153260D01*
X247405Y-152413D02*
X247659Y-152160D01*
X247829Y-152075D01*
X248083Y-152075D01*
X248252Y-152160D01*
X248336Y-152413D01*
X248336Y-153260D01*
X248971Y-151482D02*
X249056Y-151567D01*
X249141Y-151482D01*
X249056Y-151398D01*
X248971Y-151482D01*
X249056Y-152075D02*
X249056Y-153260D01*
X249454Y-152075D02*
X249454Y-153853D01*
X249454Y-152329D02*
X249623Y-152160D01*
X249792Y-152075D01*
X250046Y-152075D01*
X250216Y-152160D01*
X250385Y-152329D01*
X250470Y-152583D01*
X250470Y-152752D01*
X250385Y-153006D01*
X250216Y-153175D01*
X250046Y-153260D01*
X249792Y-153260D01*
X249623Y-153175D01*
X249454Y-153006D01*
X252840Y-151482D02*
X252840Y-153260D01*
X252247Y-151482D02*
X253432Y-151482D01*
X253644Y-152583D02*
X254660Y-152583D01*
X254660Y-152413D01*
X254575Y-152244D01*
X254490Y-152160D01*
X254321Y-152075D01*
X254067Y-152075D01*
X253898Y-152160D01*
X253729Y-152329D01*
X253644Y-152583D01*
X253644Y-152752D01*
X253729Y-153006D01*
X253898Y-153175D01*
X254067Y-153260D01*
X254321Y-153260D01*
X254490Y-153175D01*
X254660Y-153006D01*
X256056Y-152329D02*
X255887Y-152160D01*
X255718Y-152075D01*
X255464Y-152075D01*
X255295Y-152160D01*
X255125Y-152329D01*
X255041Y-152583D01*
X255041Y-152752D01*
X255125Y-153006D01*
X255295Y-153175D01*
X255464Y-153260D01*
X255718Y-153260D01*
X255887Y-153175D01*
X256056Y-153006D01*
X256437Y-151482D02*
X256437Y-153260D01*
X256437Y-152413D02*
X256691Y-152160D01*
X256861Y-152075D01*
X257115Y-152075D01*
X257284Y-152160D01*
X257368Y-152413D01*
X257368Y-153260D01*
X257834Y-152075D02*
X257834Y-153260D01*
X257834Y-152413D02*
X258088Y-152160D01*
X258257Y-152075D01*
X258511Y-152075D01*
X258680Y-152160D01*
X258765Y-152413D01*
X258765Y-153260D01*
X259654Y-152075D02*
X259485Y-152160D01*
X259315Y-152329D01*
X259231Y-152583D01*
X259231Y-152752D01*
X259315Y-153006D01*
X259485Y-153175D01*
X259654Y-153260D01*
X259908Y-153260D01*
X260077Y-153175D01*
X260246Y-153006D01*
X260331Y-152752D01*
X260331Y-152583D01*
X260246Y-152329D01*
X260077Y-152160D01*
X259908Y-152075D01*
X259654Y-152075D01*
X260721Y-151482D02*
X260721Y-153260D01*
X261516Y-152075D02*
X261347Y-152160D01*
X261178Y-152329D01*
X261093Y-152583D01*
X261093Y-152752D01*
X261178Y-153006D01*
X261347Y-153175D01*
X261516Y-153260D01*
X261770Y-153260D01*
X261939Y-153175D01*
X262109Y-153006D01*
X262193Y-152752D01*
X262193Y-152583D01*
X262109Y-152329D01*
X261939Y-152160D01*
X261770Y-152075D01*
X261516Y-152075D01*
X263599Y-152075D02*
X263599Y-153429D01*
X263514Y-153683D01*
X263429Y-153768D01*
X263260Y-153853D01*
X263006Y-153853D01*
X262837Y-153768D01*
X263599Y-152329D02*
X263429Y-152160D01*
X263260Y-152075D01*
X263006Y-152075D01*
X262837Y-152160D01*
X262667Y-152329D01*
X262583Y-152583D01*
X262583Y-152752D01*
X262667Y-153006D01*
X262837Y-153175D01*
X263006Y-153260D01*
X263260Y-153260D01*
X263429Y-153175D01*
X263599Y-153006D01*
X264157Y-152075D02*
X264665Y-153260D01*
X265173Y-152075D02*
X264665Y-153260D01*
X264496Y-153599D01*
X264327Y-153768D01*
X264157Y-153853D01*
X264073Y-153853D01*
X266866Y-151482D02*
X266866Y-153260D01*
X267238Y-152075D02*
X267238Y-153260D01*
X267238Y-152413D02*
X267492Y-152160D01*
X267662Y-152075D01*
X267916Y-152075D01*
X268085Y-152160D01*
X268170Y-152413D01*
X268170Y-153260D01*
X269651Y-152329D02*
X269482Y-152160D01*
X269312Y-152075D01*
X269058Y-152075D01*
X268889Y-152160D01*
X268720Y-152329D01*
X268635Y-152583D01*
X268635Y-152752D01*
X268720Y-153006D01*
X268889Y-153175D01*
X269058Y-153260D01*
X269312Y-153260D01*
X269482Y-153175D01*
X269651Y-153006D01*
X270117Y-153091D02*
X270032Y-153175D01*
X270117Y-153260D01*
X270201Y-153175D01*
X270117Y-153091D01*
X241085Y-154646D02*
X241085Y-154561D01*
X241169Y-154392D01*
X241254Y-154307D01*
X241423Y-154222D01*
X241762Y-154222D01*
X241931Y-154307D01*
X242016Y-154392D01*
X242100Y-154561D01*
X242100Y-154730D01*
X242016Y-154900D01*
X241846Y-155154D01*
X241000Y-156000D01*
X242185Y-156000D01*
X242752Y-154222D02*
X243683Y-154222D01*
X243175Y-154900D01*
X243429Y-154900D01*
X243599Y-154984D01*
X243683Y-155069D01*
X243768Y-155323D01*
X243768Y-155492D01*
X243683Y-155746D01*
X243514Y-155915D01*
X243260Y-156000D01*
X243006Y-156000D01*
X242752Y-155915D01*
X242668Y-155831D01*
X242583Y-155661D01*
X245182Y-154222D02*
X244335Y-154222D01*
X244251Y-154984D01*
X244335Y-154900D01*
X244589Y-154815D01*
X244843Y-154815D01*
X245097Y-154900D01*
X245266Y-155069D01*
X245351Y-155323D01*
X245351Y-155492D01*
X245266Y-155746D01*
X245097Y-155915D01*
X244843Y-156000D01*
X244589Y-156000D01*
X244335Y-155915D01*
X244251Y-155831D01*
X244166Y-155661D01*
X246765Y-154222D02*
X245918Y-154222D01*
X245833Y-154984D01*
X245918Y-154900D01*
X246172Y-154815D01*
X246426Y-154815D01*
X246680Y-154900D01*
X246849Y-155069D01*
X246934Y-155323D01*
X246934Y-155492D01*
X246849Y-155746D01*
X246680Y-155915D01*
X246426Y-156000D01*
X246172Y-156000D01*
X245918Y-155915D01*
X245833Y-155831D01*
X245749Y-155661D01*
X248728Y-154222D02*
X249152Y-156000D01*
X249575Y-154222D02*
X249152Y-156000D01*
X249575Y-154222D02*
X249998Y-156000D01*
X250421Y-154222D02*
X249998Y-156000D01*
X250862Y-155831D02*
X250777Y-155915D01*
X250862Y-156000D01*
X250946Y-155915D01*
X250862Y-155831D01*
X254002Y-154646D02*
X253917Y-154476D01*
X253748Y-154307D01*
X253579Y-154222D01*
X253240Y-154222D01*
X253071Y-154307D01*
X252902Y-154476D01*
X252817Y-154646D01*
X252732Y-154900D01*
X252732Y-155323D01*
X252817Y-155577D01*
X252902Y-155746D01*
X253071Y-155915D01*
X253240Y-156000D01*
X253579Y-156000D01*
X253748Y-155915D01*
X253917Y-155746D01*
X254002Y-155577D01*
X254501Y-154222D02*
X254501Y-156000D01*
X254501Y-155154D02*
X254755Y-154900D01*
X254925Y-154815D01*
X255179Y-154815D01*
X255348Y-154900D01*
X255433Y-155154D01*
X255433Y-156000D01*
X256914Y-154815D02*
X256914Y-156000D01*
X256914Y-155069D02*
X256745Y-154900D01*
X256575Y-154815D01*
X256321Y-154815D01*
X256152Y-154900D01*
X255983Y-155069D01*
X255898Y-155323D01*
X255898Y-155492D01*
X255983Y-155746D01*
X256152Y-155915D01*
X256321Y-156000D01*
X256575Y-156000D01*
X256745Y-155915D01*
X256914Y-155746D01*
X257388Y-154815D02*
X257388Y-156000D01*
X257388Y-155154D02*
X257642Y-154900D01*
X257811Y-154815D01*
X258065Y-154815D01*
X258234Y-154900D01*
X258319Y-155154D01*
X258319Y-156000D01*
X259800Y-154222D02*
X259800Y-156000D01*
X259800Y-155069D02*
X259631Y-154900D01*
X259462Y-154815D01*
X259208Y-154815D01*
X259039Y-154900D01*
X258869Y-155069D01*
X258785Y-155323D01*
X258785Y-155492D01*
X258869Y-155746D01*
X259039Y-155915D01*
X259208Y-156000D01*
X259462Y-156000D01*
X259631Y-155915D01*
X259800Y-155746D01*
X260274Y-154222D02*
X260274Y-156000D01*
X260647Y-155323D02*
X261663Y-155323D01*
X261663Y-155154D01*
X261578Y-154984D01*
X261493Y-154900D01*
X261324Y-154815D01*
X261070Y-154815D01*
X260901Y-154900D01*
X260732Y-155069D01*
X260647Y-155323D01*
X260647Y-155492D01*
X260732Y-155746D01*
X260901Y-155915D01*
X261070Y-156000D01*
X261324Y-156000D01*
X261493Y-155915D01*
X261663Y-155746D01*
X262044Y-154815D02*
X262044Y-156000D01*
X262044Y-155323D02*
X262128Y-155069D01*
X262298Y-154900D01*
X262467Y-154815D01*
X262721Y-154815D01*
X264278Y-154222D02*
X264278Y-156000D01*
X264278Y-154222D02*
X265040Y-154222D01*
X265294Y-154307D01*
X265379Y-154392D01*
X265463Y-154561D01*
X265463Y-154730D01*
X265379Y-154900D01*
X265294Y-154984D01*
X265040Y-155069D01*
X264278Y-155069D02*
X265040Y-155069D01*
X265294Y-155154D01*
X265379Y-155238D01*
X265463Y-155407D01*
X265463Y-155661D01*
X265379Y-155831D01*
X265294Y-155915D01*
X265040Y-156000D01*
X264278Y-156000D01*
X265861Y-154222D02*
X265861Y-156000D01*
X266234Y-154815D02*
X266742Y-156000D01*
X267250Y-154815D02*
X266742Y-156000D01*
X268553Y-154222D02*
X268553Y-156000D01*
X268553Y-155069D02*
X268384Y-154900D01*
X268215Y-154815D01*
X267961Y-154815D01*
X267791Y-154900D01*
X267622Y-155069D01*
X267537Y-155323D01*
X267537Y-155492D01*
X267622Y-155746D01*
X267791Y-155915D01*
X267961Y-156000D01*
X268215Y-156000D01*
X268384Y-155915D01*
X268553Y-155746D01*
X269112Y-155831D02*
X269027Y-155915D01*
X269112Y-156000D01*
X269196Y-155915D01*
X269112Y-155831D01*
X243270Y-157146D02*
X243185Y-156976D01*
X243016Y-156807D01*
X242846Y-156722D01*
X242508Y-156722D01*
X242339Y-156807D01*
X242169Y-156976D01*
X242085Y-157146D01*
X242000Y-157400D01*
X242000Y-157823D01*
X242085Y-158077D01*
X242169Y-158246D01*
X242339Y-158415D01*
X242508Y-158500D01*
X242846Y-158500D01*
X243016Y-158415D01*
X243185Y-158246D01*
X243270Y-158077D01*
X243769Y-156722D02*
X243769Y-158500D01*
X243769Y-157654D02*
X244023Y-157400D01*
X244192Y-157315D01*
X244446Y-157315D01*
X244616Y-157400D01*
X244700Y-157654D01*
X244700Y-158500D01*
X246182Y-157315D02*
X246182Y-158500D01*
X246182Y-157569D02*
X246012Y-157400D01*
X245843Y-157315D01*
X245589Y-157315D01*
X245420Y-157400D01*
X245251Y-157569D01*
X245166Y-157823D01*
X245166Y-157992D01*
X245251Y-158246D01*
X245420Y-158415D01*
X245589Y-158500D01*
X245843Y-158500D01*
X246012Y-158415D01*
X246182Y-158246D01*
X246656Y-157315D02*
X246656Y-158500D01*
X246656Y-157654D02*
X246910Y-157400D01*
X247079Y-157315D01*
X247333Y-157315D01*
X247502Y-157400D01*
X247587Y-157654D01*
X247587Y-158500D01*
X249068Y-156722D02*
X249068Y-158500D01*
X249068Y-157569D02*
X248899Y-157400D01*
X248730Y-157315D01*
X248476Y-157315D01*
X248306Y-157400D01*
X248137Y-157569D01*
X248052Y-157823D01*
X248052Y-157992D01*
X248137Y-158246D01*
X248306Y-158415D01*
X248476Y-158500D01*
X248730Y-158500D01*
X248899Y-158415D01*
X249068Y-158246D01*
X249542Y-156722D02*
X249542Y-158500D01*
X249915Y-157823D02*
X250930Y-157823D01*
X250930Y-157654D01*
X250846Y-157484D01*
X250761Y-157400D01*
X250592Y-157315D01*
X250338Y-157315D01*
X250169Y-157400D01*
X249999Y-157569D01*
X249915Y-157823D01*
X249915Y-157992D01*
X249999Y-158246D01*
X250169Y-158415D01*
X250338Y-158500D01*
X250592Y-158500D01*
X250761Y-158415D01*
X250930Y-158246D01*
X251311Y-157315D02*
X251311Y-158500D01*
X251311Y-157823D02*
X251396Y-157569D01*
X251565Y-157400D01*
X251735Y-157315D01*
X251989Y-157315D01*
X252319Y-158415D02*
X252234Y-158500D01*
X252149Y-158415D01*
X252234Y-158331D01*
X252319Y-158415D01*
X252319Y-158585D01*
X252234Y-158754D01*
X252149Y-158839D01*
X255459Y-158500D02*
X254782Y-156722D01*
X254105Y-158500D01*
X254359Y-157907D02*
X255205Y-157907D01*
X257059Y-156722D02*
X255874Y-158500D01*
X255874Y-156722D02*
X257059Y-156722D01*
X255874Y-158500D02*
X257059Y-158500D01*
X260673Y-156722D02*
X260420Y-156807D01*
X260335Y-156976D01*
X260335Y-157146D01*
X260420Y-157315D01*
X260589Y-157400D01*
X260927Y-157484D01*
X261181Y-157569D01*
X261351Y-157738D01*
X261435Y-157907D01*
X261435Y-158161D01*
X261351Y-158331D01*
X261266Y-158415D01*
X261012Y-158500D01*
X260673Y-158500D01*
X260420Y-158415D01*
X260335Y-158331D01*
X260250Y-158161D01*
X260250Y-157907D01*
X260335Y-157738D01*
X260504Y-157569D01*
X260758Y-157484D01*
X261097Y-157400D01*
X261266Y-157315D01*
X261351Y-157146D01*
X261351Y-156976D01*
X261266Y-156807D01*
X261012Y-156722D01*
X260673Y-156722D01*
X262849Y-156722D02*
X262002Y-156722D01*
X261918Y-157484D01*
X262002Y-157400D01*
X262256Y-157315D01*
X262510Y-157315D01*
X262764Y-157400D01*
X262934Y-157569D01*
X263018Y-157823D01*
X263018Y-157992D01*
X262934Y-158246D01*
X262764Y-158415D01*
X262510Y-158500D01*
X262256Y-158500D01*
X262002Y-158415D01*
X261918Y-158331D01*
X261833Y-158161D01*
X263501Y-157146D02*
X263501Y-157061D01*
X263585Y-156892D01*
X263670Y-156807D01*
X263839Y-156722D01*
X264178Y-156722D01*
X264347Y-156807D01*
X264432Y-156892D01*
X264517Y-157061D01*
X264517Y-157230D01*
X264432Y-157400D01*
X264263Y-157654D01*
X263416Y-158500D01*
X264601Y-158500D01*
X265084Y-157146D02*
X265084Y-157061D01*
X265168Y-156892D01*
X265253Y-156807D01*
X265422Y-156722D01*
X265761Y-156722D01*
X265930Y-156807D01*
X266015Y-156892D01*
X266099Y-157061D01*
X266099Y-157230D01*
X266015Y-157400D01*
X265845Y-157654D01*
X264999Y-158500D01*
X266184Y-158500D01*
X267428Y-156722D02*
X266582Y-157907D01*
X267852Y-157907D01*
X267428Y-156722D02*
X267428Y-158500D01*
X327582Y-161198D02*
X327497Y-161029D01*
X327243Y-160944D01*
X327074Y-160944D01*
X326820Y-161029D01*
X326650Y-161283D01*
X326566Y-161706D01*
X326566Y-162129D01*
X326650Y-162468D01*
X326820Y-162637D01*
X327074Y-162722D01*
X327158Y-162722D01*
X327412Y-162637D01*
X327582Y-162468D01*
X327666Y-162214D01*
X327666Y-162129D01*
X327582Y-161876D01*
X327412Y-161706D01*
X327158Y-161622D01*
X327074Y-161622D01*
X326820Y-161706D01*
X326650Y-161876D01*
X326566Y-162129D01*
X263955Y-160944D02*
X263108Y-160944D01*
X263023Y-161706D01*
X263108Y-161622D01*
X263362Y-161537D01*
X263616Y-161537D01*
X263870Y-161622D01*
X264039Y-161791D01*
X264124Y-162045D01*
X264124Y-162214D01*
X264039Y-162468D01*
X263870Y-162637D01*
X263616Y-162722D01*
X263362Y-162722D01*
X263108Y-162637D01*
X263023Y-162553D01*
X262939Y-162383D01*
X200311Y-160944D02*
X199464Y-162129D01*
X200734Y-162129D01*
X200311Y-160944D02*
X200311Y-162722D01*
X135964Y-160944D02*
X136896Y-160944D01*
X136388Y-161622D01*
X136642Y-161622D01*
X136811Y-161706D01*
X136896Y-161791D01*
X136980Y-162045D01*
X136980Y-162214D01*
X136896Y-162468D01*
X136726Y-162637D01*
X136472Y-162722D01*
X136218Y-162722D01*
X135964Y-162637D01*
X135880Y-162553D01*
X135795Y-162383D01*
X72650Y-161368D02*
X72650Y-161283D01*
X72735Y-161114D01*
X72820Y-161029D01*
X72989Y-160944D01*
X73328Y-160944D01*
X73497Y-161029D01*
X73582Y-161114D01*
X73666Y-161283D01*
X73666Y-161452D01*
X73582Y-161622D01*
X73412Y-161876D01*
X72566Y-162722D01*
X73751Y-162722D01*
X9176Y-161283D02*
X9345Y-161198D01*
X9599Y-160944D01*
X9599Y-162722D01*
X-20195Y-134732D02*
X-20195Y-136509D01*
X-20195Y-134732D02*
X-19602Y-134732D01*
X-19348Y-134816D01*
X-19179Y-134986D01*
X-19095Y-135155D01*
X-19010Y-135409D01*
X-19010Y-135832D01*
X-19095Y-136086D01*
X-19179Y-136255D01*
X-19348Y-136425D01*
X-19602Y-136509D01*
X-20195Y-136509D01*
X-18925Y-74957D02*
X-19010Y-74788D01*
X-19179Y-74618D01*
X-19348Y-74534D01*
X-19687Y-74534D01*
X-19856Y-74618D01*
X-20026Y-74788D01*
X-20110Y-74957D01*
X-20195Y-75211D01*
X-20195Y-75634D01*
X-20110Y-75888D01*
X-20026Y-76057D01*
X-19856Y-76227D01*
X-19687Y-76311D01*
X-19348Y-76311D01*
X-19179Y-76227D01*
X-19010Y-76057D01*
X-18925Y-75888D01*
X-20195Y-14209D02*
X-20195Y-15986D01*
X-20195Y-14209D02*
X-19433Y-14209D01*
X-19179Y-14293D01*
X-19095Y-14378D01*
X-19010Y-14547D01*
X-19010Y-14716D01*
X-19095Y-14886D01*
X-19179Y-14970D01*
X-19433Y-15055D01*
X-20195Y-15055D02*
X-19433Y-15055D01*
X-19179Y-15140D01*
X-19095Y-15224D01*
X-19010Y-15394D01*
X-19010Y-15648D01*
X-19095Y-15817D01*
X-19179Y-15902D01*
X-19433Y-15986D01*
X-20195Y-15986D01*
X-18841Y44466D02*
X-19518Y46243D01*
X-20195Y44466D01*
X-19941Y45058D02*
X-19095Y45058D01*
X355725Y-134732D02*
X355725Y-136509D01*
X355725Y-134732D02*
X356318Y-134732D01*
X356572Y-134816D01*
X356741Y-134986D01*
X356825Y-135155D01*
X356910Y-135409D01*
X356910Y-135832D01*
X356825Y-136086D01*
X356741Y-136255D01*
X356572Y-136425D01*
X356318Y-136509D01*
X355725Y-136509D01*
X356995Y-74957D02*
X356910Y-74788D01*
X356741Y-74618D01*
X356572Y-74534D01*
X356233Y-74534D01*
X356064Y-74618D01*
X355894Y-74788D01*
X355810Y-74957D01*
X355725Y-75211D01*
X355725Y-75634D01*
X355810Y-75888D01*
X355894Y-76057D01*
X356064Y-76227D01*
X356233Y-76311D01*
X356572Y-76311D01*
X356741Y-76227D01*
X356910Y-76057D01*
X356995Y-75888D01*
X355725Y-14209D02*
X355725Y-15986D01*
X355725Y-14209D02*
X356487Y-14209D01*
X356741Y-14293D01*
X356825Y-14378D01*
X356910Y-14547D01*
X356910Y-14716D01*
X356825Y-14886D01*
X356741Y-14970D01*
X356487Y-15055D01*
X355725Y-15055D02*
X356487Y-15055D01*
X356741Y-15140D01*
X356825Y-15224D01*
X356910Y-15394D01*
X356910Y-15648D01*
X356825Y-15817D01*
X356741Y-15902D01*
X356487Y-15986D01*
X355725Y-15986D01*
X357079Y44466D02*
X356402Y46243D01*
X355725Y44466D01*
X355979Y45058D02*
X356825Y45058D01*
X327582Y75022D02*
X327497Y75191D01*
X327243Y75276D01*
X327074Y75276D01*
X326820Y75191D01*
X326650Y74937D01*
X326566Y74514D01*
X326566Y74091D01*
X326650Y73752D01*
X326820Y73583D01*
X327074Y73498D01*
X327158Y73498D01*
X327412Y73583D01*
X327582Y73752D01*
X327666Y74006D01*
X327666Y74091D01*
X327582Y74344D01*
X327412Y74514D01*
X327158Y74598D01*
X327074Y74598D01*
X326820Y74514D01*
X326650Y74344D01*
X326566Y74091D01*
X263955Y75276D02*
X263108Y75276D01*
X263023Y74514D01*
X263108Y74598D01*
X263362Y74683D01*
X263616Y74683D01*
X263870Y74598D01*
X264039Y74429D01*
X264124Y74175D01*
X264124Y74006D01*
X264039Y73752D01*
X263870Y73583D01*
X263616Y73498D01*
X263362Y73498D01*
X263108Y73583D01*
X263023Y73667D01*
X262939Y73837D01*
X200311Y75276D02*
X199464Y74091D01*
X200734Y74091D01*
X200311Y75276D02*
X200311Y73498D01*
X135964Y75276D02*
X136896Y75276D01*
X136388Y74598D01*
X136642Y74598D01*
X136811Y74514D01*
X136896Y74429D01*
X136980Y74175D01*
X136980Y74006D01*
X136896Y73752D01*
X136726Y73583D01*
X136472Y73498D01*
X136218Y73498D01*
X135964Y73583D01*
X135880Y73667D01*
X135795Y73837D01*
X72650Y74852D02*
X72650Y74937D01*
X72735Y75106D01*
X72820Y75191D01*
X72989Y75276D01*
X73328Y75276D01*
X73497Y75191D01*
X73582Y75106D01*
X73666Y74937D01*
X73666Y74768D01*
X73582Y74598D01*
X73412Y74344D01*
X72566Y73498D01*
X73751Y73498D01*
X9176Y74937D02*
X9345Y75022D01*
X9599Y75276D01*
X9599Y73498D01*
X335678Y-157358D02*
X335821Y-157287D01*
X336035Y-157073D01*
X336035Y-158572D01*
X336849Y-158429D02*
X336778Y-158501D01*
X336849Y-158572D01*
X336920Y-158501D01*
X336849Y-158429D01*
X337677Y-157073D02*
X337463Y-157144D01*
X337320Y-157358D01*
X337249Y-157715D01*
X337249Y-157930D01*
X337320Y-158287D01*
X337463Y-158501D01*
X337677Y-158572D01*
X337820Y-158572D01*
X338034Y-158501D01*
X338177Y-158287D01*
X338249Y-157930D01*
X338249Y-157715D01*
X338177Y-157358D01*
X338034Y-157144D01*
X337820Y-157073D01*
X337677Y-157073D01*
X339013Y-157073D02*
X338799Y-157144D01*
X338656Y-157358D01*
X338584Y-157715D01*
X338584Y-157930D01*
X338656Y-158287D01*
X338799Y-158501D01*
X339013Y-158572D01*
X339156Y-158572D01*
X339370Y-158501D01*
X339513Y-158287D01*
X339584Y-157930D01*
X339584Y-157715D01*
X339513Y-157358D01*
X339370Y-157144D01*
X339156Y-157073D01*
X339013Y-157073D01*
D29*
X274547Y-138001D02*
X273000Y-138001D01*
X273000Y-140500D01*
X274547Y-140500D01*
X273000Y-139191D02*
X273952Y-139191D01*
X276511Y-138001D02*
X274964Y-138001D01*
X274964Y-140500D01*
X276511Y-140500D01*
X274964Y-139191D02*
X275916Y-139191D01*
X276928Y-138001D02*
X276928Y-140500D01*
X276928Y-138001D02*
X277999Y-138001D01*
X278356Y-138120D01*
X278475Y-138239D01*
X278594Y-138477D01*
X278594Y-138715D01*
X278475Y-138953D01*
X278356Y-139072D01*
X277999Y-139191D01*
X276928Y-139191D01*
X277761Y-139191D02*
X278594Y-140500D01*
X281058Y-140500D02*
X280106Y-138001D01*
X279153Y-140500D01*
X279511Y-139667D02*
X280701Y-139667D01*
X281641Y-138001D02*
X281641Y-140500D01*
X281641Y-138001D02*
X282593Y-140500D01*
X283545Y-138001D02*
X282593Y-140500D01*
X283545Y-138001D02*
X283545Y-140500D01*
X286223Y-138001D02*
X286223Y-140500D01*
X286223Y-138001D02*
X287057Y-138001D01*
X287414Y-138120D01*
X287652Y-138358D01*
X287771Y-138596D01*
X287890Y-138953D01*
X287890Y-139548D01*
X287771Y-139905D01*
X287652Y-140143D01*
X287414Y-140381D01*
X287057Y-140500D01*
X286223Y-140500D01*
X289996Y-138001D02*
X288449Y-138001D01*
X288449Y-140500D01*
X289996Y-140500D01*
X288449Y-139191D02*
X289401Y-139191D01*
X290413Y-138001D02*
X290413Y-140500D01*
X290413Y-138001D02*
X291365Y-140500D01*
X292317Y-138001D02*
X291365Y-140500D01*
X292317Y-138001D02*
X292317Y-140500D01*
X293746Y-138001D02*
X293508Y-138120D01*
X293269Y-138358D01*
X293150Y-138596D01*
X293031Y-138953D01*
X293031Y-139548D01*
X293150Y-139905D01*
X293269Y-140143D01*
X293508Y-140381D01*
X293746Y-140500D01*
X294222Y-140500D01*
X294460Y-140381D01*
X294698Y-140143D01*
X294817Y-139905D01*
X294936Y-139548D01*
X294936Y-138953D01*
X294817Y-138596D01*
X294698Y-138358D01*
X294460Y-138120D01*
X294222Y-138001D01*
X293746Y-138001D01*
X297483Y-138001D02*
X297483Y-140500D01*
X297483Y-138001D02*
X299030Y-138001D01*
X297483Y-139191D02*
X298435Y-139191D01*
X300030Y-138001D02*
X299792Y-138120D01*
X299554Y-138358D01*
X299435Y-138596D01*
X299316Y-138953D01*
X299316Y-139548D01*
X299435Y-139905D01*
X299554Y-140143D01*
X299792Y-140381D01*
X300030Y-140500D01*
X300506Y-140500D01*
X300744Y-140381D01*
X300982Y-140143D01*
X301101Y-139905D01*
X301220Y-139548D01*
X301220Y-138953D01*
X301101Y-138596D01*
X300982Y-138358D01*
X300744Y-138120D01*
X300506Y-138001D01*
X300030Y-138001D01*
X301803Y-138001D02*
X301803Y-140500D01*
X301803Y-138001D02*
X302875Y-138001D01*
X303232Y-138120D01*
X303351Y-138239D01*
X303470Y-138477D01*
X303470Y-138715D01*
X303351Y-138953D01*
X303232Y-139072D01*
X302875Y-139191D01*
X301803Y-139191D01*
X302637Y-139191D02*
X303470Y-140500D01*
X305993Y-138001D02*
X305993Y-140500D01*
X305993Y-138001D02*
X307540Y-138001D01*
X305993Y-139191D02*
X306945Y-139191D01*
X307826Y-138001D02*
X307826Y-140500D01*
X309897Y-138001D02*
X308350Y-138001D01*
X308350Y-140500D01*
X309897Y-140500D01*
X308350Y-139191D02*
X309302Y-139191D01*
X310313Y-138001D02*
X310313Y-140500D01*
X311742Y-140500D01*
X312015Y-138001D02*
X312015Y-140500D01*
X312015Y-138001D02*
X312849Y-138001D01*
X313206Y-138120D01*
X313444Y-138358D01*
X313563Y-138596D01*
X313682Y-138953D01*
X313682Y-139548D01*
X313563Y-139905D01*
X313444Y-140143D01*
X313206Y-140381D01*
X312849Y-140500D01*
X312015Y-140500D01*
X318109Y-140500D02*
X317157Y-138001D01*
X316205Y-140500D01*
X316562Y-139667D02*
X317752Y-139667D01*
X318693Y-139310D02*
X319764Y-139310D01*
X320121Y-139191D01*
X320240Y-139072D01*
X320359Y-138834D01*
X320359Y-138477D01*
X320240Y-138239D01*
X320121Y-138120D01*
X319764Y-138001D01*
X318693Y-138001D01*
X318693Y-140500D01*
X320918Y-139310D02*
X321990Y-139310D01*
X322347Y-139191D01*
X322466Y-139072D01*
X322585Y-138834D01*
X322585Y-138477D01*
X322466Y-138239D01*
X322347Y-138120D01*
X321990Y-138001D01*
X320918Y-138001D01*
X320918Y-140500D01*
X324810Y-138358D02*
X324572Y-138120D01*
X324215Y-138001D01*
X323739Y-138001D01*
X323382Y-138120D01*
X323144Y-138358D01*
X323144Y-138596D01*
X323263Y-138834D01*
X323382Y-138953D01*
X323620Y-139072D01*
X324334Y-139310D01*
X324572Y-139429D01*
X324691Y-139548D01*
X324810Y-139786D01*
X324810Y-140143D01*
X324572Y-140381D01*
X324215Y-140500D01*
X323739Y-140500D01*
X323382Y-140381D01*
X323144Y-140143D01*
X121390Y-98963D02*
X219916Y-98963D01*
X121390Y-110393D02*
X219916Y-110393D01*
X121390Y-114203D02*
X219916Y-114203D01*
X219916Y-95153D01*
X121390Y-95153D02*
X219916Y-95153D01*
X121390Y-114203D02*
X121390Y-95153D01*
X200135Y-114203D02*
X200135Y-95153D01*
X187285Y-114203D02*
X187285Y-95153D01*
X153107Y-114203D02*
X153107Y-95153D01*
X135383Y-114203D02*
X135383Y-95153D01*
D31*
X331000Y-159420D02*
X331000Y-155000D01*
X318000Y-155000D02*
X318000Y-149000D01*
X272000Y-143000D02*
X353820Y-143000D01*
X300000Y-159420D02*
X300000Y-143000D01*
X338500Y-159420D02*
X338500Y-149000D01*
X272000Y-149000D02*
X353820Y-149000D01*
X272000Y-155000D02*
X353820Y-155000D01*
X203960Y-159420D02*
X239520Y-159420D01*
X41400Y-164500D02*
X41400Y-159420D01*
X-22100Y-104175D02*
X-17020Y-104175D01*
X-22100Y-43850D02*
X-17020Y-43850D01*
X-22100Y16475D02*
X-17020Y16475D01*
X-17020Y-159420D02*
X353820Y-159420D01*
X-17020Y-159420D02*
X-17020Y71720D01*
X-22100Y-164500D02*
X358900Y-164500D01*
X-22100Y-164500D02*
X-22100Y76800D01*
X353820Y-159420D02*
X353820Y-128940D01*
X104900Y-164500D02*
X104900Y-159420D01*
X168400Y-164500D02*
X168400Y-159420D01*
X231900Y-164500D02*
X231900Y-159420D01*
X295400Y-164500D02*
X295400Y-159420D01*
X353820Y-104175D02*
X358900Y-104175D01*
X353820Y-43850D02*
X358900Y-43850D01*
X353820Y16475D02*
X358900Y16475D01*
X358900Y-164500D02*
X358900Y76800D01*
X353820Y-159420D02*
X353820Y71720D01*
X41400Y71720D02*
X41400Y76800D01*
X-22100Y76800D02*
X358900Y76800D01*
X-17020Y71720D02*
X353820Y71720D01*
X104900Y71720D02*
X104900Y76800D01*
X168400Y71720D02*
X168400Y76800D01*
X231900Y71720D02*
X231900Y76800D01*
X295400Y71720D02*
X295400Y76800D01*
X238000Y-134000D02*
X353820Y-134000D01*
X238000Y-159420D02*
X238000Y-134000D01*
X272000Y-159420D02*
X272000Y-134000D01*
X331750Y-155607D02*
X331750Y-156750D01*
X331750Y-155607D02*
X332240Y-155607D01*
X332403Y-155662D01*
X332457Y-155716D01*
X332512Y-155825D01*
X332512Y-155934D01*
X332457Y-156043D01*
X332403Y-156097D01*
X332240Y-156151D01*
X331750Y-156151D01*
X332131Y-156151D02*
X332512Y-156750D01*
X333475Y-155607D02*
X332768Y-155607D01*
X332768Y-156750D01*
X333475Y-156750D01*
X332768Y-156151D02*
X333203Y-156151D01*
X333665Y-155607D02*
X334101Y-156750D01*
X334536Y-155607D02*
X334101Y-156750D01*
X334737Y-155988D02*
X334683Y-156043D01*
X334737Y-156097D01*
X334792Y-156043D01*
X334737Y-155988D01*
X334737Y-156641D02*
X334683Y-156696D01*
X334737Y-156750D01*
X334792Y-156696D01*
X334737Y-156641D01*
X301000Y-155357D02*
X301000Y-156500D01*
X301653Y-156500D01*
X302649Y-156500D02*
X302214Y-155357D01*
X301778Y-156500D01*
X301941Y-156119D02*
X302486Y-156119D01*
X302915Y-155357D02*
X303351Y-155901D01*
X303351Y-156500D01*
X303786Y-155357D02*
X303351Y-155901D01*
X304641Y-155357D02*
X303933Y-155357D01*
X303933Y-156500D01*
X304641Y-156500D01*
X303933Y-155901D02*
X304368Y-155901D01*
X304831Y-155357D02*
X304831Y-156500D01*
X304831Y-155357D02*
X305321Y-155357D01*
X305484Y-155412D01*
X305538Y-155466D01*
X305593Y-155575D01*
X305593Y-155684D01*
X305538Y-155793D01*
X305484Y-155847D01*
X305321Y-155901D01*
X304831Y-155901D01*
X305212Y-155901D02*
X305593Y-156500D01*
X306746Y-155357D02*
X306746Y-156500D01*
X306746Y-155357D02*
X307508Y-156500D01*
X307508Y-155357D02*
X307508Y-156500D01*
X308695Y-156500D02*
X308259Y-155357D01*
X307824Y-156500D01*
X307987Y-156119D02*
X308531Y-156119D01*
X308961Y-155357D02*
X308961Y-156500D01*
X308961Y-155357D02*
X309397Y-156500D01*
X309832Y-155357D02*
X309397Y-156500D01*
X309832Y-155357D02*
X309832Y-156500D01*
X310866Y-155357D02*
X310158Y-155357D01*
X310158Y-156500D01*
X310866Y-156500D01*
X310158Y-155901D02*
X310594Y-155901D01*
X311111Y-155738D02*
X311056Y-155793D01*
X311111Y-155847D01*
X311165Y-155793D01*
X311111Y-155738D01*
X311111Y-156391D02*
X311056Y-156446D01*
X311111Y-156500D01*
X311165Y-156446D01*
X311111Y-156391D01*
X339700Y-149857D02*
X339700Y-151000D01*
X339700Y-149857D02*
X340081Y-149857D01*
X340244Y-149912D01*
X340353Y-150020D01*
X340407Y-150129D01*
X340462Y-150293D01*
X340462Y-150565D01*
X340407Y-150728D01*
X340353Y-150837D01*
X340244Y-150946D01*
X340081Y-151000D01*
X339700Y-151000D01*
X341588Y-151000D02*
X341153Y-149857D01*
X340718Y-151000D01*
X340881Y-150619D02*
X341425Y-150619D01*
X342236Y-149857D02*
X342236Y-151000D01*
X341855Y-149857D02*
X342617Y-149857D01*
X343460Y-149857D02*
X342753Y-149857D01*
X342753Y-151000D01*
X343460Y-151000D01*
X342753Y-150401D02*
X343188Y-150401D01*
X343705Y-150238D02*
X343651Y-150293D01*
X343705Y-150347D01*
X343760Y-150293D01*
X343705Y-150238D01*
X343705Y-150891D02*
X343651Y-150946D01*
X343705Y-151000D01*
X343760Y-150946D01*
X343705Y-150891D01*
X301000Y-149857D02*
X301000Y-151000D01*
X301000Y-149857D02*
X301490Y-149857D01*
X301653Y-149912D01*
X301707Y-149966D01*
X301762Y-150075D01*
X301762Y-150184D01*
X301707Y-150293D01*
X301653Y-150347D01*
X301490Y-150401D01*
X301000Y-150401D02*
X301490Y-150401D01*
X301653Y-150456D01*
X301707Y-150510D01*
X301762Y-150619D01*
X301762Y-150782D01*
X301707Y-150891D01*
X301653Y-150946D01*
X301490Y-151000D01*
X301000Y-151000D01*
X302344Y-149857D02*
X302235Y-149912D01*
X302126Y-150020D01*
X302072Y-150129D01*
X302018Y-150293D01*
X302018Y-150565D01*
X302072Y-150728D01*
X302126Y-150837D01*
X302235Y-150946D01*
X302344Y-151000D01*
X302562Y-151000D01*
X302671Y-150946D01*
X302779Y-150837D01*
X302834Y-150728D01*
X302888Y-150565D01*
X302888Y-150293D01*
X302834Y-150129D01*
X302779Y-150020D01*
X302671Y-149912D01*
X302562Y-149857D01*
X302344Y-149857D01*
X304026Y-151000D02*
X303590Y-149857D01*
X303155Y-151000D01*
X303318Y-150619D02*
X303862Y-150619D01*
X304292Y-149857D02*
X304292Y-151000D01*
X304292Y-149857D02*
X304782Y-149857D01*
X304945Y-149912D01*
X305000Y-149966D01*
X305054Y-150075D01*
X305054Y-150184D01*
X305000Y-150293D01*
X304945Y-150347D01*
X304782Y-150401D01*
X304292Y-150401D01*
X304673Y-150401D02*
X305054Y-151000D01*
X305310Y-149857D02*
X305310Y-151000D01*
X305310Y-149857D02*
X305691Y-149857D01*
X305854Y-149912D01*
X305963Y-150020D01*
X306017Y-150129D01*
X306072Y-150293D01*
X306072Y-150565D01*
X306017Y-150728D01*
X305963Y-150837D01*
X305854Y-150946D01*
X305691Y-151000D01*
X305310Y-151000D01*
X307225Y-149857D02*
X307225Y-151000D01*
X307225Y-149857D02*
X307987Y-151000D01*
X307987Y-149857D02*
X307987Y-151000D01*
X308303Y-149857D02*
X308303Y-150673D01*
X308357Y-150837D01*
X308466Y-150946D01*
X308629Y-151000D01*
X308738Y-151000D01*
X308901Y-150946D01*
X309010Y-150837D01*
X309065Y-150673D01*
X309065Y-149857D01*
X309380Y-149857D02*
X309380Y-151000D01*
X309380Y-149857D02*
X309816Y-151000D01*
X310251Y-149857D02*
X309816Y-151000D01*
X310251Y-149857D02*
X310251Y-151000D01*
X310577Y-149857D02*
X310577Y-151000D01*
X310577Y-149857D02*
X311067Y-149857D01*
X311230Y-149912D01*
X311285Y-149966D01*
X311339Y-150075D01*
X311339Y-150184D01*
X311285Y-150293D01*
X311230Y-150347D01*
X311067Y-150401D01*
X310577Y-150401D02*
X311067Y-150401D01*
X311230Y-150456D01*
X311285Y-150510D01*
X311339Y-150619D01*
X311339Y-150782D01*
X311285Y-150891D01*
X311230Y-150946D01*
X311067Y-151000D01*
X310577Y-151000D01*
X312302Y-149857D02*
X311595Y-149857D01*
X311595Y-151000D01*
X312302Y-151000D01*
X311595Y-150401D02*
X312030Y-150401D01*
X312493Y-149857D02*
X312493Y-151000D01*
X312493Y-149857D02*
X312983Y-149857D01*
X313146Y-149912D01*
X313200Y-149966D01*
X313255Y-150075D01*
X313255Y-150184D01*
X313200Y-150293D01*
X313146Y-150347D01*
X312983Y-150401D01*
X312493Y-150401D01*
X312874Y-150401D02*
X313255Y-151000D01*
X313565Y-150238D02*
X313510Y-150293D01*
X313565Y-150347D01*
X313619Y-150293D01*
X313565Y-150238D01*
X313565Y-150891D02*
X313510Y-150946D01*
X313565Y-151000D01*
X313619Y-150946D01*
X313565Y-150891D01*
X273000Y-156206D02*
X273490Y-156206D01*
X273653Y-156151D01*
X273707Y-156097D01*
X273762Y-155988D01*
X273762Y-155825D01*
X273707Y-155716D01*
X273653Y-155662D01*
X273490Y-155607D01*
X273000Y-155607D01*
X273000Y-156750D01*
X274834Y-155879D02*
X274779Y-155770D01*
X274671Y-155662D01*
X274562Y-155607D01*
X274344Y-155607D01*
X274235Y-155662D01*
X274126Y-155770D01*
X274072Y-155879D01*
X274018Y-156043D01*
X274018Y-156315D01*
X274072Y-156478D01*
X274126Y-156587D01*
X274235Y-156696D01*
X274344Y-156750D01*
X274562Y-156750D01*
X274671Y-156696D01*
X274779Y-156587D01*
X274834Y-156478D01*
X275155Y-155607D02*
X275155Y-156750D01*
X275155Y-155607D02*
X275645Y-155607D01*
X275808Y-155662D01*
X275862Y-155716D01*
X275917Y-155825D01*
X275917Y-155934D01*
X275862Y-156043D01*
X275808Y-156097D01*
X275645Y-156151D01*
X275155Y-156151D02*
X275645Y-156151D01*
X275808Y-156206D01*
X275862Y-156260D01*
X275917Y-156369D01*
X275917Y-156532D01*
X275862Y-156641D01*
X275808Y-156696D01*
X275645Y-156750D01*
X275155Y-156750D01*
X277070Y-155607D02*
X277070Y-156750D01*
X277070Y-155607D02*
X277778Y-155607D01*
X277070Y-156151D02*
X277506Y-156151D01*
X277908Y-155607D02*
X277908Y-156750D01*
X278148Y-155607D02*
X278148Y-156750D01*
X278801Y-156750D01*
X279633Y-155607D02*
X278926Y-155607D01*
X278926Y-156750D01*
X279633Y-156750D01*
X278926Y-156151D02*
X279361Y-156151D01*
X280722Y-155607D02*
X280722Y-156750D01*
X280722Y-155607D02*
X281484Y-156750D01*
X281484Y-155607D02*
X281484Y-156750D01*
X282670Y-156750D02*
X282235Y-155607D01*
X281799Y-156750D01*
X281962Y-156369D02*
X282507Y-156369D01*
X282937Y-155607D02*
X282937Y-156750D01*
X282937Y-155607D02*
X283372Y-156750D01*
X283807Y-155607D02*
X283372Y-156750D01*
X283807Y-155607D02*
X283807Y-156750D01*
X284841Y-155607D02*
X284134Y-155607D01*
X284134Y-156750D01*
X284841Y-156750D01*
X284134Y-156151D02*
X284569Y-156151D01*
X285086Y-155988D02*
X285032Y-156043D01*
X285086Y-156097D01*
X285140Y-156043D01*
X285086Y-155988D01*
X285086Y-156641D02*
X285032Y-156696D01*
X285086Y-156750D01*
X285140Y-156696D01*
X285086Y-156641D01*
X273000Y-144456D02*
X273490Y-144456D01*
X273653Y-144401D01*
X273707Y-144347D01*
X273762Y-144238D01*
X273762Y-144075D01*
X273707Y-143966D01*
X273653Y-143912D01*
X273490Y-143857D01*
X273000Y-143857D01*
X273000Y-145000D01*
X274834Y-144129D02*
X274779Y-144020D01*
X274671Y-143912D01*
X274562Y-143857D01*
X274344Y-143857D01*
X274235Y-143912D01*
X274126Y-144020D01*
X274072Y-144129D01*
X274018Y-144293D01*
X274018Y-144565D01*
X274072Y-144728D01*
X274126Y-144837D01*
X274235Y-144946D01*
X274344Y-145000D01*
X274562Y-145000D01*
X274671Y-144946D01*
X274779Y-144837D01*
X274834Y-144728D01*
X275155Y-143857D02*
X275155Y-145000D01*
X275155Y-143857D02*
X275645Y-143857D01*
X275808Y-143912D01*
X275862Y-143966D01*
X275917Y-144075D01*
X275917Y-144184D01*
X275862Y-144293D01*
X275808Y-144347D01*
X275645Y-144401D01*
X275155Y-144401D02*
X275645Y-144401D01*
X275808Y-144456D01*
X275862Y-144510D01*
X275917Y-144619D01*
X275917Y-144782D01*
X275862Y-144891D01*
X275808Y-144946D01*
X275645Y-145000D01*
X275155Y-145000D01*
X277070Y-143857D02*
X277070Y-145000D01*
X277070Y-143857D02*
X277451Y-143857D01*
X277615Y-143912D01*
X277723Y-144020D01*
X277778Y-144129D01*
X277832Y-144293D01*
X277832Y-144565D01*
X277778Y-144728D01*
X277723Y-144837D01*
X277615Y-144946D01*
X277451Y-145000D01*
X277070Y-145000D01*
X278795Y-143857D02*
X278088Y-143857D01*
X278088Y-145000D01*
X278795Y-145000D01*
X278088Y-144401D02*
X278523Y-144401D01*
X279748Y-144020D02*
X279639Y-143912D01*
X279476Y-143857D01*
X279258Y-143857D01*
X279095Y-143912D01*
X278986Y-144020D01*
X278986Y-144129D01*
X279040Y-144238D01*
X279095Y-144293D01*
X279204Y-144347D01*
X279530Y-144456D01*
X279639Y-144510D01*
X279693Y-144565D01*
X279748Y-144673D01*
X279748Y-144837D01*
X279639Y-144946D01*
X279476Y-145000D01*
X279258Y-145000D01*
X279095Y-144946D01*
X278986Y-144837D01*
X280003Y-143857D02*
X280003Y-145000D01*
X281059Y-144129D02*
X281005Y-144020D01*
X280896Y-143912D01*
X280787Y-143857D01*
X280569Y-143857D01*
X280461Y-143912D01*
X280352Y-144020D01*
X280297Y-144129D01*
X280243Y-144293D01*
X280243Y-144565D01*
X280297Y-144728D01*
X280352Y-144837D01*
X280461Y-144946D01*
X280569Y-145000D01*
X280787Y-145000D01*
X280896Y-144946D01*
X281005Y-144837D01*
X281059Y-144728D01*
X281059Y-144565D01*
X280787Y-144565D02*
X281059Y-144565D01*
X281320Y-143857D02*
X281320Y-145000D01*
X281320Y-143857D02*
X282082Y-145000D01*
X282082Y-143857D02*
X282082Y-145000D01*
X283105Y-143857D02*
X282398Y-143857D01*
X282398Y-145000D01*
X283105Y-145000D01*
X282398Y-144401D02*
X282833Y-144401D01*
X283296Y-143857D02*
X283296Y-145000D01*
X283296Y-143857D02*
X283785Y-143857D01*
X283949Y-143912D01*
X284003Y-143966D01*
X284058Y-144075D01*
X284058Y-144184D01*
X284003Y-144293D01*
X283949Y-144347D01*
X283785Y-144401D01*
X283296Y-144401D01*
X283677Y-144401D02*
X284058Y-145000D01*
X284368Y-144238D02*
X284313Y-144293D01*
X284368Y-144347D01*
X284422Y-144293D01*
X284368Y-144238D01*
X284368Y-144891D02*
X284313Y-144946D01*
X284368Y-145000D01*
X284422Y-144946D01*
X284368Y-144891D01*
X273381Y-135357D02*
X273381Y-136500D01*
X273000Y-135357D02*
X273762Y-135357D01*
X273898Y-135357D02*
X273898Y-136500D01*
X274518Y-135357D02*
X274518Y-136500D01*
X274137Y-135357D02*
X274899Y-135357D01*
X275035Y-135357D02*
X275035Y-136500D01*
X275688Y-136500D01*
X276521Y-135357D02*
X275813Y-135357D01*
X275813Y-136500D01*
X276521Y-136500D01*
X275813Y-135901D02*
X276249Y-135901D01*
X276766Y-135738D02*
X276711Y-135793D01*
X276766Y-135847D01*
X276820Y-135793D01*
X276766Y-135738D01*
X276766Y-136391D02*
X276711Y-136446D01*
X276766Y-136500D01*
X276820Y-136446D01*
X276766Y-136391D01*
X273707Y-149857D02*
X273000Y-149857D01*
X273000Y-151000D01*
X273707Y-151000D01*
X273000Y-150401D02*
X273435Y-150401D01*
X273898Y-149857D02*
X273898Y-151000D01*
X273898Y-149857D02*
X274660Y-151000D01*
X274660Y-149857D02*
X274660Y-151000D01*
X275792Y-150129D02*
X275737Y-150020D01*
X275628Y-149912D01*
X275520Y-149857D01*
X275302Y-149857D01*
X275193Y-149912D01*
X275084Y-150020D01*
X275030Y-150129D01*
X274975Y-150293D01*
X274975Y-150565D01*
X275030Y-150728D01*
X275084Y-150837D01*
X275193Y-150946D01*
X275302Y-151000D01*
X275520Y-151000D01*
X275628Y-150946D01*
X275737Y-150837D01*
X275792Y-150728D01*
X275792Y-150565D01*
X275520Y-150565D02*
X275792Y-150565D01*
X276053Y-149857D02*
X276053Y-151000D01*
X276292Y-149857D02*
X276292Y-151000D01*
X276292Y-149857D02*
X277054Y-151000D01*
X277054Y-149857D02*
X277054Y-151000D01*
X278077Y-149857D02*
X277370Y-149857D01*
X277370Y-151000D01*
X278077Y-151000D01*
X277370Y-150401D02*
X277805Y-150401D01*
X278975Y-149857D02*
X278268Y-149857D01*
X278268Y-151000D01*
X278975Y-151000D01*
X278268Y-150401D02*
X278703Y-150401D01*
X279165Y-149857D02*
X279165Y-151000D01*
X279165Y-149857D02*
X279655Y-149857D01*
X279818Y-149912D01*
X279873Y-149966D01*
X279927Y-150075D01*
X279927Y-150184D01*
X279873Y-150293D01*
X279818Y-150347D01*
X279655Y-150401D01*
X279165Y-150401D01*
X279546Y-150401D02*
X279927Y-151000D01*
X280237Y-150238D02*
X280183Y-150293D01*
X280237Y-150347D01*
X280292Y-150293D01*
X280237Y-150238D01*
X280237Y-150891D02*
X280183Y-150946D01*
X280237Y-151000D01*
X280292Y-150946D01*
X280237Y-150891D01*
X273000Y-158206D02*
X273490Y-158206D01*
X273653Y-158151D01*
X273707Y-158097D01*
X273762Y-157988D01*
X273762Y-157825D01*
X273707Y-157716D01*
X273653Y-157662D01*
X273490Y-157607D01*
X273000Y-157607D01*
X273000Y-158750D01*
X274888Y-158750D02*
X274453Y-157607D01*
X274018Y-158750D01*
X274181Y-158369D02*
X274725Y-158369D01*
X275155Y-157607D02*
X275155Y-158750D01*
X275155Y-157607D02*
X275917Y-158750D01*
X275917Y-157607D02*
X275917Y-158750D01*
X276940Y-157607D02*
X276232Y-157607D01*
X276232Y-158750D01*
X276940Y-158750D01*
X276232Y-158151D02*
X276668Y-158151D01*
X277130Y-157607D02*
X277130Y-158750D01*
X277783Y-158750D01*
X277963Y-158641D02*
X277908Y-158696D01*
X277963Y-158750D01*
X278017Y-158696D01*
X277963Y-158641D01*
X278268Y-157988D02*
X278268Y-159131D01*
X278268Y-158151D02*
X278376Y-158043D01*
X278485Y-157988D01*
X278648Y-157988D01*
X278757Y-158043D01*
X278866Y-158151D01*
X278921Y-158315D01*
X278921Y-158423D01*
X278866Y-158587D01*
X278757Y-158696D01*
X278648Y-158750D01*
X278485Y-158750D01*
X278376Y-158696D01*
X278268Y-158587D01*
X279818Y-158151D02*
X279710Y-158043D01*
X279601Y-157988D01*
X279438Y-157988D01*
X279329Y-158043D01*
X279220Y-158151D01*
X279165Y-158315D01*
X279165Y-158423D01*
X279220Y-158587D01*
X279329Y-158696D01*
X279438Y-158750D01*
X279601Y-158750D01*
X279710Y-158696D01*
X279818Y-158587D01*
X280063Y-157607D02*
X280063Y-158750D01*
X280063Y-158151D02*
X280172Y-158043D01*
X280281Y-157988D01*
X280444Y-157988D01*
X280553Y-158043D01*
X280662Y-158151D01*
X280716Y-158315D01*
X280716Y-158423D01*
X280662Y-158587D01*
X280553Y-158696D01*
X280444Y-158750D01*
X280281Y-158750D01*
X280172Y-158696D01*
X280063Y-158587D01*
X301816Y-144129D02*
X301762Y-144020D01*
X301653Y-143912D01*
X301544Y-143857D01*
X301327Y-143857D01*
X301218Y-143912D01*
X301109Y-144020D01*
X301054Y-144129D01*
X301000Y-144293D01*
X301000Y-144565D01*
X301054Y-144728D01*
X301109Y-144837D01*
X301218Y-144946D01*
X301327Y-145000D01*
X301544Y-145000D01*
X301653Y-144946D01*
X301762Y-144837D01*
X301816Y-144728D01*
X301816Y-144565D01*
X301544Y-144565D02*
X301816Y-144565D01*
X302785Y-143857D02*
X302077Y-143857D01*
X302077Y-145000D01*
X302785Y-145000D01*
X302077Y-144401D02*
X302513Y-144401D01*
X302975Y-143857D02*
X302975Y-145000D01*
X302975Y-143857D02*
X303465Y-143857D01*
X303628Y-143912D01*
X303683Y-143966D01*
X303737Y-144075D01*
X303737Y-144184D01*
X303683Y-144293D01*
X303628Y-144347D01*
X303465Y-144401D01*
X302975Y-144401D01*
X303356Y-144401D02*
X303737Y-145000D01*
X303993Y-143857D02*
X303993Y-145000D01*
X303993Y-143857D02*
X304483Y-143857D01*
X304646Y-143912D01*
X304700Y-143966D01*
X304755Y-144075D01*
X304755Y-144184D01*
X304700Y-144293D01*
X304646Y-144347D01*
X304483Y-144401D01*
X303993Y-144401D02*
X304483Y-144401D01*
X304646Y-144456D01*
X304700Y-144510D01*
X304755Y-144619D01*
X304755Y-144782D01*
X304700Y-144891D01*
X304646Y-144946D01*
X304483Y-145000D01*
X303993Y-145000D01*
X305718Y-143857D02*
X305011Y-143857D01*
X305011Y-145000D01*
X305718Y-145000D01*
X305011Y-144401D02*
X305446Y-144401D01*
X305908Y-143857D02*
X305908Y-145000D01*
X305908Y-143857D02*
X306398Y-143857D01*
X306561Y-143912D01*
X306616Y-143966D01*
X306670Y-144075D01*
X306670Y-144184D01*
X306616Y-144293D01*
X306561Y-144347D01*
X306398Y-144401D01*
X305908Y-144401D01*
X306289Y-144401D02*
X306670Y-145000D01*
X307824Y-143857D02*
X307824Y-145000D01*
X307824Y-143857D02*
X308531Y-143857D01*
X307824Y-144401D02*
X308259Y-144401D01*
X308662Y-143857D02*
X308662Y-145000D01*
X308901Y-143857D02*
X308901Y-145000D01*
X309554Y-145000D01*
X310387Y-143857D02*
X309680Y-143857D01*
X309680Y-145000D01*
X310387Y-145000D01*
X309680Y-144401D02*
X310115Y-144401D01*
X310632Y-144238D02*
X310577Y-144293D01*
X310632Y-144347D01*
X310686Y-144293D01*
X310632Y-144238D01*
X310632Y-144891D02*
X310577Y-144946D01*
X310632Y-145000D01*
X310686Y-144946D01*
X310632Y-144891D01*
X318750Y-149857D02*
X318750Y-151000D01*
X318750Y-149857D02*
X319131Y-149857D01*
X319294Y-149912D01*
X319403Y-150020D01*
X319457Y-150129D01*
X319512Y-150293D01*
X319512Y-150565D01*
X319457Y-150728D01*
X319403Y-150837D01*
X319294Y-150946D01*
X319131Y-151000D01*
X318750Y-151000D01*
X320094Y-149857D02*
X319985Y-149912D01*
X319876Y-150020D01*
X319822Y-150129D01*
X319768Y-150293D01*
X319768Y-150565D01*
X319822Y-150728D01*
X319876Y-150837D01*
X319985Y-150946D01*
X320094Y-151000D01*
X320312Y-151000D01*
X320421Y-150946D01*
X320529Y-150837D01*
X320584Y-150728D01*
X320638Y-150565D01*
X320638Y-150293D01*
X320584Y-150129D01*
X320529Y-150020D01*
X320421Y-149912D01*
X320312Y-149857D01*
X320094Y-149857D01*
X321721Y-150129D02*
X321667Y-150020D01*
X321558Y-149912D01*
X321449Y-149857D01*
X321231Y-149857D01*
X321123Y-149912D01*
X321014Y-150020D01*
X320959Y-150129D01*
X320905Y-150293D01*
X320905Y-150565D01*
X320959Y-150728D01*
X321014Y-150837D01*
X321123Y-150946D01*
X321231Y-151000D01*
X321449Y-151000D01*
X321558Y-150946D01*
X321667Y-150837D01*
X321721Y-150728D01*
X322042Y-149857D02*
X322042Y-150673D01*
X322097Y-150837D01*
X322205Y-150946D01*
X322369Y-151000D01*
X322478Y-151000D01*
X322641Y-150946D01*
X322750Y-150837D01*
X322804Y-150673D01*
X322804Y-149857D01*
X323120Y-149857D02*
X323120Y-151000D01*
X323120Y-149857D02*
X323555Y-151000D01*
X323990Y-149857D02*
X323555Y-151000D01*
X323990Y-149857D02*
X323990Y-151000D01*
X325024Y-149857D02*
X324317Y-149857D01*
X324317Y-151000D01*
X325024Y-151000D01*
X324317Y-150401D02*
X324752Y-150401D01*
X325215Y-149857D02*
X325215Y-151000D01*
X325215Y-149857D02*
X325977Y-151000D01*
X325977Y-149857D02*
X325977Y-151000D01*
X326673Y-149857D02*
X326673Y-151000D01*
X326292Y-149857D02*
X327054Y-149857D01*
X328088Y-149857D02*
X328088Y-151000D01*
X328088Y-149857D02*
X328850Y-151000D01*
X328850Y-149857D02*
X328850Y-151000D01*
X329165Y-149857D02*
X329165Y-150673D01*
X329220Y-150837D01*
X329329Y-150946D01*
X329492Y-151000D01*
X329601Y-151000D01*
X329764Y-150946D01*
X329873Y-150837D01*
X329927Y-150673D01*
X329927Y-149857D01*
X330243Y-149857D02*
X330243Y-151000D01*
X330243Y-149857D02*
X330678Y-151000D01*
X331114Y-149857D02*
X330678Y-151000D01*
X331114Y-149857D02*
X331114Y-151000D01*
X331440Y-149857D02*
X331440Y-151000D01*
X331440Y-149857D02*
X331930Y-149857D01*
X332093Y-149912D01*
X332147Y-149966D01*
X332202Y-150075D01*
X332202Y-150184D01*
X332147Y-150293D01*
X332093Y-150347D01*
X331930Y-150401D01*
X331440Y-150401D02*
X331930Y-150401D01*
X332093Y-150456D01*
X332147Y-150510D01*
X332202Y-150619D01*
X332202Y-150782D01*
X332147Y-150891D01*
X332093Y-150946D01*
X331930Y-151000D01*
X331440Y-151000D01*
X333165Y-149857D02*
X332458Y-149857D01*
X332458Y-151000D01*
X333165Y-151000D01*
X332458Y-150401D02*
X332893Y-150401D01*
X333356Y-149857D02*
X333356Y-151000D01*
X333356Y-149857D02*
X333845Y-149857D01*
X334009Y-149912D01*
X334063Y-149966D01*
X334117Y-150075D01*
X334117Y-150184D01*
X334063Y-150293D01*
X334009Y-150347D01*
X333845Y-150401D01*
X333356Y-150401D01*
X333736Y-150401D02*
X334117Y-151000D01*
X334428Y-150238D02*
X334373Y-150293D01*
X334428Y-150347D01*
X334482Y-150293D01*
X334428Y-150238D01*
X334428Y-150891D02*
X334373Y-150946D01*
X334428Y-151000D01*
X334482Y-150946D01*
X334428Y-150891D01*
D32*
X255500Y62500D02*
X255500Y67000D01*
X232000Y67000D02*
X232000Y71500D01*
X232000Y67000D02*
X353500Y67000D01*
X243000Y67000D02*
X243000Y71500D01*
X255500Y67000D02*
X255500Y71500D01*
X334000Y67000D02*
X334000Y71500D01*
X232000Y62500D02*
X232000Y67000D01*
X232000Y62500D02*
X353500Y62500D01*
X334000Y62500D02*
X334000Y67000D01*
X243000Y62500D02*
X243000Y67000D01*
X234500Y68500D02*
X234500Y70024D01*
X235262Y70024D01*
X235516Y69770D01*
X235516Y69262D01*
X235262Y69008D01*
X234500Y69008D01*
X235008Y69008D02*
X235516Y68500D01*
X237039Y70024D02*
X236024Y70024D01*
X236024Y68500D01*
X237039Y68500D01*
X236024Y69262D02*
X236531Y69262D01*
X237547Y70024D02*
X237547Y69008D01*
X238055Y68500D01*
X238563Y69008D01*
X238563Y70024D01*
X245516Y70024D02*
X244500Y70024D01*
X244500Y68500D01*
X245516Y68500D01*
X244500Y69262D02*
X245008Y69262D01*
X247039Y69770D02*
X246785Y70024D01*
X246277Y70024D01*
X246024Y69770D01*
X246024Y68754D01*
X246277Y68500D01*
X246785Y68500D01*
X247039Y68754D01*
X248309Y70024D02*
X247801Y70024D01*
X247547Y69770D01*
X247547Y68754D01*
X247801Y68500D01*
X248309Y68500D01*
X248563Y68754D01*
X248563Y69770D01*
X248309Y70024D01*
X292016Y69270D02*
X291762Y69524D01*
X291254Y69524D01*
X291000Y69270D01*
X291000Y68254D01*
X291254Y68000D01*
X291762Y68000D01*
X292016Y68254D01*
X292777Y68000D02*
X293285Y68000D01*
X293539Y68254D01*
X293539Y68762D01*
X293285Y69016D01*
X292777Y69016D01*
X292524Y68762D01*
X292524Y68254D01*
X292777Y68000D01*
X294047Y68000D02*
X294047Y69016D01*
X294301Y69016D01*
X294555Y68762D01*
X294555Y68000D01*
X294555Y68762D01*
X294809Y69016D01*
X295063Y68762D01*
X295063Y68000D01*
X295571Y68000D02*
X295571Y69016D01*
X295824Y69016D01*
X296078Y68762D01*
X296078Y68000D01*
X296078Y68762D01*
X296332Y69016D01*
X296586Y68762D01*
X296586Y68000D01*
X297856Y68000D02*
X297348Y68000D01*
X297094Y68254D01*
X297094Y68762D01*
X297348Y69016D01*
X297856Y69016D01*
X298110Y68762D01*
X298110Y68508D01*
X297094Y68508D01*
X298618Y68000D02*
X298618Y69016D01*
X299379Y69016D01*
X299633Y68762D01*
X299633Y68000D01*
X300395Y69270D02*
X300395Y69016D01*
X300141Y69016D01*
X300649Y69016D01*
X300395Y69016D01*
X300395Y68254D01*
X300649Y68000D01*
X301411Y68000D02*
X302172Y68000D01*
X302426Y68254D01*
X302172Y68508D01*
X301665Y68508D01*
X301411Y68762D01*
X301665Y69016D01*
X302426Y69016D01*
X339000Y69524D02*
X339000Y68000D01*
X339762Y68000D01*
X340016Y68254D01*
X340016Y69270D01*
X339762Y69524D01*
X339000Y69524D01*
X340777Y69016D02*
X341285Y69016D01*
X341539Y68762D01*
X341539Y68000D01*
X340777Y68000D01*
X340524Y68254D01*
X340777Y68508D01*
X341539Y68508D01*
X342301Y69270D02*
X342301Y69016D01*
X342047Y69016D01*
X342555Y69016D01*
X342301Y69016D01*
X342301Y68254D01*
X342555Y68000D01*
X344078Y68000D02*
X343571Y68000D01*
X343317Y68254D01*
X343317Y68762D01*
X343571Y69016D01*
X344078Y69016D01*
X344332Y68762D01*
X344332Y68508D01*
X343317Y68508D01*
X124602Y-104593D02*
G03*
X124602Y-104593I-847J0D01*
G01*
X122909Y-101630D02*
X124602Y-101630D01*
X124602Y-99937D01*
X122909Y-99937D02*
X124602Y-99937D01*
X122909Y-101630D02*
X122909Y-99937D01*
X123756Y-109250D02*
X124602Y-107557D01*
X122909Y-107557D02*
X124602Y-107557D01*
X122909Y-107557D02*
X123756Y-109250D01*
X201278Y-101630D02*
X201278Y-100106D01*
X202039Y-100106D01*
X202293Y-100360D01*
X202293Y-100868D01*
X202039Y-101122D01*
X201278Y-101122D01*
X201785Y-101122D02*
X202293Y-101630D01*
X203055Y-101630D02*
X203563Y-101630D01*
X203817Y-101376D01*
X203817Y-100868D01*
X203563Y-100614D01*
X203055Y-100614D01*
X202801Y-100868D01*
X202801Y-101376D01*
X203055Y-101630D01*
X204325Y-100614D02*
X204325Y-101376D01*
X204579Y-101630D01*
X205340Y-101630D01*
X205340Y-100614D01*
X205848Y-101630D02*
X205848Y-100614D01*
X206610Y-100614D01*
X206864Y-100868D01*
X206864Y-101630D01*
X208387Y-100106D02*
X208387Y-101630D01*
X207626Y-101630D01*
X207372Y-101376D01*
X207372Y-100868D01*
X207626Y-100614D01*
X208387Y-100614D01*
X201278Y-105440D02*
X201278Y-103916D01*
X202039Y-103916D01*
X202293Y-104170D01*
X202293Y-104678D01*
X202039Y-104932D01*
X201278Y-104932D01*
X201785Y-104932D02*
X202293Y-105440D01*
X203055Y-105440D02*
X203563Y-105440D01*
X203817Y-105186D01*
X203817Y-104678D01*
X203563Y-104424D01*
X203055Y-104424D01*
X202801Y-104678D01*
X202801Y-105186D01*
X203055Y-105440D01*
X204325Y-104424D02*
X204325Y-105186D01*
X204579Y-105440D01*
X205340Y-105440D01*
X205340Y-104424D01*
X205848Y-105440D02*
X205848Y-104424D01*
X206610Y-104424D01*
X206864Y-104678D01*
X206864Y-105440D01*
X208387Y-103916D02*
X208387Y-105440D01*
X207626Y-105440D01*
X207372Y-105186D01*
X207372Y-104678D01*
X207626Y-104424D01*
X208387Y-104424D01*
X201278Y-109250D02*
X201278Y-107726D01*
X202039Y-107726D01*
X202293Y-107980D01*
X202293Y-108488D01*
X202039Y-108742D01*
X201278Y-108742D01*
X201785Y-108742D02*
X202293Y-109250D01*
X203055Y-109250D02*
X203563Y-109250D01*
X203817Y-108996D01*
X203817Y-108488D01*
X203563Y-108234D01*
X203055Y-108234D01*
X202801Y-108488D01*
X202801Y-108996D01*
X203055Y-109250D01*
X204325Y-108234D02*
X204325Y-108996D01*
X204579Y-109250D01*
X205340Y-109250D01*
X205340Y-108234D01*
X205848Y-109250D02*
X205848Y-108234D01*
X206610Y-108234D01*
X206864Y-108488D01*
X206864Y-109250D01*
X208387Y-107726D02*
X208387Y-109250D01*
X207626Y-109250D01*
X207372Y-108996D01*
X207372Y-108488D01*
X207626Y-108234D01*
X208387Y-108234D01*
X188428Y-101630D02*
X188428Y-100106D01*
X189190Y-100106D01*
X189444Y-100360D01*
X189444Y-100868D01*
X189190Y-101122D01*
X188428Y-101122D01*
X189952Y-100106D02*
X190968Y-100106D01*
X190460Y-100106D01*
X190460Y-101630D01*
X191475Y-100106D02*
X191475Y-101630D01*
X191475Y-100868D01*
X192491Y-100868D01*
X192491Y-100106D01*
X192491Y-101630D01*
X188428Y-105440D02*
X188428Y-103916D01*
X189444Y-105440D01*
X189444Y-103916D01*
X189952Y-105440D02*
X189952Y-103916D01*
X190714Y-103916D01*
X190968Y-104170D01*
X190968Y-104678D01*
X190714Y-104932D01*
X189952Y-104932D01*
X191475Y-103916D02*
X192491Y-103916D01*
X191983Y-103916D01*
X191983Y-105440D01*
X192999Y-103916D02*
X192999Y-105440D01*
X192999Y-104678D01*
X194015Y-104678D01*
X194015Y-103916D01*
X194015Y-105440D01*
X188428Y-109250D02*
X188428Y-107726D01*
X189190Y-107726D01*
X189444Y-107980D01*
X189444Y-108488D01*
X189190Y-108742D01*
X188428Y-108742D01*
X189952Y-107726D02*
X190968Y-107726D01*
X190460Y-107726D01*
X190460Y-109250D01*
X191475Y-107726D02*
X191475Y-109250D01*
X191475Y-108488D01*
X192491Y-108488D01*
X192491Y-107726D01*
X192491Y-109250D01*
X154250Y-100360D02*
X154504Y-100106D01*
X155012Y-100106D01*
X155266Y-100360D01*
X155266Y-101376D01*
X155012Y-101630D01*
X154504Y-101630D01*
X154250Y-101376D01*
X154250Y-100360D01*
X155774Y-101630D02*
X155774Y-101376D01*
X156027Y-101376D01*
X156027Y-101630D01*
X155774Y-101630D01*
X157043Y-101376D02*
X157297Y-101630D01*
X157805Y-101630D01*
X158059Y-101376D01*
X158059Y-100360D01*
X157805Y-100106D01*
X157297Y-100106D01*
X157043Y-100360D01*
X157043Y-100614D01*
X157297Y-100868D01*
X158059Y-100868D01*
X158567Y-100360D02*
X158821Y-100106D01*
X159328Y-100106D01*
X159582Y-100360D01*
X159582Y-101376D01*
X159328Y-101630D01*
X158821Y-101630D01*
X158567Y-101376D01*
X158567Y-100360D01*
X160090Y-100360D02*
X160344Y-100106D01*
X160852Y-100106D01*
X161106Y-100360D01*
X161106Y-101376D01*
X160852Y-101630D01*
X160344Y-101630D01*
X160090Y-101376D01*
X160090Y-100360D01*
X161614Y-101630D02*
X161614Y-100614D01*
X161868Y-100614D01*
X162121Y-100868D01*
X162121Y-101630D01*
X162121Y-100868D01*
X162375Y-100614D01*
X162629Y-100868D01*
X162629Y-101630D01*
X163137Y-101630D02*
X163137Y-100614D01*
X163391Y-100614D01*
X163645Y-100868D01*
X163645Y-101630D01*
X163645Y-100868D01*
X163899Y-100614D01*
X164153Y-100868D01*
X164153Y-101630D01*
X166692Y-101630D02*
X166184Y-101122D01*
X166184Y-100614D01*
X166692Y-100106D01*
X167454Y-100360D02*
X167708Y-100106D01*
X168215Y-100106D01*
X168469Y-100360D01*
X168469Y-100614D01*
X168215Y-100868D01*
X167962Y-100868D01*
X168215Y-100868D01*
X168469Y-101122D01*
X168469Y-101376D01*
X168215Y-101630D01*
X167708Y-101630D01*
X167454Y-101376D01*
X169993Y-100106D02*
X168977Y-100106D01*
X168977Y-100868D01*
X169485Y-100614D01*
X169739Y-100614D01*
X169993Y-100868D01*
X169993Y-101376D01*
X169739Y-101630D01*
X169231Y-101630D01*
X168977Y-101376D01*
X170501Y-101630D02*
X170501Y-101376D01*
X170755Y-101376D01*
X170755Y-101630D01*
X170501Y-101630D01*
X172532Y-101630D02*
X172532Y-100106D01*
X171770Y-100868D01*
X172786Y-100868D01*
X173294Y-100360D02*
X173548Y-100106D01*
X174056Y-100106D01*
X174310Y-100360D01*
X174310Y-100614D01*
X174056Y-100868D01*
X173802Y-100868D01*
X174056Y-100868D01*
X174310Y-101122D01*
X174310Y-101376D01*
X174056Y-101630D01*
X173548Y-101630D01*
X173294Y-101376D01*
X174817Y-101630D02*
X174817Y-100614D01*
X175071Y-100614D01*
X175325Y-100868D01*
X175325Y-101630D01*
X175325Y-100868D01*
X175579Y-100614D01*
X175833Y-100868D01*
X175833Y-101630D01*
X176341Y-101630D02*
X176849Y-101630D01*
X176595Y-101630D01*
X176595Y-100614D01*
X176341Y-100614D01*
X177610Y-101630D02*
X178118Y-101630D01*
X177864Y-101630D01*
X177864Y-100106D01*
X177610Y-100106D01*
X178880Y-101630D02*
X179388Y-101122D01*
X179388Y-100614D01*
X178880Y-100106D01*
X154250Y-104170D02*
X154504Y-103916D01*
X155012Y-103916D01*
X155266Y-104170D01*
X155266Y-105186D01*
X155012Y-105440D01*
X154504Y-105440D01*
X154250Y-105186D01*
X154250Y-104170D01*
X155774Y-105440D02*
X155774Y-105186D01*
X156027Y-105186D01*
X156027Y-105440D01*
X155774Y-105440D01*
X157043Y-103916D02*
X158059Y-103916D01*
X158059Y-104170D01*
X157043Y-105186D01*
X157043Y-105440D01*
X158567Y-104170D02*
X158821Y-103916D01*
X159328Y-103916D01*
X159582Y-104170D01*
X159582Y-104424D01*
X159328Y-104678D01*
X159582Y-104932D01*
X159582Y-105186D01*
X159328Y-105440D01*
X158821Y-105440D01*
X158567Y-105186D01*
X158567Y-104932D01*
X158821Y-104678D01*
X158567Y-104424D01*
X158567Y-104170D01*
X158821Y-104678D02*
X159328Y-104678D01*
X160090Y-103916D02*
X161106Y-103916D01*
X161106Y-104170D01*
X160090Y-105186D01*
X160090Y-105440D01*
X161614Y-105440D02*
X161614Y-104424D01*
X161868Y-104424D01*
X162121Y-104678D01*
X162121Y-105440D01*
X162121Y-104678D01*
X162375Y-104424D01*
X162629Y-104678D01*
X162629Y-105440D01*
X163137Y-105440D02*
X163137Y-104424D01*
X163391Y-104424D01*
X163645Y-104678D01*
X163645Y-105440D01*
X163645Y-104678D01*
X163899Y-104424D01*
X164153Y-104678D01*
X164153Y-105440D01*
X166692Y-105440D02*
X166184Y-104932D01*
X166184Y-104424D01*
X166692Y-103916D01*
X167454Y-104170D02*
X167708Y-103916D01*
X168215Y-103916D01*
X168469Y-104170D01*
X168469Y-104424D01*
X168215Y-104678D01*
X167962Y-104678D01*
X168215Y-104678D01*
X168469Y-104932D01*
X168469Y-105186D01*
X168215Y-105440D01*
X167708Y-105440D01*
X167454Y-105186D01*
X168977Y-105440D02*
X169485Y-105440D01*
X169231Y-105440D01*
X169231Y-103916D01*
X168977Y-104170D01*
X170247Y-105440D02*
X170247Y-105186D01*
X170501Y-105186D01*
X170501Y-105440D01*
X170247Y-105440D01*
X171516Y-104170D02*
X171770Y-103916D01*
X172278Y-103916D01*
X172532Y-104170D01*
X172532Y-105186D01*
X172278Y-105440D01*
X171770Y-105440D01*
X171516Y-105186D01*
X171516Y-104170D01*
X173040Y-104170D02*
X173294Y-103916D01*
X173802Y-103916D01*
X174056Y-104170D01*
X174056Y-105186D01*
X173802Y-105440D01*
X173294Y-105440D01*
X173040Y-105186D01*
X173040Y-104170D01*
X174563Y-105440D02*
X174563Y-104424D01*
X174817Y-104424D01*
X175071Y-104678D01*
X175071Y-105440D01*
X175071Y-104678D01*
X175325Y-104424D01*
X175579Y-104678D01*
X175579Y-105440D01*
X176087Y-105440D02*
X176595Y-105440D01*
X176341Y-105440D01*
X176341Y-104424D01*
X176087Y-104424D01*
X177357Y-105440D02*
X177864Y-105440D01*
X177610Y-105440D01*
X177610Y-103916D01*
X177357Y-103916D01*
X178626Y-105440D02*
X179134Y-104932D01*
X179134Y-104424D01*
X178626Y-103916D01*
X154250Y-107980D02*
X154504Y-107726D01*
X155012Y-107726D01*
X155266Y-107980D01*
X155266Y-108996D01*
X155012Y-109250D01*
X154504Y-109250D01*
X154250Y-108996D01*
X154250Y-107980D01*
X155774Y-109250D02*
X155774Y-108996D01*
X156027Y-108996D01*
X156027Y-109250D01*
X155774Y-109250D01*
X157043Y-107980D02*
X157297Y-107726D01*
X157805Y-107726D01*
X158059Y-107980D01*
X158059Y-108234D01*
X157805Y-108488D01*
X157551Y-108488D01*
X157805Y-108488D01*
X158059Y-108742D01*
X158059Y-108996D01*
X157805Y-109250D01*
X157297Y-109250D01*
X157043Y-108996D01*
X158567Y-107980D02*
X158821Y-107726D01*
X159328Y-107726D01*
X159582Y-107980D01*
X159582Y-108996D01*
X159328Y-109250D01*
X158821Y-109250D01*
X158567Y-108996D01*
X158567Y-107980D01*
X160090Y-107980D02*
X160344Y-107726D01*
X160852Y-107726D01*
X161106Y-107980D01*
X161106Y-108996D01*
X160852Y-109250D01*
X160344Y-109250D01*
X160090Y-108996D01*
X160090Y-107980D01*
X161614Y-109250D02*
X161614Y-108234D01*
X161868Y-108234D01*
X162121Y-108488D01*
X162121Y-109250D01*
X162121Y-108488D01*
X162375Y-108234D01*
X162629Y-108488D01*
X162629Y-109250D01*
X163137Y-109250D02*
X163137Y-108234D01*
X163391Y-108234D01*
X163645Y-108488D01*
X163645Y-109250D01*
X163645Y-108488D01*
X163899Y-108234D01*
X164153Y-108488D01*
X164153Y-109250D01*
X166692Y-109250D02*
X166184Y-108742D01*
X166184Y-108234D01*
X166692Y-107726D01*
X167454Y-109250D02*
X167962Y-109250D01*
X167708Y-109250D01*
X167708Y-107726D01*
X167454Y-107980D01*
X168723Y-109250D02*
X169231Y-109250D01*
X168977Y-109250D01*
X168977Y-107726D01*
X168723Y-107980D01*
X169993Y-109250D02*
X169993Y-108996D01*
X170247Y-108996D01*
X170247Y-109250D01*
X169993Y-109250D01*
X171262Y-107980D02*
X171516Y-107726D01*
X172024Y-107726D01*
X172278Y-107980D01*
X172278Y-108234D01*
X172024Y-108488D01*
X172278Y-108742D01*
X172278Y-108996D01*
X172024Y-109250D01*
X171516Y-109250D01*
X171262Y-108996D01*
X171262Y-108742D01*
X171516Y-108488D01*
X171262Y-108234D01*
X171262Y-107980D01*
X171516Y-108488D02*
X172024Y-108488D01*
X172786Y-109250D02*
X173294Y-109250D01*
X173040Y-109250D01*
X173040Y-107726D01*
X172786Y-107980D01*
X174056Y-109250D02*
X174056Y-108234D01*
X174310Y-108234D01*
X174563Y-108488D01*
X174563Y-109250D01*
X174563Y-108488D01*
X174817Y-108234D01*
X175071Y-108488D01*
X175071Y-109250D01*
X175579Y-109250D02*
X176087Y-109250D01*
X175833Y-109250D01*
X175833Y-108234D01*
X175579Y-108234D01*
X176849Y-109250D02*
X177357Y-109250D01*
X177103Y-109250D01*
X177103Y-107726D01*
X176849Y-107726D01*
X178118Y-109250D02*
X178626Y-108742D01*
X178626Y-108234D01*
X178118Y-107726D01*
X136526Y-112806D02*
X136779Y-113060D01*
X137287Y-113060D01*
X137541Y-112806D01*
X137541Y-111790D01*
X137287Y-111536D01*
X136779Y-111536D01*
X136526Y-111790D01*
X136526Y-112044D01*
X136779Y-112298D01*
X137541Y-112298D01*
X138049Y-113060D02*
X138557Y-113060D01*
X138303Y-113060D01*
X138303Y-111536D01*
X138049Y-111790D01*
X140334Y-111536D02*
X139319Y-111536D01*
X139319Y-112298D01*
X139826Y-112044D01*
X140080Y-112044D01*
X140334Y-112298D01*
X140334Y-112806D01*
X140080Y-113060D01*
X139573Y-113060D01*
X139319Y-112806D01*
X142366Y-111536D02*
X143381Y-111536D01*
X142873Y-111536D01*
X142873Y-113060D01*
X144143Y-113060D02*
X144651Y-113060D01*
X144905Y-112806D01*
X144905Y-112298D01*
X144651Y-112044D01*
X144143Y-112044D01*
X143889Y-112298D01*
X143889Y-112806D01*
X144143Y-113060D01*
X145667Y-111790D02*
X145667Y-112044D01*
X145413Y-112044D01*
X145920Y-112044D01*
X145667Y-112044D01*
X145667Y-112806D01*
X145920Y-113060D01*
X146936Y-112044D02*
X147444Y-112044D01*
X147698Y-112298D01*
X147698Y-113060D01*
X146936Y-113060D01*
X146682Y-112806D01*
X146936Y-112552D01*
X147698Y-112552D01*
X148206Y-113060D02*
X148714Y-113060D01*
X148460Y-113060D01*
X148460Y-111536D01*
X148206Y-111536D01*
X137541Y-101630D02*
X136526Y-101630D01*
X137541Y-100614D01*
X137541Y-100360D01*
X137287Y-100106D01*
X136779Y-100106D01*
X136526Y-100360D01*
X138811Y-101630D02*
X138811Y-100106D01*
X138049Y-100868D01*
X139065Y-100868D01*
X139573Y-100360D02*
X139826Y-100106D01*
X140334Y-100106D01*
X140588Y-100360D01*
X140588Y-101376D01*
X140334Y-101630D01*
X139826Y-101630D01*
X139573Y-101376D01*
X139573Y-100360D01*
X137541Y-105440D02*
X136526Y-105440D01*
X137541Y-104424D01*
X137541Y-104170D01*
X137287Y-103916D01*
X136779Y-103916D01*
X136526Y-104170D01*
X138049Y-103916D02*
X139065Y-103916D01*
X139065Y-104170D01*
X138049Y-105186D01*
X138049Y-105440D01*
X139573Y-104170D02*
X139826Y-103916D01*
X140334Y-103916D01*
X140588Y-104170D01*
X140588Y-105186D01*
X140334Y-105440D01*
X139826Y-105440D01*
X139573Y-105186D01*
X139573Y-104170D01*
X137287Y-109250D02*
X137287Y-107726D01*
X136526Y-108488D01*
X137541Y-108488D01*
X138049Y-107980D02*
X138303Y-107726D01*
X138811Y-107726D01*
X139065Y-107980D01*
X139065Y-108996D01*
X138811Y-109250D01*
X138303Y-109250D01*
X138049Y-108996D01*
X138049Y-107980D01*
X140588Y-107726D02*
X139573Y-107726D01*
X139573Y-108488D01*
X140080Y-108234D01*
X140334Y-108234D01*
X140588Y-108488D01*
X140588Y-108996D01*
X140334Y-109250D01*
X139826Y-109250D01*
X139573Y-108996D01*
D33*
X342700Y-156300D02*
X352700Y-156300D01*
X342700Y-156800D02*
X342700Y-155800D01*
X352700Y-156800D02*
X352700Y-155800D01*
X342540Y-158000D02*
X352700Y-158000D01*
X342540Y-158635D02*
X342540Y-157365D01*
X352700Y-158635D02*
X352700Y-157365D01*
X345080Y-158635D02*
X345080Y-157365D01*
X347620Y-158635D02*
X347620Y-157365D01*
X350160Y-158635D02*
X350160Y-157365D01*
X347700Y-156600D02*
X347700Y-156000D01*
X329000Y-137000D02*
X353820Y-137000D01*
X353820Y-137000D02*
X353820Y-137000D01*
X329000Y-137000D02*
X329000Y-134000D01*
X272000Y-141500D02*
X353820Y-141500D01*
X339000Y-156033D02*
X339067Y-156000D01*
X339167Y-155900D01*
X339167Y-156600D01*
X339713Y-155900D02*
X339613Y-155933D01*
X339547Y-156033D01*
X339513Y-156200D01*
X339513Y-156300D01*
X339547Y-156467D01*
X339613Y-156567D01*
X339713Y-156600D01*
X339780Y-156600D01*
X339880Y-156567D01*
X339946Y-156467D01*
X339980Y-156300D01*
X339980Y-156200D01*
X339946Y-156033D01*
X339880Y-155933D01*
X339780Y-155900D01*
X339713Y-155900D01*
X340136Y-156133D02*
X340136Y-156600D01*
X340136Y-156267D02*
X340236Y-156167D01*
X340303Y-156133D01*
X340403Y-156133D01*
X340470Y-156167D01*
X340503Y-156267D01*
X340503Y-156600D01*
X340503Y-156267D02*
X340603Y-156167D01*
X340670Y-156133D01*
X340770Y-156133D01*
X340836Y-156167D01*
X340870Y-156267D01*
X340870Y-156600D01*
X341090Y-156133D02*
X341090Y-156600D01*
X341090Y-156267D02*
X341190Y-156167D01*
X341256Y-156133D01*
X341356Y-156133D01*
X341423Y-156167D01*
X341456Y-156267D01*
X341456Y-156600D01*
X341456Y-156267D02*
X341556Y-156167D01*
X341623Y-156133D01*
X341723Y-156133D01*
X341789Y-156167D01*
X341823Y-156267D01*
X341823Y-156600D01*
X339233Y-157600D02*
X338900Y-158067D01*
X339400Y-158067D01*
X339233Y-157600D02*
X339233Y-158300D01*
X339723Y-157600D02*
X339623Y-157633D01*
X339557Y-157733D01*
X339523Y-157900D01*
X339523Y-158000D01*
X339557Y-158167D01*
X339623Y-158267D01*
X339723Y-158300D01*
X339790Y-158300D01*
X339890Y-158267D01*
X339956Y-158167D01*
X339990Y-158000D01*
X339990Y-157900D01*
X339956Y-157733D01*
X339890Y-157633D01*
X339790Y-157600D01*
X339723Y-157600D01*
X340346Y-157600D02*
X340246Y-157633D01*
X340180Y-157733D01*
X340146Y-157900D01*
X340146Y-158000D01*
X340180Y-158167D01*
X340246Y-158267D01*
X340346Y-158300D01*
X340413Y-158300D01*
X340513Y-158267D01*
X340580Y-158167D01*
X340613Y-158000D01*
X340613Y-157900D01*
X340580Y-157733D01*
X340513Y-157633D01*
X340413Y-157600D01*
X340346Y-157600D01*
X340770Y-157833D02*
X340770Y-158300D01*
X340770Y-157967D02*
X340870Y-157867D01*
X340936Y-157833D01*
X341036Y-157833D01*
X341103Y-157867D01*
X341136Y-157967D01*
X341136Y-158300D01*
X341136Y-157967D02*
X341236Y-157867D01*
X341303Y-157833D01*
X341403Y-157833D01*
X341469Y-157867D01*
X341503Y-157967D01*
X341503Y-158300D01*
X341789Y-157600D02*
X341823Y-157633D01*
X341856Y-157600D01*
X341823Y-157567D01*
X341789Y-157600D01*
X341823Y-157833D02*
X341823Y-158300D01*
X341979Y-157600D02*
X341979Y-158300D01*
D34*
X342714Y-134750D02*
X342000Y-135750D01*
X343071Y-135750D01*
X342714Y-134750D02*
X342714Y-136250D01*
X344335Y-134750D02*
X343621Y-136250D01*
X343335Y-134750D02*
X344335Y-134750D01*
X344671Y-134750D02*
X344671Y-136250D01*
X345528Y-136250D01*
X346549Y-134965D02*
X346478Y-134822D01*
X346263Y-134750D01*
X346121Y-134750D01*
X345906Y-134822D01*
X345763Y-135036D01*
X345692Y-135393D01*
X345692Y-135750D01*
X345763Y-136036D01*
X345906Y-136179D01*
X346121Y-136250D01*
X346192Y-136250D01*
X346406Y-136179D01*
X346549Y-136036D01*
X346620Y-135821D01*
X346620Y-135750D01*
X346549Y-135536D01*
X346406Y-135393D01*
X346192Y-135322D01*
X346121Y-135322D01*
X345906Y-135393D01*
X345763Y-135536D01*
X345692Y-135750D01*
X347663Y-134750D02*
X346949Y-135750D01*
X348020Y-135750D01*
X347663Y-134750D02*
X347663Y-136250D01*
D35*
X301508Y-152222D02*
X301254Y-152307D01*
X301085Y-152561D01*
X301000Y-152984D01*
X301000Y-153238D01*
X301085Y-153661D01*
X301254Y-153915D01*
X301508Y-154000D01*
X301677Y-154000D01*
X301931Y-153915D01*
X302100Y-153661D01*
X302185Y-153238D01*
X302185Y-152984D01*
X302100Y-152561D01*
X301931Y-152307D01*
X301677Y-152222D01*
X301508Y-152222D01*
X303429Y-152222D02*
X302583Y-153407D01*
X303853Y-153407D01*
X303429Y-152222D02*
X303429Y-154000D01*
X304166Y-153238D02*
X305690Y-153238D01*
X307100Y-152222D02*
X306000Y-152222D01*
X306000Y-154000D01*
X307100Y-154000D01*
X306000Y-153069D02*
X306677Y-153069D01*
X308497Y-152222D02*
X307397Y-152222D01*
X307397Y-154000D01*
X308497Y-154000D01*
X307397Y-153069D02*
X308074Y-153069D01*
X308793Y-152222D02*
X308793Y-154000D01*
X308793Y-152222D02*
X309555Y-152222D01*
X309809Y-152307D01*
X309894Y-152392D01*
X309978Y-152561D01*
X309978Y-152730D01*
X309894Y-152900D01*
X309809Y-152984D01*
X309555Y-153069D01*
X308793Y-153069D01*
X309386Y-153069D02*
X309978Y-154000D01*
X311731Y-154000D02*
X311054Y-152222D01*
X310376Y-154000D01*
X310630Y-153407D02*
X311477Y-153407D01*
X312145Y-152222D02*
X312145Y-154000D01*
X312145Y-152222D02*
X312823Y-154000D01*
X313500Y-152222D02*
X312823Y-154000D01*
X313500Y-152222D02*
X313500Y-154000D01*
X314008Y-154593D02*
X315362Y-154593D01*
X315591Y-152222D02*
X315591Y-154000D01*
X315591Y-152222D02*
X316183Y-152222D01*
X316437Y-152307D01*
X316606Y-152476D01*
X316691Y-152646D01*
X316776Y-152900D01*
X316776Y-153323D01*
X316691Y-153577D01*
X316606Y-153746D01*
X316437Y-153915D01*
X316183Y-154000D01*
X315591Y-154000D01*
X318274Y-152222D02*
X317174Y-152222D01*
X317174Y-154000D01*
X318274Y-154000D01*
X317174Y-153069D02*
X317851Y-153069D01*
X318570Y-152222D02*
X318570Y-154000D01*
X318570Y-152222D02*
X319247Y-154000D01*
X319925Y-152222D02*
X319247Y-154000D01*
X319925Y-152222D02*
X319925Y-154000D01*
X320940Y-152222D02*
X320771Y-152307D01*
X320602Y-152476D01*
X320517Y-152646D01*
X320433Y-152900D01*
X320433Y-153323D01*
X320517Y-153577D01*
X320602Y-153746D01*
X320771Y-153915D01*
X320940Y-154000D01*
X321279Y-154000D01*
X321448Y-153915D01*
X321618Y-153746D01*
X321702Y-153577D01*
X321787Y-153323D01*
X321787Y-152900D01*
X321702Y-152646D01*
X321618Y-152476D01*
X321448Y-152307D01*
X321279Y-152222D01*
X320940Y-152222D01*
X322202Y-154593D02*
X323556Y-154593D01*
X323785Y-152222D02*
X323785Y-154000D01*
X323785Y-152222D02*
X324885Y-152222D01*
X323785Y-153069D02*
X324462Y-153069D01*
X326443Y-154000D02*
X325765Y-152222D01*
X325088Y-154000D01*
X325342Y-153407D02*
X326189Y-153407D01*
X327958Y-152222D02*
X326857Y-152222D01*
X326857Y-154000D01*
X327958Y-154000D01*
X326857Y-153069D02*
X327535Y-153069D01*
X328254Y-154593D02*
X329608Y-154593D01*
X329837Y-152561D02*
X330006Y-152476D01*
X330260Y-152222D01*
X330260Y-154000D01*
X331225Y-153831D02*
X331141Y-153915D01*
X331225Y-154000D01*
X331310Y-153915D01*
X331225Y-153831D01*
X332207Y-152222D02*
X331953Y-152307D01*
X331784Y-152561D01*
X331699Y-152984D01*
X331699Y-153238D01*
X331784Y-153661D01*
X331953Y-153915D01*
X332207Y-154000D01*
X332376Y-154000D01*
X332630Y-153915D01*
X332800Y-153661D01*
X332884Y-153238D01*
X332884Y-152984D01*
X332800Y-152561D01*
X332630Y-152307D01*
X332376Y-152222D01*
X332207Y-152222D01*
X333790Y-152222D02*
X333536Y-152307D01*
X333367Y-152561D01*
X333282Y-152984D01*
X333282Y-153238D01*
X333367Y-153661D01*
X333536Y-153915D01*
X333790Y-154000D01*
X333959Y-154000D01*
X334213Y-153915D01*
X334383Y-153661D01*
X334467Y-153238D01*
X334467Y-152984D01*
X334383Y-152561D01*
X334213Y-152307D01*
X333959Y-152222D01*
X333790Y-152222D01*
X325600Y-152222D02*
X324500Y-152222D01*
X324500Y-154000D01*
X325600Y-154000D01*
X324500Y-153069D02*
X325177Y-153069D01*
X326997Y-152222D02*
X325897Y-152222D01*
X325897Y-154000D01*
X326997Y-154000D01*
X325897Y-153069D02*
X326574Y-153069D01*
X327293Y-152222D02*
X327293Y-154000D01*
X327293Y-152222D02*
X328055Y-152222D01*
X328309Y-152307D01*
X328394Y-152392D01*
X328478Y-152561D01*
X328478Y-152730D01*
X328394Y-152900D01*
X328309Y-152984D01*
X328055Y-153069D01*
X327293Y-153069D01*
X327886Y-153069D02*
X328478Y-154000D01*
X330231Y-154000D02*
X329554Y-152222D01*
X328876Y-154000D01*
X329130Y-153407D02*
X329977Y-153407D01*
X330645Y-152222D02*
X330645Y-154000D01*
X330645Y-152222D02*
X331323Y-154000D01*
X332000Y-152222D02*
X331323Y-154000D01*
X332000Y-152222D02*
X332000Y-154000D01*
X332508Y-154593D02*
X333862Y-154593D01*
X334091Y-152222D02*
X334091Y-154000D01*
X334091Y-152222D02*
X334683Y-152222D01*
X334937Y-152307D01*
X335106Y-152476D01*
X335191Y-152646D01*
X335276Y-152900D01*
X335276Y-153323D01*
X335191Y-153577D01*
X335106Y-153746D01*
X334937Y-153915D01*
X334683Y-154000D01*
X334091Y-154000D01*
X336774Y-152222D02*
X335674Y-152222D01*
X335674Y-154000D01*
X336774Y-154000D01*
X335674Y-153069D02*
X336351Y-153069D01*
X337070Y-152222D02*
X337070Y-154000D01*
X337070Y-152222D02*
X337747Y-154000D01*
X338425Y-152222D02*
X337747Y-154000D01*
X338425Y-152222D02*
X338425Y-154000D01*
X339440Y-152222D02*
X339271Y-152307D01*
X339102Y-152476D01*
X339017Y-152646D01*
X338933Y-152900D01*
X338933Y-153323D01*
X339017Y-153577D01*
X339102Y-153746D01*
X339271Y-153915D01*
X339440Y-154000D01*
X339779Y-154000D01*
X339948Y-153915D01*
X340118Y-153746D01*
X340202Y-153577D01*
X340287Y-153323D01*
X340287Y-152900D01*
X340202Y-152646D01*
X340118Y-152476D01*
X339948Y-152307D01*
X339779Y-152222D01*
X339440Y-152222D01*
X340702Y-154593D02*
X342056Y-154593D01*
X342285Y-152222D02*
X342285Y-154000D01*
X342285Y-152222D02*
X343385Y-152222D01*
X342285Y-153069D02*
X342962Y-153069D01*
X344943Y-154000D02*
X344265Y-152222D01*
X343588Y-154000D01*
X343842Y-153407D02*
X344689Y-153407D01*
X346458Y-152222D02*
X345357Y-152222D01*
X345357Y-154000D01*
X346458Y-154000D01*
X345357Y-153069D02*
X346035Y-153069D01*
X346754Y-154593D02*
X348108Y-154593D01*
X348337Y-152561D02*
X348506Y-152476D01*
X348760Y-152222D01*
X348760Y-154000D01*
X349725Y-153831D02*
X349641Y-153915D01*
X349725Y-154000D01*
X349810Y-153915D01*
X349725Y-153831D01*
X350707Y-152222D02*
X350453Y-152307D01*
X350284Y-152561D01*
X350199Y-152984D01*
X350199Y-153238D01*
X350284Y-153661D01*
X350453Y-153915D01*
X350707Y-154000D01*
X350876Y-154000D01*
X351130Y-153915D01*
X351300Y-153661D01*
X351384Y-153238D01*
X351384Y-152984D01*
X351300Y-152561D01*
X351130Y-152307D01*
X350876Y-152222D01*
X350707Y-152222D01*
X352290Y-152222D02*
X352036Y-152307D01*
X351867Y-152561D01*
X351782Y-152984D01*
X351782Y-153238D01*
X351867Y-153661D01*
X352036Y-153915D01*
X352290Y-154000D01*
X352459Y-154000D01*
X352713Y-153915D01*
X352883Y-153661D01*
X352967Y-153238D01*
X352967Y-152984D01*
X352883Y-152561D01*
X352713Y-152307D01*
X352459Y-152222D01*
X352290Y-152222D01*
X332750Y-153238D02*
X334274Y-153238D01*
X334799Y-152222D02*
X334799Y-154000D01*
X334799Y-152222D02*
X335391Y-152222D01*
X335645Y-152307D01*
X335814Y-152476D01*
X335899Y-152646D01*
X335984Y-152900D01*
X335984Y-153323D01*
X335899Y-153577D01*
X335814Y-153746D01*
X335645Y-153915D01*
X335391Y-154000D01*
X334799Y-154000D01*
X319508Y-152222D02*
X319254Y-152307D01*
X319085Y-152561D01*
X319000Y-152984D01*
X319000Y-153238D01*
X319085Y-153661D01*
X319254Y-153915D01*
X319508Y-154000D01*
X319677Y-154000D01*
X319931Y-153915D01*
X320100Y-153661D01*
X320185Y-153238D01*
X320185Y-152984D01*
X320100Y-152561D01*
X319931Y-152307D01*
X319677Y-152222D01*
X319508Y-152222D01*
X321429Y-152222D02*
X320583Y-153407D01*
X321853Y-153407D01*
X321429Y-152222D02*
X321429Y-154000D01*
X322166Y-153238D02*
X323690Y-153238D01*
D78*
X169329Y54041D02*
G03*
X169329Y54041I-254J0D01*
G01*
X169329Y55311D02*
G03*
X169329Y55311I-254J0D01*
G01*
X169329Y56581D02*
G03*
X169329Y56581I-254J0D01*
G01*
X172377Y54041D02*
G03*
X172377Y54041I-254J0D01*
G01*
X172377Y55311D02*
G03*
X172377Y55311I-254J0D01*
G01*
X172377Y56581D02*
G03*
X172377Y56581I-254J0D01*
G01*
X170193Y35981D02*
G03*
X170193Y35981I-254J0D01*
G01*
X170193Y37251D02*
G03*
X170193Y37251I-254J0D01*
G01*
X170193Y38521D02*
G03*
X170193Y38521I-254J0D01*
G01*
X173241Y35981D02*
G03*
X173241Y35981I-254J0D01*
G01*
X173241Y37251D02*
G03*
X173241Y37251I-254J0D01*
G01*
X173241Y38521D02*
G03*
X173241Y38521I-254J0D01*
G01*
X202222Y35981D02*
G03*
X202222Y35981I-254J0D01*
G01*
X202222Y37251D02*
G03*
X202222Y37251I-254J0D01*
G01*
X202222Y38521D02*
G03*
X202222Y38521I-254J0D01*
G01*
X199174Y35981D02*
G03*
X199174Y35981I-254J0D01*
G01*
X199174Y37251D02*
G03*
X199174Y37251I-254J0D01*
G01*
X199174Y38521D02*
G03*
X199174Y38521I-254J0D01*
G01*
X169329Y2730D02*
G03*
X169329Y2730I-254J0D01*
G01*
X169329Y4000D02*
G03*
X169329Y4000I-254J0D01*
G01*
X169329Y5270D02*
G03*
X169329Y5270I-254J0D01*
G01*
X172377Y2730D02*
G03*
X172377Y2730I-254J0D01*
G01*
X172377Y4000D02*
G03*
X172377Y4000I-254J0D01*
G01*
X172377Y5270D02*
G03*
X172377Y5270I-254J0D01*
G01*
X170193Y-15329D02*
G03*
X170193Y-15329I-254J0D01*
G01*
X170193Y-14059D02*
G03*
X170193Y-14059I-254J0D01*
G01*
X170193Y-12789D02*
G03*
X170193Y-12789I-254J0D01*
G01*
X173241Y-15329D02*
G03*
X173241Y-15329I-254J0D01*
G01*
X173241Y-14059D02*
G03*
X173241Y-14059I-254J0D01*
G01*
X173241Y-12789D02*
G03*
X173241Y-12789I-254J0D01*
G01*
X202222Y-15329D02*
G03*
X202222Y-15329I-254J0D01*
G01*
X202222Y-14059D02*
G03*
X202222Y-14059I-254J0D01*
G01*
X202222Y-12789D02*
G03*
X202222Y-12789I-254J0D01*
G01*
X199174Y-15329D02*
G03*
X199174Y-15329I-254J0D01*
G01*
X199174Y-14059D02*
G03*
X199174Y-14059I-254J0D01*
G01*
X199174Y-12789D02*
G03*
X199174Y-12789I-254J0D01*
G01*
X169329Y-48581D02*
G03*
X169329Y-48581I-254J0D01*
G01*
X169329Y-47311D02*
G03*
X169329Y-47311I-254J0D01*
G01*
X169329Y-46041D02*
G03*
X169329Y-46041I-254J0D01*
G01*
X172377Y-48581D02*
G03*
X172377Y-48581I-254J0D01*
G01*
X172377Y-47311D02*
G03*
X172377Y-47311I-254J0D01*
G01*
X172377Y-46041D02*
G03*
X172377Y-46041I-254J0D01*
G01*
X170193Y-66640D02*
G03*
X170193Y-66640I-254J0D01*
G01*
X170193Y-65370D02*
G03*
X170193Y-65370I-254J0D01*
G01*
X170193Y-64100D02*
G03*
X170193Y-64100I-254J0D01*
G01*
X173241Y-66640D02*
G03*
X173241Y-66640I-254J0D01*
G01*
X173241Y-65370D02*
G03*
X173241Y-65370I-254J0D01*
G01*
X173241Y-64100D02*
G03*
X173241Y-64100I-254J0D01*
G01*
X202222Y-66640D02*
G03*
X202222Y-66640I-254J0D01*
G01*
X202222Y-65370D02*
G03*
X202222Y-65370I-254J0D01*
G01*
X202222Y-64100D02*
G03*
X202222Y-64100I-254J0D01*
G01*
X199174Y-66640D02*
G03*
X199174Y-66640I-254J0D01*
G01*
X199174Y-65370D02*
G03*
X199174Y-65370I-254J0D01*
G01*
X199174Y-64100D02*
G03*
X199174Y-64100I-254J0D01*
G01*
X126730Y54041D02*
G03*
X126730Y54041I-254J0D01*
G01*
X126730Y55311D02*
G03*
X126730Y55311I-254J0D01*
G01*
X126730Y56581D02*
G03*
X126730Y56581I-254J0D01*
G01*
X129778Y54041D02*
G03*
X129778Y54041I-254J0D01*
G01*
X129778Y55311D02*
G03*
X129778Y55311I-254J0D01*
G01*
X129778Y56581D02*
G03*
X129778Y56581I-254J0D01*
G01*
X127594Y35981D02*
G03*
X127594Y35981I-254J0D01*
G01*
X127594Y37251D02*
G03*
X127594Y37251I-254J0D01*
G01*
X127594Y38521D02*
G03*
X127594Y38521I-254J0D01*
G01*
X130642Y35981D02*
G03*
X130642Y35981I-254J0D01*
G01*
X130642Y37251D02*
G03*
X130642Y37251I-254J0D01*
G01*
X130642Y38521D02*
G03*
X130642Y38521I-254J0D01*
G01*
X159623Y35981D02*
G03*
X159623Y35981I-254J0D01*
G01*
X159623Y37251D02*
G03*
X159623Y37251I-254J0D01*
G01*
X159623Y38521D02*
G03*
X159623Y38521I-254J0D01*
G01*
X156575Y35981D02*
G03*
X156575Y35981I-254J0D01*
G01*
X156575Y37251D02*
G03*
X156575Y37251I-254J0D01*
G01*
X156575Y38521D02*
G03*
X156575Y38521I-254J0D01*
G01*
X126730Y2730D02*
G03*
X126730Y2730I-254J0D01*
G01*
X126730Y4000D02*
G03*
X126730Y4000I-254J0D01*
G01*
X126730Y5270D02*
G03*
X126730Y5270I-254J0D01*
G01*
X129778Y2730D02*
G03*
X129778Y2730I-254J0D01*
G01*
X129778Y4000D02*
G03*
X129778Y4000I-254J0D01*
G01*
X129778Y5270D02*
G03*
X129778Y5270I-254J0D01*
G01*
X127594Y-15329D02*
G03*
X127594Y-15329I-254J0D01*
G01*
X127594Y-14059D02*
G03*
X127594Y-14059I-254J0D01*
G01*
X127594Y-12789D02*
G03*
X127594Y-12789I-254J0D01*
G01*
X130642Y-15329D02*
G03*
X130642Y-15329I-254J0D01*
G01*
X130642Y-14059D02*
G03*
X130642Y-14059I-254J0D01*
G01*
X130642Y-12789D02*
G03*
X130642Y-12789I-254J0D01*
G01*
X159623Y-15329D02*
G03*
X159623Y-15329I-254J0D01*
G01*
X159623Y-14059D02*
G03*
X159623Y-14059I-254J0D01*
G01*
X159623Y-12789D02*
G03*
X159623Y-12789I-254J0D01*
G01*
X156575Y-15329D02*
G03*
X156575Y-15329I-254J0D01*
G01*
X156575Y-14059D02*
G03*
X156575Y-14059I-254J0D01*
G01*
X156575Y-12789D02*
G03*
X156575Y-12789I-254J0D01*
G01*
X126730Y-48581D02*
G03*
X126730Y-48581I-254J0D01*
G01*
X126730Y-47311D02*
G03*
X126730Y-47311I-254J0D01*
G01*
X126730Y-46041D02*
G03*
X126730Y-46041I-254J0D01*
G01*
X129778Y-48581D02*
G03*
X129778Y-48581I-254J0D01*
G01*
X129778Y-47311D02*
G03*
X129778Y-47311I-254J0D01*
G01*
X129778Y-46041D02*
G03*
X129778Y-46041I-254J0D01*
G01*
X127594Y-66640D02*
G03*
X127594Y-66640I-254J0D01*
G01*
X127594Y-65370D02*
G03*
X127594Y-65370I-254J0D01*
G01*
X127594Y-64100D02*
G03*
X127594Y-64100I-254J0D01*
G01*
X130642Y-66640D02*
G03*
X130642Y-66640I-254J0D01*
G01*
X130642Y-65370D02*
G03*
X130642Y-65370I-254J0D01*
G01*
X130642Y-64100D02*
G03*
X130642Y-64100I-254J0D01*
G01*
X159623Y-66640D02*
G03*
X159623Y-66640I-254J0D01*
G01*
X159623Y-65370D02*
G03*
X159623Y-65370I-254J0D01*
G01*
X159623Y-64100D02*
G03*
X159623Y-64100I-254J0D01*
G01*
X156575Y-66640D02*
G03*
X156575Y-66640I-254J0D01*
G01*
X156575Y-65370D02*
G03*
X156575Y-65370I-254J0D01*
G01*
X156575Y-64100D02*
G03*
X156575Y-64100I-254J0D01*
G01*
X84132Y54041D02*
G03*
X84132Y54041I-254J0D01*
G01*
X84132Y55311D02*
G03*
X84132Y55311I-254J0D01*
G01*
X84132Y56581D02*
G03*
X84132Y56581I-254J0D01*
G01*
X87180Y54041D02*
G03*
X87180Y54041I-254J0D01*
G01*
X87180Y55311D02*
G03*
X87180Y55311I-254J0D01*
G01*
X87180Y56581D02*
G03*
X87180Y56581I-254J0D01*
G01*
X84995Y35981D02*
G03*
X84995Y35981I-254J0D01*
G01*
X84995Y37251D02*
G03*
X84995Y37251I-254J0D01*
G01*
X84995Y38521D02*
G03*
X84995Y38521I-254J0D01*
G01*
X88043Y35981D02*
G03*
X88043Y35981I-254J0D01*
G01*
X88043Y37251D02*
G03*
X88043Y37251I-254J0D01*
G01*
X88043Y38521D02*
G03*
X88043Y38521I-254J0D01*
G01*
X117025Y35981D02*
G03*
X117025Y35981I-254J0D01*
G01*
X117025Y37251D02*
G03*
X117025Y37251I-254J0D01*
G01*
X117025Y38521D02*
G03*
X117025Y38521I-254J0D01*
G01*
X113977Y35981D02*
G03*
X113977Y35981I-254J0D01*
G01*
X113977Y37251D02*
G03*
X113977Y37251I-254J0D01*
G01*
X113977Y38521D02*
G03*
X113977Y38521I-254J0D01*
G01*
X84132Y2730D02*
G03*
X84132Y2730I-254J0D01*
G01*
X84132Y4000D02*
G03*
X84132Y4000I-254J0D01*
G01*
X84132Y5270D02*
G03*
X84132Y5270I-254J0D01*
G01*
X87180Y2730D02*
G03*
X87180Y2730I-254J0D01*
G01*
X87180Y4000D02*
G03*
X87180Y4000I-254J0D01*
G01*
X87180Y5270D02*
G03*
X87180Y5270I-254J0D01*
G01*
X84995Y-15329D02*
G03*
X84995Y-15329I-254J0D01*
G01*
X84995Y-14059D02*
G03*
X84995Y-14059I-254J0D01*
G01*
X84995Y-12789D02*
G03*
X84995Y-12789I-254J0D01*
G01*
X88043Y-15329D02*
G03*
X88043Y-15329I-254J0D01*
G01*
X88043Y-14059D02*
G03*
X88043Y-14059I-254J0D01*
G01*
X88043Y-12789D02*
G03*
X88043Y-12789I-254J0D01*
G01*
X117025Y-15329D02*
G03*
X117025Y-15329I-254J0D01*
G01*
X117025Y-14059D02*
G03*
X117025Y-14059I-254J0D01*
G01*
X117025Y-12789D02*
G03*
X117025Y-12789I-254J0D01*
G01*
X113977Y-15329D02*
G03*
X113977Y-15329I-254J0D01*
G01*
X113977Y-14059D02*
G03*
X113977Y-14059I-254J0D01*
G01*
X113977Y-12789D02*
G03*
X113977Y-12789I-254J0D01*
G01*
X84132Y-48581D02*
G03*
X84132Y-48581I-254J0D01*
G01*
X84132Y-47311D02*
G03*
X84132Y-47311I-254J0D01*
G01*
X84132Y-46041D02*
G03*
X84132Y-46041I-254J0D01*
G01*
X87180Y-48581D02*
G03*
X87180Y-48581I-254J0D01*
G01*
X87180Y-47311D02*
G03*
X87180Y-47311I-254J0D01*
G01*
X87180Y-46041D02*
G03*
X87180Y-46041I-254J0D01*
G01*
X84995Y-66640D02*
G03*
X84995Y-66640I-254J0D01*
G01*
X84995Y-65370D02*
G03*
X84995Y-65370I-254J0D01*
G01*
X84995Y-64100D02*
G03*
X84995Y-64100I-254J0D01*
G01*
X88043Y-66640D02*
G03*
X88043Y-66640I-254J0D01*
G01*
X88043Y-65370D02*
G03*
X88043Y-65370I-254J0D01*
G01*
X88043Y-64100D02*
G03*
X88043Y-64100I-254J0D01*
G01*
X117025Y-66640D02*
G03*
X117025Y-66640I-254J0D01*
G01*
X117025Y-65370D02*
G03*
X117025Y-65370I-254J0D01*
G01*
X117025Y-64100D02*
G03*
X117025Y-64100I-254J0D01*
G01*
X113977Y-66640D02*
G03*
X113977Y-66640I-254J0D01*
G01*
X113977Y-65370D02*
G03*
X113977Y-65370I-254J0D01*
G01*
X113977Y-64100D02*
G03*
X113977Y-64100I-254J0D01*
G01*
X41533Y54041D02*
G03*
X41533Y54041I-254J0D01*
G01*
X41533Y55311D02*
G03*
X41533Y55311I-254J0D01*
G01*
X41533Y56581D02*
G03*
X41533Y56581I-254J0D01*
G01*
X44581Y54041D02*
G03*
X44581Y54041I-254J0D01*
G01*
X44581Y55311D02*
G03*
X44581Y55311I-254J0D01*
G01*
X44581Y56581D02*
G03*
X44581Y56581I-254J0D01*
G01*
X42397Y35981D02*
G03*
X42397Y35981I-254J0D01*
G01*
X42397Y37251D02*
G03*
X42397Y37251I-254J0D01*
G01*
X42397Y38521D02*
G03*
X42397Y38521I-254J0D01*
G01*
X45445Y35981D02*
G03*
X45445Y35981I-254J0D01*
G01*
X45445Y37251D02*
G03*
X45445Y37251I-254J0D01*
G01*
X45445Y38521D02*
G03*
X45445Y38521I-254J0D01*
G01*
X74426Y35981D02*
G03*
X74426Y35981I-254J0D01*
G01*
X74426Y37251D02*
G03*
X74426Y37251I-254J0D01*
G01*
X74426Y38521D02*
G03*
X74426Y38521I-254J0D01*
G01*
X71378Y35981D02*
G03*
X71378Y35981I-254J0D01*
G01*
X71378Y37251D02*
G03*
X71378Y37251I-254J0D01*
G01*
X71378Y38521D02*
G03*
X71378Y38521I-254J0D01*
G01*
X41533Y2730D02*
G03*
X41533Y2730I-254J0D01*
G01*
X41533Y4000D02*
G03*
X41533Y4000I-254J0D01*
G01*
X41533Y5270D02*
G03*
X41533Y5270I-254J0D01*
G01*
X44581Y2730D02*
G03*
X44581Y2730I-254J0D01*
G01*
X44581Y4000D02*
G03*
X44581Y4000I-254J0D01*
G01*
X44581Y5270D02*
G03*
X44581Y5270I-254J0D01*
G01*
X42397Y-15329D02*
G03*
X42397Y-15329I-254J0D01*
G01*
X42397Y-14059D02*
G03*
X42397Y-14059I-254J0D01*
G01*
X42397Y-12789D02*
G03*
X42397Y-12789I-254J0D01*
G01*
X45445Y-15329D02*
G03*
X45445Y-15329I-254J0D01*
G01*
X45445Y-14059D02*
G03*
X45445Y-14059I-254J0D01*
G01*
X45445Y-12789D02*
G03*
X45445Y-12789I-254J0D01*
G01*
X74426Y-15329D02*
G03*
X74426Y-15329I-254J0D01*
G01*
X74426Y-14059D02*
G03*
X74426Y-14059I-254J0D01*
G01*
X74426Y-12789D02*
G03*
X74426Y-12789I-254J0D01*
G01*
X71378Y-15329D02*
G03*
X71378Y-15329I-254J0D01*
G01*
X71378Y-14059D02*
G03*
X71378Y-14059I-254J0D01*
G01*
X71378Y-12789D02*
G03*
X71378Y-12789I-254J0D01*
G01*
X41533Y-48581D02*
G03*
X41533Y-48581I-254J0D01*
G01*
X41533Y-47311D02*
G03*
X41533Y-47311I-254J0D01*
G01*
X41533Y-46041D02*
G03*
X41533Y-46041I-254J0D01*
G01*
X44581Y-48581D02*
G03*
X44581Y-48581I-254J0D01*
G01*
X44581Y-47311D02*
G03*
X44581Y-47311I-254J0D01*
G01*
X44581Y-46041D02*
G03*
X44581Y-46041I-254J0D01*
G01*
X42397Y-66640D02*
G03*
X42397Y-66640I-254J0D01*
G01*
X42397Y-65370D02*
G03*
X42397Y-65370I-254J0D01*
G01*
X42397Y-64100D02*
G03*
X42397Y-64100I-254J0D01*
G01*
X45445Y-66640D02*
G03*
X45445Y-66640I-254J0D01*
G01*
X45445Y-65370D02*
G03*
X45445Y-65370I-254J0D01*
G01*
X45445Y-64100D02*
G03*
X45445Y-64100I-254J0D01*
G01*
X74426Y-66640D02*
G03*
X74426Y-66640I-254J0D01*
G01*
X74426Y-65370D02*
G03*
X74426Y-65370I-254J0D01*
G01*
X74426Y-64100D02*
G03*
X74426Y-64100I-254J0D01*
G01*
X71378Y-66640D02*
G03*
X71378Y-66640I-254J0D01*
G01*
X71378Y-65370D02*
G03*
X71378Y-65370I-254J0D01*
G01*
X71378Y-64100D02*
G03*
X71378Y-64100I-254J0D01*
G01*
X-1066Y54041D02*
G03*
X-1066Y54041I-254J0D01*
G01*
X-1066Y55311D02*
G03*
X-1066Y55311I-254J0D01*
G01*
X-1066Y56581D02*
G03*
X-1066Y56581I-254J0D01*
G01*
X1982Y54041D02*
G03*
X1982Y54041I-254J0D01*
G01*
X1982Y55311D02*
G03*
X1982Y55311I-254J0D01*
G01*
X1982Y56581D02*
G03*
X1982Y56581I-254J0D01*
G01*
X-202Y35981D02*
G03*
X-202Y35981I-254J0D01*
G01*
X-202Y37251D02*
G03*
X-202Y37251I-254J0D01*
G01*
X-202Y38521D02*
G03*
X-202Y38521I-254J0D01*
G01*
X2846Y35981D02*
G03*
X2846Y35981I-254J0D01*
G01*
X2846Y37251D02*
G03*
X2846Y37251I-254J0D01*
G01*
X2846Y38521D02*
G03*
X2846Y38521I-254J0D01*
G01*
X31827Y35981D02*
G03*
X31827Y35981I-254J0D01*
G01*
X31827Y37251D02*
G03*
X31827Y37251I-254J0D01*
G01*
X31827Y38521D02*
G03*
X31827Y38521I-254J0D01*
G01*
X28779Y35981D02*
G03*
X28779Y35981I-254J0D01*
G01*
X28779Y37251D02*
G03*
X28779Y37251I-254J0D01*
G01*
X28779Y38521D02*
G03*
X28779Y38521I-254J0D01*
G01*
X-1066Y2730D02*
G03*
X-1066Y2730I-254J0D01*
G01*
X-1066Y4000D02*
G03*
X-1066Y4000I-254J0D01*
G01*
X-1066Y5270D02*
G03*
X-1066Y5270I-254J0D01*
G01*
X1982Y2730D02*
G03*
X1982Y2730I-254J0D01*
G01*
X1982Y4000D02*
G03*
X1982Y4000I-254J0D01*
G01*
X1982Y5270D02*
G03*
X1982Y5270I-254J0D01*
G01*
X-202Y-15329D02*
G03*
X-202Y-15329I-254J0D01*
G01*
X-202Y-14059D02*
G03*
X-202Y-14059I-254J0D01*
G01*
X-202Y-12789D02*
G03*
X-202Y-12789I-254J0D01*
G01*
X2846Y-15329D02*
G03*
X2846Y-15329I-254J0D01*
G01*
X2846Y-14059D02*
G03*
X2846Y-14059I-254J0D01*
G01*
X2846Y-12789D02*
G03*
X2846Y-12789I-254J0D01*
G01*
X31827Y-15329D02*
G03*
X31827Y-15329I-254J0D01*
G01*
X31827Y-14059D02*
G03*
X31827Y-14059I-254J0D01*
G01*
X31827Y-12789D02*
G03*
X31827Y-12789I-254J0D01*
G01*
X28779Y-15329D02*
G03*
X28779Y-15329I-254J0D01*
G01*
X28779Y-14059D02*
G03*
X28779Y-14059I-254J0D01*
G01*
X28779Y-12789D02*
G03*
X28779Y-12789I-254J0D01*
G01*
X-1066Y-48581D02*
G03*
X-1066Y-48581I-254J0D01*
G01*
X-1066Y-47311D02*
G03*
X-1066Y-47311I-254J0D01*
G01*
X-1066Y-46041D02*
G03*
X-1066Y-46041I-254J0D01*
G01*
X1982Y-48581D02*
G03*
X1982Y-48581I-254J0D01*
G01*
X1982Y-47311D02*
G03*
X1982Y-47311I-254J0D01*
G01*
X1982Y-46041D02*
G03*
X1982Y-46041I-254J0D01*
G01*
X-202Y-66640D02*
G03*
X-202Y-66640I-254J0D01*
G01*
X-202Y-65370D02*
G03*
X-202Y-65370I-254J0D01*
G01*
X-202Y-64100D02*
G03*
X-202Y-64100I-254J0D01*
G01*
X2846Y-66640D02*
G03*
X2846Y-66640I-254J0D01*
G01*
X2846Y-65370D02*
G03*
X2846Y-65370I-254J0D01*
G01*
X2846Y-64100D02*
G03*
X2846Y-64100I-254J0D01*
G01*
X31827Y-66640D02*
G03*
X31827Y-66640I-254J0D01*
G01*
X31827Y-65370D02*
G03*
X31827Y-65370I-254J0D01*
G01*
X31827Y-64100D02*
G03*
X31827Y-64100I-254J0D01*
G01*
X28779Y-66640D02*
G03*
X28779Y-66640I-254J0D01*
G01*
X28779Y-65370D02*
G03*
X28779Y-65370I-254J0D01*
G01*
X28779Y-64100D02*
G03*
X28779Y-64100I-254J0D01*
G01*
X180556Y34483D02*
X180810Y34991D01*
X180302Y34991D02*
X180810Y34991D01*
X180302Y34991D02*
X180556Y34483D01*
X176365Y34483D02*
X176619Y34991D01*
X176111Y34991D02*
X176619Y34991D01*
X176111Y34991D02*
X176365Y34483D01*
X187160Y34610D02*
X187414Y35118D01*
X186906Y35118D02*
X187414Y35118D01*
X186906Y35118D02*
X187160Y34610D01*
X188176Y31943D02*
X188430Y32451D01*
X187922Y32451D02*
X188430Y32451D01*
X187922Y32451D02*
X188176Y31943D01*
X186017Y31943D02*
X186271Y32451D01*
X185763Y32451D02*
X186271Y32451D01*
X185763Y32451D02*
X186017Y31943D01*
X185001Y33721D02*
X185255Y34229D01*
X184747Y34229D02*
X185255Y34229D01*
X184747Y34229D02*
X185001Y33721D01*
X178524Y33721D02*
X178778Y34229D01*
X178270Y34229D02*
X178778Y34229D01*
X178270Y34229D02*
X178524Y33721D01*
X182334Y38420D02*
X182588Y38928D01*
X182080Y38928D02*
X182588Y38928D01*
X182080Y38928D02*
X182334Y38420D01*
X182334Y41468D02*
X182588Y41976D01*
X182080Y41976D02*
X182588Y41976D01*
X182080Y41976D02*
X182334Y41468D01*
X178016Y40071D02*
X178270Y40579D01*
X177762Y40579D02*
X178270Y40579D01*
X177762Y40579D02*
X178016Y40071D01*
X187493Y21529D02*
X187747Y22037D01*
X187239Y22037D02*
X187747Y22037D01*
X187239Y22037D02*
X187493Y21529D01*
X191478Y18497D02*
X191732Y19005D01*
X191224Y19005D02*
X191732Y19005D01*
X191224Y19005D02*
X191478Y18497D01*
X173193Y46248D02*
X173447Y46756D01*
X172939Y46756D02*
X173447Y46756D01*
X172939Y46756D02*
X173193Y46248D01*
X181878Y46159D02*
X182132Y46667D01*
X181624Y46667D02*
X182132Y46667D01*
X181624Y46667D02*
X181878Y46159D01*
X187518Y49809D02*
X187772Y50317D01*
X187264Y50317D02*
X187772Y50317D01*
X187264Y50317D02*
X187518Y49809D01*
X190335Y48662D02*
X190589Y49170D01*
X190081Y49170D02*
X190589Y49170D01*
X190081Y49170D02*
X190335Y48662D01*
X193405Y48724D02*
X193659Y49232D01*
X193151Y49232D02*
X193659Y49232D01*
X193151Y49232D02*
X193405Y48724D01*
X196431Y46957D02*
X196685Y47465D01*
X196177Y47465D02*
X196685Y47465D01*
X196177Y47465D02*
X196431Y46957D01*
X199898Y44635D02*
X200152Y45143D01*
X199644Y45143D02*
X200152Y45143D01*
X199644Y45143D02*
X199898Y44635D01*
X184747Y46921D02*
X185001Y47429D01*
X184493Y47429D02*
X185001Y47429D01*
X184493Y47429D02*
X184747Y46921D01*
X175846Y47642D02*
X176100Y48150D01*
X175592Y48150D02*
X176100Y48150D01*
X175592Y48150D02*
X175846Y47642D01*
X178651Y45143D02*
X178905Y45651D01*
X178397Y45651D02*
X178905Y45651D01*
X178397Y45651D02*
X178651Y45143D01*
X170746Y44518D02*
X171000Y45026D01*
X170492Y45026D02*
X171000Y45026D01*
X170492Y45026D02*
X170746Y44518D01*
X170777Y43365D02*
X171031Y43873D01*
X170523Y43873D02*
X171031Y43873D01*
X170523Y43873D02*
X170777Y43365D01*
X193577Y19878D02*
X193831Y20386D01*
X193323Y20386D02*
X193831Y20386D01*
X193323Y20386D02*
X193577Y19878D01*
X186144Y22529D02*
X186398Y23037D01*
X185890Y23037D02*
X186398Y23037D01*
X185890Y23037D02*
X186144Y22529D01*
X191732Y20259D02*
X191986Y20767D01*
X191478Y20767D02*
X191986Y20767D01*
X191478Y20767D02*
X191732Y20259D01*
X174249Y21037D02*
X174757Y21037D01*
X174757Y21545D01*
X174249Y21545D02*
X174757Y21545D01*
X174249Y21037D02*
X174249Y21545D01*
X174249Y23577D02*
X174757Y23577D01*
X174757Y24085D01*
X174249Y24085D02*
X174757Y24085D01*
X174249Y23577D02*
X174249Y24085D01*
X174249Y33737D02*
X174757Y33737D01*
X174757Y34245D01*
X174249Y34245D02*
X174757Y34245D01*
X174249Y33737D02*
X174249Y34245D01*
X174249Y31197D02*
X174757Y31197D01*
X174757Y31705D01*
X174249Y31705D02*
X174757Y31705D01*
X174249Y31197D02*
X174249Y31705D01*
X174249Y28657D02*
X174757Y28657D01*
X174757Y29165D01*
X174249Y29165D02*
X174757Y29165D01*
X174249Y28657D02*
X174249Y29165D01*
X174249Y26117D02*
X174757Y26117D01*
X174757Y26625D01*
X174249Y26625D02*
X174757Y26625D01*
X174249Y26117D02*
X174249Y26625D01*
X174249Y18497D02*
X174757Y18497D01*
X174757Y19005D01*
X174249Y19005D02*
X174757Y19005D01*
X174249Y18497D02*
X174249Y19005D01*
X174249Y15957D02*
X174757Y15957D01*
X174757Y16465D01*
X174249Y16465D02*
X174757Y16465D01*
X174249Y15957D02*
X174249Y16465D01*
X197117Y21046D02*
X197625Y21046D01*
X197625Y21554D01*
X197117Y21554D02*
X197625Y21554D01*
X197117Y21046D02*
X197117Y21554D01*
X197117Y23586D02*
X197625Y23586D01*
X197625Y24094D01*
X197117Y24094D02*
X197625Y24094D01*
X197117Y23586D02*
X197117Y24094D01*
X197117Y33746D02*
X197625Y33746D01*
X197625Y34254D01*
X197117Y34254D02*
X197625Y34254D01*
X197117Y33746D02*
X197117Y34254D01*
X197117Y31206D02*
X197625Y31206D01*
X197625Y31714D01*
X197117Y31714D02*
X197625Y31714D01*
X197117Y31206D02*
X197117Y31714D01*
X197117Y28666D02*
X197625Y28666D01*
X197625Y29174D01*
X197117Y29174D02*
X197625Y29174D01*
X197117Y28666D02*
X197117Y29174D01*
X197117Y26126D02*
X197625Y26126D01*
X197625Y26634D01*
X197117Y26634D02*
X197625Y26634D01*
X197117Y26126D02*
X197117Y26634D01*
X197117Y18506D02*
X197625Y18506D01*
X197625Y19014D01*
X197117Y19014D02*
X197625Y19014D01*
X197117Y18506D02*
X197117Y19014D01*
X197117Y15966D02*
X197625Y15966D01*
X197625Y16474D01*
X197117Y16474D02*
X197625Y16474D01*
X197117Y15966D02*
X197117Y16474D01*
X180556Y-16828D02*
X180810Y-16320D01*
X180302Y-16320D02*
X180810Y-16320D01*
X180302Y-16320D02*
X180556Y-16828D01*
X176365Y-16828D02*
X176619Y-16320D01*
X176111Y-16320D02*
X176619Y-16320D01*
X176111Y-16320D02*
X176365Y-16828D01*
X187160Y-16701D02*
X187414Y-16193D01*
X186906Y-16193D02*
X187414Y-16193D01*
X186906Y-16193D02*
X187160Y-16701D01*
X188176Y-19368D02*
X188430Y-18860D01*
X187922Y-18860D02*
X188430Y-18860D01*
X187922Y-18860D02*
X188176Y-19368D01*
X186017Y-19368D02*
X186271Y-18860D01*
X185763Y-18860D02*
X186271Y-18860D01*
X185763Y-18860D02*
X186017Y-19368D01*
X185001Y-17590D02*
X185255Y-17082D01*
X184747Y-17082D02*
X185255Y-17082D01*
X184747Y-17082D02*
X185001Y-17590D01*
X178524Y-17590D02*
X178778Y-17082D01*
X178270Y-17082D02*
X178778Y-17082D01*
X178270Y-17082D02*
X178524Y-17590D01*
X182334Y-12891D02*
X182588Y-12383D01*
X182080Y-12383D02*
X182588Y-12383D01*
X182080Y-12383D02*
X182334Y-12891D01*
X182334Y-9843D02*
X182588Y-9335D01*
X182080Y-9335D02*
X182588Y-9335D01*
X182080Y-9335D02*
X182334Y-9843D01*
X178016Y-11240D02*
X178270Y-10732D01*
X177762Y-10732D02*
X178270Y-10732D01*
X177762Y-10732D02*
X178016Y-11240D01*
X187493Y-29782D02*
X187747Y-29274D01*
X187239Y-29274D02*
X187747Y-29274D01*
X187239Y-29274D02*
X187493Y-29782D01*
X191478Y-32814D02*
X191732Y-32306D01*
X191224Y-32306D02*
X191732Y-32306D01*
X191224Y-32306D02*
X191478Y-32814D01*
X173193Y-5063D02*
X173447Y-4555D01*
X172939Y-4555D02*
X173447Y-4555D01*
X172939Y-4555D02*
X173193Y-5063D01*
X181878Y-5152D02*
X182132Y-4644D01*
X181624Y-4644D02*
X182132Y-4644D01*
X181624Y-4644D02*
X181878Y-5152D01*
X187518Y-1502D02*
X187772Y-994D01*
X187264Y-994D02*
X187772Y-994D01*
X187264Y-994D02*
X187518Y-1502D01*
X190335Y-2649D02*
X190589Y-2141D01*
X190081Y-2141D02*
X190589Y-2141D01*
X190081Y-2141D02*
X190335Y-2649D01*
X193405Y-2587D02*
X193659Y-2079D01*
X193151Y-2079D02*
X193659Y-2079D01*
X193151Y-2079D02*
X193405Y-2587D01*
X196431Y-4354D02*
X196685Y-3846D01*
X196177Y-3846D02*
X196685Y-3846D01*
X196177Y-3846D02*
X196431Y-4354D01*
X199898Y-6676D02*
X200152Y-6168D01*
X199644Y-6168D02*
X200152Y-6168D01*
X199644Y-6168D02*
X199898Y-6676D01*
X184747Y-4390D02*
X185001Y-3882D01*
X184493Y-3882D02*
X185001Y-3882D01*
X184493Y-3882D02*
X184747Y-4390D01*
X175846Y-3669D02*
X176100Y-3161D01*
X175592Y-3161D02*
X176100Y-3161D01*
X175592Y-3161D02*
X175846Y-3669D01*
X178651Y-6168D02*
X178905Y-5660D01*
X178397Y-5660D02*
X178905Y-5660D01*
X178397Y-5660D02*
X178651Y-6168D01*
X170746Y-6793D02*
X171000Y-6285D01*
X170492Y-6285D02*
X171000Y-6285D01*
X170492Y-6285D02*
X170746Y-6793D01*
X170777Y-7946D02*
X171031Y-7438D01*
X170523Y-7438D02*
X171031Y-7438D01*
X170523Y-7438D02*
X170777Y-7946D01*
X193577Y-31433D02*
X193831Y-30925D01*
X193323Y-30925D02*
X193831Y-30925D01*
X193323Y-30925D02*
X193577Y-31433D01*
X186144Y-28782D02*
X186398Y-28274D01*
X185890Y-28274D02*
X186398Y-28274D01*
X185890Y-28274D02*
X186144Y-28782D01*
X191732Y-31052D02*
X191986Y-30544D01*
X191478Y-30544D02*
X191986Y-30544D01*
X191478Y-30544D02*
X191732Y-31052D01*
X174249Y-30274D02*
X174757Y-30274D01*
X174757Y-29766D01*
X174249Y-29766D02*
X174757Y-29766D01*
X174249Y-30274D02*
X174249Y-29766D01*
X174249Y-27734D02*
X174757Y-27734D01*
X174757Y-27226D01*
X174249Y-27226D02*
X174757Y-27226D01*
X174249Y-27734D02*
X174249Y-27226D01*
X174249Y-17574D02*
X174757Y-17574D01*
X174757Y-17066D01*
X174249Y-17066D02*
X174757Y-17066D01*
X174249Y-17574D02*
X174249Y-17066D01*
X174249Y-20114D02*
X174757Y-20114D01*
X174757Y-19606D01*
X174249Y-19606D02*
X174757Y-19606D01*
X174249Y-20114D02*
X174249Y-19606D01*
X174249Y-22654D02*
X174757Y-22654D01*
X174757Y-22146D01*
X174249Y-22146D02*
X174757Y-22146D01*
X174249Y-22654D02*
X174249Y-22146D01*
X174249Y-25194D02*
X174757Y-25194D01*
X174757Y-24686D01*
X174249Y-24686D02*
X174757Y-24686D01*
X174249Y-25194D02*
X174249Y-24686D01*
X174249Y-32814D02*
X174757Y-32814D01*
X174757Y-32306D01*
X174249Y-32306D02*
X174757Y-32306D01*
X174249Y-32814D02*
X174249Y-32306D01*
X174249Y-35354D02*
X174757Y-35354D01*
X174757Y-34846D01*
X174249Y-34846D02*
X174757Y-34846D01*
X174249Y-35354D02*
X174249Y-34846D01*
X197117Y-30265D02*
X197625Y-30265D01*
X197625Y-29757D01*
X197117Y-29757D02*
X197625Y-29757D01*
X197117Y-30265D02*
X197117Y-29757D01*
X197117Y-27725D02*
X197625Y-27725D01*
X197625Y-27217D01*
X197117Y-27217D02*
X197625Y-27217D01*
X197117Y-27725D02*
X197117Y-27217D01*
X197117Y-17565D02*
X197625Y-17565D01*
X197625Y-17057D01*
X197117Y-17057D02*
X197625Y-17057D01*
X197117Y-17565D02*
X197117Y-17057D01*
X197117Y-20105D02*
X197625Y-20105D01*
X197625Y-19597D01*
X197117Y-19597D02*
X197625Y-19597D01*
X197117Y-20105D02*
X197117Y-19597D01*
X197117Y-22645D02*
X197625Y-22645D01*
X197625Y-22137D01*
X197117Y-22137D02*
X197625Y-22137D01*
X197117Y-22645D02*
X197117Y-22137D01*
X197117Y-25185D02*
X197625Y-25185D01*
X197625Y-24677D01*
X197117Y-24677D02*
X197625Y-24677D01*
X197117Y-25185D02*
X197117Y-24677D01*
X197117Y-32805D02*
X197625Y-32805D01*
X197625Y-32297D01*
X197117Y-32297D02*
X197625Y-32297D01*
X197117Y-32805D02*
X197117Y-32297D01*
X197117Y-35345D02*
X197625Y-35345D01*
X197625Y-34837D01*
X197117Y-34837D02*
X197625Y-34837D01*
X197117Y-35345D02*
X197117Y-34837D01*
X180556Y-68139D02*
X180810Y-67631D01*
X180302Y-67631D02*
X180810Y-67631D01*
X180302Y-67631D02*
X180556Y-68139D01*
X176365Y-68139D02*
X176619Y-67631D01*
X176111Y-67631D02*
X176619Y-67631D01*
X176111Y-67631D02*
X176365Y-68139D01*
X187160Y-68012D02*
X187414Y-67504D01*
X186906Y-67504D02*
X187414Y-67504D01*
X186906Y-67504D02*
X187160Y-68012D01*
X188176Y-70679D02*
X188430Y-70171D01*
X187922Y-70171D02*
X188430Y-70171D01*
X187922Y-70171D02*
X188176Y-70679D01*
X186017Y-70679D02*
X186271Y-70171D01*
X185763Y-70171D02*
X186271Y-70171D01*
X185763Y-70171D02*
X186017Y-70679D01*
X185001Y-68901D02*
X185255Y-68393D01*
X184747Y-68393D02*
X185255Y-68393D01*
X184747Y-68393D02*
X185001Y-68901D01*
X178524Y-68901D02*
X178778Y-68393D01*
X178270Y-68393D02*
X178778Y-68393D01*
X178270Y-68393D02*
X178524Y-68901D01*
X182334Y-64202D02*
X182588Y-63694D01*
X182080Y-63694D02*
X182588Y-63694D01*
X182080Y-63694D02*
X182334Y-64202D01*
X182334Y-61154D02*
X182588Y-60646D01*
X182080Y-60646D02*
X182588Y-60646D01*
X182080Y-60646D02*
X182334Y-61154D01*
X178016Y-62551D02*
X178270Y-62043D01*
X177762Y-62043D02*
X178270Y-62043D01*
X177762Y-62043D02*
X178016Y-62551D01*
X187493Y-81093D02*
X187747Y-80585D01*
X187239Y-80585D02*
X187747Y-80585D01*
X187239Y-80585D02*
X187493Y-81093D01*
X191478Y-84125D02*
X191732Y-83617D01*
X191224Y-83617D02*
X191732Y-83617D01*
X191224Y-83617D02*
X191478Y-84125D01*
X173193Y-56374D02*
X173447Y-55866D01*
X172939Y-55866D02*
X173447Y-55866D01*
X172939Y-55866D02*
X173193Y-56374D01*
X181878Y-56463D02*
X182132Y-55955D01*
X181624Y-55955D02*
X182132Y-55955D01*
X181624Y-55955D02*
X181878Y-56463D01*
X187518Y-52813D02*
X187772Y-52305D01*
X187264Y-52305D02*
X187772Y-52305D01*
X187264Y-52305D02*
X187518Y-52813D01*
X190335Y-53960D02*
X190589Y-53452D01*
X190081Y-53452D02*
X190589Y-53452D01*
X190081Y-53452D02*
X190335Y-53960D01*
X193405Y-53898D02*
X193659Y-53390D01*
X193151Y-53390D02*
X193659Y-53390D01*
X193151Y-53390D02*
X193405Y-53898D01*
X196431Y-55664D02*
X196685Y-55156D01*
X196177Y-55156D02*
X196685Y-55156D01*
X196177Y-55156D02*
X196431Y-55664D01*
X199898Y-57987D02*
X200152Y-57479D01*
X199644Y-57479D02*
X200152Y-57479D01*
X199644Y-57479D02*
X199898Y-57987D01*
X184747Y-55701D02*
X185001Y-55193D01*
X184493Y-55193D02*
X185001Y-55193D01*
X184493Y-55193D02*
X184747Y-55701D01*
X175846Y-54980D02*
X176100Y-54472D01*
X175592Y-54472D02*
X176100Y-54472D01*
X175592Y-54472D02*
X175846Y-54980D01*
X178651Y-57479D02*
X178905Y-56971D01*
X178397Y-56971D02*
X178905Y-56971D01*
X178397Y-56971D02*
X178651Y-57479D01*
X170746Y-58103D02*
X171000Y-57595D01*
X170492Y-57595D02*
X171000Y-57595D01*
X170492Y-57595D02*
X170746Y-58103D01*
X170777Y-59257D02*
X171031Y-58749D01*
X170523Y-58749D02*
X171031Y-58749D01*
X170523Y-58749D02*
X170777Y-59257D01*
X193577Y-82744D02*
X193831Y-82236D01*
X193323Y-82236D02*
X193831Y-82236D01*
X193323Y-82236D02*
X193577Y-82744D01*
X186144Y-80093D02*
X186398Y-79585D01*
X185890Y-79585D02*
X186398Y-79585D01*
X185890Y-79585D02*
X186144Y-80093D01*
X191732Y-82363D02*
X191986Y-81855D01*
X191478Y-81855D02*
X191986Y-81855D01*
X191478Y-81855D02*
X191732Y-82363D01*
X174249Y-81585D02*
X174757Y-81585D01*
X174757Y-81077D01*
X174249Y-81077D02*
X174757Y-81077D01*
X174249Y-81585D02*
X174249Y-81077D01*
X174249Y-79045D02*
X174757Y-79045D01*
X174757Y-78537D01*
X174249Y-78537D02*
X174757Y-78537D01*
X174249Y-79045D02*
X174249Y-78537D01*
X174249Y-68885D02*
X174757Y-68885D01*
X174757Y-68377D01*
X174249Y-68377D02*
X174757Y-68377D01*
X174249Y-68885D02*
X174249Y-68377D01*
X174249Y-71425D02*
X174757Y-71425D01*
X174757Y-70917D01*
X174249Y-70917D02*
X174757Y-70917D01*
X174249Y-71425D02*
X174249Y-70917D01*
X174249Y-73965D02*
X174757Y-73965D01*
X174757Y-73457D01*
X174249Y-73457D02*
X174757Y-73457D01*
X174249Y-73965D02*
X174249Y-73457D01*
X174249Y-76505D02*
X174757Y-76505D01*
X174757Y-75997D01*
X174249Y-75997D02*
X174757Y-75997D01*
X174249Y-76505D02*
X174249Y-75997D01*
X174249Y-84125D02*
X174757Y-84125D01*
X174757Y-83617D01*
X174249Y-83617D02*
X174757Y-83617D01*
X174249Y-84125D02*
X174249Y-83617D01*
X174249Y-86665D02*
X174757Y-86665D01*
X174757Y-86157D01*
X174249Y-86157D02*
X174757Y-86157D01*
X174249Y-86665D02*
X174249Y-86157D01*
X197117Y-81575D02*
X197625Y-81575D01*
X197625Y-81067D01*
X197117Y-81067D02*
X197625Y-81067D01*
X197117Y-81575D02*
X197117Y-81067D01*
X197117Y-79035D02*
X197625Y-79035D01*
X197625Y-78527D01*
X197117Y-78527D02*
X197625Y-78527D01*
X197117Y-79035D02*
X197117Y-78527D01*
X197117Y-68875D02*
X197625Y-68875D01*
X197625Y-68367D01*
X197117Y-68367D02*
X197625Y-68367D01*
X197117Y-68875D02*
X197117Y-68367D01*
X197117Y-71415D02*
X197625Y-71415D01*
X197625Y-70907D01*
X197117Y-70907D02*
X197625Y-70907D01*
X197117Y-71415D02*
X197117Y-70907D01*
X197117Y-73955D02*
X197625Y-73955D01*
X197625Y-73447D01*
X197117Y-73447D02*
X197625Y-73447D01*
X197117Y-73955D02*
X197117Y-73447D01*
X197117Y-76495D02*
X197625Y-76495D01*
X197625Y-75987D01*
X197117Y-75987D02*
X197625Y-75987D01*
X197117Y-76495D02*
X197117Y-75987D01*
X197117Y-84115D02*
X197625Y-84115D01*
X197625Y-83607D01*
X197117Y-83607D02*
X197625Y-83607D01*
X197117Y-84115D02*
X197117Y-83607D01*
X197117Y-86655D02*
X197625Y-86655D01*
X197625Y-86147D01*
X197117Y-86147D02*
X197625Y-86147D01*
X197117Y-86655D02*
X197117Y-86147D01*
X137957Y34483D02*
X138211Y34991D01*
X137703Y34991D02*
X138211Y34991D01*
X137703Y34991D02*
X137957Y34483D01*
X133766Y34483D02*
X134020Y34991D01*
X133512Y34991D02*
X134020Y34991D01*
X133512Y34991D02*
X133766Y34483D01*
X144561Y34610D02*
X144815Y35118D01*
X144307Y35118D02*
X144815Y35118D01*
X144307Y35118D02*
X144561Y34610D01*
X145577Y31943D02*
X145831Y32451D01*
X145323Y32451D02*
X145831Y32451D01*
X145323Y32451D02*
X145577Y31943D01*
X143418Y31943D02*
X143672Y32451D01*
X143164Y32451D02*
X143672Y32451D01*
X143164Y32451D02*
X143418Y31943D01*
X142402Y33721D02*
X142656Y34229D01*
X142148Y34229D02*
X142656Y34229D01*
X142148Y34229D02*
X142402Y33721D01*
X135925Y33721D02*
X136179Y34229D01*
X135671Y34229D02*
X136179Y34229D01*
X135671Y34229D02*
X135925Y33721D01*
X139735Y38420D02*
X139989Y38928D01*
X139481Y38928D02*
X139989Y38928D01*
X139481Y38928D02*
X139735Y38420D01*
X139735Y41468D02*
X139989Y41976D01*
X139481Y41976D02*
X139989Y41976D01*
X139481Y41976D02*
X139735Y41468D01*
X135417Y40071D02*
X135671Y40579D01*
X135163Y40579D02*
X135671Y40579D01*
X135163Y40579D02*
X135417Y40071D01*
X144894Y21529D02*
X145148Y22037D01*
X144640Y22037D02*
X145148Y22037D01*
X144640Y22037D02*
X144894Y21529D01*
X148879Y18497D02*
X149133Y19005D01*
X148625Y19005D02*
X149133Y19005D01*
X148625Y19005D02*
X148879Y18497D01*
X130594Y46248D02*
X130848Y46756D01*
X130340Y46756D02*
X130848Y46756D01*
X130340Y46756D02*
X130594Y46248D01*
X139279Y46159D02*
X139533Y46667D01*
X139025Y46667D02*
X139533Y46667D01*
X139025Y46667D02*
X139279Y46159D01*
X144919Y49809D02*
X145173Y50317D01*
X144665Y50317D02*
X145173Y50317D01*
X144665Y50317D02*
X144919Y49809D01*
X147736Y48662D02*
X147990Y49170D01*
X147482Y49170D02*
X147990Y49170D01*
X147482Y49170D02*
X147736Y48662D01*
X150806Y48724D02*
X151060Y49232D01*
X150552Y49232D02*
X151060Y49232D01*
X150552Y49232D02*
X150806Y48724D01*
X153832Y46957D02*
X154086Y47465D01*
X153578Y47465D02*
X154086Y47465D01*
X153578Y47465D02*
X153832Y46957D01*
X157300Y44635D02*
X157554Y45143D01*
X157046Y45143D02*
X157554Y45143D01*
X157046Y45143D02*
X157300Y44635D01*
X142148Y46921D02*
X142402Y47429D01*
X141894Y47429D02*
X142402Y47429D01*
X141894Y47429D02*
X142148Y46921D01*
X133247Y47642D02*
X133501Y48150D01*
X132993Y48150D02*
X133501Y48150D01*
X132993Y48150D02*
X133247Y47642D01*
X136052Y45143D02*
X136306Y45651D01*
X135798Y45651D02*
X136306Y45651D01*
X135798Y45651D02*
X136052Y45143D01*
X128147Y44518D02*
X128401Y45026D01*
X127893Y45026D02*
X128401Y45026D01*
X127893Y45026D02*
X128147Y44518D01*
X128178Y43365D02*
X128432Y43873D01*
X127924Y43873D02*
X128432Y43873D01*
X127924Y43873D02*
X128178Y43365D01*
X150979Y19878D02*
X151233Y20386D01*
X150725Y20386D02*
X151233Y20386D01*
X150725Y20386D02*
X150979Y19878D01*
X143545Y22529D02*
X143799Y23037D01*
X143291Y23037D02*
X143799Y23037D01*
X143291Y23037D02*
X143545Y22529D01*
X149133Y20259D02*
X149387Y20767D01*
X148879Y20767D02*
X149387Y20767D01*
X148879Y20767D02*
X149133Y20259D01*
X131650Y21037D02*
X132158Y21037D01*
X132158Y21545D01*
X131650Y21545D02*
X132158Y21545D01*
X131650Y21037D02*
X131650Y21545D01*
X131650Y23577D02*
X132158Y23577D01*
X132158Y24085D01*
X131650Y24085D02*
X132158Y24085D01*
X131650Y23577D02*
X131650Y24085D01*
X131650Y33737D02*
X132158Y33737D01*
X132158Y34245D01*
X131650Y34245D02*
X132158Y34245D01*
X131650Y33737D02*
X131650Y34245D01*
X131650Y31197D02*
X132158Y31197D01*
X132158Y31705D01*
X131650Y31705D02*
X132158Y31705D01*
X131650Y31197D02*
X131650Y31705D01*
X131650Y28657D02*
X132158Y28657D01*
X132158Y29165D01*
X131650Y29165D02*
X132158Y29165D01*
X131650Y28657D02*
X131650Y29165D01*
X131650Y26117D02*
X132158Y26117D01*
X132158Y26625D01*
X131650Y26625D02*
X132158Y26625D01*
X131650Y26117D02*
X131650Y26625D01*
X131650Y18497D02*
X132158Y18497D01*
X132158Y19005D01*
X131650Y19005D02*
X132158Y19005D01*
X131650Y18497D02*
X131650Y19005D01*
X131650Y15957D02*
X132158Y15957D01*
X132158Y16465D01*
X131650Y16465D02*
X132158Y16465D01*
X131650Y15957D02*
X131650Y16465D01*
X154518Y21046D02*
X155026Y21046D01*
X155026Y21554D01*
X154518Y21554D02*
X155026Y21554D01*
X154518Y21046D02*
X154518Y21554D01*
X154518Y23586D02*
X155026Y23586D01*
X155026Y24094D01*
X154518Y24094D02*
X155026Y24094D01*
X154518Y23586D02*
X154518Y24094D01*
X154518Y33746D02*
X155026Y33746D01*
X155026Y34254D01*
X154518Y34254D02*
X155026Y34254D01*
X154518Y33746D02*
X154518Y34254D01*
X154518Y31206D02*
X155026Y31206D01*
X155026Y31714D01*
X154518Y31714D02*
X155026Y31714D01*
X154518Y31206D02*
X154518Y31714D01*
X154518Y28666D02*
X155026Y28666D01*
X155026Y29174D01*
X154518Y29174D02*
X155026Y29174D01*
X154518Y28666D02*
X154518Y29174D01*
X154518Y26126D02*
X155026Y26126D01*
X155026Y26634D01*
X154518Y26634D02*
X155026Y26634D01*
X154518Y26126D02*
X154518Y26634D01*
X154518Y18506D02*
X155026Y18506D01*
X155026Y19014D01*
X154518Y19014D02*
X155026Y19014D01*
X154518Y18506D02*
X154518Y19014D01*
X154518Y15966D02*
X155026Y15966D01*
X155026Y16474D01*
X154518Y16474D02*
X155026Y16474D01*
X154518Y15966D02*
X154518Y16474D01*
X137957Y-16828D02*
X138211Y-16320D01*
X137703Y-16320D02*
X138211Y-16320D01*
X137703Y-16320D02*
X137957Y-16828D01*
X133766Y-16828D02*
X134020Y-16320D01*
X133512Y-16320D02*
X134020Y-16320D01*
X133512Y-16320D02*
X133766Y-16828D01*
X144561Y-16701D02*
X144815Y-16193D01*
X144307Y-16193D02*
X144815Y-16193D01*
X144307Y-16193D02*
X144561Y-16701D01*
X145577Y-19368D02*
X145831Y-18860D01*
X145323Y-18860D02*
X145831Y-18860D01*
X145323Y-18860D02*
X145577Y-19368D01*
X143418Y-19368D02*
X143672Y-18860D01*
X143164Y-18860D02*
X143672Y-18860D01*
X143164Y-18860D02*
X143418Y-19368D01*
X142402Y-17590D02*
X142656Y-17082D01*
X142148Y-17082D02*
X142656Y-17082D01*
X142148Y-17082D02*
X142402Y-17590D01*
X135925Y-17590D02*
X136179Y-17082D01*
X135671Y-17082D02*
X136179Y-17082D01*
X135671Y-17082D02*
X135925Y-17590D01*
X139735Y-12891D02*
X139989Y-12383D01*
X139481Y-12383D02*
X139989Y-12383D01*
X139481Y-12383D02*
X139735Y-12891D01*
X139735Y-9843D02*
X139989Y-9335D01*
X139481Y-9335D02*
X139989Y-9335D01*
X139481Y-9335D02*
X139735Y-9843D01*
X135417Y-11240D02*
X135671Y-10732D01*
X135163Y-10732D02*
X135671Y-10732D01*
X135163Y-10732D02*
X135417Y-11240D01*
X144894Y-29782D02*
X145148Y-29274D01*
X144640Y-29274D02*
X145148Y-29274D01*
X144640Y-29274D02*
X144894Y-29782D01*
X148879Y-32814D02*
X149133Y-32306D01*
X148625Y-32306D02*
X149133Y-32306D01*
X148625Y-32306D02*
X148879Y-32814D01*
X130594Y-5063D02*
X130848Y-4555D01*
X130340Y-4555D02*
X130848Y-4555D01*
X130340Y-4555D02*
X130594Y-5063D01*
X139279Y-5152D02*
X139533Y-4644D01*
X139025Y-4644D02*
X139533Y-4644D01*
X139025Y-4644D02*
X139279Y-5152D01*
X144919Y-1502D02*
X145173Y-994D01*
X144665Y-994D02*
X145173Y-994D01*
X144665Y-994D02*
X144919Y-1502D01*
X147736Y-2649D02*
X147990Y-2141D01*
X147482Y-2141D02*
X147990Y-2141D01*
X147482Y-2141D02*
X147736Y-2649D01*
X150806Y-2587D02*
X151060Y-2079D01*
X150552Y-2079D02*
X151060Y-2079D01*
X150552Y-2079D02*
X150806Y-2587D01*
X153832Y-4354D02*
X154086Y-3846D01*
X153578Y-3846D02*
X154086Y-3846D01*
X153578Y-3846D02*
X153832Y-4354D01*
X157300Y-6676D02*
X157554Y-6168D01*
X157046Y-6168D02*
X157554Y-6168D01*
X157046Y-6168D02*
X157300Y-6676D01*
X142148Y-4390D02*
X142402Y-3882D01*
X141894Y-3882D02*
X142402Y-3882D01*
X141894Y-3882D02*
X142148Y-4390D01*
X133247Y-3669D02*
X133501Y-3161D01*
X132993Y-3161D02*
X133501Y-3161D01*
X132993Y-3161D02*
X133247Y-3669D01*
X136052Y-6168D02*
X136306Y-5660D01*
X135798Y-5660D02*
X136306Y-5660D01*
X135798Y-5660D02*
X136052Y-6168D01*
X128147Y-6793D02*
X128401Y-6285D01*
X127893Y-6285D02*
X128401Y-6285D01*
X127893Y-6285D02*
X128147Y-6793D01*
X128178Y-7946D02*
X128432Y-7438D01*
X127924Y-7438D02*
X128432Y-7438D01*
X127924Y-7438D02*
X128178Y-7946D01*
X150979Y-31433D02*
X151233Y-30925D01*
X150725Y-30925D02*
X151233Y-30925D01*
X150725Y-30925D02*
X150979Y-31433D01*
X143545Y-28782D02*
X143799Y-28274D01*
X143291Y-28274D02*
X143799Y-28274D01*
X143291Y-28274D02*
X143545Y-28782D01*
X149133Y-31052D02*
X149387Y-30544D01*
X148879Y-30544D02*
X149387Y-30544D01*
X148879Y-30544D02*
X149133Y-31052D01*
X131650Y-30274D02*
X132158Y-30274D01*
X132158Y-29766D01*
X131650Y-29766D02*
X132158Y-29766D01*
X131650Y-30274D02*
X131650Y-29766D01*
X131650Y-27734D02*
X132158Y-27734D01*
X132158Y-27226D01*
X131650Y-27226D02*
X132158Y-27226D01*
X131650Y-27734D02*
X131650Y-27226D01*
X131650Y-17574D02*
X132158Y-17574D01*
X132158Y-17066D01*
X131650Y-17066D02*
X132158Y-17066D01*
X131650Y-17574D02*
X131650Y-17066D01*
X131650Y-20114D02*
X132158Y-20114D01*
X132158Y-19606D01*
X131650Y-19606D02*
X132158Y-19606D01*
X131650Y-20114D02*
X131650Y-19606D01*
X131650Y-22654D02*
X132158Y-22654D01*
X132158Y-22146D01*
X131650Y-22146D02*
X132158Y-22146D01*
X131650Y-22654D02*
X131650Y-22146D01*
X131650Y-25194D02*
X132158Y-25194D01*
X132158Y-24686D01*
X131650Y-24686D02*
X132158Y-24686D01*
X131650Y-25194D02*
X131650Y-24686D01*
X131650Y-32814D02*
X132158Y-32814D01*
X132158Y-32306D01*
X131650Y-32306D02*
X132158Y-32306D01*
X131650Y-32814D02*
X131650Y-32306D01*
X131650Y-35354D02*
X132158Y-35354D01*
X132158Y-34846D01*
X131650Y-34846D02*
X132158Y-34846D01*
X131650Y-35354D02*
X131650Y-34846D01*
X154518Y-30265D02*
X155026Y-30265D01*
X155026Y-29757D01*
X154518Y-29757D02*
X155026Y-29757D01*
X154518Y-30265D02*
X154518Y-29757D01*
X154518Y-27725D02*
X155026Y-27725D01*
X155026Y-27217D01*
X154518Y-27217D02*
X155026Y-27217D01*
X154518Y-27725D02*
X154518Y-27217D01*
X154518Y-17565D02*
X155026Y-17565D01*
X155026Y-17057D01*
X154518Y-17057D02*
X155026Y-17057D01*
X154518Y-17565D02*
X154518Y-17057D01*
X154518Y-20105D02*
X155026Y-20105D01*
X155026Y-19597D01*
X154518Y-19597D02*
X155026Y-19597D01*
X154518Y-20105D02*
X154518Y-19597D01*
X154518Y-22645D02*
X155026Y-22645D01*
X155026Y-22137D01*
X154518Y-22137D02*
X155026Y-22137D01*
X154518Y-22645D02*
X154518Y-22137D01*
X154518Y-25185D02*
X155026Y-25185D01*
X155026Y-24677D01*
X154518Y-24677D02*
X155026Y-24677D01*
X154518Y-25185D02*
X154518Y-24677D01*
X154518Y-32805D02*
X155026Y-32805D01*
X155026Y-32297D01*
X154518Y-32297D02*
X155026Y-32297D01*
X154518Y-32805D02*
X154518Y-32297D01*
X154518Y-35345D02*
X155026Y-35345D01*
X155026Y-34837D01*
X154518Y-34837D02*
X155026Y-34837D01*
X154518Y-35345D02*
X154518Y-34837D01*
X137957Y-68139D02*
X138211Y-67631D01*
X137703Y-67631D02*
X138211Y-67631D01*
X137703Y-67631D02*
X137957Y-68139D01*
X133766Y-68139D02*
X134020Y-67631D01*
X133512Y-67631D02*
X134020Y-67631D01*
X133512Y-67631D02*
X133766Y-68139D01*
X144561Y-68012D02*
X144815Y-67504D01*
X144307Y-67504D02*
X144815Y-67504D01*
X144307Y-67504D02*
X144561Y-68012D01*
X145577Y-70679D02*
X145831Y-70171D01*
X145323Y-70171D02*
X145831Y-70171D01*
X145323Y-70171D02*
X145577Y-70679D01*
X143418Y-70679D02*
X143672Y-70171D01*
X143164Y-70171D02*
X143672Y-70171D01*
X143164Y-70171D02*
X143418Y-70679D01*
X142402Y-68901D02*
X142656Y-68393D01*
X142148Y-68393D02*
X142656Y-68393D01*
X142148Y-68393D02*
X142402Y-68901D01*
X135925Y-68901D02*
X136179Y-68393D01*
X135671Y-68393D02*
X136179Y-68393D01*
X135671Y-68393D02*
X135925Y-68901D01*
X139735Y-64202D02*
X139989Y-63694D01*
X139481Y-63694D02*
X139989Y-63694D01*
X139481Y-63694D02*
X139735Y-64202D01*
X139735Y-61154D02*
X139989Y-60646D01*
X139481Y-60646D02*
X139989Y-60646D01*
X139481Y-60646D02*
X139735Y-61154D01*
X135417Y-62551D02*
X135671Y-62043D01*
X135163Y-62043D02*
X135671Y-62043D01*
X135163Y-62043D02*
X135417Y-62551D01*
X144894Y-81093D02*
X145148Y-80585D01*
X144640Y-80585D02*
X145148Y-80585D01*
X144640Y-80585D02*
X144894Y-81093D01*
X148879Y-84125D02*
X149133Y-83617D01*
X148625Y-83617D02*
X149133Y-83617D01*
X148625Y-83617D02*
X148879Y-84125D01*
X130594Y-56374D02*
X130848Y-55866D01*
X130340Y-55866D02*
X130848Y-55866D01*
X130340Y-55866D02*
X130594Y-56374D01*
X139279Y-56463D02*
X139533Y-55955D01*
X139025Y-55955D02*
X139533Y-55955D01*
X139025Y-55955D02*
X139279Y-56463D01*
X144919Y-52813D02*
X145173Y-52305D01*
X144665Y-52305D02*
X145173Y-52305D01*
X144665Y-52305D02*
X144919Y-52813D01*
X147736Y-53960D02*
X147990Y-53452D01*
X147482Y-53452D02*
X147990Y-53452D01*
X147482Y-53452D02*
X147736Y-53960D01*
X150806Y-53898D02*
X151060Y-53390D01*
X150552Y-53390D02*
X151060Y-53390D01*
X150552Y-53390D02*
X150806Y-53898D01*
X153832Y-55664D02*
X154086Y-55156D01*
X153578Y-55156D02*
X154086Y-55156D01*
X153578Y-55156D02*
X153832Y-55664D01*
X157300Y-57987D02*
X157554Y-57479D01*
X157046Y-57479D02*
X157554Y-57479D01*
X157046Y-57479D02*
X157300Y-57987D01*
X142148Y-55701D02*
X142402Y-55193D01*
X141894Y-55193D02*
X142402Y-55193D01*
X141894Y-55193D02*
X142148Y-55701D01*
X133247Y-54980D02*
X133501Y-54472D01*
X132993Y-54472D02*
X133501Y-54472D01*
X132993Y-54472D02*
X133247Y-54980D01*
X136052Y-57479D02*
X136306Y-56971D01*
X135798Y-56971D02*
X136306Y-56971D01*
X135798Y-56971D02*
X136052Y-57479D01*
X128147Y-58103D02*
X128401Y-57595D01*
X127893Y-57595D02*
X128401Y-57595D01*
X127893Y-57595D02*
X128147Y-58103D01*
X128178Y-59257D02*
X128432Y-58749D01*
X127924Y-58749D02*
X128432Y-58749D01*
X127924Y-58749D02*
X128178Y-59257D01*
X150979Y-82744D02*
X151233Y-82236D01*
X150725Y-82236D02*
X151233Y-82236D01*
X150725Y-82236D02*
X150979Y-82744D01*
X143545Y-80093D02*
X143799Y-79585D01*
X143291Y-79585D02*
X143799Y-79585D01*
X143291Y-79585D02*
X143545Y-80093D01*
X149133Y-82363D02*
X149387Y-81855D01*
X148879Y-81855D02*
X149387Y-81855D01*
X148879Y-81855D02*
X149133Y-82363D01*
X131650Y-81585D02*
X132158Y-81585D01*
X132158Y-81077D01*
X131650Y-81077D02*
X132158Y-81077D01*
X131650Y-81585D02*
X131650Y-81077D01*
X131650Y-79045D02*
X132158Y-79045D01*
X132158Y-78537D01*
X131650Y-78537D02*
X132158Y-78537D01*
X131650Y-79045D02*
X131650Y-78537D01*
X131650Y-68885D02*
X132158Y-68885D01*
X132158Y-68377D01*
X131650Y-68377D02*
X132158Y-68377D01*
X131650Y-68885D02*
X131650Y-68377D01*
X131650Y-71425D02*
X132158Y-71425D01*
X132158Y-70917D01*
X131650Y-70917D02*
X132158Y-70917D01*
X131650Y-71425D02*
X131650Y-70917D01*
X131650Y-73965D02*
X132158Y-73965D01*
X132158Y-73457D01*
X131650Y-73457D02*
X132158Y-73457D01*
X131650Y-73965D02*
X131650Y-73457D01*
X131650Y-76505D02*
X132158Y-76505D01*
X132158Y-75997D01*
X131650Y-75997D02*
X132158Y-75997D01*
X131650Y-76505D02*
X131650Y-75997D01*
X131650Y-84125D02*
X132158Y-84125D01*
X132158Y-83617D01*
X131650Y-83617D02*
X132158Y-83617D01*
X131650Y-84125D02*
X131650Y-83617D01*
X131650Y-86665D02*
X132158Y-86665D01*
X132158Y-86157D01*
X131650Y-86157D02*
X132158Y-86157D01*
X131650Y-86665D02*
X131650Y-86157D01*
X154518Y-81575D02*
X155026Y-81575D01*
X155026Y-81067D01*
X154518Y-81067D02*
X155026Y-81067D01*
X154518Y-81575D02*
X154518Y-81067D01*
X154518Y-79035D02*
X155026Y-79035D01*
X155026Y-78527D01*
X154518Y-78527D02*
X155026Y-78527D01*
X154518Y-79035D02*
X154518Y-78527D01*
X154518Y-68875D02*
X155026Y-68875D01*
X155026Y-68367D01*
X154518Y-68367D02*
X155026Y-68367D01*
X154518Y-68875D02*
X154518Y-68367D01*
X154518Y-71415D02*
X155026Y-71415D01*
X155026Y-70907D01*
X154518Y-70907D02*
X155026Y-70907D01*
X154518Y-71415D02*
X154518Y-70907D01*
X154518Y-73955D02*
X155026Y-73955D01*
X155026Y-73447D01*
X154518Y-73447D02*
X155026Y-73447D01*
X154518Y-73955D02*
X154518Y-73447D01*
X154518Y-76495D02*
X155026Y-76495D01*
X155026Y-75987D01*
X154518Y-75987D02*
X155026Y-75987D01*
X154518Y-76495D02*
X154518Y-75987D01*
X154518Y-84115D02*
X155026Y-84115D01*
X155026Y-83607D01*
X154518Y-83607D02*
X155026Y-83607D01*
X154518Y-84115D02*
X154518Y-83607D01*
X154518Y-86655D02*
X155026Y-86655D01*
X155026Y-86147D01*
X154518Y-86147D02*
X155026Y-86147D01*
X154518Y-86655D02*
X154518Y-86147D01*
X95359Y34483D02*
X95613Y34991D01*
X95105Y34991D02*
X95613Y34991D01*
X95105Y34991D02*
X95359Y34483D01*
X91168Y34483D02*
X91422Y34991D01*
X90914Y34991D02*
X91422Y34991D01*
X90914Y34991D02*
X91168Y34483D01*
X101963Y34610D02*
X102217Y35118D01*
X101709Y35118D02*
X102217Y35118D01*
X101709Y35118D02*
X101963Y34610D01*
X102979Y31943D02*
X103233Y32451D01*
X102725Y32451D02*
X103233Y32451D01*
X102725Y32451D02*
X102979Y31943D01*
X100820Y31943D02*
X101074Y32451D01*
X100566Y32451D02*
X101074Y32451D01*
X100566Y32451D02*
X100820Y31943D01*
X99804Y33721D02*
X100058Y34229D01*
X99550Y34229D02*
X100058Y34229D01*
X99550Y34229D02*
X99804Y33721D01*
X93327Y33721D02*
X93581Y34229D01*
X93073Y34229D02*
X93581Y34229D01*
X93073Y34229D02*
X93327Y33721D01*
X97137Y38420D02*
X97391Y38928D01*
X96883Y38928D02*
X97391Y38928D01*
X96883Y38928D02*
X97137Y38420D01*
X97137Y41468D02*
X97391Y41976D01*
X96883Y41976D02*
X97391Y41976D01*
X96883Y41976D02*
X97137Y41468D01*
X92819Y40071D02*
X93073Y40579D01*
X92565Y40579D02*
X93073Y40579D01*
X92565Y40579D02*
X92819Y40071D01*
X102296Y21529D02*
X102550Y22037D01*
X102042Y22037D02*
X102550Y22037D01*
X102042Y22037D02*
X102296Y21529D01*
X106281Y18497D02*
X106535Y19005D01*
X106027Y19005D02*
X106535Y19005D01*
X106027Y19005D02*
X106281Y18497D01*
X87996Y46248D02*
X88250Y46756D01*
X87742Y46756D02*
X88250Y46756D01*
X87742Y46756D02*
X87996Y46248D01*
X96680Y46159D02*
X96934Y46667D01*
X96426Y46667D02*
X96934Y46667D01*
X96426Y46667D02*
X96680Y46159D01*
X102321Y49809D02*
X102575Y50317D01*
X102067Y50317D02*
X102575Y50317D01*
X102067Y50317D02*
X102321Y49809D01*
X105137Y48662D02*
X105391Y49170D01*
X104883Y49170D02*
X105391Y49170D01*
X104883Y49170D02*
X105137Y48662D01*
X108208Y48724D02*
X108462Y49232D01*
X107954Y49232D02*
X108462Y49232D01*
X107954Y49232D02*
X108208Y48724D01*
X111234Y46957D02*
X111488Y47465D01*
X110980Y47465D02*
X111488Y47465D01*
X110980Y47465D02*
X111234Y46957D01*
X114701Y44635D02*
X114955Y45143D01*
X114447Y45143D02*
X114955Y45143D01*
X114447Y45143D02*
X114701Y44635D01*
X99550Y46921D02*
X99804Y47429D01*
X99296Y47429D02*
X99804Y47429D01*
X99296Y47429D02*
X99550Y46921D01*
X90648Y47642D02*
X90902Y48150D01*
X90394Y48150D02*
X90902Y48150D01*
X90394Y48150D02*
X90648Y47642D01*
X93454Y45143D02*
X93708Y45651D01*
X93200Y45651D02*
X93708Y45651D01*
X93200Y45651D02*
X93454Y45143D01*
X85549Y44518D02*
X85803Y45026D01*
X85295Y45026D02*
X85803Y45026D01*
X85295Y45026D02*
X85549Y44518D01*
X85580Y43365D02*
X85834Y43873D01*
X85326Y43873D02*
X85834Y43873D01*
X85326Y43873D02*
X85580Y43365D01*
X108380Y19878D02*
X108634Y20386D01*
X108126Y20386D02*
X108634Y20386D01*
X108126Y20386D02*
X108380Y19878D01*
X100947Y22529D02*
X101201Y23037D01*
X100693Y23037D02*
X101201Y23037D01*
X100693Y23037D02*
X100947Y22529D01*
X106535Y20259D02*
X106789Y20767D01*
X106281Y20767D02*
X106789Y20767D01*
X106281Y20767D02*
X106535Y20259D01*
X89052Y21037D02*
X89560Y21037D01*
X89560Y21545D01*
X89052Y21545D02*
X89560Y21545D01*
X89052Y21037D02*
X89052Y21545D01*
X89052Y23577D02*
X89560Y23577D01*
X89560Y24085D01*
X89052Y24085D02*
X89560Y24085D01*
X89052Y23577D02*
X89052Y24085D01*
X89052Y33737D02*
X89560Y33737D01*
X89560Y34245D01*
X89052Y34245D02*
X89560Y34245D01*
X89052Y33737D02*
X89052Y34245D01*
X89052Y31197D02*
X89560Y31197D01*
X89560Y31705D01*
X89052Y31705D02*
X89560Y31705D01*
X89052Y31197D02*
X89052Y31705D01*
X89052Y28657D02*
X89560Y28657D01*
X89560Y29165D01*
X89052Y29165D02*
X89560Y29165D01*
X89052Y28657D02*
X89052Y29165D01*
X89052Y26117D02*
X89560Y26117D01*
X89560Y26625D01*
X89052Y26625D02*
X89560Y26625D01*
X89052Y26117D02*
X89052Y26625D01*
X89052Y18497D02*
X89560Y18497D01*
X89560Y19005D01*
X89052Y19005D02*
X89560Y19005D01*
X89052Y18497D02*
X89052Y19005D01*
X89052Y15957D02*
X89560Y15957D01*
X89560Y16465D01*
X89052Y16465D02*
X89560Y16465D01*
X89052Y15957D02*
X89052Y16465D01*
X111919Y21046D02*
X112427Y21046D01*
X112427Y21554D01*
X111919Y21554D02*
X112427Y21554D01*
X111919Y21046D02*
X111919Y21554D01*
X111919Y23586D02*
X112427Y23586D01*
X112427Y24094D01*
X111919Y24094D02*
X112427Y24094D01*
X111919Y23586D02*
X111919Y24094D01*
X111919Y33746D02*
X112427Y33746D01*
X112427Y34254D01*
X111919Y34254D02*
X112427Y34254D01*
X111919Y33746D02*
X111919Y34254D01*
X111919Y31206D02*
X112427Y31206D01*
X112427Y31714D01*
X111919Y31714D02*
X112427Y31714D01*
X111919Y31206D02*
X111919Y31714D01*
X111919Y28666D02*
X112427Y28666D01*
X112427Y29174D01*
X111919Y29174D02*
X112427Y29174D01*
X111919Y28666D02*
X111919Y29174D01*
X111919Y26126D02*
X112427Y26126D01*
X112427Y26634D01*
X111919Y26634D02*
X112427Y26634D01*
X111919Y26126D02*
X111919Y26634D01*
X111919Y18506D02*
X112427Y18506D01*
X112427Y19014D01*
X111919Y19014D02*
X112427Y19014D01*
X111919Y18506D02*
X111919Y19014D01*
X111919Y15966D02*
X112427Y15966D01*
X112427Y16474D01*
X111919Y16474D02*
X112427Y16474D01*
X111919Y15966D02*
X111919Y16474D01*
X95359Y-16828D02*
X95613Y-16320D01*
X95105Y-16320D02*
X95613Y-16320D01*
X95105Y-16320D02*
X95359Y-16828D01*
X91168Y-16828D02*
X91422Y-16320D01*
X90914Y-16320D02*
X91422Y-16320D01*
X90914Y-16320D02*
X91168Y-16828D01*
X101963Y-16701D02*
X102217Y-16193D01*
X101709Y-16193D02*
X102217Y-16193D01*
X101709Y-16193D02*
X101963Y-16701D01*
X102979Y-19368D02*
X103233Y-18860D01*
X102725Y-18860D02*
X103233Y-18860D01*
X102725Y-18860D02*
X102979Y-19368D01*
X100820Y-19368D02*
X101074Y-18860D01*
X100566Y-18860D02*
X101074Y-18860D01*
X100566Y-18860D02*
X100820Y-19368D01*
X99804Y-17590D02*
X100058Y-17082D01*
X99550Y-17082D02*
X100058Y-17082D01*
X99550Y-17082D02*
X99804Y-17590D01*
X93327Y-17590D02*
X93581Y-17082D01*
X93073Y-17082D02*
X93581Y-17082D01*
X93073Y-17082D02*
X93327Y-17590D01*
X97137Y-12891D02*
X97391Y-12383D01*
X96883Y-12383D02*
X97391Y-12383D01*
X96883Y-12383D02*
X97137Y-12891D01*
X97137Y-9843D02*
X97391Y-9335D01*
X96883Y-9335D02*
X97391Y-9335D01*
X96883Y-9335D02*
X97137Y-9843D01*
X92819Y-11240D02*
X93073Y-10732D01*
X92565Y-10732D02*
X93073Y-10732D01*
X92565Y-10732D02*
X92819Y-11240D01*
X102296Y-29782D02*
X102550Y-29274D01*
X102042Y-29274D02*
X102550Y-29274D01*
X102042Y-29274D02*
X102296Y-29782D01*
X106281Y-32814D02*
X106535Y-32306D01*
X106027Y-32306D02*
X106535Y-32306D01*
X106027Y-32306D02*
X106281Y-32814D01*
X87996Y-5063D02*
X88250Y-4555D01*
X87742Y-4555D02*
X88250Y-4555D01*
X87742Y-4555D02*
X87996Y-5063D01*
X96680Y-5152D02*
X96934Y-4644D01*
X96426Y-4644D02*
X96934Y-4644D01*
X96426Y-4644D02*
X96680Y-5152D01*
X102321Y-1502D02*
X102575Y-994D01*
X102067Y-994D02*
X102575Y-994D01*
X102067Y-994D02*
X102321Y-1502D01*
X105137Y-2649D02*
X105391Y-2141D01*
X104883Y-2141D02*
X105391Y-2141D01*
X104883Y-2141D02*
X105137Y-2649D01*
X108208Y-2587D02*
X108462Y-2079D01*
X107954Y-2079D02*
X108462Y-2079D01*
X107954Y-2079D02*
X108208Y-2587D01*
X111234Y-4354D02*
X111488Y-3846D01*
X110980Y-3846D02*
X111488Y-3846D01*
X110980Y-3846D02*
X111234Y-4354D01*
X114701Y-6676D02*
X114955Y-6168D01*
X114447Y-6168D02*
X114955Y-6168D01*
X114447Y-6168D02*
X114701Y-6676D01*
X99550Y-4390D02*
X99804Y-3882D01*
X99296Y-3882D02*
X99804Y-3882D01*
X99296Y-3882D02*
X99550Y-4390D01*
X90648Y-3669D02*
X90902Y-3161D01*
X90394Y-3161D02*
X90902Y-3161D01*
X90394Y-3161D02*
X90648Y-3669D01*
X93454Y-6168D02*
X93708Y-5660D01*
X93200Y-5660D02*
X93708Y-5660D01*
X93200Y-5660D02*
X93454Y-6168D01*
X85549Y-6793D02*
X85803Y-6285D01*
X85295Y-6285D02*
X85803Y-6285D01*
X85295Y-6285D02*
X85549Y-6793D01*
X85580Y-7946D02*
X85834Y-7438D01*
X85326Y-7438D02*
X85834Y-7438D01*
X85326Y-7438D02*
X85580Y-7946D01*
X108380Y-31433D02*
X108634Y-30925D01*
X108126Y-30925D02*
X108634Y-30925D01*
X108126Y-30925D02*
X108380Y-31433D01*
X100947Y-28782D02*
X101201Y-28274D01*
X100693Y-28274D02*
X101201Y-28274D01*
X100693Y-28274D02*
X100947Y-28782D01*
X106535Y-31052D02*
X106789Y-30544D01*
X106281Y-30544D02*
X106789Y-30544D01*
X106281Y-30544D02*
X106535Y-31052D01*
X89052Y-30274D02*
X89560Y-30274D01*
X89560Y-29766D01*
X89052Y-29766D02*
X89560Y-29766D01*
X89052Y-30274D02*
X89052Y-29766D01*
X89052Y-27734D02*
X89560Y-27734D01*
X89560Y-27226D01*
X89052Y-27226D02*
X89560Y-27226D01*
X89052Y-27734D02*
X89052Y-27226D01*
X89052Y-17574D02*
X89560Y-17574D01*
X89560Y-17066D01*
X89052Y-17066D02*
X89560Y-17066D01*
X89052Y-17574D02*
X89052Y-17066D01*
X89052Y-20114D02*
X89560Y-20114D01*
X89560Y-19606D01*
X89052Y-19606D02*
X89560Y-19606D01*
X89052Y-20114D02*
X89052Y-19606D01*
X89052Y-22654D02*
X89560Y-22654D01*
X89560Y-22146D01*
X89052Y-22146D02*
X89560Y-22146D01*
X89052Y-22654D02*
X89052Y-22146D01*
X89052Y-25194D02*
X89560Y-25194D01*
X89560Y-24686D01*
X89052Y-24686D02*
X89560Y-24686D01*
X89052Y-25194D02*
X89052Y-24686D01*
X89052Y-32814D02*
X89560Y-32814D01*
X89560Y-32306D01*
X89052Y-32306D02*
X89560Y-32306D01*
X89052Y-32814D02*
X89052Y-32306D01*
X89052Y-35354D02*
X89560Y-35354D01*
X89560Y-34846D01*
X89052Y-34846D02*
X89560Y-34846D01*
X89052Y-35354D02*
X89052Y-34846D01*
X111919Y-30265D02*
X112427Y-30265D01*
X112427Y-29757D01*
X111919Y-29757D02*
X112427Y-29757D01*
X111919Y-30265D02*
X111919Y-29757D01*
X111919Y-27725D02*
X112427Y-27725D01*
X112427Y-27217D01*
X111919Y-27217D02*
X112427Y-27217D01*
X111919Y-27725D02*
X111919Y-27217D01*
X111919Y-17565D02*
X112427Y-17565D01*
X112427Y-17057D01*
X111919Y-17057D02*
X112427Y-17057D01*
X111919Y-17565D02*
X111919Y-17057D01*
X111919Y-20105D02*
X112427Y-20105D01*
X112427Y-19597D01*
X111919Y-19597D02*
X112427Y-19597D01*
X111919Y-20105D02*
X111919Y-19597D01*
X111919Y-22645D02*
X112427Y-22645D01*
X112427Y-22137D01*
X111919Y-22137D02*
X112427Y-22137D01*
X111919Y-22645D02*
X111919Y-22137D01*
X111919Y-25185D02*
X112427Y-25185D01*
X112427Y-24677D01*
X111919Y-24677D02*
X112427Y-24677D01*
X111919Y-25185D02*
X111919Y-24677D01*
X111919Y-32805D02*
X112427Y-32805D01*
X112427Y-32297D01*
X111919Y-32297D02*
X112427Y-32297D01*
X111919Y-32805D02*
X111919Y-32297D01*
X111919Y-35345D02*
X112427Y-35345D01*
X112427Y-34837D01*
X111919Y-34837D02*
X112427Y-34837D01*
X111919Y-35345D02*
X111919Y-34837D01*
X95359Y-68139D02*
X95613Y-67631D01*
X95105Y-67631D02*
X95613Y-67631D01*
X95105Y-67631D02*
X95359Y-68139D01*
X91168Y-68139D02*
X91422Y-67631D01*
X90914Y-67631D02*
X91422Y-67631D01*
X90914Y-67631D02*
X91168Y-68139D01*
X101963Y-68012D02*
X102217Y-67504D01*
X101709Y-67504D02*
X102217Y-67504D01*
X101709Y-67504D02*
X101963Y-68012D01*
X102979Y-70679D02*
X103233Y-70171D01*
X102725Y-70171D02*
X103233Y-70171D01*
X102725Y-70171D02*
X102979Y-70679D01*
X100820Y-70679D02*
X101074Y-70171D01*
X100566Y-70171D02*
X101074Y-70171D01*
X100566Y-70171D02*
X100820Y-70679D01*
X99804Y-68901D02*
X100058Y-68393D01*
X99550Y-68393D02*
X100058Y-68393D01*
X99550Y-68393D02*
X99804Y-68901D01*
X93327Y-68901D02*
X93581Y-68393D01*
X93073Y-68393D02*
X93581Y-68393D01*
X93073Y-68393D02*
X93327Y-68901D01*
X97137Y-64202D02*
X97391Y-63694D01*
X96883Y-63694D02*
X97391Y-63694D01*
X96883Y-63694D02*
X97137Y-64202D01*
X97137Y-61154D02*
X97391Y-60646D01*
X96883Y-60646D02*
X97391Y-60646D01*
X96883Y-60646D02*
X97137Y-61154D01*
X92819Y-62551D02*
X93073Y-62043D01*
X92565Y-62043D02*
X93073Y-62043D01*
X92565Y-62043D02*
X92819Y-62551D01*
X102296Y-81093D02*
X102550Y-80585D01*
X102042Y-80585D02*
X102550Y-80585D01*
X102042Y-80585D02*
X102296Y-81093D01*
X106281Y-84125D02*
X106535Y-83617D01*
X106027Y-83617D02*
X106535Y-83617D01*
X106027Y-83617D02*
X106281Y-84125D01*
X87996Y-56374D02*
X88250Y-55866D01*
X87742Y-55866D02*
X88250Y-55866D01*
X87742Y-55866D02*
X87996Y-56374D01*
X96680Y-56463D02*
X96934Y-55955D01*
X96426Y-55955D02*
X96934Y-55955D01*
X96426Y-55955D02*
X96680Y-56463D01*
X102321Y-52813D02*
X102575Y-52305D01*
X102067Y-52305D02*
X102575Y-52305D01*
X102067Y-52305D02*
X102321Y-52813D01*
X105137Y-53960D02*
X105391Y-53452D01*
X104883Y-53452D02*
X105391Y-53452D01*
X104883Y-53452D02*
X105137Y-53960D01*
X108208Y-53898D02*
X108462Y-53390D01*
X107954Y-53390D02*
X108462Y-53390D01*
X107954Y-53390D02*
X108208Y-53898D01*
X111234Y-55664D02*
X111488Y-55156D01*
X110980Y-55156D02*
X111488Y-55156D01*
X110980Y-55156D02*
X111234Y-55664D01*
X114701Y-57987D02*
X114955Y-57479D01*
X114447Y-57479D02*
X114955Y-57479D01*
X114447Y-57479D02*
X114701Y-57987D01*
X99550Y-55701D02*
X99804Y-55193D01*
X99296Y-55193D02*
X99804Y-55193D01*
X99296Y-55193D02*
X99550Y-55701D01*
X90648Y-54980D02*
X90902Y-54472D01*
X90394Y-54472D02*
X90902Y-54472D01*
X90394Y-54472D02*
X90648Y-54980D01*
X93454Y-57479D02*
X93708Y-56971D01*
X93200Y-56971D02*
X93708Y-56971D01*
X93200Y-56971D02*
X93454Y-57479D01*
X85549Y-58103D02*
X85803Y-57595D01*
X85295Y-57595D02*
X85803Y-57595D01*
X85295Y-57595D02*
X85549Y-58103D01*
X85580Y-59257D02*
X85834Y-58749D01*
X85326Y-58749D02*
X85834Y-58749D01*
X85326Y-58749D02*
X85580Y-59257D01*
X108380Y-82744D02*
X108634Y-82236D01*
X108126Y-82236D02*
X108634Y-82236D01*
X108126Y-82236D02*
X108380Y-82744D01*
X100947Y-80093D02*
X101201Y-79585D01*
X100693Y-79585D02*
X101201Y-79585D01*
X100693Y-79585D02*
X100947Y-80093D01*
X106535Y-82363D02*
X106789Y-81855D01*
X106281Y-81855D02*
X106789Y-81855D01*
X106281Y-81855D02*
X106535Y-82363D01*
X89052Y-81585D02*
X89560Y-81585D01*
X89560Y-81077D01*
X89052Y-81077D02*
X89560Y-81077D01*
X89052Y-81585D02*
X89052Y-81077D01*
X89052Y-79045D02*
X89560Y-79045D01*
X89560Y-78537D01*
X89052Y-78537D02*
X89560Y-78537D01*
X89052Y-79045D02*
X89052Y-78537D01*
X89052Y-68885D02*
X89560Y-68885D01*
X89560Y-68377D01*
X89052Y-68377D02*
X89560Y-68377D01*
X89052Y-68885D02*
X89052Y-68377D01*
X89052Y-71425D02*
X89560Y-71425D01*
X89560Y-70917D01*
X89052Y-70917D02*
X89560Y-70917D01*
X89052Y-71425D02*
X89052Y-70917D01*
X89052Y-73965D02*
X89560Y-73965D01*
X89560Y-73457D01*
X89052Y-73457D02*
X89560Y-73457D01*
X89052Y-73965D02*
X89052Y-73457D01*
X89052Y-76505D02*
X89560Y-76505D01*
X89560Y-75997D01*
X89052Y-75997D02*
X89560Y-75997D01*
X89052Y-76505D02*
X89052Y-75997D01*
X89052Y-84125D02*
X89560Y-84125D01*
X89560Y-83617D01*
X89052Y-83617D02*
X89560Y-83617D01*
X89052Y-84125D02*
X89052Y-83617D01*
X89052Y-86665D02*
X89560Y-86665D01*
X89560Y-86157D01*
X89052Y-86157D02*
X89560Y-86157D01*
X89052Y-86665D02*
X89052Y-86157D01*
X111919Y-81575D02*
X112427Y-81575D01*
X112427Y-81067D01*
X111919Y-81067D02*
X112427Y-81067D01*
X111919Y-81575D02*
X111919Y-81067D01*
X111919Y-79035D02*
X112427Y-79035D01*
X112427Y-78527D01*
X111919Y-78527D02*
X112427Y-78527D01*
X111919Y-79035D02*
X111919Y-78527D01*
X111919Y-68875D02*
X112427Y-68875D01*
X112427Y-68367D01*
X111919Y-68367D02*
X112427Y-68367D01*
X111919Y-68875D02*
X111919Y-68367D01*
X111919Y-71415D02*
X112427Y-71415D01*
X112427Y-70907D01*
X111919Y-70907D02*
X112427Y-70907D01*
X111919Y-71415D02*
X111919Y-70907D01*
X111919Y-73955D02*
X112427Y-73955D01*
X112427Y-73447D01*
X111919Y-73447D02*
X112427Y-73447D01*
X111919Y-73955D02*
X111919Y-73447D01*
X111919Y-76495D02*
X112427Y-76495D01*
X112427Y-75987D01*
X111919Y-75987D02*
X112427Y-75987D01*
X111919Y-76495D02*
X111919Y-75987D01*
X111919Y-84115D02*
X112427Y-84115D01*
X112427Y-83607D01*
X111919Y-83607D02*
X112427Y-83607D01*
X111919Y-84115D02*
X111919Y-83607D01*
X111919Y-86655D02*
X112427Y-86655D01*
X112427Y-86147D01*
X111919Y-86147D02*
X112427Y-86147D01*
X111919Y-86655D02*
X111919Y-86147D01*
X52760Y34483D02*
X53014Y34991D01*
X52506Y34991D02*
X53014Y34991D01*
X52506Y34991D02*
X52760Y34483D01*
X48569Y34483D02*
X48823Y34991D01*
X48315Y34991D02*
X48823Y34991D01*
X48315Y34991D02*
X48569Y34483D01*
X59364Y34610D02*
X59618Y35118D01*
X59110Y35118D02*
X59618Y35118D01*
X59110Y35118D02*
X59364Y34610D01*
X60380Y31943D02*
X60634Y32451D01*
X60126Y32451D02*
X60634Y32451D01*
X60126Y32451D02*
X60380Y31943D01*
X58221Y31943D02*
X58475Y32451D01*
X57967Y32451D02*
X58475Y32451D01*
X57967Y32451D02*
X58221Y31943D01*
X57205Y33721D02*
X57459Y34229D01*
X56951Y34229D02*
X57459Y34229D01*
X56951Y34229D02*
X57205Y33721D01*
X50728Y33721D02*
X50982Y34229D01*
X50474Y34229D02*
X50982Y34229D01*
X50474Y34229D02*
X50728Y33721D01*
X54538Y38420D02*
X54792Y38928D01*
X54284Y38928D02*
X54792Y38928D01*
X54284Y38928D02*
X54538Y38420D01*
X54538Y41468D02*
X54792Y41976D01*
X54284Y41976D02*
X54792Y41976D01*
X54284Y41976D02*
X54538Y41468D01*
X50220Y40071D02*
X50474Y40579D01*
X49966Y40579D02*
X50474Y40579D01*
X49966Y40579D02*
X50220Y40071D01*
X59697Y21529D02*
X59951Y22037D01*
X59443Y22037D02*
X59951Y22037D01*
X59443Y22037D02*
X59697Y21529D01*
X63682Y18497D02*
X63936Y19005D01*
X63428Y19005D02*
X63936Y19005D01*
X63428Y19005D02*
X63682Y18497D01*
X45397Y46248D02*
X45651Y46756D01*
X45143Y46756D02*
X45651Y46756D01*
X45143Y46756D02*
X45397Y46248D01*
X54082Y46159D02*
X54336Y46667D01*
X53828Y46667D02*
X54336Y46667D01*
X53828Y46667D02*
X54082Y46159D01*
X59722Y49809D02*
X59976Y50317D01*
X59468Y50317D02*
X59976Y50317D01*
X59468Y50317D02*
X59722Y49809D01*
X62539Y48662D02*
X62793Y49170D01*
X62285Y49170D02*
X62793Y49170D01*
X62285Y49170D02*
X62539Y48662D01*
X65609Y48724D02*
X65863Y49232D01*
X65355Y49232D02*
X65863Y49232D01*
X65355Y49232D02*
X65609Y48724D01*
X68635Y46957D02*
X68889Y47465D01*
X68381Y47465D02*
X68889Y47465D01*
X68381Y47465D02*
X68635Y46957D01*
X72102Y44635D02*
X72356Y45143D01*
X71848Y45143D02*
X72356Y45143D01*
X71848Y45143D02*
X72102Y44635D01*
X56951Y46921D02*
X57205Y47429D01*
X56697Y47429D02*
X57205Y47429D01*
X56697Y47429D02*
X56951Y46921D01*
X48049Y47642D02*
X48303Y48150D01*
X47795Y48150D02*
X48303Y48150D01*
X47795Y48150D02*
X48049Y47642D01*
X50855Y45143D02*
X51109Y45651D01*
X50601Y45651D02*
X51109Y45651D01*
X50601Y45651D02*
X50855Y45143D01*
X42950Y44518D02*
X43204Y45026D01*
X42696Y45026D02*
X43204Y45026D01*
X42696Y45026D02*
X42950Y44518D01*
X42981Y43365D02*
X43235Y43873D01*
X42727Y43873D02*
X43235Y43873D01*
X42727Y43873D02*
X42981Y43365D01*
X65781Y19878D02*
X66035Y20386D01*
X65527Y20386D02*
X66035Y20386D01*
X65527Y20386D02*
X65781Y19878D01*
X58348Y22529D02*
X58602Y23037D01*
X58094Y23037D02*
X58602Y23037D01*
X58094Y23037D02*
X58348Y22529D01*
X63936Y20259D02*
X64190Y20767D01*
X63682Y20767D02*
X64190Y20767D01*
X63682Y20767D02*
X63936Y20259D01*
X46453Y21037D02*
X46961Y21037D01*
X46961Y21545D01*
X46453Y21545D02*
X46961Y21545D01*
X46453Y21037D02*
X46453Y21545D01*
X46453Y23577D02*
X46961Y23577D01*
X46961Y24085D01*
X46453Y24085D02*
X46961Y24085D01*
X46453Y23577D02*
X46453Y24085D01*
X46453Y33737D02*
X46961Y33737D01*
X46961Y34245D01*
X46453Y34245D02*
X46961Y34245D01*
X46453Y33737D02*
X46453Y34245D01*
X46453Y31197D02*
X46961Y31197D01*
X46961Y31705D01*
X46453Y31705D02*
X46961Y31705D01*
X46453Y31197D02*
X46453Y31705D01*
X46453Y28657D02*
X46961Y28657D01*
X46961Y29165D01*
X46453Y29165D02*
X46961Y29165D01*
X46453Y28657D02*
X46453Y29165D01*
X46453Y26117D02*
X46961Y26117D01*
X46961Y26625D01*
X46453Y26625D02*
X46961Y26625D01*
X46453Y26117D02*
X46453Y26625D01*
X46453Y18497D02*
X46961Y18497D01*
X46961Y19005D01*
X46453Y19005D02*
X46961Y19005D01*
X46453Y18497D02*
X46453Y19005D01*
X46453Y15957D02*
X46961Y15957D01*
X46961Y16465D01*
X46453Y16465D02*
X46961Y16465D01*
X46453Y15957D02*
X46453Y16465D01*
X69321Y21046D02*
X69829Y21046D01*
X69829Y21554D01*
X69321Y21554D02*
X69829Y21554D01*
X69321Y21046D02*
X69321Y21554D01*
X69321Y23586D02*
X69829Y23586D01*
X69829Y24094D01*
X69321Y24094D02*
X69829Y24094D01*
X69321Y23586D02*
X69321Y24094D01*
X69321Y33746D02*
X69829Y33746D01*
X69829Y34254D01*
X69321Y34254D02*
X69829Y34254D01*
X69321Y33746D02*
X69321Y34254D01*
X69321Y31206D02*
X69829Y31206D01*
X69829Y31714D01*
X69321Y31714D02*
X69829Y31714D01*
X69321Y31206D02*
X69321Y31714D01*
X69321Y28666D02*
X69829Y28666D01*
X69829Y29174D01*
X69321Y29174D02*
X69829Y29174D01*
X69321Y28666D02*
X69321Y29174D01*
X69321Y26126D02*
X69829Y26126D01*
X69829Y26634D01*
X69321Y26634D02*
X69829Y26634D01*
X69321Y26126D02*
X69321Y26634D01*
X69321Y18506D02*
X69829Y18506D01*
X69829Y19014D01*
X69321Y19014D02*
X69829Y19014D01*
X69321Y18506D02*
X69321Y19014D01*
X69321Y15966D02*
X69829Y15966D01*
X69829Y16474D01*
X69321Y16474D02*
X69829Y16474D01*
X69321Y15966D02*
X69321Y16474D01*
X52760Y-16828D02*
X53014Y-16320D01*
X52506Y-16320D02*
X53014Y-16320D01*
X52506Y-16320D02*
X52760Y-16828D01*
X48569Y-16828D02*
X48823Y-16320D01*
X48315Y-16320D02*
X48823Y-16320D01*
X48315Y-16320D02*
X48569Y-16828D01*
X59364Y-16701D02*
X59618Y-16193D01*
X59110Y-16193D02*
X59618Y-16193D01*
X59110Y-16193D02*
X59364Y-16701D01*
X60380Y-19368D02*
X60634Y-18860D01*
X60126Y-18860D02*
X60634Y-18860D01*
X60126Y-18860D02*
X60380Y-19368D01*
X58221Y-19368D02*
X58475Y-18860D01*
X57967Y-18860D02*
X58475Y-18860D01*
X57967Y-18860D02*
X58221Y-19368D01*
X57205Y-17590D02*
X57459Y-17082D01*
X56951Y-17082D02*
X57459Y-17082D01*
X56951Y-17082D02*
X57205Y-17590D01*
X50728Y-17590D02*
X50982Y-17082D01*
X50474Y-17082D02*
X50982Y-17082D01*
X50474Y-17082D02*
X50728Y-17590D01*
X54538Y-12891D02*
X54792Y-12383D01*
X54284Y-12383D02*
X54792Y-12383D01*
X54284Y-12383D02*
X54538Y-12891D01*
X54538Y-9843D02*
X54792Y-9335D01*
X54284Y-9335D02*
X54792Y-9335D01*
X54284Y-9335D02*
X54538Y-9843D01*
X50220Y-11240D02*
X50474Y-10732D01*
X49966Y-10732D02*
X50474Y-10732D01*
X49966Y-10732D02*
X50220Y-11240D01*
X59697Y-29782D02*
X59951Y-29274D01*
X59443Y-29274D02*
X59951Y-29274D01*
X59443Y-29274D02*
X59697Y-29782D01*
X63682Y-32814D02*
X63936Y-32306D01*
X63428Y-32306D02*
X63936Y-32306D01*
X63428Y-32306D02*
X63682Y-32814D01*
X45397Y-5063D02*
X45651Y-4555D01*
X45143Y-4555D02*
X45651Y-4555D01*
X45143Y-4555D02*
X45397Y-5063D01*
X54082Y-5152D02*
X54336Y-4644D01*
X53828Y-4644D02*
X54336Y-4644D01*
X53828Y-4644D02*
X54082Y-5152D01*
X59722Y-1502D02*
X59976Y-994D01*
X59468Y-994D02*
X59976Y-994D01*
X59468Y-994D02*
X59722Y-1502D01*
X62539Y-2649D02*
X62793Y-2141D01*
X62285Y-2141D02*
X62793Y-2141D01*
X62285Y-2141D02*
X62539Y-2649D01*
X65609Y-2587D02*
X65863Y-2079D01*
X65355Y-2079D02*
X65863Y-2079D01*
X65355Y-2079D02*
X65609Y-2587D01*
X68635Y-4354D02*
X68889Y-3846D01*
X68381Y-3846D02*
X68889Y-3846D01*
X68381Y-3846D02*
X68635Y-4354D01*
X72102Y-6676D02*
X72356Y-6168D01*
X71848Y-6168D02*
X72356Y-6168D01*
X71848Y-6168D02*
X72102Y-6676D01*
X56951Y-4390D02*
X57205Y-3882D01*
X56697Y-3882D02*
X57205Y-3882D01*
X56697Y-3882D02*
X56951Y-4390D01*
X48049Y-3669D02*
X48303Y-3161D01*
X47795Y-3161D02*
X48303Y-3161D01*
X47795Y-3161D02*
X48049Y-3669D01*
X50855Y-6168D02*
X51109Y-5660D01*
X50601Y-5660D02*
X51109Y-5660D01*
X50601Y-5660D02*
X50855Y-6168D01*
X42950Y-6793D02*
X43204Y-6285D01*
X42696Y-6285D02*
X43204Y-6285D01*
X42696Y-6285D02*
X42950Y-6793D01*
X42981Y-7946D02*
X43235Y-7438D01*
X42727Y-7438D02*
X43235Y-7438D01*
X42727Y-7438D02*
X42981Y-7946D01*
X65781Y-31433D02*
X66035Y-30925D01*
X65527Y-30925D02*
X66035Y-30925D01*
X65527Y-30925D02*
X65781Y-31433D01*
X58348Y-28782D02*
X58602Y-28274D01*
X58094Y-28274D02*
X58602Y-28274D01*
X58094Y-28274D02*
X58348Y-28782D01*
X63936Y-31052D02*
X64190Y-30544D01*
X63682Y-30544D02*
X64190Y-30544D01*
X63682Y-30544D02*
X63936Y-31052D01*
X46453Y-30274D02*
X46961Y-30274D01*
X46961Y-29766D01*
X46453Y-29766D02*
X46961Y-29766D01*
X46453Y-30274D02*
X46453Y-29766D01*
X46453Y-27734D02*
X46961Y-27734D01*
X46961Y-27226D01*
X46453Y-27226D02*
X46961Y-27226D01*
X46453Y-27734D02*
X46453Y-27226D01*
X46453Y-17574D02*
X46961Y-17574D01*
X46961Y-17066D01*
X46453Y-17066D02*
X46961Y-17066D01*
X46453Y-17574D02*
X46453Y-17066D01*
X46453Y-20114D02*
X46961Y-20114D01*
X46961Y-19606D01*
X46453Y-19606D02*
X46961Y-19606D01*
X46453Y-20114D02*
X46453Y-19606D01*
X46453Y-22654D02*
X46961Y-22654D01*
X46961Y-22146D01*
X46453Y-22146D02*
X46961Y-22146D01*
X46453Y-22654D02*
X46453Y-22146D01*
X46453Y-25194D02*
X46961Y-25194D01*
X46961Y-24686D01*
X46453Y-24686D02*
X46961Y-24686D01*
X46453Y-25194D02*
X46453Y-24686D01*
X46453Y-32814D02*
X46961Y-32814D01*
X46961Y-32306D01*
X46453Y-32306D02*
X46961Y-32306D01*
X46453Y-32814D02*
X46453Y-32306D01*
X46453Y-35354D02*
X46961Y-35354D01*
X46961Y-34846D01*
X46453Y-34846D02*
X46961Y-34846D01*
X46453Y-35354D02*
X46453Y-34846D01*
X69321Y-30265D02*
X69829Y-30265D01*
X69829Y-29757D01*
X69321Y-29757D02*
X69829Y-29757D01*
X69321Y-30265D02*
X69321Y-29757D01*
X69321Y-27725D02*
X69829Y-27725D01*
X69829Y-27217D01*
X69321Y-27217D02*
X69829Y-27217D01*
X69321Y-27725D02*
X69321Y-27217D01*
X69321Y-17565D02*
X69829Y-17565D01*
X69829Y-17057D01*
X69321Y-17057D02*
X69829Y-17057D01*
X69321Y-17565D02*
X69321Y-17057D01*
X69321Y-20105D02*
X69829Y-20105D01*
X69829Y-19597D01*
X69321Y-19597D02*
X69829Y-19597D01*
X69321Y-20105D02*
X69321Y-19597D01*
X69321Y-22645D02*
X69829Y-22645D01*
X69829Y-22137D01*
X69321Y-22137D02*
X69829Y-22137D01*
X69321Y-22645D02*
X69321Y-22137D01*
X69321Y-25185D02*
X69829Y-25185D01*
X69829Y-24677D01*
X69321Y-24677D02*
X69829Y-24677D01*
X69321Y-25185D02*
X69321Y-24677D01*
X69321Y-32805D02*
X69829Y-32805D01*
X69829Y-32297D01*
X69321Y-32297D02*
X69829Y-32297D01*
X69321Y-32805D02*
X69321Y-32297D01*
X69321Y-35345D02*
X69829Y-35345D01*
X69829Y-34837D01*
X69321Y-34837D02*
X69829Y-34837D01*
X69321Y-35345D02*
X69321Y-34837D01*
X52760Y-68139D02*
X53014Y-67631D01*
X52506Y-67631D02*
X53014Y-67631D01*
X52506Y-67631D02*
X52760Y-68139D01*
X48569Y-68139D02*
X48823Y-67631D01*
X48315Y-67631D02*
X48823Y-67631D01*
X48315Y-67631D02*
X48569Y-68139D01*
X59364Y-68012D02*
X59618Y-67504D01*
X59110Y-67504D02*
X59618Y-67504D01*
X59110Y-67504D02*
X59364Y-68012D01*
X60380Y-70679D02*
X60634Y-70171D01*
X60126Y-70171D02*
X60634Y-70171D01*
X60126Y-70171D02*
X60380Y-70679D01*
X58221Y-70679D02*
X58475Y-70171D01*
X57967Y-70171D02*
X58475Y-70171D01*
X57967Y-70171D02*
X58221Y-70679D01*
X57205Y-68901D02*
X57459Y-68393D01*
X56951Y-68393D02*
X57459Y-68393D01*
X56951Y-68393D02*
X57205Y-68901D01*
X50728Y-68901D02*
X50982Y-68393D01*
X50474Y-68393D02*
X50982Y-68393D01*
X50474Y-68393D02*
X50728Y-68901D01*
X54538Y-64202D02*
X54792Y-63694D01*
X54284Y-63694D02*
X54792Y-63694D01*
X54284Y-63694D02*
X54538Y-64202D01*
X54538Y-61154D02*
X54792Y-60646D01*
X54284Y-60646D02*
X54792Y-60646D01*
X54284Y-60646D02*
X54538Y-61154D01*
X50220Y-62551D02*
X50474Y-62043D01*
X49966Y-62043D02*
X50474Y-62043D01*
X49966Y-62043D02*
X50220Y-62551D01*
X59697Y-81093D02*
X59951Y-80585D01*
X59443Y-80585D02*
X59951Y-80585D01*
X59443Y-80585D02*
X59697Y-81093D01*
X63682Y-84125D02*
X63936Y-83617D01*
X63428Y-83617D02*
X63936Y-83617D01*
X63428Y-83617D02*
X63682Y-84125D01*
X45397Y-56374D02*
X45651Y-55866D01*
X45143Y-55866D02*
X45651Y-55866D01*
X45143Y-55866D02*
X45397Y-56374D01*
X54082Y-56463D02*
X54336Y-55955D01*
X53828Y-55955D02*
X54336Y-55955D01*
X53828Y-55955D02*
X54082Y-56463D01*
X59722Y-52813D02*
X59976Y-52305D01*
X59468Y-52305D02*
X59976Y-52305D01*
X59468Y-52305D02*
X59722Y-52813D01*
X62539Y-53960D02*
X62793Y-53452D01*
X62285Y-53452D02*
X62793Y-53452D01*
X62285Y-53452D02*
X62539Y-53960D01*
X65609Y-53898D02*
X65863Y-53390D01*
X65355Y-53390D02*
X65863Y-53390D01*
X65355Y-53390D02*
X65609Y-53898D01*
X68635Y-55664D02*
X68889Y-55156D01*
X68381Y-55156D02*
X68889Y-55156D01*
X68381Y-55156D02*
X68635Y-55664D01*
X72102Y-57987D02*
X72356Y-57479D01*
X71848Y-57479D02*
X72356Y-57479D01*
X71848Y-57479D02*
X72102Y-57987D01*
X56951Y-55701D02*
X57205Y-55193D01*
X56697Y-55193D02*
X57205Y-55193D01*
X56697Y-55193D02*
X56951Y-55701D01*
X48049Y-54980D02*
X48303Y-54472D01*
X47795Y-54472D02*
X48303Y-54472D01*
X47795Y-54472D02*
X48049Y-54980D01*
X50855Y-57479D02*
X51109Y-56971D01*
X50601Y-56971D02*
X51109Y-56971D01*
X50601Y-56971D02*
X50855Y-57479D01*
X42950Y-58103D02*
X43204Y-57595D01*
X42696Y-57595D02*
X43204Y-57595D01*
X42696Y-57595D02*
X42950Y-58103D01*
X42981Y-59257D02*
X43235Y-58749D01*
X42727Y-58749D02*
X43235Y-58749D01*
X42727Y-58749D02*
X42981Y-59257D01*
X65781Y-82744D02*
X66035Y-82236D01*
X65527Y-82236D02*
X66035Y-82236D01*
X65527Y-82236D02*
X65781Y-82744D01*
X58348Y-80093D02*
X58602Y-79585D01*
X58094Y-79585D02*
X58602Y-79585D01*
X58094Y-79585D02*
X58348Y-80093D01*
X63936Y-82363D02*
X64190Y-81855D01*
X63682Y-81855D02*
X64190Y-81855D01*
X63682Y-81855D02*
X63936Y-82363D01*
X46453Y-81585D02*
X46961Y-81585D01*
X46961Y-81077D01*
X46453Y-81077D02*
X46961Y-81077D01*
X46453Y-81585D02*
X46453Y-81077D01*
X46453Y-79045D02*
X46961Y-79045D01*
X46961Y-78537D01*
X46453Y-78537D02*
X46961Y-78537D01*
X46453Y-79045D02*
X46453Y-78537D01*
X46453Y-68885D02*
X46961Y-68885D01*
X46961Y-68377D01*
X46453Y-68377D02*
X46961Y-68377D01*
X46453Y-68885D02*
X46453Y-68377D01*
X46453Y-71425D02*
X46961Y-71425D01*
X46961Y-70917D01*
X46453Y-70917D02*
X46961Y-70917D01*
X46453Y-71425D02*
X46453Y-70917D01*
X46453Y-73965D02*
X46961Y-73965D01*
X46961Y-73457D01*
X46453Y-73457D02*
X46961Y-73457D01*
X46453Y-73965D02*
X46453Y-73457D01*
X46453Y-76505D02*
X46961Y-76505D01*
X46961Y-75997D01*
X46453Y-75997D02*
X46961Y-75997D01*
X46453Y-76505D02*
X46453Y-75997D01*
X46453Y-84125D02*
X46961Y-84125D01*
X46961Y-83617D01*
X46453Y-83617D02*
X46961Y-83617D01*
X46453Y-84125D02*
X46453Y-83617D01*
X46453Y-86665D02*
X46961Y-86665D01*
X46961Y-86157D01*
X46453Y-86157D02*
X46961Y-86157D01*
X46453Y-86665D02*
X46453Y-86157D01*
X69321Y-81575D02*
X69829Y-81575D01*
X69829Y-81067D01*
X69321Y-81067D02*
X69829Y-81067D01*
X69321Y-81575D02*
X69321Y-81067D01*
X69321Y-79035D02*
X69829Y-79035D01*
X69829Y-78527D01*
X69321Y-78527D02*
X69829Y-78527D01*
X69321Y-79035D02*
X69321Y-78527D01*
X69321Y-68875D02*
X69829Y-68875D01*
X69829Y-68367D01*
X69321Y-68367D02*
X69829Y-68367D01*
X69321Y-68875D02*
X69321Y-68367D01*
X69321Y-71415D02*
X69829Y-71415D01*
X69829Y-70907D01*
X69321Y-70907D02*
X69829Y-70907D01*
X69321Y-71415D02*
X69321Y-70907D01*
X69321Y-73955D02*
X69829Y-73955D01*
X69829Y-73447D01*
X69321Y-73447D02*
X69829Y-73447D01*
X69321Y-73955D02*
X69321Y-73447D01*
X69321Y-76495D02*
X69829Y-76495D01*
X69829Y-75987D01*
X69321Y-75987D02*
X69829Y-75987D01*
X69321Y-76495D02*
X69321Y-75987D01*
X69321Y-84115D02*
X69829Y-84115D01*
X69829Y-83607D01*
X69321Y-83607D02*
X69829Y-83607D01*
X69321Y-84115D02*
X69321Y-83607D01*
X69321Y-86655D02*
X69829Y-86655D01*
X69829Y-86147D01*
X69321Y-86147D02*
X69829Y-86147D01*
X69321Y-86655D02*
X69321Y-86147D01*
X10161Y34483D02*
X10415Y34991D01*
X9907Y34991D02*
X10415Y34991D01*
X9907Y34991D02*
X10161Y34483D01*
X5970Y34483D02*
X6224Y34991D01*
X5716Y34991D02*
X6224Y34991D01*
X5716Y34991D02*
X5970Y34483D01*
X16765Y34610D02*
X17019Y35118D01*
X16511Y35118D02*
X17019Y35118D01*
X16511Y35118D02*
X16765Y34610D01*
X17781Y31943D02*
X18035Y32451D01*
X17527Y32451D02*
X18035Y32451D01*
X17527Y32451D02*
X17781Y31943D01*
X15622Y31943D02*
X15876Y32451D01*
X15368Y32451D02*
X15876Y32451D01*
X15368Y32451D02*
X15622Y31943D01*
X14606Y33721D02*
X14860Y34229D01*
X14352Y34229D02*
X14860Y34229D01*
X14352Y34229D02*
X14606Y33721D01*
X8129Y33721D02*
X8383Y34229D01*
X7875Y34229D02*
X8383Y34229D01*
X7875Y34229D02*
X8129Y33721D01*
X11939Y38420D02*
X12193Y38928D01*
X11685Y38928D02*
X12193Y38928D01*
X11685Y38928D02*
X11939Y38420D01*
X11939Y41468D02*
X12193Y41976D01*
X11685Y41976D02*
X12193Y41976D01*
X11685Y41976D02*
X11939Y41468D01*
X7621Y40071D02*
X7875Y40579D01*
X7367Y40579D02*
X7875Y40579D01*
X7367Y40579D02*
X7621Y40071D01*
X17098Y21529D02*
X17352Y22037D01*
X16844Y22037D02*
X17352Y22037D01*
X16844Y22037D02*
X17098Y21529D01*
X21083Y18497D02*
X21337Y19005D01*
X20829Y19005D02*
X21337Y19005D01*
X20829Y19005D02*
X21083Y18497D01*
X2798Y46248D02*
X3052Y46756D01*
X2544Y46756D02*
X3052Y46756D01*
X2544Y46756D02*
X2798Y46248D01*
X11483Y46159D02*
X11737Y46667D01*
X11229Y46667D02*
X11737Y46667D01*
X11229Y46667D02*
X11483Y46159D01*
X17123Y49809D02*
X17377Y50317D01*
X16869Y50317D02*
X17377Y50317D01*
X16869Y50317D02*
X17123Y49809D01*
X19940Y48662D02*
X20194Y49170D01*
X19686Y49170D02*
X20194Y49170D01*
X19686Y49170D02*
X19940Y48662D01*
X23010Y48724D02*
X23264Y49232D01*
X22756Y49232D02*
X23264Y49232D01*
X22756Y49232D02*
X23010Y48724D01*
X26036Y46957D02*
X26290Y47465D01*
X25782Y47465D02*
X26290Y47465D01*
X25782Y47465D02*
X26036Y46957D01*
X29503Y44635D02*
X29757Y45143D01*
X29249Y45143D02*
X29757Y45143D01*
X29249Y45143D02*
X29503Y44635D01*
X14352Y46921D02*
X14606Y47429D01*
X14098Y47429D02*
X14606Y47429D01*
X14098Y47429D02*
X14352Y46921D01*
X5451Y47642D02*
X5705Y48150D01*
X5197Y48150D02*
X5705Y48150D01*
X5197Y48150D02*
X5451Y47642D01*
X8256Y45143D02*
X8510Y45651D01*
X8002Y45651D02*
X8510Y45651D01*
X8002Y45651D02*
X8256Y45143D01*
X351Y44518D02*
X605Y45026D01*
X97Y45026D02*
X605Y45026D01*
X97Y45026D02*
X351Y44518D01*
X382Y43365D02*
X636Y43873D01*
X128Y43873D02*
X636Y43873D01*
X128Y43873D02*
X382Y43365D01*
X23183Y19878D02*
X23437Y20386D01*
X22929Y20386D02*
X23437Y20386D01*
X22929Y20386D02*
X23183Y19878D01*
X15749Y22529D02*
X16003Y23037D01*
X15495Y23037D02*
X16003Y23037D01*
X15495Y23037D02*
X15749Y22529D01*
X21337Y20259D02*
X21591Y20767D01*
X21083Y20767D02*
X21591Y20767D01*
X21083Y20767D02*
X21337Y20259D01*
X3854Y21037D02*
X4362Y21037D01*
X4362Y21545D01*
X3854Y21545D02*
X4362Y21545D01*
X3854Y21037D02*
X3854Y21545D01*
X3854Y23577D02*
X4362Y23577D01*
X4362Y24085D01*
X3854Y24085D02*
X4362Y24085D01*
X3854Y23577D02*
X3854Y24085D01*
X3854Y33737D02*
X4362Y33737D01*
X4362Y34245D01*
X3854Y34245D02*
X4362Y34245D01*
X3854Y33737D02*
X3854Y34245D01*
X3854Y31197D02*
X4362Y31197D01*
X4362Y31705D01*
X3854Y31705D02*
X4362Y31705D01*
X3854Y31197D02*
X3854Y31705D01*
X3854Y28657D02*
X4362Y28657D01*
X4362Y29165D01*
X3854Y29165D02*
X4362Y29165D01*
X3854Y28657D02*
X3854Y29165D01*
X3854Y26117D02*
X4362Y26117D01*
X4362Y26625D01*
X3854Y26625D02*
X4362Y26625D01*
X3854Y26117D02*
X3854Y26625D01*
X3854Y18497D02*
X4362Y18497D01*
X4362Y19005D01*
X3854Y19005D02*
X4362Y19005D01*
X3854Y18497D02*
X3854Y19005D01*
X3854Y15957D02*
X4362Y15957D01*
X4362Y16465D01*
X3854Y16465D02*
X4362Y16465D01*
X3854Y15957D02*
X3854Y16465D01*
X26722Y21046D02*
X27230Y21046D01*
X27230Y21554D01*
X26722Y21554D02*
X27230Y21554D01*
X26722Y21046D02*
X26722Y21554D01*
X26722Y23586D02*
X27230Y23586D01*
X27230Y24094D01*
X26722Y24094D02*
X27230Y24094D01*
X26722Y23586D02*
X26722Y24094D01*
X26722Y33746D02*
X27230Y33746D01*
X27230Y34254D01*
X26722Y34254D02*
X27230Y34254D01*
X26722Y33746D02*
X26722Y34254D01*
X26722Y31206D02*
X27230Y31206D01*
X27230Y31714D01*
X26722Y31714D02*
X27230Y31714D01*
X26722Y31206D02*
X26722Y31714D01*
X26722Y28666D02*
X27230Y28666D01*
X27230Y29174D01*
X26722Y29174D02*
X27230Y29174D01*
X26722Y28666D02*
X26722Y29174D01*
X26722Y26126D02*
X27230Y26126D01*
X27230Y26634D01*
X26722Y26634D02*
X27230Y26634D01*
X26722Y26126D02*
X26722Y26634D01*
X26722Y18506D02*
X27230Y18506D01*
X27230Y19014D01*
X26722Y19014D02*
X27230Y19014D01*
X26722Y18506D02*
X26722Y19014D01*
X26722Y15966D02*
X27230Y15966D01*
X27230Y16474D01*
X26722Y16474D02*
X27230Y16474D01*
X26722Y15966D02*
X26722Y16474D01*
X10161Y-16828D02*
X10415Y-16320D01*
X9907Y-16320D02*
X10415Y-16320D01*
X9907Y-16320D02*
X10161Y-16828D01*
X5970Y-16828D02*
X6224Y-16320D01*
X5716Y-16320D02*
X6224Y-16320D01*
X5716Y-16320D02*
X5970Y-16828D01*
X16765Y-16701D02*
X17019Y-16193D01*
X16511Y-16193D02*
X17019Y-16193D01*
X16511Y-16193D02*
X16765Y-16701D01*
X17781Y-19368D02*
X18035Y-18860D01*
X17527Y-18860D02*
X18035Y-18860D01*
X17527Y-18860D02*
X17781Y-19368D01*
X15622Y-19368D02*
X15876Y-18860D01*
X15368Y-18860D02*
X15876Y-18860D01*
X15368Y-18860D02*
X15622Y-19368D01*
X14606Y-17590D02*
X14860Y-17082D01*
X14352Y-17082D02*
X14860Y-17082D01*
X14352Y-17082D02*
X14606Y-17590D01*
X8129Y-17590D02*
X8383Y-17082D01*
X7875Y-17082D02*
X8383Y-17082D01*
X7875Y-17082D02*
X8129Y-17590D01*
X11939Y-12891D02*
X12193Y-12383D01*
X11685Y-12383D02*
X12193Y-12383D01*
X11685Y-12383D02*
X11939Y-12891D01*
X11939Y-9843D02*
X12193Y-9335D01*
X11685Y-9335D02*
X12193Y-9335D01*
X11685Y-9335D02*
X11939Y-9843D01*
X7621Y-11240D02*
X7875Y-10732D01*
X7367Y-10732D02*
X7875Y-10732D01*
X7367Y-10732D02*
X7621Y-11240D01*
X17098Y-29782D02*
X17352Y-29274D01*
X16844Y-29274D02*
X17352Y-29274D01*
X16844Y-29274D02*
X17098Y-29782D01*
X21083Y-32814D02*
X21337Y-32306D01*
X20829Y-32306D02*
X21337Y-32306D01*
X20829Y-32306D02*
X21083Y-32814D01*
X2798Y-5063D02*
X3052Y-4555D01*
X2544Y-4555D02*
X3052Y-4555D01*
X2544Y-4555D02*
X2798Y-5063D01*
X11483Y-5152D02*
X11737Y-4644D01*
X11229Y-4644D02*
X11737Y-4644D01*
X11229Y-4644D02*
X11483Y-5152D01*
X17123Y-1502D02*
X17377Y-994D01*
X16869Y-994D02*
X17377Y-994D01*
X16869Y-994D02*
X17123Y-1502D01*
X19940Y-2649D02*
X20194Y-2141D01*
X19686Y-2141D02*
X20194Y-2141D01*
X19686Y-2141D02*
X19940Y-2649D01*
X23010Y-2587D02*
X23264Y-2079D01*
X22756Y-2079D02*
X23264Y-2079D01*
X22756Y-2079D02*
X23010Y-2587D01*
X26036Y-4354D02*
X26290Y-3846D01*
X25782Y-3846D02*
X26290Y-3846D01*
X25782Y-3846D02*
X26036Y-4354D01*
X29503Y-6676D02*
X29757Y-6168D01*
X29249Y-6168D02*
X29757Y-6168D01*
X29249Y-6168D02*
X29503Y-6676D01*
X14352Y-4390D02*
X14606Y-3882D01*
X14098Y-3882D02*
X14606Y-3882D01*
X14098Y-3882D02*
X14352Y-4390D01*
X5451Y-3669D02*
X5705Y-3161D01*
X5197Y-3161D02*
X5705Y-3161D01*
X5197Y-3161D02*
X5451Y-3669D01*
X8256Y-6168D02*
X8510Y-5660D01*
X8002Y-5660D02*
X8510Y-5660D01*
X8002Y-5660D02*
X8256Y-6168D01*
X351Y-6793D02*
X605Y-6285D01*
X97Y-6285D02*
X605Y-6285D01*
X97Y-6285D02*
X351Y-6793D01*
X382Y-7946D02*
X636Y-7438D01*
X128Y-7438D02*
X636Y-7438D01*
X128Y-7438D02*
X382Y-7946D01*
X23183Y-31433D02*
X23437Y-30925D01*
X22929Y-30925D02*
X23437Y-30925D01*
X22929Y-30925D02*
X23183Y-31433D01*
X15749Y-28782D02*
X16003Y-28274D01*
X15495Y-28274D02*
X16003Y-28274D01*
X15495Y-28274D02*
X15749Y-28782D01*
X21337Y-31052D02*
X21591Y-30544D01*
X21083Y-30544D02*
X21591Y-30544D01*
X21083Y-30544D02*
X21337Y-31052D01*
X3854Y-30274D02*
X4362Y-30274D01*
X4362Y-29766D01*
X3854Y-29766D02*
X4362Y-29766D01*
X3854Y-30274D02*
X3854Y-29766D01*
X3854Y-27734D02*
X4362Y-27734D01*
X4362Y-27226D01*
X3854Y-27226D02*
X4362Y-27226D01*
X3854Y-27734D02*
X3854Y-27226D01*
X3854Y-17574D02*
X4362Y-17574D01*
X4362Y-17066D01*
X3854Y-17066D02*
X4362Y-17066D01*
X3854Y-17574D02*
X3854Y-17066D01*
X3854Y-20114D02*
X4362Y-20114D01*
X4362Y-19606D01*
X3854Y-19606D02*
X4362Y-19606D01*
X3854Y-20114D02*
X3854Y-19606D01*
X3854Y-22654D02*
X4362Y-22654D01*
X4362Y-22146D01*
X3854Y-22146D02*
X4362Y-22146D01*
X3854Y-22654D02*
X3854Y-22146D01*
X3854Y-25194D02*
X4362Y-25194D01*
X4362Y-24686D01*
X3854Y-24686D02*
X4362Y-24686D01*
X3854Y-25194D02*
X3854Y-24686D01*
X3854Y-32814D02*
X4362Y-32814D01*
X4362Y-32306D01*
X3854Y-32306D02*
X4362Y-32306D01*
X3854Y-32814D02*
X3854Y-32306D01*
X3854Y-35354D02*
X4362Y-35354D01*
X4362Y-34846D01*
X3854Y-34846D02*
X4362Y-34846D01*
X3854Y-35354D02*
X3854Y-34846D01*
X26722Y-30265D02*
X27230Y-30265D01*
X27230Y-29757D01*
X26722Y-29757D02*
X27230Y-29757D01*
X26722Y-30265D02*
X26722Y-29757D01*
X26722Y-27725D02*
X27230Y-27725D01*
X27230Y-27217D01*
X26722Y-27217D02*
X27230Y-27217D01*
X26722Y-27725D02*
X26722Y-27217D01*
X26722Y-17565D02*
X27230Y-17565D01*
X27230Y-17057D01*
X26722Y-17057D02*
X27230Y-17057D01*
X26722Y-17565D02*
X26722Y-17057D01*
X26722Y-20105D02*
X27230Y-20105D01*
X27230Y-19597D01*
X26722Y-19597D02*
X27230Y-19597D01*
X26722Y-20105D02*
X26722Y-19597D01*
X26722Y-22645D02*
X27230Y-22645D01*
X27230Y-22137D01*
X26722Y-22137D02*
X27230Y-22137D01*
X26722Y-22645D02*
X26722Y-22137D01*
X26722Y-25185D02*
X27230Y-25185D01*
X27230Y-24677D01*
X26722Y-24677D02*
X27230Y-24677D01*
X26722Y-25185D02*
X26722Y-24677D01*
X26722Y-32805D02*
X27230Y-32805D01*
X27230Y-32297D01*
X26722Y-32297D02*
X27230Y-32297D01*
X26722Y-32805D02*
X26722Y-32297D01*
X26722Y-35345D02*
X27230Y-35345D01*
X27230Y-34837D01*
X26722Y-34837D02*
X27230Y-34837D01*
X26722Y-35345D02*
X26722Y-34837D01*
X10161Y-68139D02*
X10415Y-67631D01*
X9907Y-67631D02*
X10415Y-67631D01*
X9907Y-67631D02*
X10161Y-68139D01*
X5970Y-68139D02*
X6224Y-67631D01*
X5716Y-67631D02*
X6224Y-67631D01*
X5716Y-67631D02*
X5970Y-68139D01*
X16765Y-68012D02*
X17019Y-67504D01*
X16511Y-67504D02*
X17019Y-67504D01*
X16511Y-67504D02*
X16765Y-68012D01*
X17781Y-70679D02*
X18035Y-70171D01*
X17527Y-70171D02*
X18035Y-70171D01*
X17527Y-70171D02*
X17781Y-70679D01*
X15622Y-70679D02*
X15876Y-70171D01*
X15368Y-70171D02*
X15876Y-70171D01*
X15368Y-70171D02*
X15622Y-70679D01*
X14606Y-68901D02*
X14860Y-68393D01*
X14352Y-68393D02*
X14860Y-68393D01*
X14352Y-68393D02*
X14606Y-68901D01*
X8129Y-68901D02*
X8383Y-68393D01*
X7875Y-68393D02*
X8383Y-68393D01*
X7875Y-68393D02*
X8129Y-68901D01*
X11939Y-64202D02*
X12193Y-63694D01*
X11685Y-63694D02*
X12193Y-63694D01*
X11685Y-63694D02*
X11939Y-64202D01*
X11939Y-61154D02*
X12193Y-60646D01*
X11685Y-60646D02*
X12193Y-60646D01*
X11685Y-60646D02*
X11939Y-61154D01*
X7621Y-62551D02*
X7875Y-62043D01*
X7367Y-62043D02*
X7875Y-62043D01*
X7367Y-62043D02*
X7621Y-62551D01*
X17098Y-81093D02*
X17352Y-80585D01*
X16844Y-80585D02*
X17352Y-80585D01*
X16844Y-80585D02*
X17098Y-81093D01*
X21083Y-84125D02*
X21337Y-83617D01*
X20829Y-83617D02*
X21337Y-83617D01*
X20829Y-83617D02*
X21083Y-84125D01*
X2798Y-56374D02*
X3052Y-55866D01*
X2544Y-55866D02*
X3052Y-55866D01*
X2544Y-55866D02*
X2798Y-56374D01*
X11483Y-56463D02*
X11737Y-55955D01*
X11229Y-55955D02*
X11737Y-55955D01*
X11229Y-55955D02*
X11483Y-56463D01*
X17123Y-52813D02*
X17377Y-52305D01*
X16869Y-52305D02*
X17377Y-52305D01*
X16869Y-52305D02*
X17123Y-52813D01*
X19940Y-53960D02*
X20194Y-53452D01*
X19686Y-53452D02*
X20194Y-53452D01*
X19686Y-53452D02*
X19940Y-53960D01*
X23010Y-53898D02*
X23264Y-53390D01*
X22756Y-53390D02*
X23264Y-53390D01*
X22756Y-53390D02*
X23010Y-53898D01*
X26036Y-55664D02*
X26290Y-55156D01*
X25782Y-55156D02*
X26290Y-55156D01*
X25782Y-55156D02*
X26036Y-55664D01*
X29503Y-57987D02*
X29757Y-57479D01*
X29249Y-57479D02*
X29757Y-57479D01*
X29249Y-57479D02*
X29503Y-57987D01*
X14352Y-55701D02*
X14606Y-55193D01*
X14098Y-55193D02*
X14606Y-55193D01*
X14098Y-55193D02*
X14352Y-55701D01*
X5451Y-54980D02*
X5705Y-54472D01*
X5197Y-54472D02*
X5705Y-54472D01*
X5197Y-54472D02*
X5451Y-54980D01*
X8256Y-57479D02*
X8510Y-56971D01*
X8002Y-56971D02*
X8510Y-56971D01*
X8002Y-56971D02*
X8256Y-57479D01*
X351Y-58103D02*
X605Y-57595D01*
X97Y-57595D02*
X605Y-57595D01*
X97Y-57595D02*
X351Y-58103D01*
X382Y-59257D02*
X636Y-58749D01*
X128Y-58749D02*
X636Y-58749D01*
X128Y-58749D02*
X382Y-59257D01*
X23183Y-82744D02*
X23437Y-82236D01*
X22929Y-82236D02*
X23437Y-82236D01*
X22929Y-82236D02*
X23183Y-82744D01*
X15749Y-80093D02*
X16003Y-79585D01*
X15495Y-79585D02*
X16003Y-79585D01*
X15495Y-79585D02*
X15749Y-80093D01*
X21337Y-82363D02*
X21591Y-81855D01*
X21083Y-81855D02*
X21591Y-81855D01*
X21083Y-81855D02*
X21337Y-82363D01*
X3854Y-81585D02*
X4362Y-81585D01*
X4362Y-81077D01*
X3854Y-81077D02*
X4362Y-81077D01*
X3854Y-81585D02*
X3854Y-81077D01*
X3854Y-79045D02*
X4362Y-79045D01*
X4362Y-78537D01*
X3854Y-78537D02*
X4362Y-78537D01*
X3854Y-79045D02*
X3854Y-78537D01*
X3854Y-68885D02*
X4362Y-68885D01*
X4362Y-68377D01*
X3854Y-68377D02*
X4362Y-68377D01*
X3854Y-68885D02*
X3854Y-68377D01*
X3854Y-71425D02*
X4362Y-71425D01*
X4362Y-70917D01*
X3854Y-70917D02*
X4362Y-70917D01*
X3854Y-71425D02*
X3854Y-70917D01*
X3854Y-73965D02*
X4362Y-73965D01*
X4362Y-73457D01*
X3854Y-73457D02*
X4362Y-73457D01*
X3854Y-73965D02*
X3854Y-73457D01*
X3854Y-76505D02*
X4362Y-76505D01*
X4362Y-75997D01*
X3854Y-75997D02*
X4362Y-75997D01*
X3854Y-76505D02*
X3854Y-75997D01*
X3854Y-84125D02*
X4362Y-84125D01*
X4362Y-83617D01*
X3854Y-83617D02*
X4362Y-83617D01*
X3854Y-84125D02*
X3854Y-83617D01*
X3854Y-86665D02*
X4362Y-86665D01*
X4362Y-86157D01*
X3854Y-86157D02*
X4362Y-86157D01*
X3854Y-86665D02*
X3854Y-86157D01*
X26722Y-81575D02*
X27230Y-81575D01*
X27230Y-81067D01*
X26722Y-81067D02*
X27230Y-81067D01*
X26722Y-81575D02*
X26722Y-81067D01*
X26722Y-79035D02*
X27230Y-79035D01*
X27230Y-78527D01*
X26722Y-78527D02*
X27230Y-78527D01*
X26722Y-79035D02*
X26722Y-78527D01*
X26722Y-68875D02*
X27230Y-68875D01*
X27230Y-68367D01*
X26722Y-68367D02*
X27230Y-68367D01*
X26722Y-68875D02*
X26722Y-68367D01*
X26722Y-71415D02*
X27230Y-71415D01*
X27230Y-70907D01*
X26722Y-70907D02*
X27230Y-70907D01*
X26722Y-71415D02*
X26722Y-70907D01*
X26722Y-73955D02*
X27230Y-73955D01*
X27230Y-73447D01*
X26722Y-73447D02*
X27230Y-73447D01*
X26722Y-73955D02*
X26722Y-73447D01*
X26722Y-76495D02*
X27230Y-76495D01*
X27230Y-75987D01*
X26722Y-75987D02*
X27230Y-75987D01*
X26722Y-76495D02*
X26722Y-75987D01*
X26722Y-84115D02*
X27230Y-84115D01*
X27230Y-83607D01*
X26722Y-83607D02*
X27230Y-83607D01*
X26722Y-84115D02*
X26722Y-83607D01*
X26722Y-86655D02*
X27230Y-86655D01*
X27230Y-86147D01*
X26722Y-86147D02*
X27230Y-86147D01*
X26722Y-86655D02*
X26722Y-86147D01*
D79*
X201278Y-95992D02*
X201278Y-97820D01*
X201278Y-96906D01*
X202496Y-96906D01*
X202496Y-95992D01*
X202496Y-97820D01*
X203410Y-97820D02*
X204020Y-97820D01*
X204325Y-97515D01*
X204325Y-96906D01*
X204020Y-96601D01*
X203410Y-96601D01*
X203106Y-96906D01*
X203106Y-97515D01*
X203410Y-97820D01*
X204934Y-97820D02*
X205543Y-97820D01*
X205239Y-97820D01*
X205239Y-95992D01*
X204934Y-95992D01*
X207372Y-97820D02*
X206762Y-97820D01*
X206458Y-97515D01*
X206458Y-96906D01*
X206762Y-96601D01*
X207372Y-96601D01*
X207676Y-96906D01*
X207676Y-97211D01*
X206458Y-97211D01*
X210114Y-95992D02*
X211333Y-95992D01*
X210723Y-95992D01*
X210723Y-97820D01*
X211942Y-96601D02*
X211942Y-97515D01*
X212247Y-97820D01*
X213161Y-97820D01*
X213161Y-98125D01*
X212856Y-98429D01*
X212552Y-98429D01*
X213161Y-97820D02*
X213161Y-96601D01*
X213770Y-98429D02*
X213770Y-96601D01*
X214684Y-96601D01*
X214989Y-96906D01*
X214989Y-97515D01*
X214684Y-97820D01*
X213770Y-97820D01*
X216513Y-97820D02*
X215903Y-97820D01*
X215599Y-97515D01*
X215599Y-96906D01*
X215903Y-96601D01*
X216513Y-96601D01*
X216817Y-96906D01*
X216817Y-97211D01*
X215599Y-97211D01*
X188428Y-97820D02*
X188428Y-95992D01*
X189342Y-95992D01*
X189647Y-96296D01*
X189647Y-96906D01*
X189342Y-97211D01*
X188428Y-97211D01*
X190257Y-97820D02*
X190866Y-97820D01*
X190561Y-97820D01*
X190561Y-95992D01*
X190257Y-95992D01*
X192085Y-96601D02*
X192694Y-96601D01*
X192999Y-96906D01*
X192999Y-97820D01*
X192085Y-97820D01*
X191780Y-97515D01*
X192085Y-97211D01*
X192999Y-97211D01*
X193913Y-96296D02*
X193913Y-96601D01*
X193608Y-96601D01*
X194218Y-96601D01*
X193913Y-96601D01*
X193913Y-97515D01*
X194218Y-97820D01*
X196046Y-97820D02*
X195436Y-97820D01*
X195132Y-97515D01*
X195132Y-96906D01*
X195436Y-96601D01*
X196046Y-96601D01*
X196351Y-96906D01*
X196351Y-97211D01*
X195132Y-97211D01*
X198179Y-95992D02*
X198179Y-97820D01*
X197265Y-97820D01*
X196960Y-97515D01*
X196960Y-96906D01*
X197265Y-96601D01*
X198179Y-96601D01*
X155469Y-95992D02*
X154250Y-95992D01*
X154250Y-96906D01*
X154859Y-96906D01*
X154250Y-96906D01*
X154250Y-97820D01*
X156078Y-97820D02*
X156688Y-97820D01*
X156383Y-97820D01*
X156383Y-96601D01*
X156078Y-96601D01*
X157602Y-97820D02*
X157602Y-96601D01*
X158516Y-96601D01*
X158821Y-96906D01*
X158821Y-97820D01*
X159430Y-97820D02*
X160039Y-97820D01*
X159735Y-97820D01*
X159735Y-96601D01*
X159430Y-96601D01*
X160953Y-97820D02*
X161868Y-97820D01*
X162172Y-97515D01*
X161868Y-97211D01*
X161258Y-97211D01*
X160953Y-96906D01*
X161258Y-96601D01*
X162172Y-96601D01*
X162782Y-95992D02*
X162782Y-97820D01*
X162782Y-96906D01*
X163086Y-96601D01*
X163696Y-96601D01*
X164000Y-96906D01*
X164000Y-97820D01*
X165524Y-97820D02*
X164915Y-97820D01*
X164610Y-97515D01*
X164610Y-96906D01*
X164915Y-96601D01*
X165524Y-96601D01*
X165829Y-96906D01*
X165829Y-97211D01*
X164610Y-97211D01*
X167657Y-95992D02*
X167657Y-97820D01*
X166743Y-97820D01*
X166438Y-97515D01*
X166438Y-96906D01*
X166743Y-96601D01*
X167657Y-96601D01*
X170094Y-95992D02*
X170094Y-97820D01*
X170094Y-96906D01*
X171313Y-96906D01*
X171313Y-95992D01*
X171313Y-97820D01*
X172227Y-97820D02*
X172837Y-97820D01*
X173141Y-97515D01*
X173141Y-96906D01*
X172837Y-96601D01*
X172227Y-96601D01*
X171923Y-96906D01*
X171923Y-97515D01*
X172227Y-97820D01*
X173751Y-97820D02*
X174360Y-97820D01*
X174056Y-97820D01*
X174056Y-95992D01*
X173751Y-95992D01*
X176189Y-97820D02*
X175579Y-97820D01*
X175274Y-97515D01*
X175274Y-96906D01*
X175579Y-96601D01*
X176189Y-96601D01*
X176493Y-96906D01*
X176493Y-97211D01*
X175274Y-97211D01*
X180150Y-96296D02*
X179845Y-95992D01*
X179236Y-95992D01*
X178931Y-96296D01*
X178931Y-96601D01*
X179236Y-96906D01*
X179845Y-96906D01*
X180150Y-97211D01*
X180150Y-97515D01*
X179845Y-97820D01*
X179236Y-97820D01*
X178931Y-97515D01*
X180759Y-97820D02*
X181368Y-97820D01*
X181064Y-97820D01*
X181064Y-96601D01*
X180759Y-96601D01*
X182283Y-96601D02*
X183501Y-96601D01*
X182283Y-97820D01*
X183501Y-97820D01*
X185025Y-97820D02*
X184415Y-97820D01*
X184111Y-97515D01*
X184111Y-96906D01*
X184415Y-96601D01*
X185025Y-96601D01*
X185330Y-96906D01*
X185330Y-97211D01*
X184111Y-97211D01*
X136526Y-95992D02*
X136526Y-97820D01*
X136526Y-96906D01*
X137744Y-96906D01*
X137744Y-95992D01*
X137744Y-97820D01*
X138354Y-97820D02*
X138963Y-97820D01*
X138658Y-97820D01*
X138658Y-96601D01*
X138354Y-96601D01*
X140182Y-96296D02*
X140182Y-96601D01*
X139877Y-96601D01*
X140487Y-96601D01*
X140182Y-96601D01*
X140182Y-97515D01*
X140487Y-97820D01*
X144448Y-96296D02*
X144143Y-95992D01*
X143534Y-95992D01*
X143229Y-96296D01*
X143229Y-97515D01*
X143534Y-97820D01*
X144143Y-97820D01*
X144448Y-97515D01*
X145362Y-97820D02*
X145971Y-97820D01*
X146276Y-97515D01*
X146276Y-96906D01*
X145971Y-96601D01*
X145362Y-96601D01*
X145057Y-96906D01*
X145057Y-97515D01*
X145362Y-97820D01*
X146885Y-96601D02*
X146885Y-97515D01*
X147190Y-97820D01*
X148104Y-97820D01*
X148104Y-96601D01*
X148714Y-97820D02*
X148714Y-96601D01*
X149628Y-96601D01*
X149932Y-96906D01*
X149932Y-97820D01*
X150846Y-96296D02*
X150846Y-96601D01*
X150542Y-96601D01*
X151151Y-96601D01*
X150846Y-96601D01*
X150846Y-97515D01*
X151151Y-97820D01*
X124895Y-96296D02*
X124590Y-95992D01*
X123981Y-95992D01*
X123676Y-96296D01*
X123676Y-96601D01*
X123981Y-96906D01*
X124590Y-96906D01*
X124895Y-97211D01*
X124895Y-97515D01*
X124590Y-97820D01*
X123981Y-97820D01*
X123676Y-97515D01*
X125505Y-96601D02*
X125505Y-97515D01*
X125809Y-97820D01*
X126723Y-97820D01*
X126723Y-98125D01*
X126419Y-98429D01*
X126114Y-98429D01*
X126723Y-97820D02*
X126723Y-96601D01*
X127333Y-97820D02*
X127333Y-96601D01*
X127637Y-96601D01*
X127942Y-96906D01*
X127942Y-97820D01*
X127942Y-96906D01*
X128247Y-96601D01*
X128552Y-96906D01*
X128552Y-97820D01*
X129161Y-95992D02*
X129161Y-97820D01*
X130075Y-97820D01*
X130380Y-97515D01*
X130380Y-97211D01*
X130380Y-96906D01*
X130075Y-96601D01*
X129161Y-96601D01*
X131294Y-97820D02*
X131903Y-97820D01*
X132208Y-97515D01*
X132208Y-96906D01*
X131903Y-96601D01*
X131294Y-96601D01*
X130989Y-96906D01*
X130989Y-97515D01*
X131294Y-97820D01*
X132817Y-97820D02*
X133427Y-97820D01*
X133122Y-97820D01*
X133122Y-95992D01*
X132817Y-95992D01*
M02*
