G04*
G04 #@! TF.GenerationSoftware,Altium Limited,Altium Designer,18.1.7 (191)*
G04*
G04 Layer_Physical_Order=1*
G04 Layer_Color=255*
%FSLAX43Y43*%
%MOMM*%
G71*
G01*
G75*
%ADD10C,0.150*%
%ADD11C,0.178*%
G04:AMPARAMS|DCode=12|XSize=1.75mm|YSize=1mm|CornerRadius=0mm|HoleSize=0mm|Usage=FLASHONLY|Rotation=141.000|XOffset=0mm|YOffset=0mm|HoleType=Round|Shape=Rectangle|*
%AMROTATEDRECTD12*
4,1,4,0.995,-0.162,0.365,-0.939,-0.995,0.162,-0.365,0.939,0.995,-0.162,0.0*
%
%ADD12ROTATEDRECTD12*%

G04:AMPARAMS|DCode=13|XSize=1.75mm|YSize=1mm|CornerRadius=0mm|HoleSize=0mm|Usage=FLASHONLY|Rotation=148.000|XOffset=0mm|YOffset=0mm|HoleType=Round|Shape=Rectangle|*
%AMROTATEDRECTD13*
4,1,4,1.007,-0.040,0.477,-0.888,-1.007,0.040,-0.477,0.888,1.007,-0.040,0.0*
%
%ADD13ROTATEDRECTD13*%

G04:AMPARAMS|DCode=14|XSize=1.75mm|YSize=1mm|CornerRadius=0mm|HoleSize=0mm|Usage=FLASHONLY|Rotation=155.000|XOffset=0mm|YOffset=0mm|HoleType=Round|Shape=Rectangle|*
%AMROTATEDRECTD14*
4,1,4,1.004,0.083,0.582,-0.823,-1.004,-0.083,-0.582,0.823,1.004,0.083,0.0*
%
%ADD14ROTATEDRECTD14*%

G04:AMPARAMS|DCode=15|XSize=1.75mm|YSize=1mm|CornerRadius=0mm|HoleSize=0mm|Usage=FLASHONLY|Rotation=162.000|XOffset=0mm|YOffset=0mm|HoleType=Round|Shape=Rectangle|*
%AMROTATEDRECTD15*
4,1,4,0.987,0.205,0.678,-0.746,-0.987,-0.205,-0.678,0.746,0.987,0.205,0.0*
%
%ADD15ROTATEDRECTD15*%

G04:AMPARAMS|DCode=16|XSize=1.75mm|YSize=1mm|CornerRadius=0mm|HoleSize=0mm|Usage=FLASHONLY|Rotation=169.000|XOffset=0mm|YOffset=0mm|HoleType=Round|Shape=Rectangle|*
%AMROTATEDRECTD16*
4,1,4,0.954,0.324,0.764,-0.658,-0.954,-0.324,-0.764,0.658,0.954,0.324,0.0*
%
%ADD16ROTATEDRECTD16*%

G04:AMPARAMS|DCode=17|XSize=1.75mm|YSize=1mm|CornerRadius=0mm|HoleSize=0mm|Usage=FLASHONLY|Rotation=176.000|XOffset=0mm|YOffset=0mm|HoleType=Round|Shape=Rectangle|*
%AMROTATEDRECTD17*
4,1,4,0.908,0.438,0.838,-0.560,-0.908,-0.438,-0.838,0.560,0.908,0.438,0.0*
%
%ADD17ROTATEDRECTD17*%

G04:AMPARAMS|DCode=18|XSize=1.75mm|YSize=1mm|CornerRadius=0mm|HoleSize=0mm|Usage=FLASHONLY|Rotation=183.000|XOffset=0mm|YOffset=0mm|HoleType=Round|Shape=Rectangle|*
%AMROTATEDRECTD18*
4,1,4,0.848,0.545,0.900,-0.454,-0.848,-0.545,-0.900,0.454,0.848,0.545,0.0*
%
%ADD18ROTATEDRECTD18*%

G04:AMPARAMS|DCode=19|XSize=1.75mm|YSize=1mm|CornerRadius=0mm|HoleSize=0mm|Usage=FLASHONLY|Rotation=190.000|XOffset=0mm|YOffset=0mm|HoleType=Round|Shape=Rectangle|*
%AMROTATEDRECTD19*
4,1,4,0.775,0.644,0.949,-0.340,-0.775,-0.644,-0.949,0.340,0.775,0.644,0.0*
%
%ADD19ROTATEDRECTD19*%

G04:AMPARAMS|DCode=20|XSize=1.75mm|YSize=1mm|CornerRadius=0mm|HoleSize=0mm|Usage=FLASHONLY|Rotation=197.000|XOffset=0mm|YOffset=0mm|HoleType=Round|Shape=Rectangle|*
%AMROTATEDRECTD20*
4,1,4,0.691,0.734,0.983,-0.222,-0.691,-0.734,-0.983,0.222,0.691,0.734,0.0*
%
%ADD20ROTATEDRECTD20*%

G04:AMPARAMS|DCode=21|XSize=1.75mm|YSize=1mm|CornerRadius=0mm|HoleSize=0mm|Usage=FLASHONLY|Rotation=204.000|XOffset=0mm|YOffset=0mm|HoleType=Round|Shape=Rectangle|*
%AMROTATEDRECTD21*
4,1,4,0.596,0.813,1.003,-0.101,-0.596,-0.813,-1.003,0.101,0.596,0.813,0.0*
%
%ADD21ROTATEDRECTD21*%

G04:AMPARAMS|DCode=22|XSize=1.75mm|YSize=1mm|CornerRadius=0mm|HoleSize=0mm|Usage=FLASHONLY|Rotation=211.000|XOffset=0mm|YOffset=0mm|HoleType=Round|Shape=Rectangle|*
%AMROTATEDRECTD22*
4,1,4,0.493,0.879,1.008,0.022,-0.493,-0.879,-1.008,-0.022,0.493,0.879,0.0*
%
%ADD22ROTATEDRECTD22*%

G04:AMPARAMS|DCode=23|XSize=1.75mm|YSize=1mm|CornerRadius=0mm|HoleSize=0mm|Usage=FLASHONLY|Rotation=218.000|XOffset=0mm|YOffset=0mm|HoleType=Round|Shape=Rectangle|*
%AMROTATEDRECTD23*
4,1,4,0.382,0.933,0.997,0.145,-0.382,-0.933,-0.997,-0.145,0.382,0.933,0.0*
%
%ADD23ROTATEDRECTD23*%

%ADD24O,1.550X0.600*%
G04:AMPARAMS|DCode=25|XSize=1.75mm|YSize=1mm|CornerRadius=0.25mm|HoleSize=0mm|Usage=FLASHONLY|Rotation=180.000|XOffset=0mm|YOffset=0mm|HoleType=Round|Shape=RoundedRectangle|*
%AMROUNDEDRECTD25*
21,1,1.750,0.500,0,0,180.0*
21,1,1.250,1.000,0,0,180.0*
1,1,0.500,-0.625,0.250*
1,1,0.500,0.625,0.250*
1,1,0.500,0.625,-0.250*
1,1,0.500,-0.625,-0.250*
%
%ADD25ROUNDEDRECTD25*%
G04:AMPARAMS|DCode=26|XSize=0.9mm|YSize=0.8mm|CornerRadius=0.2mm|HoleSize=0mm|Usage=FLASHONLY|Rotation=0.000|XOffset=0mm|YOffset=0mm|HoleType=Round|Shape=RoundedRectangle|*
%AMROUNDEDRECTD26*
21,1,0.900,0.400,0,0,0.0*
21,1,0.500,0.800,0,0,0.0*
1,1,0.400,0.250,-0.200*
1,1,0.400,-0.250,-0.200*
1,1,0.400,-0.250,0.200*
1,1,0.400,0.250,0.200*
%
%ADD26ROUNDEDRECTD26*%
G04:AMPARAMS|DCode=27|XSize=0.9mm|YSize=0.8mm|CornerRadius=0.2mm|HoleSize=0mm|Usage=FLASHONLY|Rotation=90.000|XOffset=0mm|YOffset=0mm|HoleType=Round|Shape=RoundedRectangle|*
%AMROUNDEDRECTD27*
21,1,0.900,0.400,0,0,90.0*
21,1,0.500,0.800,0,0,90.0*
1,1,0.400,0.200,0.250*
1,1,0.400,0.200,-0.250*
1,1,0.400,-0.200,-0.250*
1,1,0.400,-0.200,0.250*
%
%ADD27ROUNDEDRECTD27*%
%ADD28R,1.000X1.750*%
%ADD29C,0.381*%
%ADD30C,0.250*%
%ADD31C,0.127*%
%ADD32C,0.254*%
%ADD33C,0.100*%
%ADD34C,0.200*%
%ADD35C,0.178*%
%ADD36C,1.700*%
%ADD37P,1.840X8X292.5*%
%ADD38C,0.787*%
%ADD39C,0.700*%
G36*
X259343Y-135552D02*
X259427Y-135580D01*
X259540Y-135622D01*
X259639Y-135679D01*
X259724Y-135777D01*
X259780Y-135919D01*
X259808Y-136088D01*
X259808Y-136116D01*
X259794Y-136172D01*
X259780Y-136271D01*
X259738Y-136370D01*
X259681Y-136483D01*
X259582Y-136568D01*
X259441Y-136638D01*
X259258Y-136666D01*
X259216Y-136666D01*
X259173Y-136652D01*
X259117Y-136638D01*
X258976Y-136596D01*
X258905Y-136553D01*
X258835Y-136497D01*
X258835Y-136483D01*
X258806Y-136469D01*
X258750Y-136384D01*
X258694Y-136257D01*
X258679Y-136172D01*
X258665Y-136088D01*
X258665Y-136074D01*
X258665Y-136045D01*
X258679Y-136003D01*
X258694Y-135961D01*
X258750Y-135834D01*
X258792Y-135763D01*
X258849Y-135707D01*
X258863Y-135693D01*
X258877Y-135679D01*
X258962Y-135622D01*
X259089Y-135566D01*
X259173Y-135538D01*
X259286Y-135538D01*
X259343Y-135552D01*
X259343Y-135552D02*
G37*
G36*
X255731Y-135058D02*
X255843Y-135072D01*
X255985Y-135072D01*
X256126Y-135100D01*
X256450Y-135142D01*
X256803Y-135227D01*
X257156Y-135326D01*
X257508Y-135467D01*
X260669Y-140504D01*
X260669Y-140518D01*
X260669Y-140546D01*
X260655Y-140603D01*
X260655Y-140659D01*
X260641Y-140744D01*
X260627Y-140843D01*
X260584Y-141054D01*
X260584Y-141069D01*
X260570Y-141111D01*
X260556Y-141167D01*
X260542Y-141238D01*
X260514Y-141337D01*
X260486Y-141435D01*
X260415Y-141675D01*
X257664Y-137372D01*
X257649Y-137358D01*
X257635Y-137315D01*
X257579Y-137259D01*
X257522Y-137202D01*
X257452Y-137146D01*
X257367Y-137090D01*
X257283Y-137047D01*
X257170Y-137033D01*
X257127Y-137033D01*
X257085Y-137047D01*
X257029Y-137076D01*
X256958Y-137118D01*
X256873Y-137174D01*
X256803Y-137245D01*
X256718Y-137358D01*
X255801Y-138613D01*
X259032Y-143707D01*
X259018Y-143721D01*
X258962Y-143764D01*
X258877Y-143834D01*
X258764Y-143919D01*
X258609Y-144032D01*
X258425Y-144144D01*
X258228Y-144271D01*
X257988Y-144398D01*
X257734Y-144525D01*
X257438Y-144652D01*
X257142Y-144765D01*
X256803Y-144878D01*
X256450Y-144963D01*
X256083Y-145033D01*
X255702Y-145076D01*
X255293Y-145090D01*
X255194Y-145090D01*
X255081Y-145076D01*
X254926Y-145062D01*
X254729Y-145033D01*
X254503Y-145005D01*
X254263Y-144949D01*
X253981Y-144878D01*
X253699Y-144794D01*
X253388Y-144681D01*
X253064Y-144554D01*
X252739Y-144398D01*
X252415Y-144201D01*
X252090Y-143989D01*
X251780Y-143735D01*
X251469Y-143439D01*
X252838Y-141548D01*
X252852Y-141534D01*
X252866Y-141478D01*
X252894Y-141393D01*
X252909Y-141323D01*
X252923Y-141238D01*
X252923Y-141210D01*
X252909Y-141139D01*
X252866Y-141012D01*
X252782Y-140857D01*
X251766Y-139263D01*
X250256Y-141365D01*
X250256Y-141351D01*
X250242Y-141337D01*
X250228Y-141252D01*
X250200Y-141125D01*
X250171Y-140956D01*
X250129Y-140744D01*
X250101Y-140518D01*
X250087Y-140250D01*
X250073Y-139982D01*
X250073Y-139954D01*
X250073Y-139897D01*
X250087Y-139785D01*
X250101Y-139658D01*
X250115Y-139488D01*
X250143Y-139291D01*
X250200Y-139065D01*
X250256Y-138825D01*
X250327Y-138571D01*
X250425Y-138289D01*
X250552Y-138007D01*
X250679Y-137725D01*
X250849Y-137442D01*
X251046Y-137146D01*
X251272Y-136864D01*
X251526Y-136596D01*
X251540Y-136582D01*
X251596Y-136525D01*
X251681Y-136455D01*
X251808Y-136356D01*
X251963Y-136229D01*
X252147Y-136102D01*
X252358Y-135961D01*
X252598Y-135820D01*
X252866Y-135679D01*
X253163Y-135538D01*
X253487Y-135396D01*
X253826Y-135284D01*
X254193Y-135185D01*
X254588Y-135114D01*
X254997Y-135058D01*
X255434Y-135044D01*
X255632Y-135044D01*
X255731Y-135058D01*
X255731Y-135058D02*
G37*
G36*
X260979Y-146515D02*
X261050Y-146529D01*
X261106Y-146543D01*
X261120Y-146543D01*
X261149Y-146557D01*
X261247Y-146600D01*
X261304Y-146656D01*
X261346Y-146712D01*
X261389Y-146783D01*
X261417Y-146882D01*
X261417Y-146896D01*
X261431Y-146910D01*
X261431Y-146952D01*
X261445Y-147023D01*
X261445Y-147093D01*
X261459Y-147192D01*
X261459Y-147305D01*
X261459Y-147432D01*
X259568Y-147390D01*
X259554Y-147390D01*
X259498Y-147404D01*
X259427Y-147418D01*
X259357Y-147474D01*
X259272Y-147545D01*
X259202Y-147672D01*
X259173Y-147757D01*
X259145Y-147855D01*
X259131Y-147954D01*
X259131Y-148081D01*
X259131Y-148462D01*
X259131Y-148476D01*
X259131Y-148490D01*
X259145Y-148575D01*
X259159Y-148674D01*
X259187Y-148801D01*
X259230Y-148928D01*
X259314Y-149041D01*
X259413Y-149125D01*
X259484Y-149139D01*
X259554Y-149153D01*
X261487Y-149153D01*
X261487Y-149182D01*
X261487Y-149238D01*
X261487Y-149337D01*
X261473Y-149450D01*
X261459Y-149563D01*
X261445Y-149675D01*
X261417Y-149774D01*
X261374Y-149845D01*
X261374Y-149859D01*
X261346Y-149873D01*
X261304Y-149901D01*
X261247Y-149929D01*
X261163Y-149972D01*
X261050Y-150000D01*
X260909Y-150014D01*
X260739Y-150028D01*
X259329Y-150028D01*
X259216Y-150014D01*
X259075Y-149986D01*
X258933Y-149944D01*
X258778Y-149873D01*
X258651Y-149788D01*
X258552Y-149661D01*
X258552Y-149647D01*
X258524Y-149605D01*
X258496Y-149534D01*
X258468Y-149450D01*
X258440Y-149323D01*
X258411Y-149182D01*
X258397Y-148998D01*
X258383Y-148801D01*
X258383Y-147757D01*
X258383Y-147742D01*
X258383Y-147714D01*
X258383Y-147672D01*
X258397Y-147615D01*
X258411Y-147474D01*
X258440Y-147291D01*
X258482Y-147107D01*
X258567Y-146924D01*
X258665Y-146769D01*
X258736Y-146698D01*
X258806Y-146642D01*
X258821Y-146642D01*
X258849Y-146614D01*
X258891Y-146600D01*
X258962Y-146571D01*
X259046Y-146543D01*
X259159Y-146529D01*
X259286Y-146501D01*
X260810Y-146501D01*
X260979Y-146515D01*
X260979Y-146515D02*
G37*
G36*
X264902Y-150000D02*
X264182Y-150000D01*
X264182Y-148688D01*
X262616Y-148688D01*
X262616Y-150000D01*
X261939Y-150000D01*
X261939Y-146543D01*
X262616Y-146543D01*
X262616Y-147757D01*
X264182Y-147757D01*
X264182Y-146543D01*
X264902Y-146543D01*
X264902Y-150000D01*
X264902Y-150000D02*
G37*
G36*
X245205Y-145414D02*
X245275Y-145428D01*
X245360Y-145471D01*
X245430Y-145527D01*
X245501Y-145626D01*
X245572Y-145753D01*
X245600Y-145936D01*
X246065Y-150000D01*
X245191Y-150000D01*
X244951Y-147079D01*
X244937Y-147079D01*
X244048Y-149421D01*
X244048Y-149436D01*
X244019Y-149478D01*
X243977Y-149548D01*
X243921Y-149619D01*
X243850Y-149690D01*
X243766Y-149760D01*
X243667Y-149802D01*
X243540Y-149817D01*
X243483Y-149817D01*
X243413Y-149788D01*
X243328Y-149760D01*
X243229Y-149718D01*
X243145Y-149647D01*
X243074Y-149548D01*
X243004Y-149421D01*
X242115Y-147122D01*
X242101Y-147122D01*
X241847Y-150000D01*
X241000Y-150000D01*
X241437Y-145894D01*
X241437Y-145866D01*
X241452Y-145809D01*
X241480Y-145739D01*
X241522Y-145640D01*
X241579Y-145555D01*
X241663Y-145471D01*
X241776Y-145414D01*
X241903Y-145400D01*
X241974Y-145400D01*
X242058Y-145428D01*
X242157Y-145457D01*
X242256Y-145513D01*
X242369Y-145598D01*
X242453Y-145711D01*
X242538Y-145866D01*
X243526Y-148377D01*
X243540Y-148377D01*
X244527Y-145866D01*
X244542Y-145852D01*
X244556Y-145795D01*
X244612Y-145725D01*
X244669Y-145626D01*
X244753Y-145541D01*
X244866Y-145471D01*
X244993Y-145414D01*
X245148Y-145400D01*
X245162Y-145400D01*
X245205Y-145414D01*
X245205Y-145414D02*
G37*
G36*
X269036Y-146557D02*
X269149Y-146571D01*
X269276Y-146614D01*
X269417Y-146684D01*
X269544Y-146783D01*
X269657Y-146924D01*
X269741Y-147122D01*
X269741Y-147136D01*
X269756Y-147164D01*
X269756Y-147220D01*
X269770Y-147291D01*
X269784Y-147376D01*
X269784Y-147474D01*
X269798Y-147601D01*
X269798Y-147728D01*
X269798Y-147996D01*
X269798Y-148025D01*
X269798Y-148095D01*
X269784Y-148208D01*
X269770Y-148335D01*
X269741Y-148490D01*
X269713Y-148645D01*
X269657Y-148772D01*
X269586Y-148899D01*
X269586Y-148914D01*
X269558Y-148928D01*
X269516Y-148970D01*
X269473Y-149012D01*
X269403Y-149055D01*
X269318Y-149083D01*
X269234Y-149111D01*
X269121Y-149125D01*
X267399Y-149125D01*
X267399Y-150000D01*
X266694Y-150000D01*
X266694Y-146543D01*
X268965Y-146543D01*
X269036Y-146557D01*
X269036Y-146557D02*
G37*
G36*
X266228Y-150000D02*
X265410Y-150000D01*
X265410Y-146543D01*
X266228Y-146543D01*
X266228Y-150000D01*
X266228Y-150000D02*
G37*
G36*
X253727Y-146557D02*
X253840Y-146600D01*
X253967Y-146670D01*
X254023Y-146727D01*
X254094Y-146797D01*
X254150Y-146882D01*
X254193Y-146981D01*
X254249Y-147093D01*
X254277Y-147234D01*
X254291Y-147390D01*
X254305Y-147573D01*
X254305Y-147785D01*
X254305Y-147799D01*
X254305Y-147813D01*
X254305Y-147898D01*
X254291Y-148025D01*
X254263Y-148166D01*
X254207Y-148307D01*
X254136Y-148448D01*
X254037Y-148561D01*
X253910Y-148645D01*
X253910Y-148660D01*
X253924Y-148660D01*
X253967Y-148688D01*
X254037Y-148730D01*
X254108Y-148801D01*
X254178Y-148899D01*
X254249Y-149026D01*
X254291Y-149196D01*
X254305Y-149421D01*
X254305Y-150000D01*
X253572Y-150000D01*
X253572Y-149591D01*
X253572Y-149577D01*
X253572Y-149548D01*
X253572Y-149492D01*
X253572Y-149436D01*
X253558Y-149323D01*
X253558Y-149266D01*
X253544Y-149224D01*
X253529Y-149210D01*
X253487Y-149153D01*
X253417Y-149111D01*
X253290Y-149097D01*
X252006Y-149097D01*
X252006Y-150000D01*
X251272Y-150000D01*
X251272Y-146543D01*
X253642Y-146543D01*
X253727Y-146557D01*
X253727Y-146557D02*
G37*
G36*
X247307Y-150000D02*
X246503Y-150000D01*
X246503Y-146543D01*
X247307Y-146543D01*
X247307Y-150000D01*
X247307Y-150000D02*
G37*
G36*
X257156Y-146515D02*
X257283Y-146543D01*
X257410Y-146571D01*
X257551Y-146628D01*
X257664Y-146712D01*
X257762Y-146811D01*
X257776Y-146825D01*
X257805Y-146868D01*
X257833Y-146938D01*
X257875Y-147037D01*
X257918Y-147178D01*
X257960Y-147333D01*
X257974Y-147517D01*
X257988Y-147742D01*
X257988Y-148787D01*
X257988Y-148801D01*
X257988Y-148829D01*
X257988Y-148871D01*
X257974Y-148942D01*
X257960Y-149097D01*
X257932Y-149294D01*
X257861Y-149492D01*
X257776Y-149690D01*
X257649Y-149845D01*
X257565Y-149915D01*
X257480Y-149958D01*
X257466Y-149958D01*
X257438Y-149972D01*
X257395Y-149986D01*
X257339Y-149986D01*
X257268Y-150000D01*
X257184Y-150014D01*
X256958Y-150028D01*
X255688Y-150028D01*
X255575Y-150014D01*
X255448Y-149986D01*
X255307Y-149944D01*
X255166Y-149887D01*
X255039Y-149802D01*
X254926Y-149690D01*
X254912Y-149675D01*
X254898Y-149633D01*
X254870Y-149563D01*
X254842Y-149464D01*
X254799Y-149351D01*
X254771Y-149196D01*
X254757Y-148998D01*
X254743Y-148787D01*
X254743Y-147742D01*
X254743Y-147728D01*
X254743Y-147700D01*
X254743Y-147644D01*
X254757Y-147573D01*
X254771Y-147404D01*
X254813Y-147206D01*
X254884Y-146995D01*
X254997Y-146811D01*
X255067Y-146727D01*
X255138Y-146656D01*
X255237Y-146600D01*
X255335Y-146557D01*
X255350Y-146557D01*
X255364Y-146543D01*
X255406Y-146543D01*
X255462Y-146529D01*
X255604Y-146515D01*
X255787Y-146501D01*
X257057Y-146501D01*
X257156Y-146515D01*
X257156Y-146515D02*
G37*
G36*
X250087Y-146515D02*
X250256Y-146515D01*
X250411Y-146529D01*
X250538Y-146557D01*
X250581Y-146571D01*
X250609Y-146585D01*
X250623Y-146585D01*
X250637Y-146614D01*
X250665Y-146656D01*
X250707Y-146727D01*
X250750Y-146825D01*
X250778Y-146966D01*
X250792Y-147150D01*
X250806Y-147390D01*
X248901Y-147390D01*
X248817Y-147404D01*
X248718Y-147446D01*
X248619Y-147531D01*
X248605Y-147559D01*
X248591Y-147587D01*
X248563Y-147644D01*
X248549Y-147714D01*
X248520Y-147813D01*
X248506Y-147940D01*
X248506Y-148081D01*
X248506Y-148462D01*
X248506Y-148476D01*
X248506Y-148533D01*
X248506Y-148603D01*
X248520Y-148674D01*
X248535Y-148857D01*
X248549Y-148928D01*
X248563Y-148984D01*
X248577Y-149012D01*
X248633Y-149069D01*
X248690Y-149097D01*
X248746Y-149125D01*
X248831Y-149139D01*
X248916Y-149153D01*
X250849Y-149153D01*
X250849Y-149182D01*
X250849Y-149238D01*
X250849Y-149323D01*
X250834Y-149421D01*
X250806Y-149647D01*
X250778Y-149746D01*
X250750Y-149817D01*
X250750Y-149831D01*
X250722Y-149845D01*
X250679Y-149887D01*
X250623Y-149915D01*
X250524Y-149958D01*
X250411Y-150000D01*
X250270Y-150014D01*
X250101Y-150028D01*
X248704Y-150028D01*
X248605Y-150014D01*
X248478Y-149986D01*
X248337Y-149958D01*
X248196Y-149915D01*
X248069Y-149845D01*
X247970Y-149746D01*
X247956Y-149732D01*
X247942Y-149690D01*
X247900Y-149619D01*
X247857Y-149520D01*
X247815Y-149393D01*
X247787Y-149224D01*
X247759Y-149026D01*
X247744Y-148787D01*
X247744Y-147742D01*
X247744Y-147728D01*
X247744Y-147700D01*
X247744Y-147644D01*
X247759Y-147573D01*
X247787Y-147390D01*
X247829Y-147178D01*
X247914Y-146966D01*
X248041Y-146769D01*
X248125Y-146684D01*
X248224Y-146614D01*
X248323Y-146557D01*
X248450Y-146529D01*
X248478Y-146529D01*
X248549Y-146515D01*
X248662Y-146501D01*
X249917Y-146501D01*
X250087Y-146515D01*
X250087Y-146515D02*
G37*
%LPC*%
G36*
X259258Y-135636D02*
X259187Y-135636D01*
X259103Y-135665D01*
X259018Y-135693D01*
X258919Y-135749D01*
X258849Y-135820D01*
X258792Y-135933D01*
X258764Y-136088D01*
X258764Y-136102D01*
X258764Y-136116D01*
X258778Y-136201D01*
X258821Y-136314D01*
X258905Y-136441D01*
X258933Y-136469D01*
X259004Y-136511D01*
X259117Y-136553D01*
X259258Y-136582D01*
X259272Y-136582D01*
X259329Y-136568D01*
X259399Y-136553D01*
X259498Y-136525D01*
X259582Y-136455D01*
X259653Y-136370D01*
X259709Y-136257D01*
X259724Y-136088D01*
X259724Y-136074D01*
X259724Y-136017D01*
X259695Y-135947D01*
X259667Y-135862D01*
X259611Y-135777D01*
X259526Y-135707D01*
X259413Y-135650D01*
X259258Y-135636D01*
X259258Y-135636D02*
G37*
%LPD*%
G36*
X259385Y-135792D02*
X259456Y-135848D01*
X259484Y-135890D01*
X259498Y-135961D01*
X259498Y-135975D01*
X259498Y-135989D01*
X259484Y-136060D01*
X259427Y-136116D01*
X259385Y-136144D01*
X259329Y-136158D01*
X259512Y-136441D01*
X259399Y-136441D01*
X259230Y-136158D01*
X259117Y-136158D01*
X259117Y-136441D01*
X259018Y-136441D01*
X259018Y-135763D01*
X259300Y-135763D01*
X259385Y-135792D01*
X259385Y-135792D02*
G37*
%LPC*%
G36*
X259286Y-135862D02*
X259117Y-135862D01*
X259117Y-136074D01*
X259300Y-136074D01*
X259343Y-136060D01*
X259371Y-136031D01*
X259385Y-135961D01*
X259385Y-135947D01*
X259371Y-135904D01*
X259343Y-135876D01*
X259286Y-135862D01*
X259286Y-135862D02*
G37*
G36*
X253600Y-137019D02*
X253558Y-137019D01*
X253501Y-137033D01*
X253445Y-137061D01*
X253374Y-137104D01*
X253290Y-137160D01*
X253205Y-137231D01*
X253120Y-137344D01*
X252231Y-138599D01*
X254926Y-142875D01*
X254940Y-142889D01*
X254969Y-142931D01*
X255011Y-143002D01*
X255067Y-143058D01*
X255138Y-143129D01*
X255223Y-143199D01*
X255293Y-143241D01*
X255378Y-143256D01*
X255420Y-143256D01*
X255477Y-143241D01*
X255533Y-143213D01*
X255604Y-143185D01*
X255688Y-143143D01*
X255773Y-143072D01*
X255843Y-142973D01*
X256789Y-141619D01*
X254080Y-137358D01*
X254066Y-137344D01*
X254037Y-137301D01*
X253995Y-137245D01*
X253939Y-137188D01*
X253868Y-137132D01*
X253783Y-137076D01*
X253699Y-137033D01*
X253600Y-137019D01*
X253600Y-137019D02*
G37*
G36*
X268768Y-147376D02*
X267399Y-147376D01*
X267399Y-148250D01*
X268853Y-148250D01*
X268881Y-148236D01*
X268923Y-148208D01*
X268965Y-148166D01*
X269008Y-148095D01*
X269022Y-148011D01*
X269036Y-147898D01*
X269036Y-147757D01*
X269036Y-147742D01*
X269036Y-147700D01*
X269022Y-147630D01*
X269008Y-147559D01*
X268965Y-147503D01*
X268923Y-147432D01*
X268853Y-147390D01*
X268768Y-147376D01*
X268768Y-147376D02*
G37*
G36*
X253261Y-147376D02*
X252006Y-147376D01*
X252006Y-148236D01*
X253374Y-148236D01*
X253417Y-148222D01*
X253473Y-148194D01*
X253529Y-148152D01*
X253572Y-148081D01*
X253600Y-147996D01*
X253614Y-147869D01*
X253614Y-147757D01*
X253614Y-147742D01*
X253614Y-147700D01*
X253600Y-147630D01*
X253572Y-147559D01*
X253529Y-147503D01*
X253459Y-147432D01*
X253374Y-147390D01*
X253261Y-147376D01*
X253261Y-147376D02*
G37*
G36*
X256859Y-147376D02*
X255900Y-147376D01*
X255815Y-147390D01*
X255702Y-147446D01*
X255646Y-147474D01*
X255604Y-147531D01*
X255589Y-147559D01*
X255575Y-147601D01*
X255547Y-147658D01*
X255533Y-147728D01*
X255505Y-147827D01*
X255491Y-147940D01*
X255491Y-148081D01*
X255491Y-148462D01*
X255491Y-148476D01*
X255491Y-148533D01*
X255491Y-148589D01*
X255505Y-148674D01*
X255519Y-148857D01*
X255533Y-148942D01*
X255561Y-149012D01*
X255575Y-149041D01*
X255632Y-149083D01*
X255731Y-149125D01*
X255801Y-149153D01*
X256831Y-149153D01*
X256888Y-149139D01*
X256958Y-149111D01*
X257043Y-149069D01*
X257127Y-148984D01*
X257198Y-148857D01*
X257226Y-148787D01*
X257254Y-148688D01*
X257268Y-148589D01*
X257268Y-148462D01*
X257268Y-148081D01*
X257268Y-148067D01*
X257268Y-148011D01*
X257268Y-147954D01*
X257254Y-147869D01*
X257212Y-147686D01*
X257170Y-147601D01*
X257127Y-147531D01*
X257127Y-147517D01*
X257099Y-147503D01*
X257029Y-147446D01*
X256930Y-147404D01*
X256859Y-147376D01*
X256859Y-147376D02*
G37*
%LPD*%
D10*
X301000Y-157250D02*
X301000Y-158750D01*
X300500Y-157250D02*
X301500Y-157250D01*
X302035Y-157750D02*
X301893Y-157822D01*
X301750Y-157964D01*
X301678Y-158179D01*
X301678Y-158322D01*
X301750Y-158536D01*
X301893Y-158679D01*
X302035Y-158750D01*
X302250Y-158750D01*
X302392Y-158679D01*
X302535Y-158536D01*
X302607Y-158322D01*
X302607Y-158179D01*
X302535Y-157964D01*
X302392Y-157822D01*
X302250Y-157750D01*
X302035Y-157750D01*
X302935Y-157750D02*
X302935Y-159250D01*
X302935Y-157964D02*
X303078Y-157822D01*
X303221Y-157750D01*
X303435Y-157750D01*
X303578Y-157822D01*
X303721Y-157964D01*
X303792Y-158179D01*
X303792Y-158322D01*
X303721Y-158536D01*
X303578Y-158679D01*
X303435Y-158750D01*
X303221Y-158750D01*
X303078Y-158679D01*
X302935Y-158536D01*
X305292Y-157250D02*
X305292Y-158750D01*
X306149Y-158750D01*
X307170Y-157750D02*
X307170Y-158750D01*
X307170Y-157964D02*
X307027Y-157822D01*
X306884Y-157750D01*
X306670Y-157750D01*
X306527Y-157822D01*
X306384Y-157964D01*
X306313Y-158179D01*
X306313Y-158322D01*
X306384Y-158536D01*
X306527Y-158679D01*
X306670Y-158750D01*
X306884Y-158750D01*
X307027Y-158679D01*
X307170Y-158536D01*
X307641Y-157750D02*
X308070Y-158750D01*
X308498Y-157750D02*
X308070Y-158750D01*
X307927Y-159036D01*
X307784Y-159178D01*
X307641Y-159250D01*
X307570Y-159250D01*
X308748Y-158179D02*
X309605Y-158179D01*
X309605Y-158036D01*
X309534Y-157893D01*
X309462Y-157822D01*
X309320Y-157750D01*
X309105Y-157750D01*
X308962Y-157822D01*
X308820Y-157964D01*
X308748Y-158179D01*
X308748Y-158322D01*
X308820Y-158536D01*
X308962Y-158679D01*
X309105Y-158750D01*
X309320Y-158750D01*
X309462Y-158679D01*
X309605Y-158536D01*
X309927Y-157750D02*
X309927Y-158750D01*
X309927Y-158179D02*
X309998Y-157964D01*
X310141Y-157822D01*
X310284Y-157750D01*
X310498Y-157750D01*
X330000Y-135524D02*
X330428Y-135524D01*
X330571Y-135476D01*
X330619Y-135429D01*
X330667Y-135333D01*
X330667Y-135191D01*
X330619Y-135095D01*
X330571Y-135048D01*
X330428Y-135000D01*
X330000Y-135000D01*
X330000Y-136000D01*
X331652Y-136000D02*
X331271Y-135000D01*
X330890Y-136000D01*
X331033Y-135667D02*
X331509Y-135667D01*
X331885Y-135000D02*
X331885Y-136000D01*
X331885Y-135000D02*
X332314Y-135000D01*
X332457Y-135048D01*
X332504Y-135095D01*
X332552Y-135191D01*
X332552Y-135286D01*
X332504Y-135381D01*
X332457Y-135429D01*
X332314Y-135476D01*
X331885Y-135476D01*
X332219Y-135476D02*
X332552Y-136000D01*
X333109Y-135000D02*
X333109Y-136000D01*
X332776Y-135000D02*
X333442Y-135000D01*
X334347Y-135000D02*
X334347Y-136000D01*
X334347Y-135000D02*
X335013Y-136000D01*
X335013Y-135000D02*
X335013Y-136000D01*
X335289Y-135000D02*
X335289Y-135714D01*
X335337Y-135857D01*
X335432Y-135952D01*
X335575Y-136000D01*
X335670Y-136000D01*
X335813Y-135952D01*
X335908Y-135857D01*
X335956Y-135714D01*
X335956Y-135000D01*
X336232Y-135000D02*
X336232Y-136000D01*
X336232Y-135000D02*
X336613Y-136000D01*
X336994Y-135000D02*
X336613Y-136000D01*
X336994Y-135000D02*
X336994Y-136000D01*
X337279Y-135000D02*
X337279Y-136000D01*
X337279Y-135000D02*
X337708Y-135000D01*
X337851Y-135048D01*
X337898Y-135095D01*
X337946Y-135191D01*
X337946Y-135286D01*
X337898Y-135381D01*
X337851Y-135429D01*
X337708Y-135476D01*
X337279Y-135476D02*
X337708Y-135476D01*
X337851Y-135524D01*
X337898Y-135571D01*
X337946Y-135667D01*
X337946Y-135810D01*
X337898Y-135905D01*
X337851Y-135952D01*
X337708Y-136000D01*
X337279Y-136000D01*
X338789Y-135000D02*
X338170Y-135000D01*
X338170Y-136000D01*
X338789Y-136000D01*
X338170Y-135476D02*
X338551Y-135476D01*
X338955Y-135000D02*
X338955Y-136000D01*
X338955Y-135000D02*
X339384Y-135000D01*
X339527Y-135048D01*
X339574Y-135095D01*
X339622Y-135191D01*
X339622Y-135286D01*
X339574Y-135381D01*
X339527Y-135429D01*
X339384Y-135476D01*
X338955Y-135476D01*
X339289Y-135476D02*
X339622Y-136000D01*
X339893Y-135333D02*
X339846Y-135381D01*
X339893Y-135429D01*
X339941Y-135381D01*
X339893Y-135333D01*
X339893Y-135905D02*
X339846Y-135952D01*
X339893Y-136000D01*
X339941Y-135952D01*
X339893Y-135905D01*
X340557Y-152715D02*
X340486Y-152572D01*
X340271Y-152500D01*
X340128Y-152500D01*
X339914Y-152572D01*
X339771Y-152786D01*
X339700Y-153143D01*
X339700Y-153500D01*
X339771Y-153786D01*
X339914Y-153929D01*
X340128Y-154000D01*
X340200Y-154000D01*
X340414Y-153929D01*
X340557Y-153786D01*
X340628Y-153572D01*
X340628Y-153500D01*
X340557Y-153286D01*
X340414Y-153143D01*
X340200Y-153072D01*
X340128Y-153072D01*
X339914Y-153143D01*
X339771Y-153286D01*
X339700Y-153500D01*
X340957Y-154214D02*
X341957Y-152500D01*
X342128Y-152857D02*
X342128Y-152786D01*
X342199Y-152643D01*
X342271Y-152572D01*
X342414Y-152500D01*
X342699Y-152500D01*
X342842Y-152572D01*
X342914Y-152643D01*
X342985Y-152786D01*
X342985Y-152929D01*
X342914Y-153072D01*
X342771Y-153286D01*
X342057Y-154000D01*
X343056Y-154000D01*
X344106Y-152500D02*
X343392Y-153500D01*
X344463Y-153500D01*
X344106Y-152500D02*
X344106Y-154000D01*
X344728Y-154214D02*
X345727Y-152500D01*
X345899Y-152857D02*
X345899Y-152786D01*
X345970Y-152643D01*
X346042Y-152572D01*
X346184Y-152500D01*
X346470Y-152500D01*
X346613Y-152572D01*
X346684Y-152643D01*
X346756Y-152786D01*
X346756Y-152929D01*
X346684Y-153072D01*
X346541Y-153286D01*
X345827Y-154000D01*
X346827Y-154000D01*
X347591Y-152500D02*
X347377Y-152572D01*
X347234Y-152786D01*
X347163Y-153143D01*
X347163Y-153357D01*
X347234Y-153714D01*
X347377Y-153929D01*
X347591Y-154000D01*
X347734Y-154000D01*
X347948Y-153929D01*
X348091Y-153714D01*
X348162Y-153357D01*
X348162Y-153143D01*
X348091Y-152786D01*
X347948Y-152572D01*
X347734Y-152500D01*
X347591Y-152500D01*
X348498Y-152786D02*
X348641Y-152715D01*
X348855Y-152500D01*
X348855Y-154000D01*
X349955Y-152500D02*
X349741Y-152572D01*
X349669Y-152715D01*
X349669Y-152857D01*
X349741Y-153000D01*
X349884Y-153072D01*
X350169Y-153143D01*
X350383Y-153214D01*
X350526Y-153357D01*
X350598Y-153500D01*
X350598Y-153714D01*
X350526Y-153857D01*
X350455Y-153929D01*
X350241Y-154000D01*
X349955Y-154000D01*
X349741Y-153929D01*
X349669Y-153857D01*
X349598Y-153714D01*
X349598Y-153500D01*
X349669Y-153357D01*
X349812Y-153214D01*
X350026Y-153143D01*
X350312Y-153072D01*
X350455Y-153000D01*
X350526Y-152857D01*
X350526Y-152715D01*
X350455Y-152572D01*
X350241Y-152500D01*
X349955Y-152500D01*
D11*
X335678Y-157358D02*
X335821Y-157287D01*
X336035Y-157073D01*
X336035Y-158572D01*
X336849Y-158429D02*
X336778Y-158501D01*
X336849Y-158572D01*
X336920Y-158501D01*
X336849Y-158429D01*
X337677Y-157073D02*
X337463Y-157144D01*
X337320Y-157358D01*
X337249Y-157715D01*
X337249Y-157930D01*
X337320Y-158287D01*
X337463Y-158501D01*
X337677Y-158572D01*
X337820Y-158572D01*
X338034Y-158501D01*
X338177Y-158287D01*
X338249Y-157930D01*
X338249Y-157715D01*
X338177Y-157358D01*
X338034Y-157144D01*
X337820Y-157073D01*
X337677Y-157073D01*
X339013Y-157073D02*
X338799Y-157144D01*
X338656Y-157358D01*
X338584Y-157715D01*
X338584Y-157930D01*
X338656Y-158287D01*
X338799Y-158501D01*
X339013Y-158572D01*
X339156Y-158572D01*
X339370Y-158501D01*
X339513Y-158287D01*
X339584Y-157930D01*
X339584Y-157715D01*
X339513Y-157358D01*
X339370Y-157144D01*
X339156Y-157073D01*
X339013Y-157073D01*
X301428Y-146500D02*
X301214Y-146572D01*
X301071Y-146786D01*
X301000Y-147143D01*
X301000Y-147357D01*
X301071Y-147714D01*
X301214Y-147929D01*
X301428Y-148000D01*
X301571Y-148000D01*
X301786Y-147929D01*
X301928Y-147714D01*
X302000Y-147357D01*
X302000Y-147143D01*
X301928Y-146786D01*
X301786Y-146572D01*
X301571Y-146500D01*
X301428Y-146500D01*
X303192Y-146500D02*
X302478Y-146500D01*
X302407Y-147143D01*
X302478Y-147072D01*
X302693Y-147000D01*
X302907Y-147000D01*
X303121Y-147072D01*
X303264Y-147214D01*
X303335Y-147429D01*
X303335Y-147572D01*
X303264Y-147786D01*
X303121Y-147929D01*
X302907Y-148000D01*
X302693Y-148000D01*
X302478Y-147929D01*
X302407Y-147857D01*
X302335Y-147714D01*
X303671Y-147357D02*
X304956Y-147357D01*
X306327Y-146500D02*
X305399Y-146500D01*
X305399Y-148000D01*
X306327Y-148000D01*
X305399Y-147214D02*
X305970Y-147214D01*
X307506Y-146500D02*
X306577Y-146500D01*
X306577Y-148000D01*
X307506Y-148000D01*
X306577Y-147214D02*
X307149Y-147214D01*
X307756Y-146500D02*
X307756Y-148000D01*
X307756Y-146500D02*
X308398Y-146500D01*
X308613Y-146572D01*
X308684Y-146643D01*
X308755Y-146786D01*
X308755Y-146929D01*
X308684Y-147072D01*
X308613Y-147143D01*
X308398Y-147214D01*
X307756Y-147214D01*
X308256Y-147214D02*
X308755Y-148000D01*
X310234Y-148000D02*
X309662Y-146500D01*
X309091Y-148000D01*
X309305Y-147500D02*
X310020Y-147500D01*
X310584Y-146500D02*
X310584Y-148000D01*
X310584Y-146500D02*
X311155Y-148000D01*
X311726Y-146500D02*
X311155Y-148000D01*
X311726Y-146500D02*
X311726Y-148000D01*
X312155Y-148500D02*
X313297Y-148500D01*
X313490Y-146500D02*
X313490Y-148000D01*
X313490Y-146500D02*
X313990Y-146500D01*
X314204Y-146572D01*
X314347Y-146715D01*
X314419Y-146857D01*
X314490Y-147072D01*
X314490Y-147429D01*
X314419Y-147643D01*
X314347Y-147786D01*
X314204Y-147929D01*
X313990Y-148000D01*
X313490Y-148000D01*
X315754Y-146500D02*
X314826Y-146500D01*
X314826Y-148000D01*
X315754Y-148000D01*
X314826Y-147214D02*
X315397Y-147214D01*
X316004Y-146500D02*
X316004Y-148000D01*
X316004Y-146500D02*
X316575Y-148000D01*
X317147Y-146500D02*
X316575Y-148000D01*
X317147Y-146500D02*
X317147Y-148000D01*
X318004Y-146500D02*
X317861Y-146572D01*
X317718Y-146715D01*
X317646Y-146857D01*
X317575Y-147072D01*
X317575Y-147429D01*
X317646Y-147643D01*
X317718Y-147786D01*
X317861Y-147929D01*
X318004Y-148000D01*
X318289Y-148000D01*
X318432Y-147929D01*
X318575Y-147786D01*
X318646Y-147643D01*
X318718Y-147429D01*
X318718Y-147072D01*
X318646Y-146857D01*
X318575Y-146715D01*
X318432Y-146572D01*
X318289Y-146500D01*
X318004Y-146500D01*
X319068Y-148500D02*
X320210Y-148500D01*
X320403Y-146500D02*
X320403Y-148000D01*
X320403Y-146500D02*
X321331Y-146500D01*
X320403Y-147214D02*
X320974Y-147214D01*
X322645Y-148000D02*
X322074Y-146500D01*
X321503Y-148000D01*
X321717Y-147500D02*
X322431Y-147500D01*
X323924Y-146500D02*
X322995Y-146500D01*
X322995Y-148000D01*
X323924Y-148000D01*
X322995Y-147214D02*
X323567Y-147214D01*
X324174Y-148500D02*
X325316Y-148500D01*
X325509Y-146786D02*
X325652Y-146715D01*
X325866Y-146500D01*
X325866Y-148000D01*
X326680Y-147857D02*
X326609Y-147929D01*
X326680Y-148000D01*
X326752Y-147929D01*
X326680Y-147857D01*
X327509Y-146500D02*
X327294Y-146572D01*
X327152Y-146786D01*
X327080Y-147143D01*
X327080Y-147357D01*
X327152Y-147714D01*
X327294Y-147929D01*
X327509Y-148000D01*
X327651Y-148000D01*
X327866Y-147929D01*
X328009Y-147714D01*
X328080Y-147357D01*
X328080Y-147143D01*
X328009Y-146786D01*
X327866Y-146572D01*
X327651Y-146500D01*
X327509Y-146500D01*
X328844Y-146500D02*
X328630Y-146572D01*
X328487Y-146786D01*
X328416Y-147143D01*
X328416Y-147357D01*
X328487Y-147714D01*
X328630Y-147929D01*
X328844Y-148000D01*
X328987Y-148000D01*
X329201Y-147929D01*
X329344Y-147714D01*
X329415Y-147357D01*
X329415Y-147143D01*
X329344Y-146786D01*
X329201Y-146572D01*
X328987Y-146500D01*
X328844Y-146500D01*
X329751Y-147357D02*
X331036Y-147357D01*
X331479Y-146500D02*
X331479Y-148000D01*
X331479Y-146500D02*
X332122Y-146500D01*
X332336Y-146572D01*
X332408Y-146643D01*
X332479Y-146786D01*
X332479Y-146929D01*
X332408Y-147072D01*
X332336Y-147143D01*
X332122Y-147214D01*
X331479Y-147214D01*
X331979Y-147214D02*
X332479Y-148000D01*
X332815Y-146786D02*
X332957Y-146715D01*
X333172Y-146500D01*
X333172Y-148000D01*
X333986Y-147857D02*
X333914Y-147929D01*
X333986Y-148000D01*
X334057Y-147929D01*
X333986Y-147857D01*
X334814Y-146500D02*
X334600Y-146572D01*
X334457Y-146786D01*
X334386Y-147143D01*
X334386Y-147357D01*
X334457Y-147714D01*
X334600Y-147929D01*
X334814Y-148000D01*
X334957Y-148000D01*
X335171Y-147929D01*
X335314Y-147714D01*
X335385Y-147357D01*
X335385Y-147143D01*
X335314Y-146786D01*
X335171Y-146572D01*
X334957Y-146500D01*
X334814Y-146500D01*
X336150Y-146500D02*
X335935Y-146572D01*
X335793Y-146786D01*
X335721Y-147143D01*
X335721Y-147357D01*
X335793Y-147714D01*
X335935Y-147929D01*
X336150Y-148000D01*
X336292Y-148000D01*
X336507Y-147929D01*
X336650Y-147714D01*
X336721Y-147357D01*
X336721Y-147143D01*
X336650Y-146786D01*
X336507Y-146572D01*
X336292Y-146500D01*
X336150Y-146500D01*
X337128Y-147857D02*
X337057Y-147929D01*
X337128Y-148000D01*
X337199Y-147929D01*
X337128Y-147857D01*
X338599Y-146857D02*
X338528Y-146715D01*
X338385Y-146572D01*
X338242Y-146500D01*
X337956Y-146500D01*
X337814Y-146572D01*
X337671Y-146715D01*
X337599Y-146857D01*
X337528Y-147072D01*
X337528Y-147429D01*
X337599Y-147643D01*
X337671Y-147786D01*
X337814Y-147929D01*
X337956Y-148000D01*
X338242Y-148000D01*
X338385Y-147929D01*
X338528Y-147786D01*
X338599Y-147643D01*
X338599Y-147429D01*
X338242Y-147429D02*
X338599Y-147429D01*
X339442Y-146500D02*
X339442Y-148000D01*
X338942Y-146500D02*
X339942Y-146500D01*
X340120Y-146500D02*
X340120Y-148000D01*
X340977Y-148000D01*
X273000Y-152222D02*
X273000Y-154000D01*
X273000Y-152222D02*
X273593Y-152222D01*
X273846Y-152307D01*
X274016Y-152476D01*
X274100Y-152646D01*
X274185Y-152900D01*
X274185Y-153323D01*
X274100Y-153577D01*
X274016Y-153746D01*
X273846Y-153915D01*
X273593Y-154000D01*
X273000Y-154000D01*
X274583Y-152815D02*
X274583Y-154000D01*
X274583Y-153323D02*
X274668Y-153069D01*
X274837Y-152900D01*
X275006Y-152815D01*
X275260Y-152815D01*
X276437Y-152815D02*
X276437Y-154000D01*
X276437Y-153069D02*
X276267Y-152900D01*
X276098Y-152815D01*
X275844Y-152815D01*
X275675Y-152900D01*
X275506Y-153069D01*
X275421Y-153323D01*
X275421Y-153492D01*
X275506Y-153746D01*
X275675Y-153915D01*
X275844Y-154000D01*
X276098Y-154000D01*
X276267Y-153915D01*
X276437Y-153746D01*
X277927Y-152815D02*
X277927Y-154169D01*
X277842Y-154423D01*
X277757Y-154508D01*
X277588Y-154593D01*
X277334Y-154593D01*
X277165Y-154508D01*
X277927Y-153069D02*
X277757Y-152900D01*
X277588Y-152815D01*
X277334Y-152815D01*
X277165Y-152900D01*
X276995Y-153069D01*
X276911Y-153323D01*
X276911Y-153492D01*
X276995Y-153746D01*
X277165Y-153915D01*
X277334Y-154000D01*
X277588Y-154000D01*
X277757Y-153915D01*
X277927Y-153746D01*
X278824Y-152815D02*
X278655Y-152900D01*
X278485Y-153069D01*
X278401Y-153323D01*
X278401Y-153492D01*
X278485Y-153746D01*
X278655Y-153915D01*
X278824Y-154000D01*
X279078Y-154000D01*
X279247Y-153915D01*
X279416Y-153746D01*
X279501Y-153492D01*
X279501Y-153323D01*
X279416Y-153069D01*
X279247Y-152900D01*
X279078Y-152815D01*
X278824Y-152815D01*
X280822Y-153069D02*
X280737Y-152900D01*
X280483Y-152815D01*
X280229Y-152815D01*
X279975Y-152900D01*
X279890Y-153069D01*
X279975Y-153238D01*
X280144Y-153323D01*
X280568Y-153407D01*
X280737Y-153492D01*
X280822Y-153661D01*
X280822Y-153746D01*
X280737Y-153915D01*
X280483Y-154000D01*
X280229Y-154000D01*
X279975Y-153915D01*
X279890Y-153746D01*
X283860Y-152646D02*
X283776Y-152476D01*
X283606Y-152307D01*
X283437Y-152222D01*
X283099Y-152222D01*
X282929Y-152307D01*
X282760Y-152476D01*
X282675Y-152646D01*
X282591Y-152900D01*
X282591Y-153323D01*
X282675Y-153577D01*
X282760Y-153746D01*
X282929Y-153915D01*
X283099Y-154000D01*
X283437Y-154000D01*
X283606Y-153915D01*
X283776Y-153746D01*
X283860Y-153577D01*
X284529Y-152222D02*
X284614Y-152307D01*
X284698Y-152222D01*
X284614Y-152138D01*
X284529Y-152222D01*
X284614Y-152815D02*
X284614Y-154000D01*
X285435Y-152815D02*
X285266Y-152900D01*
X285096Y-153069D01*
X285012Y-153323D01*
X285012Y-153492D01*
X285096Y-153746D01*
X285266Y-153915D01*
X285435Y-154000D01*
X285689Y-154000D01*
X285858Y-153915D01*
X286027Y-153746D01*
X286112Y-153492D01*
X286112Y-153323D01*
X286027Y-153069D01*
X285858Y-152900D01*
X285689Y-152815D01*
X285435Y-152815D01*
X287179Y-152222D02*
X287009Y-152222D01*
X286840Y-152307D01*
X286755Y-152561D01*
X286755Y-154000D01*
X286501Y-152815D02*
X287094Y-152815D01*
X287433Y-152815D02*
X287433Y-153661D01*
X287517Y-153915D01*
X287687Y-154000D01*
X287940Y-154000D01*
X288110Y-153915D01*
X288364Y-153661D01*
X288364Y-152815D02*
X288364Y-154000D01*
X273000Y-146222D02*
X273000Y-148000D01*
X273000Y-146222D02*
X273593Y-146222D01*
X273846Y-146307D01*
X274016Y-146476D01*
X274100Y-146646D01*
X274185Y-146900D01*
X274185Y-147323D01*
X274100Y-147577D01*
X274016Y-147746D01*
X273846Y-147915D01*
X273593Y-148000D01*
X273000Y-148000D01*
X274583Y-146815D02*
X274583Y-148000D01*
X274583Y-147323D02*
X274668Y-147069D01*
X274837Y-146900D01*
X275006Y-146815D01*
X275260Y-146815D01*
X276437Y-146815D02*
X276437Y-148000D01*
X276437Y-147069D02*
X276267Y-146900D01*
X276098Y-146815D01*
X275844Y-146815D01*
X275675Y-146900D01*
X275506Y-147069D01*
X275421Y-147323D01*
X275421Y-147492D01*
X275506Y-147746D01*
X275675Y-147915D01*
X275844Y-148000D01*
X276098Y-148000D01*
X276267Y-147915D01*
X276437Y-147746D01*
X277927Y-146815D02*
X277927Y-148169D01*
X277842Y-148423D01*
X277757Y-148508D01*
X277588Y-148593D01*
X277334Y-148593D01*
X277165Y-148508D01*
X277927Y-147069D02*
X277757Y-146900D01*
X277588Y-146815D01*
X277334Y-146815D01*
X277165Y-146900D01*
X276995Y-147069D01*
X276911Y-147323D01*
X276911Y-147492D01*
X276995Y-147746D01*
X277165Y-147915D01*
X277334Y-148000D01*
X277588Y-148000D01*
X277757Y-147915D01*
X277927Y-147746D01*
X278824Y-146815D02*
X278655Y-146900D01*
X278485Y-147069D01*
X278401Y-147323D01*
X278401Y-147492D01*
X278485Y-147746D01*
X278655Y-147915D01*
X278824Y-148000D01*
X279078Y-148000D01*
X279247Y-147915D01*
X279416Y-147746D01*
X279501Y-147492D01*
X279501Y-147323D01*
X279416Y-147069D01*
X279247Y-146900D01*
X279078Y-146815D01*
X278824Y-146815D01*
X280822Y-147069D02*
X280737Y-146900D01*
X280483Y-146815D01*
X280229Y-146815D01*
X279975Y-146900D01*
X279890Y-147069D01*
X279975Y-147238D01*
X280144Y-147323D01*
X280568Y-147407D01*
X280737Y-147492D01*
X280822Y-147661D01*
X280822Y-147746D01*
X280737Y-147915D01*
X280483Y-148000D01*
X280229Y-148000D01*
X279975Y-147915D01*
X279890Y-147746D01*
X283860Y-146646D02*
X283776Y-146476D01*
X283606Y-146307D01*
X283437Y-146222D01*
X283099Y-146222D01*
X282929Y-146307D01*
X282760Y-146476D01*
X282675Y-146646D01*
X282591Y-146900D01*
X282591Y-147323D01*
X282675Y-147577D01*
X282760Y-147746D01*
X282929Y-147915D01*
X283099Y-148000D01*
X283437Y-148000D01*
X283606Y-147915D01*
X283776Y-147746D01*
X283860Y-147577D01*
X284529Y-146222D02*
X284614Y-146307D01*
X284698Y-146222D01*
X284614Y-146138D01*
X284529Y-146222D01*
X284614Y-146815D02*
X284614Y-148000D01*
X285435Y-146815D02*
X285266Y-146900D01*
X285096Y-147069D01*
X285012Y-147323D01*
X285012Y-147492D01*
X285096Y-147746D01*
X285266Y-147915D01*
X285435Y-148000D01*
X285689Y-148000D01*
X285858Y-147915D01*
X286027Y-147746D01*
X286112Y-147492D01*
X286112Y-147323D01*
X286027Y-147069D01*
X285858Y-146900D01*
X285689Y-146815D01*
X285435Y-146815D01*
X287179Y-146222D02*
X287009Y-146222D01*
X286840Y-146307D01*
X286755Y-146561D01*
X286755Y-148000D01*
X286501Y-146815D02*
X287094Y-146815D01*
X287433Y-146815D02*
X287433Y-147661D01*
X287517Y-147915D01*
X287687Y-148000D01*
X287940Y-148000D01*
X288110Y-147915D01*
X288364Y-147661D01*
X288364Y-146815D02*
X288364Y-148000D01*
X239770Y-151482D02*
X239770Y-153260D01*
X239770Y-151482D02*
X240447Y-153260D01*
X241124Y-151482D02*
X240447Y-153260D01*
X241124Y-151482D02*
X241124Y-153260D01*
X241802Y-151482D02*
X241886Y-151567D01*
X241971Y-151482D01*
X241886Y-151398D01*
X241802Y-151482D01*
X241886Y-152075D02*
X241886Y-153260D01*
X243300Y-152329D02*
X243131Y-152160D01*
X242961Y-152075D01*
X242707Y-152075D01*
X242538Y-152160D01*
X242369Y-152329D01*
X242284Y-152583D01*
X242284Y-152752D01*
X242369Y-153006D01*
X242538Y-153175D01*
X242707Y-153260D01*
X242961Y-153260D01*
X243131Y-153175D01*
X243300Y-153006D01*
X243681Y-152075D02*
X243681Y-153260D01*
X243681Y-152583D02*
X243765Y-152329D01*
X243935Y-152160D01*
X244104Y-152075D01*
X244358Y-152075D01*
X244942Y-152075D02*
X244773Y-152160D01*
X244603Y-152329D01*
X244519Y-152583D01*
X244519Y-152752D01*
X244603Y-153006D01*
X244773Y-153175D01*
X244942Y-153260D01*
X245196Y-153260D01*
X245365Y-153175D01*
X245535Y-153006D01*
X245619Y-152752D01*
X245619Y-152583D01*
X245535Y-152329D01*
X245365Y-152160D01*
X245196Y-152075D01*
X244942Y-152075D01*
X247024Y-152329D02*
X246855Y-152160D01*
X246686Y-152075D01*
X246432Y-152075D01*
X246263Y-152160D01*
X246093Y-152329D01*
X246009Y-152583D01*
X246009Y-152752D01*
X246093Y-153006D01*
X246263Y-153175D01*
X246432Y-153260D01*
X246686Y-153260D01*
X246855Y-153175D01*
X247024Y-153006D01*
X247405Y-151482D02*
X247405Y-153260D01*
X247405Y-152413D02*
X247659Y-152160D01*
X247829Y-152075D01*
X248083Y-152075D01*
X248252Y-152160D01*
X248336Y-152413D01*
X248336Y-153260D01*
X248971Y-151482D02*
X249056Y-151567D01*
X249141Y-151482D01*
X249056Y-151398D01*
X248971Y-151482D01*
X249056Y-152075D02*
X249056Y-153260D01*
X249454Y-152075D02*
X249454Y-153853D01*
X249454Y-152329D02*
X249623Y-152160D01*
X249792Y-152075D01*
X250046Y-152075D01*
X250216Y-152160D01*
X250385Y-152329D01*
X250470Y-152583D01*
X250470Y-152752D01*
X250385Y-153006D01*
X250216Y-153175D01*
X250046Y-153260D01*
X249792Y-153260D01*
X249623Y-153175D01*
X249454Y-153006D01*
X252840Y-151482D02*
X252840Y-153260D01*
X252247Y-151482D02*
X253432Y-151482D01*
X253644Y-152583D02*
X254660Y-152583D01*
X254660Y-152413D01*
X254575Y-152244D01*
X254490Y-152160D01*
X254321Y-152075D01*
X254067Y-152075D01*
X253898Y-152160D01*
X253729Y-152329D01*
X253644Y-152583D01*
X253644Y-152752D01*
X253729Y-153006D01*
X253898Y-153175D01*
X254067Y-153260D01*
X254321Y-153260D01*
X254490Y-153175D01*
X254660Y-153006D01*
X256056Y-152329D02*
X255887Y-152160D01*
X255718Y-152075D01*
X255464Y-152075D01*
X255295Y-152160D01*
X255125Y-152329D01*
X255041Y-152583D01*
X255041Y-152752D01*
X255125Y-153006D01*
X255295Y-153175D01*
X255464Y-153260D01*
X255718Y-153260D01*
X255887Y-153175D01*
X256056Y-153006D01*
X256437Y-151482D02*
X256437Y-153260D01*
X256437Y-152413D02*
X256691Y-152160D01*
X256861Y-152075D01*
X257115Y-152075D01*
X257284Y-152160D01*
X257368Y-152413D01*
X257368Y-153260D01*
X257834Y-152075D02*
X257834Y-153260D01*
X257834Y-152413D02*
X258088Y-152160D01*
X258257Y-152075D01*
X258511Y-152075D01*
X258680Y-152160D01*
X258765Y-152413D01*
X258765Y-153260D01*
X259654Y-152075D02*
X259485Y-152160D01*
X259315Y-152329D01*
X259231Y-152583D01*
X259231Y-152752D01*
X259315Y-153006D01*
X259485Y-153175D01*
X259654Y-153260D01*
X259908Y-153260D01*
X260077Y-153175D01*
X260246Y-153006D01*
X260331Y-152752D01*
X260331Y-152583D01*
X260246Y-152329D01*
X260077Y-152160D01*
X259908Y-152075D01*
X259654Y-152075D01*
X260721Y-151482D02*
X260721Y-153260D01*
X261516Y-152075D02*
X261347Y-152160D01*
X261178Y-152329D01*
X261093Y-152583D01*
X261093Y-152752D01*
X261178Y-153006D01*
X261347Y-153175D01*
X261516Y-153260D01*
X261770Y-153260D01*
X261939Y-153175D01*
X262109Y-153006D01*
X262193Y-152752D01*
X262193Y-152583D01*
X262109Y-152329D01*
X261939Y-152160D01*
X261770Y-152075D01*
X261516Y-152075D01*
X263599Y-152075D02*
X263599Y-153429D01*
X263514Y-153683D01*
X263429Y-153768D01*
X263260Y-153853D01*
X263006Y-153853D01*
X262837Y-153768D01*
X263599Y-152329D02*
X263429Y-152160D01*
X263260Y-152075D01*
X263006Y-152075D01*
X262837Y-152160D01*
X262667Y-152329D01*
X262583Y-152583D01*
X262583Y-152752D01*
X262667Y-153006D01*
X262837Y-153175D01*
X263006Y-153260D01*
X263260Y-153260D01*
X263429Y-153175D01*
X263599Y-153006D01*
X264157Y-152075D02*
X264665Y-153260D01*
X265173Y-152075D02*
X264665Y-153260D01*
X264496Y-153599D01*
X264327Y-153768D01*
X264157Y-153853D01*
X264073Y-153853D01*
X266866Y-151482D02*
X266866Y-153260D01*
X267238Y-152075D02*
X267238Y-153260D01*
X267238Y-152413D02*
X267492Y-152160D01*
X267662Y-152075D01*
X267916Y-152075D01*
X268085Y-152160D01*
X268170Y-152413D01*
X268170Y-153260D01*
X269651Y-152329D02*
X269482Y-152160D01*
X269312Y-152075D01*
X269058Y-152075D01*
X268889Y-152160D01*
X268720Y-152329D01*
X268635Y-152583D01*
X268635Y-152752D01*
X268720Y-153006D01*
X268889Y-153175D01*
X269058Y-153260D01*
X269312Y-153260D01*
X269482Y-153175D01*
X269651Y-153006D01*
X270117Y-153091D02*
X270032Y-153175D01*
X270117Y-153260D01*
X270201Y-153175D01*
X270117Y-153091D01*
X241085Y-154646D02*
X241085Y-154561D01*
X241169Y-154392D01*
X241254Y-154307D01*
X241423Y-154222D01*
X241762Y-154222D01*
X241931Y-154307D01*
X242016Y-154392D01*
X242100Y-154561D01*
X242100Y-154730D01*
X242016Y-154900D01*
X241846Y-155154D01*
X241000Y-156000D01*
X242185Y-156000D01*
X242752Y-154222D02*
X243683Y-154222D01*
X243175Y-154900D01*
X243429Y-154900D01*
X243599Y-154984D01*
X243683Y-155069D01*
X243768Y-155323D01*
X243768Y-155492D01*
X243683Y-155746D01*
X243514Y-155915D01*
X243260Y-156000D01*
X243006Y-156000D01*
X242752Y-155915D01*
X242668Y-155831D01*
X242583Y-155661D01*
X245182Y-154222D02*
X244335Y-154222D01*
X244251Y-154984D01*
X244335Y-154900D01*
X244589Y-154815D01*
X244843Y-154815D01*
X245097Y-154900D01*
X245266Y-155069D01*
X245351Y-155323D01*
X245351Y-155492D01*
X245266Y-155746D01*
X245097Y-155915D01*
X244843Y-156000D01*
X244589Y-156000D01*
X244335Y-155915D01*
X244251Y-155831D01*
X244166Y-155661D01*
X246765Y-154222D02*
X245918Y-154222D01*
X245833Y-154984D01*
X245918Y-154900D01*
X246172Y-154815D01*
X246426Y-154815D01*
X246680Y-154900D01*
X246849Y-155069D01*
X246934Y-155323D01*
X246934Y-155492D01*
X246849Y-155746D01*
X246680Y-155915D01*
X246426Y-156000D01*
X246172Y-156000D01*
X245918Y-155915D01*
X245833Y-155831D01*
X245749Y-155661D01*
X248728Y-154222D02*
X249152Y-156000D01*
X249575Y-154222D02*
X249152Y-156000D01*
X249575Y-154222D02*
X249998Y-156000D01*
X250421Y-154222D02*
X249998Y-156000D01*
X250862Y-155831D02*
X250777Y-155915D01*
X250862Y-156000D01*
X250946Y-155915D01*
X250862Y-155831D01*
X254002Y-154646D02*
X253917Y-154476D01*
X253748Y-154307D01*
X253579Y-154222D01*
X253240Y-154222D01*
X253071Y-154307D01*
X252902Y-154476D01*
X252817Y-154646D01*
X252732Y-154900D01*
X252732Y-155323D01*
X252817Y-155577D01*
X252902Y-155746D01*
X253071Y-155915D01*
X253240Y-156000D01*
X253579Y-156000D01*
X253748Y-155915D01*
X253917Y-155746D01*
X254002Y-155577D01*
X254501Y-154222D02*
X254501Y-156000D01*
X254501Y-155154D02*
X254755Y-154900D01*
X254925Y-154815D01*
X255179Y-154815D01*
X255348Y-154900D01*
X255433Y-155154D01*
X255433Y-156000D01*
X256914Y-154815D02*
X256914Y-156000D01*
X256914Y-155069D02*
X256745Y-154900D01*
X256575Y-154815D01*
X256321Y-154815D01*
X256152Y-154900D01*
X255983Y-155069D01*
X255898Y-155323D01*
X255898Y-155492D01*
X255983Y-155746D01*
X256152Y-155915D01*
X256321Y-156000D01*
X256575Y-156000D01*
X256745Y-155915D01*
X256914Y-155746D01*
X257388Y-154815D02*
X257388Y-156000D01*
X257388Y-155154D02*
X257642Y-154900D01*
X257811Y-154815D01*
X258065Y-154815D01*
X258234Y-154900D01*
X258319Y-155154D01*
X258319Y-156000D01*
X259800Y-154222D02*
X259800Y-156000D01*
X259800Y-155069D02*
X259631Y-154900D01*
X259462Y-154815D01*
X259208Y-154815D01*
X259039Y-154900D01*
X258869Y-155069D01*
X258785Y-155323D01*
X258785Y-155492D01*
X258869Y-155746D01*
X259039Y-155915D01*
X259208Y-156000D01*
X259462Y-156000D01*
X259631Y-155915D01*
X259800Y-155746D01*
X260274Y-154222D02*
X260274Y-156000D01*
X260647Y-155323D02*
X261663Y-155323D01*
X261663Y-155154D01*
X261578Y-154984D01*
X261493Y-154900D01*
X261324Y-154815D01*
X261070Y-154815D01*
X260901Y-154900D01*
X260732Y-155069D01*
X260647Y-155323D01*
X260647Y-155492D01*
X260732Y-155746D01*
X260901Y-155915D01*
X261070Y-156000D01*
X261324Y-156000D01*
X261493Y-155915D01*
X261663Y-155746D01*
X262044Y-154815D02*
X262044Y-156000D01*
X262044Y-155323D02*
X262128Y-155069D01*
X262298Y-154900D01*
X262467Y-154815D01*
X262721Y-154815D01*
X264278Y-154222D02*
X264278Y-156000D01*
X264278Y-154222D02*
X265040Y-154222D01*
X265294Y-154307D01*
X265379Y-154392D01*
X265463Y-154561D01*
X265463Y-154730D01*
X265379Y-154900D01*
X265294Y-154984D01*
X265040Y-155069D01*
X264278Y-155069D02*
X265040Y-155069D01*
X265294Y-155154D01*
X265379Y-155238D01*
X265463Y-155407D01*
X265463Y-155661D01*
X265379Y-155831D01*
X265294Y-155915D01*
X265040Y-156000D01*
X264278Y-156000D01*
X265861Y-154222D02*
X265861Y-156000D01*
X266234Y-154815D02*
X266742Y-156000D01*
X267250Y-154815D02*
X266742Y-156000D01*
X268553Y-154222D02*
X268553Y-156000D01*
X268553Y-155069D02*
X268384Y-154900D01*
X268215Y-154815D01*
X267961Y-154815D01*
X267791Y-154900D01*
X267622Y-155069D01*
X267537Y-155323D01*
X267537Y-155492D01*
X267622Y-155746D01*
X267791Y-155915D01*
X267961Y-156000D01*
X268215Y-156000D01*
X268384Y-155915D01*
X268553Y-155746D01*
X269112Y-155831D02*
X269027Y-155915D01*
X269112Y-156000D01*
X269196Y-155915D01*
X269112Y-155831D01*
X243270Y-157146D02*
X243185Y-156976D01*
X243016Y-156807D01*
X242846Y-156722D01*
X242508Y-156722D01*
X242339Y-156807D01*
X242169Y-156976D01*
X242085Y-157146D01*
X242000Y-157400D01*
X242000Y-157823D01*
X242085Y-158077D01*
X242169Y-158246D01*
X242339Y-158415D01*
X242508Y-158500D01*
X242846Y-158500D01*
X243016Y-158415D01*
X243185Y-158246D01*
X243270Y-158077D01*
X243769Y-156722D02*
X243769Y-158500D01*
X243769Y-157654D02*
X244023Y-157400D01*
X244192Y-157315D01*
X244446Y-157315D01*
X244616Y-157400D01*
X244700Y-157654D01*
X244700Y-158500D01*
X246182Y-157315D02*
X246182Y-158500D01*
X246182Y-157569D02*
X246012Y-157400D01*
X245843Y-157315D01*
X245589Y-157315D01*
X245420Y-157400D01*
X245251Y-157569D01*
X245166Y-157823D01*
X245166Y-157992D01*
X245251Y-158246D01*
X245420Y-158415D01*
X245589Y-158500D01*
X245843Y-158500D01*
X246012Y-158415D01*
X246182Y-158246D01*
X246656Y-157315D02*
X246656Y-158500D01*
X246656Y-157654D02*
X246910Y-157400D01*
X247079Y-157315D01*
X247333Y-157315D01*
X247502Y-157400D01*
X247587Y-157654D01*
X247587Y-158500D01*
X249068Y-156722D02*
X249068Y-158500D01*
X249068Y-157569D02*
X248899Y-157400D01*
X248730Y-157315D01*
X248476Y-157315D01*
X248306Y-157400D01*
X248137Y-157569D01*
X248052Y-157823D01*
X248052Y-157992D01*
X248137Y-158246D01*
X248306Y-158415D01*
X248476Y-158500D01*
X248730Y-158500D01*
X248899Y-158415D01*
X249068Y-158246D01*
X249542Y-156722D02*
X249542Y-158500D01*
X249915Y-157823D02*
X250930Y-157823D01*
X250930Y-157654D01*
X250846Y-157484D01*
X250761Y-157400D01*
X250592Y-157315D01*
X250338Y-157315D01*
X250169Y-157400D01*
X249999Y-157569D01*
X249915Y-157823D01*
X249915Y-157992D01*
X249999Y-158246D01*
X250169Y-158415D01*
X250338Y-158500D01*
X250592Y-158500D01*
X250761Y-158415D01*
X250930Y-158246D01*
X251311Y-157315D02*
X251311Y-158500D01*
X251311Y-157823D02*
X251396Y-157569D01*
X251565Y-157400D01*
X251735Y-157315D01*
X251989Y-157315D01*
X252319Y-158415D02*
X252234Y-158500D01*
X252149Y-158415D01*
X252234Y-158331D01*
X252319Y-158415D01*
X252319Y-158585D01*
X252234Y-158754D01*
X252149Y-158839D01*
X255459Y-158500D02*
X254782Y-156722D01*
X254105Y-158500D01*
X254359Y-157907D02*
X255205Y-157907D01*
X257059Y-156722D02*
X255874Y-158500D01*
X255874Y-156722D02*
X257059Y-156722D01*
X255874Y-158500D02*
X257059Y-158500D01*
X260673Y-156722D02*
X260420Y-156807D01*
X260335Y-156976D01*
X260335Y-157146D01*
X260420Y-157315D01*
X260589Y-157400D01*
X260927Y-157484D01*
X261181Y-157569D01*
X261351Y-157738D01*
X261435Y-157907D01*
X261435Y-158161D01*
X261351Y-158331D01*
X261266Y-158415D01*
X261012Y-158500D01*
X260673Y-158500D01*
X260420Y-158415D01*
X260335Y-158331D01*
X260250Y-158161D01*
X260250Y-157907D01*
X260335Y-157738D01*
X260504Y-157569D01*
X260758Y-157484D01*
X261097Y-157400D01*
X261266Y-157315D01*
X261351Y-157146D01*
X261351Y-156976D01*
X261266Y-156807D01*
X261012Y-156722D01*
X260673Y-156722D01*
X262849Y-156722D02*
X262002Y-156722D01*
X261918Y-157484D01*
X262002Y-157400D01*
X262256Y-157315D01*
X262510Y-157315D01*
X262764Y-157400D01*
X262934Y-157569D01*
X263018Y-157823D01*
X263018Y-157992D01*
X262934Y-158246D01*
X262764Y-158415D01*
X262510Y-158500D01*
X262256Y-158500D01*
X262002Y-158415D01*
X261918Y-158331D01*
X261833Y-158161D01*
X263501Y-157146D02*
X263501Y-157061D01*
X263585Y-156892D01*
X263670Y-156807D01*
X263839Y-156722D01*
X264178Y-156722D01*
X264347Y-156807D01*
X264432Y-156892D01*
X264517Y-157061D01*
X264517Y-157230D01*
X264432Y-157400D01*
X264263Y-157654D01*
X263416Y-158500D01*
X264601Y-158500D01*
X265084Y-157146D02*
X265084Y-157061D01*
X265168Y-156892D01*
X265253Y-156807D01*
X265422Y-156722D01*
X265761Y-156722D01*
X265930Y-156807D01*
X266015Y-156892D01*
X266099Y-157061D01*
X266099Y-157230D01*
X266015Y-157400D01*
X265845Y-157654D01*
X264999Y-158500D01*
X266184Y-158500D01*
X267428Y-156722D02*
X266582Y-157907D01*
X267852Y-157907D01*
X267428Y-156722D02*
X267428Y-158500D01*
X327582Y-161198D02*
X327497Y-161029D01*
X327243Y-160944D01*
X327074Y-160944D01*
X326820Y-161029D01*
X326650Y-161283D01*
X326566Y-161706D01*
X326566Y-162129D01*
X326650Y-162468D01*
X326820Y-162637D01*
X327074Y-162722D01*
X327158Y-162722D01*
X327412Y-162637D01*
X327582Y-162468D01*
X327666Y-162214D01*
X327666Y-162129D01*
X327582Y-161876D01*
X327412Y-161706D01*
X327158Y-161622D01*
X327074Y-161622D01*
X326820Y-161706D01*
X326650Y-161876D01*
X326566Y-162129D01*
X263955Y-160944D02*
X263108Y-160944D01*
X263023Y-161706D01*
X263108Y-161622D01*
X263362Y-161537D01*
X263616Y-161537D01*
X263870Y-161622D01*
X264039Y-161791D01*
X264124Y-162045D01*
X264124Y-162214D01*
X264039Y-162468D01*
X263870Y-162637D01*
X263616Y-162722D01*
X263362Y-162722D01*
X263108Y-162637D01*
X263023Y-162553D01*
X262939Y-162383D01*
X200311Y-160944D02*
X199464Y-162129D01*
X200734Y-162129D01*
X200311Y-160944D02*
X200311Y-162722D01*
X135964Y-160944D02*
X136896Y-160944D01*
X136388Y-161622D01*
X136642Y-161622D01*
X136811Y-161706D01*
X136896Y-161791D01*
X136980Y-162045D01*
X136980Y-162214D01*
X136896Y-162468D01*
X136726Y-162637D01*
X136472Y-162722D01*
X136218Y-162722D01*
X135964Y-162637D01*
X135880Y-162553D01*
X135795Y-162383D01*
X72650Y-161368D02*
X72650Y-161283D01*
X72735Y-161114D01*
X72820Y-161029D01*
X72989Y-160944D01*
X73328Y-160944D01*
X73497Y-161029D01*
X73582Y-161114D01*
X73666Y-161283D01*
X73666Y-161452D01*
X73582Y-161622D01*
X73412Y-161876D01*
X72566Y-162722D01*
X73751Y-162722D01*
X9176Y-161283D02*
X9345Y-161198D01*
X9599Y-160944D01*
X9599Y-162722D01*
X-20195Y-134732D02*
X-20195Y-136509D01*
X-20195Y-134732D02*
X-19602Y-134732D01*
X-19348Y-134816D01*
X-19179Y-134986D01*
X-19095Y-135155D01*
X-19010Y-135409D01*
X-19010Y-135832D01*
X-19095Y-136086D01*
X-19179Y-136255D01*
X-19348Y-136425D01*
X-19602Y-136509D01*
X-20195Y-136509D01*
X-18925Y-74957D02*
X-19010Y-74788D01*
X-19179Y-74618D01*
X-19348Y-74534D01*
X-19687Y-74534D01*
X-19856Y-74618D01*
X-20026Y-74788D01*
X-20110Y-74957D01*
X-20195Y-75211D01*
X-20195Y-75634D01*
X-20110Y-75888D01*
X-20026Y-76057D01*
X-19856Y-76227D01*
X-19687Y-76311D01*
X-19348Y-76311D01*
X-19179Y-76227D01*
X-19010Y-76057D01*
X-18925Y-75888D01*
X-20195Y-14209D02*
X-20195Y-15986D01*
X-20195Y-14209D02*
X-19433Y-14209D01*
X-19179Y-14293D01*
X-19095Y-14378D01*
X-19010Y-14547D01*
X-19010Y-14716D01*
X-19095Y-14886D01*
X-19179Y-14970D01*
X-19433Y-15055D01*
X-20195Y-15055D02*
X-19433Y-15055D01*
X-19179Y-15140D01*
X-19095Y-15224D01*
X-19010Y-15394D01*
X-19010Y-15648D01*
X-19095Y-15817D01*
X-19179Y-15902D01*
X-19433Y-15986D01*
X-20195Y-15986D01*
X-18841Y44466D02*
X-19518Y46243D01*
X-20195Y44466D01*
X-19941Y45058D02*
X-19095Y45058D01*
X355725Y-134732D02*
X355725Y-136509D01*
X355725Y-134732D02*
X356318Y-134732D01*
X356572Y-134816D01*
X356741Y-134986D01*
X356825Y-135155D01*
X356910Y-135409D01*
X356910Y-135832D01*
X356825Y-136086D01*
X356741Y-136255D01*
X356572Y-136425D01*
X356318Y-136509D01*
X355725Y-136509D01*
X356995Y-74957D02*
X356910Y-74788D01*
X356741Y-74618D01*
X356572Y-74534D01*
X356233Y-74534D01*
X356064Y-74618D01*
X355894Y-74788D01*
X355810Y-74957D01*
X355725Y-75211D01*
X355725Y-75634D01*
X355810Y-75888D01*
X355894Y-76057D01*
X356064Y-76227D01*
X356233Y-76311D01*
X356572Y-76311D01*
X356741Y-76227D01*
X356910Y-76057D01*
X356995Y-75888D01*
X355725Y-14209D02*
X355725Y-15986D01*
X355725Y-14209D02*
X356487Y-14209D01*
X356741Y-14293D01*
X356825Y-14378D01*
X356910Y-14547D01*
X356910Y-14716D01*
X356825Y-14886D01*
X356741Y-14970D01*
X356487Y-15055D01*
X355725Y-15055D02*
X356487Y-15055D01*
X356741Y-15140D01*
X356825Y-15224D01*
X356910Y-15394D01*
X356910Y-15648D01*
X356825Y-15817D01*
X356741Y-15902D01*
X356487Y-15986D01*
X355725Y-15986D01*
X357079Y44466D02*
X356402Y46243D01*
X355725Y44466D01*
X355979Y45058D02*
X356825Y45058D01*
X327582Y75022D02*
X327497Y75191D01*
X327243Y75276D01*
X327074Y75276D01*
X326820Y75191D01*
X326650Y74937D01*
X326566Y74514D01*
X326566Y74091D01*
X326650Y73752D01*
X326820Y73583D01*
X327074Y73498D01*
X327158Y73498D01*
X327412Y73583D01*
X327582Y73752D01*
X327666Y74006D01*
X327666Y74091D01*
X327582Y74344D01*
X327412Y74514D01*
X327158Y74598D01*
X327074Y74598D01*
X326820Y74514D01*
X326650Y74344D01*
X326566Y74091D01*
X263955Y75276D02*
X263108Y75276D01*
X263023Y74514D01*
X263108Y74598D01*
X263362Y74683D01*
X263616Y74683D01*
X263870Y74598D01*
X264039Y74429D01*
X264124Y74175D01*
X264124Y74006D01*
X264039Y73752D01*
X263870Y73583D01*
X263616Y73498D01*
X263362Y73498D01*
X263108Y73583D01*
X263023Y73667D01*
X262939Y73837D01*
X200311Y75276D02*
X199464Y74091D01*
X200734Y74091D01*
X200311Y75276D02*
X200311Y73498D01*
X135964Y75276D02*
X136896Y75276D01*
X136388Y74598D01*
X136642Y74598D01*
X136811Y74514D01*
X136896Y74429D01*
X136980Y74175D01*
X136980Y74006D01*
X136896Y73752D01*
X136726Y73583D01*
X136472Y73498D01*
X136218Y73498D01*
X135964Y73583D01*
X135880Y73667D01*
X135795Y73837D01*
X72650Y74852D02*
X72650Y74937D01*
X72735Y75106D01*
X72820Y75191D01*
X72989Y75276D01*
X73328Y75276D01*
X73497Y75191D01*
X73582Y75106D01*
X73666Y74937D01*
X73666Y74768D01*
X73582Y74598D01*
X73412Y74344D01*
X72566Y73498D01*
X73751Y73498D01*
X9176Y74937D02*
X9345Y75022D01*
X9599Y75276D01*
X9599Y73498D01*
D12*
X31578Y-56999D02*
D03*
X29690Y-59330D02*
D03*
X74176Y-56999D02*
D03*
X72288Y-59330D02*
D03*
X116775Y-56999D02*
D03*
X114887Y-59330D02*
D03*
X159374Y-56999D02*
D03*
X157486Y-59330D02*
D03*
X201972Y-56999D02*
D03*
X200084Y-59330D02*
D03*
X31578Y-5688D02*
D03*
X29690Y-8020D02*
D03*
X74176Y-5688D02*
D03*
X72288Y-8020D02*
D03*
X116775Y-5688D02*
D03*
X114887Y-8020D02*
D03*
X159374Y-5688D02*
D03*
X157486Y-8020D02*
D03*
X201972Y-5688D02*
D03*
X200084Y-8020D02*
D03*
X31578Y45623D02*
D03*
X29690Y43291D02*
D03*
X74176Y45623D02*
D03*
X72288Y43291D02*
D03*
X116775Y45623D02*
D03*
X114887Y43291D02*
D03*
X159374Y45623D02*
D03*
X157486Y43291D02*
D03*
X201972Y45623D02*
D03*
X200084Y43291D02*
D03*
D13*
X29024Y-55191D02*
D03*
X27434Y-57735D02*
D03*
X71622Y-55191D02*
D03*
X70033Y-57735D02*
D03*
X114221Y-55191D02*
D03*
X112631Y-57735D02*
D03*
X156820Y-55191D02*
D03*
X155230Y-57735D02*
D03*
X199418Y-55191D02*
D03*
X197829Y-57735D02*
D03*
X29024Y-3880D02*
D03*
X27434Y-6424D02*
D03*
X71622Y-3880D02*
D03*
X70033Y-6424D02*
D03*
X114221Y-3880D02*
D03*
X112631Y-6424D02*
D03*
X156820Y-3880D02*
D03*
X155230Y-6424D02*
D03*
X199418Y-3880D02*
D03*
X197829Y-6424D02*
D03*
X29024Y47431D02*
D03*
X27434Y44887D02*
D03*
X71622Y47431D02*
D03*
X70033Y44887D02*
D03*
X114221Y47431D02*
D03*
X112631Y44887D02*
D03*
X156820Y47431D02*
D03*
X155230Y44887D02*
D03*
X199418Y47431D02*
D03*
X197829Y44887D02*
D03*
D14*
X26264Y-53732D02*
D03*
X24996Y-56451D02*
D03*
X68862Y-53732D02*
D03*
X67595Y-56451D02*
D03*
X111461Y-53732D02*
D03*
X110193Y-56451D02*
D03*
X154060Y-53732D02*
D03*
X152792Y-56451D02*
D03*
X196658Y-53732D02*
D03*
X195391Y-56451D02*
D03*
X26264Y-2421D02*
D03*
X24996Y-5140D02*
D03*
X68862Y-2421D02*
D03*
X67595Y-5140D02*
D03*
X111461Y-2421D02*
D03*
X110193Y-5140D02*
D03*
X154060Y-2421D02*
D03*
X152792Y-5140D02*
D03*
X196658Y-2421D02*
D03*
X195391Y-5140D02*
D03*
X26264Y48890D02*
D03*
X24996Y46171D02*
D03*
X68862Y48890D02*
D03*
X67595Y46171D02*
D03*
X111461Y48890D02*
D03*
X110193Y46171D02*
D03*
X154060Y48890D02*
D03*
X152792Y46171D02*
D03*
X196658Y48890D02*
D03*
X195391Y46171D02*
D03*
D15*
X23350Y-52598D02*
D03*
X22423Y-55451D02*
D03*
X65949Y-52598D02*
D03*
X65022Y-55451D02*
D03*
X108547Y-52598D02*
D03*
X107620Y-55451D02*
D03*
X151146Y-52598D02*
D03*
X150219Y-55451D02*
D03*
X193745Y-52598D02*
D03*
X192818Y-55451D02*
D03*
X23350Y-1287D02*
D03*
X22423Y-4140D02*
D03*
X65949Y-1287D02*
D03*
X65022Y-4140D02*
D03*
X108547Y-1287D02*
D03*
X107620Y-4140D02*
D03*
X151146Y-1287D02*
D03*
X150219Y-4140D02*
D03*
X193745Y-1287D02*
D03*
X192818Y-4140D02*
D03*
X23350Y50024D02*
D03*
X22423Y47171D02*
D03*
X65949Y50024D02*
D03*
X65022Y47171D02*
D03*
X108547Y50024D02*
D03*
X107620Y47171D02*
D03*
X151146Y50024D02*
D03*
X150219Y47171D02*
D03*
X193745Y50024D02*
D03*
X192818Y47171D02*
D03*
D16*
X20303Y-51841D02*
D03*
X19730Y-54786D02*
D03*
X62901Y-51841D02*
D03*
X62329Y-54786D02*
D03*
X105500Y-51841D02*
D03*
X104928Y-54786D02*
D03*
X148099Y-51841D02*
D03*
X147526Y-54786D02*
D03*
X190697Y-51841D02*
D03*
X190125Y-54786D02*
D03*
X20303Y-530D02*
D03*
X19730Y-3475D02*
D03*
X62901Y-530D02*
D03*
X62329Y-3475D02*
D03*
X105500Y-530D02*
D03*
X104928Y-3475D02*
D03*
X148099Y-530D02*
D03*
X147526Y-3475D02*
D03*
X190697Y-530D02*
D03*
X190125Y-3475D02*
D03*
X20303Y50781D02*
D03*
X19730Y47836D02*
D03*
X62901Y50781D02*
D03*
X62329Y47836D02*
D03*
X105500Y50781D02*
D03*
X104928Y47836D02*
D03*
X148099Y50781D02*
D03*
X147526Y47836D02*
D03*
X190697Y50781D02*
D03*
X190125Y47836D02*
D03*
D17*
X17200Y-51461D02*
D03*
X16991Y-54454D02*
D03*
X59799Y-51461D02*
D03*
X59589Y-54454D02*
D03*
X102397Y-51461D02*
D03*
X102188Y-54454D02*
D03*
X144996Y-51461D02*
D03*
X144787Y-54454D02*
D03*
X187595Y-51461D02*
D03*
X187386Y-54454D02*
D03*
X17200Y-150D02*
D03*
X16991Y-3143D02*
D03*
X59799Y-150D02*
D03*
X59589Y-3143D02*
D03*
X102397Y-150D02*
D03*
X102188Y-3143D02*
D03*
X144996Y-150D02*
D03*
X144787Y-3143D02*
D03*
X187595Y-150D02*
D03*
X187386Y-3143D02*
D03*
X17200Y51160D02*
D03*
X16991Y48168D02*
D03*
X59799Y51160D02*
D03*
X59589Y48168D02*
D03*
X102397Y51160D02*
D03*
X102188Y48168D02*
D03*
X144996Y51160D02*
D03*
X144787Y48168D02*
D03*
X187595Y51160D02*
D03*
X187386Y48168D02*
D03*
D18*
X14070Y-51460D02*
D03*
X14227Y-54456D02*
D03*
X56669Y-51460D02*
D03*
X56826Y-54456D02*
D03*
X99267Y-51460D02*
D03*
X99424Y-54456D02*
D03*
X141866Y-51460D02*
D03*
X142023Y-54456D02*
D03*
X184465Y-51460D02*
D03*
X184622Y-54456D02*
D03*
X14070Y-149D02*
D03*
X14227Y-3145D02*
D03*
X56669Y-149D02*
D03*
X56826Y-3145D02*
D03*
X99267Y-149D02*
D03*
X99424Y-3145D02*
D03*
X141866Y-149D02*
D03*
X142023Y-3145D02*
D03*
X184465Y-149D02*
D03*
X184622Y-3145D02*
D03*
X14070Y51162D02*
D03*
X14227Y48166D02*
D03*
X56669Y51162D02*
D03*
X56826Y48166D02*
D03*
X99267Y51162D02*
D03*
X99424Y48166D02*
D03*
X141866Y51162D02*
D03*
X142023Y48166D02*
D03*
X184465Y51162D02*
D03*
X184622Y48166D02*
D03*
D19*
X10962Y-51836D02*
D03*
X11483Y-54790D02*
D03*
X53561Y-51836D02*
D03*
X54082Y-54790D02*
D03*
X96159Y-51836D02*
D03*
X96680Y-54790D02*
D03*
X138758Y-51836D02*
D03*
X139279Y-54790D02*
D03*
X181357Y-51836D02*
D03*
X181878Y-54790D02*
D03*
X10962Y-525D02*
D03*
X11483Y-3480D02*
D03*
X53561Y-525D02*
D03*
X54082Y-3480D02*
D03*
X96159Y-525D02*
D03*
X96680Y-3480D02*
D03*
X138758Y-525D02*
D03*
X139279Y-3480D02*
D03*
X181357Y-525D02*
D03*
X181878Y-3480D02*
D03*
X10962Y50786D02*
D03*
X11483Y47831D02*
D03*
X53561Y50786D02*
D03*
X54082Y47831D02*
D03*
X96159Y50786D02*
D03*
X96680Y47831D02*
D03*
X138758Y50786D02*
D03*
X139279Y47831D02*
D03*
X181357Y50786D02*
D03*
X181878Y47831D02*
D03*
D20*
X7923Y-52590D02*
D03*
X8800Y-55459D02*
D03*
X50522Y-52590D02*
D03*
X51399Y-55459D02*
D03*
X93121Y-52590D02*
D03*
X93998Y-55459D02*
D03*
X135719Y-52590D02*
D03*
X136596Y-55459D02*
D03*
X178318Y-52590D02*
D03*
X179195Y-55459D02*
D03*
X7923Y-1279D02*
D03*
X8800Y-4148D02*
D03*
X50522Y-1279D02*
D03*
X51399Y-4148D02*
D03*
X93121Y-1279D02*
D03*
X93998Y-4148D02*
D03*
X135719Y-1279D02*
D03*
X136596Y-4148D02*
D03*
X178318Y-1279D02*
D03*
X179195Y-4148D02*
D03*
X7923Y50032D02*
D03*
X8800Y47163D02*
D03*
X50522Y50032D02*
D03*
X51399Y47163D02*
D03*
X93121Y50032D02*
D03*
X93998Y47163D02*
D03*
X135719Y50032D02*
D03*
X136596Y47163D02*
D03*
X178318Y50032D02*
D03*
X179195Y47163D02*
D03*
D21*
X5003Y-53721D02*
D03*
X6224Y-56462D02*
D03*
X47602Y-53721D02*
D03*
X48822Y-56462D02*
D03*
X90201Y-53721D02*
D03*
X91421Y-56462D02*
D03*
X132799Y-53721D02*
D03*
X134020Y-56462D02*
D03*
X175398Y-53721D02*
D03*
X176618Y-56462D02*
D03*
X5003Y-2410D02*
D03*
X6224Y-5151D02*
D03*
X47602Y-2410D02*
D03*
X48822Y-5151D02*
D03*
X90201Y-2410D02*
D03*
X91421Y-5151D02*
D03*
X132799Y-2410D02*
D03*
X134020Y-5151D02*
D03*
X175398Y-2410D02*
D03*
X176618Y-5151D02*
D03*
X5003Y48901D02*
D03*
X6224Y46160D02*
D03*
X47602Y48901D02*
D03*
X48822Y46160D02*
D03*
X90201Y48901D02*
D03*
X91421Y46160D02*
D03*
X132799Y48901D02*
D03*
X134020Y46160D02*
D03*
X175398Y48901D02*
D03*
X176618Y46160D02*
D03*
D22*
X2232Y-55177D02*
D03*
X3777Y-57749D02*
D03*
X44830Y-55177D02*
D03*
X46376Y-57749D02*
D03*
X87429Y-55177D02*
D03*
X88974Y-57749D02*
D03*
X130028Y-55177D02*
D03*
X131573Y-57749D02*
D03*
X172626Y-55177D02*
D03*
X174172Y-57749D02*
D03*
X2232Y-3866D02*
D03*
X3777Y-6438D02*
D03*
X44830Y-3866D02*
D03*
X46376Y-6438D02*
D03*
X87429Y-3866D02*
D03*
X88974Y-6438D02*
D03*
X130028Y-3866D02*
D03*
X131573Y-6438D02*
D03*
X172626Y-3866D02*
D03*
X174172Y-6438D02*
D03*
X2232Y47445D02*
D03*
X3777Y44873D02*
D03*
X44830Y47445D02*
D03*
X46376Y44873D02*
D03*
X87429Y47445D02*
D03*
X88974Y44873D02*
D03*
X130028Y47445D02*
D03*
X131573Y44873D02*
D03*
X172626Y47445D02*
D03*
X174172Y44873D02*
D03*
D23*
X-326Y-56983D02*
D03*
X1521Y-59347D02*
D03*
X42273Y-56983D02*
D03*
X44120Y-59347D02*
D03*
X84871Y-56983D02*
D03*
X86718Y-59347D02*
D03*
X127470Y-56983D02*
D03*
X129317Y-59347D02*
D03*
X170069Y-56983D02*
D03*
X171916Y-59347D02*
D03*
X-326Y-5672D02*
D03*
X1521Y-8036D02*
D03*
X42273Y-5672D02*
D03*
X44120Y-8036D02*
D03*
X84871Y-5672D02*
D03*
X86718Y-8036D02*
D03*
X127470Y-5672D02*
D03*
X129317Y-8036D02*
D03*
X170069Y-5672D02*
D03*
X171916Y-8036D02*
D03*
X-326Y45639D02*
D03*
X1521Y43275D02*
D03*
X42273Y45639D02*
D03*
X44120Y43275D02*
D03*
X84871Y45639D02*
D03*
X86718Y43275D02*
D03*
X127470Y45639D02*
D03*
X129317Y43275D02*
D03*
X170069Y45639D02*
D03*
X171916Y43275D02*
D03*
D24*
X12922Y-80212D02*
D03*
X12922Y-81482D02*
D03*
X12922Y-82752D02*
D03*
X12922Y-84022D02*
D03*
X18322Y-80212D02*
D03*
X18322Y-81482D02*
D03*
X18322Y-82752D02*
D03*
X18322Y-84022D02*
D03*
X55521Y-80212D02*
D03*
X55521Y-81482D02*
D03*
X55521Y-82752D02*
D03*
X55521Y-84022D02*
D03*
X60921Y-80212D02*
D03*
X60921Y-81482D02*
D03*
X60921Y-82752D02*
D03*
X60921Y-84022D02*
D03*
X98120Y-80212D02*
D03*
X98120Y-81482D02*
D03*
X98120Y-82752D02*
D03*
X98120Y-84022D02*
D03*
X103520Y-80212D02*
D03*
X103520Y-81482D02*
D03*
X103520Y-82752D02*
D03*
X103520Y-84022D02*
D03*
X140718Y-80212D02*
D03*
X140718Y-81482D02*
D03*
X140718Y-82752D02*
D03*
X140718Y-84022D02*
D03*
X146118Y-80212D02*
D03*
X146118Y-81482D02*
D03*
X146118Y-82752D02*
D03*
X146118Y-84022D02*
D03*
X183317Y-80212D02*
D03*
X183317Y-81482D02*
D03*
X183317Y-82752D02*
D03*
X183317Y-84022D02*
D03*
X188717Y-80212D02*
D03*
X188717Y-81482D02*
D03*
X188717Y-82752D02*
D03*
X188717Y-84022D02*
D03*
X12922Y-28901D02*
D03*
X12922Y-30171D02*
D03*
X12922Y-31441D02*
D03*
X12922Y-32711D02*
D03*
X18322Y-28901D02*
D03*
X18322Y-30171D02*
D03*
X18322Y-31441D02*
D03*
X18322Y-32711D02*
D03*
X55521Y-28901D02*
D03*
X55521Y-30171D02*
D03*
X55521Y-31441D02*
D03*
X55521Y-32711D02*
D03*
X60921Y-28901D02*
D03*
X60921Y-30171D02*
D03*
X60921Y-31441D02*
D03*
X60921Y-32711D02*
D03*
X98120Y-28901D02*
D03*
X98120Y-30171D02*
D03*
X98120Y-31441D02*
D03*
X98120Y-32711D02*
D03*
X103520Y-28901D02*
D03*
X103520Y-30171D02*
D03*
X103520Y-31441D02*
D03*
X103520Y-32711D02*
D03*
X140718Y-28901D02*
D03*
X140718Y-30171D02*
D03*
X140718Y-31441D02*
D03*
X140718Y-32711D02*
D03*
X146118Y-28901D02*
D03*
X146118Y-30171D02*
D03*
X146118Y-31441D02*
D03*
X146118Y-32711D02*
D03*
X183317Y-28901D02*
D03*
X183317Y-30171D02*
D03*
X183317Y-31441D02*
D03*
X183317Y-32711D02*
D03*
X188717Y-28901D02*
D03*
X188717Y-30171D02*
D03*
X188717Y-31441D02*
D03*
X188717Y-32711D02*
D03*
X12922Y22410D02*
D03*
X12922Y21140D02*
D03*
X12922Y19870D02*
D03*
X12922Y18600D02*
D03*
X18322Y22410D02*
D03*
X18322Y21140D02*
D03*
X18322Y19870D02*
D03*
X18322Y18600D02*
D03*
X55521Y22410D02*
D03*
X55521Y21140D02*
D03*
X55521Y19870D02*
D03*
X55521Y18600D02*
D03*
X60921Y22410D02*
D03*
X60921Y21140D02*
D03*
X60921Y19870D02*
D03*
X60921Y18600D02*
D03*
X98120Y22410D02*
D03*
X98120Y21140D02*
D03*
X98120Y19870D02*
D03*
X98120Y18600D02*
D03*
X103520Y22410D02*
D03*
X103520Y21140D02*
D03*
X103520Y19870D02*
D03*
X103520Y18600D02*
D03*
X140718Y22410D02*
D03*
X140718Y21140D02*
D03*
X140718Y19870D02*
D03*
X140718Y18600D02*
D03*
X146118Y22410D02*
D03*
X146118Y21140D02*
D03*
X146118Y19870D02*
D03*
X146118Y18600D02*
D03*
X183317Y22410D02*
D03*
X183317Y21140D02*
D03*
X183317Y19870D02*
D03*
X183317Y18600D02*
D03*
X188717Y22410D02*
D03*
X188717Y21140D02*
D03*
X188717Y19870D02*
D03*
X188717Y18600D02*
D03*
D25*
X10034Y-83228D02*
D03*
X10034Y-80228D02*
D03*
X52633Y-83228D02*
D03*
X52633Y-80228D02*
D03*
X95232Y-83228D02*
D03*
X95232Y-80228D02*
D03*
X137830Y-83228D02*
D03*
X137830Y-80228D02*
D03*
X180429Y-83228D02*
D03*
X180429Y-80228D02*
D03*
X10034Y-31917D02*
D03*
X10034Y-28917D02*
D03*
X52633Y-31917D02*
D03*
X52633Y-28917D02*
D03*
X95232Y-31917D02*
D03*
X95232Y-28917D02*
D03*
X137830Y-31917D02*
D03*
X137830Y-28917D02*
D03*
X180429Y-31917D02*
D03*
X180429Y-28917D02*
D03*
X10034Y19394D02*
D03*
X10034Y22394D02*
D03*
X52633Y19394D02*
D03*
X52633Y22394D02*
D03*
X95232Y19394D02*
D03*
X95232Y22394D02*
D03*
X137830Y19394D02*
D03*
X137830Y22394D02*
D03*
X180429Y19394D02*
D03*
X180429Y22394D02*
D03*
D26*
X20194Y-81647D02*
D03*
X20194Y-80047D02*
D03*
X62793Y-81647D02*
D03*
X62793Y-80047D02*
D03*
X105392Y-81647D02*
D03*
X105392Y-80047D02*
D03*
X147990Y-81647D02*
D03*
X147990Y-80047D02*
D03*
X190589Y-81647D02*
D03*
X190589Y-80047D02*
D03*
X20194Y-30336D02*
D03*
X20194Y-28736D02*
D03*
X62793Y-30336D02*
D03*
X62793Y-28736D02*
D03*
X105392Y-30336D02*
D03*
X105392Y-28736D02*
D03*
X147990Y-30336D02*
D03*
X147990Y-28736D02*
D03*
X190589Y-30336D02*
D03*
X190589Y-28736D02*
D03*
X20194Y20975D02*
D03*
X20194Y22575D02*
D03*
X62793Y20975D02*
D03*
X62793Y22575D02*
D03*
X105392Y20975D02*
D03*
X105392Y22575D02*
D03*
X147990Y20975D02*
D03*
X147990Y22575D02*
D03*
X190589Y20975D02*
D03*
X190589Y22575D02*
D03*
D27*
X21756Y-83133D02*
D03*
X20156Y-83133D02*
D03*
X20156Y-84657D02*
D03*
X21756Y-84657D02*
D03*
X64355Y-83133D02*
D03*
X62755Y-83133D02*
D03*
X62755Y-84657D02*
D03*
X64355Y-84657D02*
D03*
X106954Y-83133D02*
D03*
X105354Y-83133D02*
D03*
X105354Y-84657D02*
D03*
X106954Y-84657D02*
D03*
X149552Y-83133D02*
D03*
X147952Y-83133D02*
D03*
X147952Y-84657D02*
D03*
X149552Y-84657D02*
D03*
X192151Y-83133D02*
D03*
X190551Y-83133D02*
D03*
X190551Y-84657D02*
D03*
X192151Y-84657D02*
D03*
X21756Y-31822D02*
D03*
X20156Y-31822D02*
D03*
X20156Y-33346D02*
D03*
X21756Y-33346D02*
D03*
X64355Y-31822D02*
D03*
X62755Y-31822D02*
D03*
X62755Y-33346D02*
D03*
X64355Y-33346D02*
D03*
X106954Y-31822D02*
D03*
X105354Y-31822D02*
D03*
X105354Y-33346D02*
D03*
X106954Y-33346D02*
D03*
X149552Y-31822D02*
D03*
X147952Y-31822D02*
D03*
X147952Y-33346D02*
D03*
X149552Y-33346D02*
D03*
X192151Y-31822D02*
D03*
X190551Y-31822D02*
D03*
X190551Y-33346D02*
D03*
X192151Y-33346D02*
D03*
X21756Y19489D02*
D03*
X20156Y19489D02*
D03*
X20156Y17965D02*
D03*
X21756Y17965D02*
D03*
X64355Y19489D02*
D03*
X62755Y19489D02*
D03*
X62755Y17965D02*
D03*
X64355Y17965D02*
D03*
X106954Y19489D02*
D03*
X105354Y19489D02*
D03*
X105354Y17965D02*
D03*
X106954Y17965D02*
D03*
X149552Y19489D02*
D03*
X147952Y19489D02*
D03*
X147952Y17965D02*
D03*
X149552Y17965D02*
D03*
X192151Y19489D02*
D03*
X190551Y19489D02*
D03*
X190551Y17965D02*
D03*
X192151Y17965D02*
D03*
D28*
X10645Y-60900D02*
D03*
X7645Y-60900D02*
D03*
X7645Y-63948D02*
D03*
X10645Y-63948D02*
D03*
X53244Y-60900D02*
D03*
X50244Y-60900D02*
D03*
X50244Y-63948D02*
D03*
X53244Y-63948D02*
D03*
X95843Y-60900D02*
D03*
X92843Y-60900D02*
D03*
X92843Y-63948D02*
D03*
X95843Y-63948D02*
D03*
X138441Y-60900D02*
D03*
X135441Y-60900D02*
D03*
X135441Y-63948D02*
D03*
X138441Y-63948D02*
D03*
X181040Y-60900D02*
D03*
X178040Y-60900D02*
D03*
X178040Y-63948D02*
D03*
X181040Y-63948D02*
D03*
X10645Y-9589D02*
D03*
X7645Y-9589D02*
D03*
X7645Y-12637D02*
D03*
X10645Y-12637D02*
D03*
X53244Y-9589D02*
D03*
X50244Y-9589D02*
D03*
X50244Y-12637D02*
D03*
X53244Y-12637D02*
D03*
X95843Y-9589D02*
D03*
X92843Y-9589D02*
D03*
X92843Y-12637D02*
D03*
X95843Y-12637D02*
D03*
X138441Y-9589D02*
D03*
X135441Y-9589D02*
D03*
X135441Y-12637D02*
D03*
X138441Y-12637D02*
D03*
X181040Y-9589D02*
D03*
X178040Y-9589D02*
D03*
X178040Y-12637D02*
D03*
X181040Y-12637D02*
D03*
X10645Y41722D02*
D03*
X7645Y41722D02*
D03*
X7645Y38674D02*
D03*
X10645Y38674D02*
D03*
X53244Y41722D02*
D03*
X50244Y41722D02*
D03*
X50244Y38674D02*
D03*
X53244Y38674D02*
D03*
X95843Y41722D02*
D03*
X92843Y41722D02*
D03*
X92843Y38674D02*
D03*
X95843Y38674D02*
D03*
X138441Y41722D02*
D03*
X135441Y41722D02*
D03*
X135441Y38674D02*
D03*
X138441Y38674D02*
D03*
X181040Y41722D02*
D03*
X178040Y41722D02*
D03*
X178040Y38674D02*
D03*
X181040Y38674D02*
D03*
D29*
X20829Y-81220D02*
X21913Y-81220D01*
X20420Y-81629D02*
X20829Y-81220D01*
X15340Y-81629D02*
X20420Y-81629D01*
X8920Y-69126D02*
X8920Y-65754D01*
X7645Y-64480D02*
X8920Y-65754D01*
X7645Y-64480D02*
X7645Y-63948D01*
X5843Y-72203D02*
X8920Y-69126D01*
X5843Y-84676D02*
X5843Y-72203D01*
X7291Y-83228D02*
X10034Y-83228D01*
X4108Y-86411D02*
X7291Y-83228D01*
X4108Y-86411D02*
X5843Y-84676D01*
X21913Y-81220D02*
X23183Y-82490D01*
X15749Y-81629D02*
X15749Y-79839D01*
X14217Y-82752D02*
X15340Y-81629D01*
X12922Y-82752D02*
X14217Y-82752D01*
X10510Y-82752D02*
X12922Y-82752D01*
X10034Y-83228D02*
X10510Y-82752D01*
X12771Y-83871D02*
X12922Y-84022D01*
X12922Y-82752D01*
X12922Y-81482D01*
X63428Y-81220D02*
X64511Y-81220D01*
X63018Y-81629D02*
X63428Y-81220D01*
X57938Y-81629D02*
X63018Y-81629D01*
X51518Y-69126D02*
X51518Y-65754D01*
X50244Y-64480D02*
X51518Y-65754D01*
X50244Y-64480D02*
X50244Y-63948D01*
X48442Y-72203D02*
X51518Y-69126D01*
X48442Y-84676D02*
X48442Y-72203D01*
X49890Y-83228D02*
X52633Y-83228D01*
X46707Y-86411D02*
X49890Y-83228D01*
X46707Y-86411D02*
X48442Y-84676D01*
X64511Y-81220D02*
X65781Y-82490D01*
X58348Y-81629D02*
X58348Y-79839D01*
X56816Y-82752D02*
X57938Y-81629D01*
X55521Y-82752D02*
X56816Y-82752D01*
X53109Y-82752D02*
X55521Y-82752D01*
X52633Y-83228D02*
X53109Y-82752D01*
X55370Y-83871D02*
X55521Y-84022D01*
X55521Y-82752D01*
X55521Y-81482D01*
X106027Y-81220D02*
X107110Y-81220D01*
X105617Y-81629D02*
X106027Y-81220D01*
X100537Y-81629D02*
X105617Y-81629D01*
X94117Y-69126D02*
X94117Y-65754D01*
X92843Y-64480D02*
X94117Y-65754D01*
X92843Y-64480D02*
X92843Y-63948D01*
X91041Y-72203D02*
X94117Y-69126D01*
X91041Y-84676D02*
X91041Y-72203D01*
X92489Y-83228D02*
X95232Y-83228D01*
X89306Y-86411D02*
X92489Y-83228D01*
X89306Y-86411D02*
X91041Y-84676D01*
X107110Y-81220D02*
X108380Y-82490D01*
X100947Y-81629D02*
X100947Y-79839D01*
X99415Y-82752D02*
X100537Y-81629D01*
X98120Y-82752D02*
X99415Y-82752D01*
X95708Y-82752D02*
X98120Y-82752D01*
X95232Y-83228D02*
X95708Y-82752D01*
X97968Y-83871D02*
X98120Y-84022D01*
X98120Y-82752D01*
X98120Y-81482D01*
X148625Y-81220D02*
X149709Y-81220D01*
X148216Y-81629D02*
X148625Y-81220D01*
X143136Y-81629D02*
X148216Y-81629D01*
X136716Y-69126D02*
X136716Y-65754D01*
X135441Y-64480D02*
X136716Y-65754D01*
X135441Y-64480D02*
X135441Y-63948D01*
X133639Y-72203D02*
X136716Y-69126D01*
X133639Y-84676D02*
X133639Y-72203D01*
X135087Y-83228D02*
X137830Y-83228D01*
X131904Y-86411D02*
X135087Y-83228D01*
X131904Y-86411D02*
X133639Y-84676D01*
X149709Y-81220D02*
X150979Y-82490D01*
X143545Y-81629D02*
X143545Y-79839D01*
X142013Y-82752D02*
X143136Y-81629D01*
X140718Y-82752D02*
X142013Y-82752D01*
X138306Y-82752D02*
X140718Y-82752D01*
X137830Y-83228D02*
X138306Y-82752D01*
X140567Y-83871D02*
X140718Y-84022D01*
X140718Y-82752D01*
X140718Y-81482D01*
X191224Y-81220D02*
X192307Y-81220D01*
X190814Y-81629D02*
X191224Y-81220D01*
X185734Y-81629D02*
X190814Y-81629D01*
X179314Y-69126D02*
X179314Y-65754D01*
X178040Y-64480D02*
X179314Y-65754D01*
X178040Y-64480D02*
X178040Y-63948D01*
X176238Y-72203D02*
X179314Y-69126D01*
X176238Y-84676D02*
X176238Y-72203D01*
X177686Y-83228D02*
X180429Y-83228D01*
X174503Y-86411D02*
X177686Y-83228D01*
X174503Y-86411D02*
X176238Y-84676D01*
X192307Y-81220D02*
X193577Y-82490D01*
X186144Y-81629D02*
X186144Y-79839D01*
X184612Y-82752D02*
X185734Y-81629D01*
X183317Y-82752D02*
X184612Y-82752D01*
X180905Y-82752D02*
X183317Y-82752D01*
X180429Y-83228D02*
X180905Y-82752D01*
X183166Y-83871D02*
X183317Y-84022D01*
X183317Y-82752D01*
X183317Y-81482D01*
X20829Y-29909D02*
X21913Y-29909D01*
X20420Y-30319D02*
X20829Y-29909D01*
X15340Y-30319D02*
X20420Y-30319D01*
X8920Y-17816D02*
X8920Y-14444D01*
X7645Y-13169D02*
X8920Y-14444D01*
X7645Y-13169D02*
X7645Y-12637D01*
X5843Y-20892D02*
X8920Y-17816D01*
X5843Y-33365D02*
X5843Y-20892D01*
X7291Y-31917D02*
X10034Y-31917D01*
X4108Y-35100D02*
X7291Y-31917D01*
X4108Y-35100D02*
X5843Y-33365D01*
X21913Y-29909D02*
X23183Y-31179D01*
X15749Y-30319D02*
X15749Y-28528D01*
X14217Y-31441D02*
X15340Y-30319D01*
X12922Y-31441D02*
X14217Y-31441D01*
X10510Y-31441D02*
X12922Y-31441D01*
X10034Y-31917D02*
X10510Y-31441D01*
X12771Y-32560D02*
X12922Y-32711D01*
X12922Y-31441D01*
X12922Y-30171D01*
X63428Y-29909D02*
X64511Y-29909D01*
X63018Y-30319D02*
X63428Y-29909D01*
X57938Y-30319D02*
X63018Y-30319D01*
X51518Y-17816D02*
X51518Y-14444D01*
X50244Y-13169D02*
X51518Y-14444D01*
X50244Y-13169D02*
X50244Y-12637D01*
X48442Y-20892D02*
X51518Y-17816D01*
X48442Y-33365D02*
X48442Y-20892D01*
X49890Y-31917D02*
X52633Y-31917D01*
X46707Y-35100D02*
X49890Y-31917D01*
X46707Y-35100D02*
X48442Y-33365D01*
X64511Y-29909D02*
X65781Y-31179D01*
X58348Y-30319D02*
X58348Y-28528D01*
X56816Y-31441D02*
X57938Y-30319D01*
X55521Y-31441D02*
X56816Y-31441D01*
X53109Y-31441D02*
X55521Y-31441D01*
X52633Y-31917D02*
X53109Y-31441D01*
X55370Y-32560D02*
X55521Y-32711D01*
X55521Y-31441D01*
X55521Y-30171D01*
X106027Y-29909D02*
X107110Y-29909D01*
X105617Y-30319D02*
X106027Y-29909D01*
X100537Y-30319D02*
X105617Y-30319D01*
X94117Y-17816D02*
X94117Y-14444D01*
X92843Y-13169D02*
X94117Y-14444D01*
X92843Y-13169D02*
X92843Y-12637D01*
X91041Y-20892D02*
X94117Y-17816D01*
X91041Y-33365D02*
X91041Y-20892D01*
X92489Y-31917D02*
X95232Y-31917D01*
X89306Y-35100D02*
X92489Y-31917D01*
X89306Y-35100D02*
X91041Y-33365D01*
X107110Y-29909D02*
X108380Y-31179D01*
X100947Y-30319D02*
X100947Y-28528D01*
X99415Y-31441D02*
X100537Y-30319D01*
X98120Y-31441D02*
X99415Y-31441D01*
X95708Y-31441D02*
X98120Y-31441D01*
X95232Y-31917D02*
X95708Y-31441D01*
X97968Y-32560D02*
X98120Y-32711D01*
X98120Y-31441D01*
X98120Y-30171D01*
X148625Y-29909D02*
X149709Y-29909D01*
X148216Y-30319D02*
X148625Y-29909D01*
X143136Y-30319D02*
X148216Y-30319D01*
X136716Y-17816D02*
X136716Y-14444D01*
X135441Y-13169D02*
X136716Y-14444D01*
X135441Y-13169D02*
X135441Y-12637D01*
X133639Y-20892D02*
X136716Y-17816D01*
X133639Y-33365D02*
X133639Y-20892D01*
X135087Y-31917D02*
X137830Y-31917D01*
X131904Y-35100D02*
X135087Y-31917D01*
X131904Y-35100D02*
X133639Y-33365D01*
X149709Y-29909D02*
X150979Y-31179D01*
X143545Y-30319D02*
X143545Y-28528D01*
X142013Y-31441D02*
X143136Y-30319D01*
X140718Y-31441D02*
X142013Y-31441D01*
X138306Y-31441D02*
X140718Y-31441D01*
X137830Y-31917D02*
X138306Y-31441D01*
X140567Y-32560D02*
X140718Y-32711D01*
X140718Y-31441D01*
X140718Y-30171D01*
X191224Y-29909D02*
X192307Y-29909D01*
X190814Y-30319D02*
X191224Y-29909D01*
X185734Y-30319D02*
X190814Y-30319D01*
X179314Y-17816D02*
X179314Y-14444D01*
X178040Y-13169D02*
X179314Y-14444D01*
X178040Y-13169D02*
X178040Y-12637D01*
X176238Y-20892D02*
X179314Y-17816D01*
X176238Y-33365D02*
X176238Y-20892D01*
X177686Y-31917D02*
X180429Y-31917D01*
X174503Y-35100D02*
X177686Y-31917D01*
X174503Y-35100D02*
X176238Y-33365D01*
X192307Y-29909D02*
X193577Y-31179D01*
X186144Y-30319D02*
X186144Y-28528D01*
X184612Y-31441D02*
X185734Y-30319D01*
X183317Y-31441D02*
X184612Y-31441D01*
X180905Y-31441D02*
X183317Y-31441D01*
X180429Y-31917D02*
X180905Y-31441D01*
X183166Y-32560D02*
X183317Y-32711D01*
X183317Y-31441D01*
X183317Y-30171D01*
X20829Y21402D02*
X21913Y21402D01*
X20420Y20992D02*
X20829Y21402D01*
X15340Y20992D02*
X20420Y20992D01*
X8920Y33495D02*
X8920Y36867D01*
X7645Y38142D02*
X8920Y36867D01*
X7645Y38142D02*
X7645Y38674D01*
X5843Y30419D02*
X8920Y33495D01*
X5843Y17946D02*
X5843Y30419D01*
X7291Y19394D02*
X10034Y19394D01*
X4108Y16211D02*
X7291Y19394D01*
X4108Y16211D02*
X5843Y17946D01*
X21913Y21402D02*
X23183Y20132D01*
X15749Y20992D02*
X15749Y22783D01*
X14217Y19870D02*
X15340Y20992D01*
X12922Y19870D02*
X14217Y19870D01*
X10510Y19870D02*
X12922Y19870D01*
X10034Y19394D02*
X10510Y19870D01*
X12771Y18751D02*
X12922Y18600D01*
X12922Y19870D01*
X12922Y21140D01*
X63428Y21402D02*
X64511Y21402D01*
X63018Y20992D02*
X63428Y21402D01*
X57938Y20992D02*
X63018Y20992D01*
X51518Y33495D02*
X51518Y36867D01*
X50244Y38142D02*
X51518Y36867D01*
X50244Y38142D02*
X50244Y38674D01*
X48442Y30419D02*
X51518Y33495D01*
X48442Y17946D02*
X48442Y30419D01*
X49890Y19394D02*
X52633Y19394D01*
X46707Y16211D02*
X49890Y19394D01*
X46707Y16211D02*
X48442Y17946D01*
X64511Y21402D02*
X65781Y20132D01*
X58348Y20992D02*
X58348Y22783D01*
X56816Y19870D02*
X57938Y20992D01*
X55521Y19870D02*
X56816Y19870D01*
X53109Y19870D02*
X55521Y19870D01*
X52633Y19394D02*
X53109Y19870D01*
X55370Y18751D02*
X55521Y18600D01*
X55521Y19870D01*
X55521Y21140D01*
X106027Y21402D02*
X107110Y21402D01*
X105617Y20992D02*
X106027Y21402D01*
X100537Y20992D02*
X105617Y20992D01*
X94117Y33495D02*
X94117Y36867D01*
X92843Y38142D02*
X94117Y36867D01*
X92843Y38142D02*
X92843Y38674D01*
X91041Y30419D02*
X94117Y33495D01*
X91041Y17946D02*
X91041Y30419D01*
X92489Y19394D02*
X95232Y19394D01*
X89306Y16211D02*
X92489Y19394D01*
X89306Y16211D02*
X91041Y17946D01*
X107110Y21402D02*
X108380Y20132D01*
X100947Y20992D02*
X100947Y22783D01*
X99415Y19870D02*
X100537Y20992D01*
X98120Y19870D02*
X99415Y19870D01*
X95708Y19870D02*
X98120Y19870D01*
X95232Y19394D02*
X95708Y19870D01*
X97968Y18751D02*
X98120Y18600D01*
X98120Y19870D01*
X98120Y21140D01*
X148625Y21402D02*
X149709Y21402D01*
X148216Y20992D02*
X148625Y21402D01*
X143136Y20992D02*
X148216Y20992D01*
X136716Y33495D02*
X136716Y36867D01*
X135441Y38142D02*
X136716Y36867D01*
X135441Y38142D02*
X135441Y38674D01*
X133639Y30419D02*
X136716Y33495D01*
X133639Y17946D02*
X133639Y30419D01*
X135087Y19394D02*
X137830Y19394D01*
X131904Y16211D02*
X135087Y19394D01*
X131904Y16211D02*
X133639Y17946D01*
X149709Y21402D02*
X150979Y20132D01*
X143545Y20992D02*
X143545Y22783D01*
X142013Y19870D02*
X143136Y20992D01*
X140718Y19870D02*
X142013Y19870D01*
X138306Y19870D02*
X140718Y19870D01*
X137830Y19394D02*
X138306Y19870D01*
X140567Y18751D02*
X140718Y18600D01*
X140718Y19870D01*
X140718Y21140D01*
X191224Y21402D02*
X192307Y21402D01*
X190814Y20992D02*
X191224Y21402D01*
X185734Y20992D02*
X190814Y20992D01*
X179314Y33495D02*
X179314Y36867D01*
X178040Y38142D02*
X179314Y36867D01*
X178040Y38142D02*
X178040Y38674D01*
X176238Y30419D02*
X179314Y33495D01*
X176238Y17946D02*
X176238Y30419D01*
X177686Y19394D02*
X180429Y19394D01*
X174503Y16211D02*
X177686Y19394D01*
X174503Y16211D02*
X176238Y17946D01*
X192307Y21402D02*
X193577Y20132D01*
X186144Y20992D02*
X186144Y22783D01*
X184612Y19870D02*
X185734Y20992D01*
X183317Y19870D02*
X184612Y19870D01*
X180905Y19870D02*
X183317Y19870D01*
X180429Y19394D02*
X180905Y19870D01*
X183166Y18751D02*
X183317Y18600D01*
X183317Y19870D01*
X183317Y21140D01*
X274547Y-138001D02*
X273000Y-138001D01*
X273000Y-140500D01*
X274547Y-140500D01*
X273000Y-139191D02*
X273952Y-139191D01*
X276511Y-138001D02*
X274964Y-138001D01*
X274964Y-140500D01*
X276511Y-140500D01*
X274964Y-139191D02*
X275916Y-139191D01*
X276928Y-138001D02*
X276928Y-140500D01*
X276928Y-138001D02*
X277999Y-138001D01*
X278356Y-138120D01*
X278475Y-138239D01*
X278594Y-138477D01*
X278594Y-138715D01*
X278475Y-138953D01*
X278356Y-139072D01*
X277999Y-139191D01*
X276928Y-139191D01*
X277761Y-139191D02*
X278594Y-140500D01*
X281058Y-140500D02*
X280106Y-138001D01*
X279153Y-140500D01*
X279511Y-139667D02*
X280701Y-139667D01*
X281641Y-138001D02*
X281641Y-140500D01*
X281641Y-138001D02*
X282593Y-140500D01*
X283545Y-138001D02*
X282593Y-140500D01*
X283545Y-138001D02*
X283545Y-140500D01*
X286223Y-138001D02*
X286223Y-140500D01*
X286223Y-138001D02*
X287057Y-138001D01*
X287414Y-138120D01*
X287652Y-138358D01*
X287771Y-138596D01*
X287890Y-138953D01*
X287890Y-139548D01*
X287771Y-139905D01*
X287652Y-140143D01*
X287414Y-140381D01*
X287057Y-140500D01*
X286223Y-140500D01*
X289996Y-138001D02*
X288449Y-138001D01*
X288449Y-140500D01*
X289996Y-140500D01*
X288449Y-139191D02*
X289401Y-139191D01*
X290413Y-138001D02*
X290413Y-140500D01*
X290413Y-138001D02*
X291365Y-140500D01*
X292317Y-138001D02*
X291365Y-140500D01*
X292317Y-138001D02*
X292317Y-140500D01*
X293746Y-138001D02*
X293508Y-138120D01*
X293269Y-138358D01*
X293150Y-138596D01*
X293031Y-138953D01*
X293031Y-139548D01*
X293150Y-139905D01*
X293269Y-140143D01*
X293508Y-140381D01*
X293746Y-140500D01*
X294222Y-140500D01*
X294460Y-140381D01*
X294698Y-140143D01*
X294817Y-139905D01*
X294936Y-139548D01*
X294936Y-138953D01*
X294817Y-138596D01*
X294698Y-138358D01*
X294460Y-138120D01*
X294222Y-138001D01*
X293746Y-138001D01*
X297483Y-138001D02*
X297483Y-140500D01*
X297483Y-138001D02*
X299030Y-138001D01*
X297483Y-139191D02*
X298435Y-139191D01*
X300030Y-138001D02*
X299792Y-138120D01*
X299554Y-138358D01*
X299435Y-138596D01*
X299316Y-138953D01*
X299316Y-139548D01*
X299435Y-139905D01*
X299554Y-140143D01*
X299792Y-140381D01*
X300030Y-140500D01*
X300506Y-140500D01*
X300744Y-140381D01*
X300982Y-140143D01*
X301101Y-139905D01*
X301220Y-139548D01*
X301220Y-138953D01*
X301101Y-138596D01*
X300982Y-138358D01*
X300744Y-138120D01*
X300506Y-138001D01*
X300030Y-138001D01*
X301803Y-138001D02*
X301803Y-140500D01*
X301803Y-138001D02*
X302875Y-138001D01*
X303232Y-138120D01*
X303351Y-138239D01*
X303470Y-138477D01*
X303470Y-138715D01*
X303351Y-138953D01*
X303232Y-139072D01*
X302875Y-139191D01*
X301803Y-139191D01*
X302637Y-139191D02*
X303470Y-140500D01*
X305993Y-138001D02*
X305993Y-140500D01*
X305993Y-138001D02*
X307540Y-138001D01*
X305993Y-139191D02*
X306945Y-139191D01*
X307826Y-138001D02*
X307826Y-140500D01*
X309897Y-138001D02*
X308350Y-138001D01*
X308350Y-140500D01*
X309897Y-140500D01*
X308350Y-139191D02*
X309302Y-139191D01*
X310313Y-138001D02*
X310313Y-140500D01*
X311742Y-140500D01*
X312015Y-138001D02*
X312015Y-140500D01*
X312015Y-138001D02*
X312849Y-138001D01*
X313206Y-138120D01*
X313444Y-138358D01*
X313563Y-138596D01*
X313682Y-138953D01*
X313682Y-139548D01*
X313563Y-139905D01*
X313444Y-140143D01*
X313206Y-140381D01*
X312849Y-140500D01*
X312015Y-140500D01*
X318109Y-140500D02*
X317157Y-138001D01*
X316205Y-140500D01*
X316562Y-139667D02*
X317752Y-139667D01*
X318693Y-139310D02*
X319764Y-139310D01*
X320121Y-139191D01*
X320240Y-139072D01*
X320359Y-138834D01*
X320359Y-138477D01*
X320240Y-138239D01*
X320121Y-138120D01*
X319764Y-138001D01*
X318693Y-138001D01*
X318693Y-140500D01*
X320918Y-139310D02*
X321990Y-139310D01*
X322347Y-139191D01*
X322466Y-139072D01*
X322585Y-138834D01*
X322585Y-138477D01*
X322466Y-138239D01*
X322347Y-138120D01*
X321990Y-138001D01*
X320918Y-138001D01*
X320918Y-140500D01*
X324810Y-138358D02*
X324572Y-138120D01*
X324215Y-138001D01*
X323739Y-138001D01*
X323382Y-138120D01*
X323144Y-138358D01*
X323144Y-138596D01*
X323263Y-138834D01*
X323382Y-138953D01*
X323620Y-139072D01*
X324334Y-139310D01*
X324572Y-139429D01*
X324691Y-139548D01*
X324810Y-139786D01*
X324810Y-140143D01*
X324572Y-140381D01*
X324215Y-140500D01*
X323739Y-140500D01*
X323382Y-140381D01*
X323144Y-140143D01*
D30*
X21585Y-58063D02*
X27105Y-58063D01*
X19730Y-56209D02*
X21585Y-58063D01*
X10161Y-67885D02*
X10161Y-65726D01*
X9145Y-64710D02*
X10161Y-65726D01*
X9145Y-64710D02*
X9145Y-58547D01*
X18360Y-82744D02*
X20321Y-82744D01*
X20156Y-83133D02*
X21180Y-82109D01*
X21337Y-82109D01*
X19521Y-84022D02*
X20156Y-84657D01*
X18322Y-84022D02*
X19521Y-84022D01*
X22634Y-85665D02*
X26968Y-81331D01*
X21164Y-85665D02*
X22634Y-85665D01*
X20156Y-84657D02*
X21164Y-85665D01*
X19730Y-54987D02*
X19813Y-54904D01*
X19673Y-55044D02*
X19730Y-54987D01*
X19730Y-54786D01*
X19730Y-55102D02*
X19730Y-54987D01*
X19730Y-56209D02*
X19730Y-55102D01*
X19673Y-55044D02*
X19730Y-55102D01*
X11483Y-56209D02*
X19730Y-56209D01*
X7923Y-52590D02*
X9600Y-52590D01*
X10180Y-52010D01*
X10788Y-52010D01*
X10962Y-51836D01*
X6859Y-53654D02*
X7923Y-52590D01*
X6859Y-54550D02*
X6859Y-53654D01*
X6224Y-55185D02*
X6859Y-54550D01*
X6224Y-56462D02*
X6224Y-55185D01*
X21756Y-83887D02*
X21756Y-83133D01*
X21756Y-84657D02*
X21756Y-83887D01*
X21740Y-83871D02*
X21756Y-83887D01*
X21083Y-83871D02*
X21740Y-83871D01*
X5451Y-54172D02*
X5453Y-54170D01*
X18322Y-82752D02*
X18449Y-82879D01*
X18195Y-82625D02*
X18322Y-82752D01*
X8256Y-57225D02*
X8800Y-56681D01*
X8800Y-55459D01*
X13694Y-51836D02*
X14070Y-51460D01*
X10962Y-51836D02*
X13694Y-51836D01*
X3777Y-57749D02*
X5064Y-56462D01*
X6224Y-56462D01*
X2179Y-59347D02*
X3777Y-57749D01*
X1521Y-59347D02*
X2179Y-59347D01*
X1177Y-59003D02*
X1521Y-59347D01*
X382Y-59003D02*
X1177Y-59003D01*
X11098Y-53161D02*
X15698Y-53161D01*
X8800Y-55459D02*
X11098Y-53161D01*
X15698Y-53161D02*
X16991Y-54454D01*
X351Y-57849D02*
X351Y-57660D01*
X-326Y-56983D02*
X351Y-57660D01*
X29503Y-59144D02*
X29503Y-57733D01*
X29503Y-59144D02*
X29690Y-59330D01*
X19940Y-54576D02*
X19940Y-53706D01*
X19730Y-54786D02*
X19940Y-54576D01*
X17123Y-51538D02*
X17200Y-51461D01*
X17123Y-52559D02*
X17123Y-51538D01*
X5451Y-54726D02*
X5451Y-54172D01*
X5003Y-53721D02*
X5453Y-54170D01*
X23010Y-53644D02*
X23010Y-52938D01*
X23350Y-52598D01*
X14227Y-54456D02*
X14352Y-54581D01*
X14352Y-55447D02*
X14352Y-54581D01*
X26036Y-55410D02*
X26256Y-55191D01*
X24996Y-56451D02*
X26036Y-55410D01*
X26256Y-55191D02*
X29024Y-55191D01*
X27434Y-57735D02*
X28170Y-56999D01*
X31578Y-56999D01*
X27105Y-58063D02*
X27434Y-57735D01*
X11483Y-56209D02*
X11483Y-54790D01*
X2232Y-55553D02*
X2798Y-56120D01*
X2232Y-55553D02*
X2232Y-55177D01*
X23195Y-55106D02*
X25569Y-54043D01*
X26264Y-53732D01*
X22423Y-55451D02*
X23195Y-55106D01*
X20691Y-52502D02*
X21991Y-54715D01*
X22423Y-55451D01*
X20303Y-51841D02*
X20691Y-52502D01*
X17653Y-53932D02*
X19706Y-52311D01*
X20303Y-51841D01*
X16991Y-54454D02*
X17653Y-53932D01*
X21756Y-84657D02*
X21756Y-84657D01*
X20029Y-80212D02*
X20194Y-80047D01*
X18322Y-80212D02*
X20029Y-80212D01*
X19902Y-82879D02*
X20156Y-83133D01*
X10034Y-80482D02*
X10304Y-80212D01*
X12922Y-80212D01*
X17098Y-80839D02*
X17725Y-80212D01*
X18322Y-80212D01*
X10645Y-60900D02*
X11939Y-60900D01*
X10645Y-63948D02*
X11939Y-63948D01*
X7621Y-62297D02*
X7621Y-60924D01*
X7645Y-60900D01*
X7621Y-63924D02*
X7645Y-63948D01*
X7621Y-63924D02*
X7621Y-62297D01*
X4108Y-68631D02*
X8129Y-68647D01*
X21058Y-73701D02*
X26976Y-73701D01*
X17781Y-70425D02*
X21058Y-73701D01*
X15622Y-70425D02*
X21439Y-76241D01*
X26976Y-76241D01*
X21439Y-71161D02*
X26976Y-71161D01*
X18924Y-68647D02*
X21439Y-71161D01*
X14479Y-68647D02*
X14606Y-68647D01*
X18924Y-68647D01*
X15749Y-67758D02*
X16765Y-67758D01*
X11939Y-63948D02*
X15749Y-67758D01*
X5970Y-67885D02*
X5970Y-59511D01*
X8256Y-57225D01*
X9145Y-58547D02*
X11483Y-56209D01*
X64183Y-58063D02*
X69704Y-58063D01*
X62329Y-56209D02*
X64183Y-58063D01*
X52760Y-67885D02*
X52760Y-65726D01*
X51744Y-64710D02*
X52760Y-65726D01*
X51744Y-64710D02*
X51744Y-58547D01*
X60959Y-82744D02*
X62920Y-82744D01*
X62755Y-83133D02*
X63779Y-82109D01*
X63936Y-82109D01*
X62120Y-84022D02*
X62755Y-84657D01*
X60921Y-84022D02*
X62120Y-84022D01*
X65233Y-85665D02*
X69567Y-81331D01*
X63763Y-85665D02*
X65233Y-85665D01*
X62755Y-84657D02*
X63763Y-85665D01*
X62329Y-54987D02*
X62412Y-54904D01*
X62271Y-55044D02*
X62329Y-54987D01*
X62329Y-54786D01*
X62329Y-55102D02*
X62329Y-54987D01*
X62329Y-56209D02*
X62329Y-55102D01*
X62271Y-55044D02*
X62329Y-55102D01*
X54082Y-56209D02*
X62329Y-56209D01*
X50522Y-52590D02*
X52199Y-52590D01*
X52779Y-52010D01*
X53387Y-52010D01*
X53561Y-51836D01*
X49458Y-53654D02*
X50522Y-52590D01*
X49458Y-54550D02*
X49458Y-53654D01*
X48822Y-55185D02*
X49458Y-54550D01*
X48822Y-56462D02*
X48822Y-55185D01*
X64355Y-83887D02*
X64355Y-83133D01*
X64355Y-84657D02*
X64355Y-83887D01*
X64339Y-83871D02*
X64355Y-83887D01*
X63682Y-83871D02*
X64339Y-83871D01*
X48049Y-54172D02*
X48051Y-54170D01*
X60921Y-82752D02*
X61048Y-82879D01*
X60794Y-82625D02*
X60921Y-82752D01*
X50855Y-57225D02*
X51399Y-56681D01*
X51399Y-55459D01*
X56292Y-51836D02*
X56669Y-51460D01*
X53561Y-51836D02*
X56292Y-51836D01*
X46376Y-57749D02*
X47663Y-56462D01*
X48822Y-56462D01*
X44777Y-59347D02*
X46376Y-57749D01*
X44120Y-59347D02*
X44777Y-59347D01*
X43776Y-59003D02*
X44120Y-59347D01*
X42981Y-59003D02*
X43776Y-59003D01*
X53697Y-53161D02*
X58296Y-53161D01*
X51399Y-55459D02*
X53697Y-53161D01*
X58296Y-53161D02*
X59589Y-54454D01*
X42950Y-57849D02*
X42950Y-57660D01*
X42273Y-56983D02*
X42950Y-57660D01*
X72102Y-59144D02*
X72102Y-57733D01*
X72102Y-59144D02*
X72288Y-59330D01*
X62539Y-54576D02*
X62539Y-53706D01*
X62329Y-54786D02*
X62539Y-54576D01*
X59722Y-51538D02*
X59799Y-51461D01*
X59722Y-52559D02*
X59722Y-51538D01*
X48049Y-54726D02*
X48049Y-54172D01*
X47602Y-53721D02*
X48051Y-54170D01*
X65609Y-53644D02*
X65609Y-52938D01*
X65949Y-52598D01*
X56826Y-54456D02*
X56951Y-54581D01*
X56951Y-55447D02*
X56951Y-54581D01*
X68635Y-55410D02*
X68854Y-55191D01*
X67595Y-56451D02*
X68635Y-55410D01*
X68854Y-55191D02*
X71622Y-55191D01*
X70033Y-57735D02*
X70769Y-56999D01*
X74176Y-56999D01*
X69704Y-58063D02*
X70033Y-57735D01*
X54082Y-56209D02*
X54082Y-54790D01*
X44830Y-55553D02*
X45397Y-56120D01*
X44830Y-55553D02*
X44830Y-55177D01*
X65794Y-55106D02*
X68167Y-54043D01*
X68862Y-53732D01*
X65022Y-55451D02*
X65794Y-55106D01*
X63290Y-52502D02*
X64589Y-54715D01*
X65022Y-55451D01*
X62901Y-51841D02*
X63290Y-52502D01*
X60251Y-53932D02*
X62305Y-52311D01*
X62901Y-51841D01*
X59589Y-54454D02*
X60251Y-53932D01*
X64355Y-84657D02*
X64355Y-84657D01*
X62628Y-80212D02*
X62793Y-80047D01*
X60921Y-80212D02*
X62628Y-80212D01*
X62501Y-82879D02*
X62755Y-83133D01*
X52633Y-80482D02*
X52903Y-80212D01*
X55521Y-80212D01*
X59697Y-80839D02*
X60324Y-80212D01*
X60921Y-80212D01*
X53244Y-60900D02*
X54538Y-60900D01*
X53244Y-63948D02*
X54538Y-63948D01*
X50220Y-62297D02*
X50220Y-60924D01*
X50244Y-60900D01*
X50220Y-63924D02*
X50244Y-63948D01*
X50220Y-63924D02*
X50220Y-62297D01*
X46707Y-68631D02*
X50728Y-68647D01*
X63656Y-73701D02*
X69575Y-73701D01*
X60380Y-70425D02*
X63656Y-73701D01*
X58221Y-70425D02*
X64037Y-76241D01*
X69575Y-76241D01*
X64037Y-71161D02*
X69575Y-71161D01*
X61523Y-68647D02*
X64037Y-71161D01*
X57078Y-68647D02*
X57205Y-68647D01*
X61523Y-68647D01*
X58348Y-67758D02*
X59364Y-67758D01*
X54538Y-63948D02*
X58348Y-67758D01*
X48569Y-67885D02*
X48569Y-59511D01*
X50855Y-57225D01*
X51744Y-58547D02*
X54082Y-56209D01*
X106782Y-58063D02*
X112303Y-58063D01*
X104928Y-56209D02*
X106782Y-58063D01*
X95359Y-67885D02*
X95359Y-65726D01*
X94343Y-64710D02*
X95359Y-65726D01*
X94343Y-64710D02*
X94343Y-58547D01*
X103558Y-82744D02*
X105519Y-82744D01*
X105354Y-83133D02*
X106378Y-82109D01*
X106535Y-82109D01*
X104719Y-84022D02*
X105354Y-84657D01*
X103520Y-84022D02*
X104719Y-84022D01*
X107832Y-85665D02*
X112166Y-81331D01*
X106362Y-85665D02*
X107832Y-85665D01*
X105354Y-84657D02*
X106362Y-85665D01*
X104928Y-54987D02*
X105011Y-54904D01*
X104870Y-55044D02*
X104928Y-54987D01*
X104928Y-54786D01*
X104928Y-55102D02*
X104928Y-54987D01*
X104928Y-56209D02*
X104928Y-55102D01*
X104870Y-55044D02*
X104928Y-55102D01*
X96680Y-56209D02*
X104928Y-56209D01*
X93121Y-52590D02*
X94798Y-52590D01*
X95378Y-52010D01*
X95986Y-52010D01*
X96159Y-51836D01*
X92057Y-53654D02*
X93121Y-52590D01*
X92057Y-54550D02*
X92057Y-53654D01*
X91421Y-55185D02*
X92057Y-54550D01*
X91421Y-56462D02*
X91421Y-55185D01*
X106954Y-83887D02*
X106954Y-83133D01*
X106954Y-84657D02*
X106954Y-83887D01*
X106937Y-83871D02*
X106954Y-83887D01*
X106281Y-83871D02*
X106937Y-83871D01*
X90648Y-54172D02*
X90650Y-54170D01*
X103520Y-82752D02*
X103647Y-82879D01*
X103393Y-82625D02*
X103520Y-82752D01*
X93454Y-57225D02*
X93998Y-56681D01*
X93998Y-55459D01*
X98891Y-51836D02*
X99267Y-51460D01*
X96159Y-51836D02*
X98891Y-51836D01*
X88974Y-57749D02*
X90261Y-56462D01*
X91421Y-56462D01*
X87376Y-59347D02*
X88974Y-57749D01*
X86718Y-59347D02*
X87376Y-59347D01*
X86374Y-59003D02*
X86718Y-59347D01*
X85580Y-59003D02*
X86374Y-59003D01*
X96296Y-53161D02*
X100895Y-53161D01*
X93998Y-55459D02*
X96296Y-53161D01*
X100895Y-53161D02*
X102188Y-54454D01*
X85549Y-57849D02*
X85549Y-57660D01*
X84871Y-56983D02*
X85549Y-57660D01*
X114701Y-59144D02*
X114701Y-57733D01*
X114701Y-59144D02*
X114887Y-59330D01*
X105137Y-54576D02*
X105137Y-53706D01*
X104928Y-54786D02*
X105137Y-54576D01*
X102321Y-51538D02*
X102397Y-51461D01*
X102321Y-52559D02*
X102321Y-51538D01*
X90648Y-54726D02*
X90648Y-54172D01*
X90201Y-53721D02*
X90650Y-54170D01*
X108208Y-53644D02*
X108208Y-52938D01*
X108547Y-52598D01*
X99424Y-54456D02*
X99550Y-54581D01*
X99550Y-55447D02*
X99550Y-54581D01*
X111234Y-55410D02*
X111453Y-55191D01*
X110193Y-56451D02*
X111234Y-55410D01*
X111453Y-55191D02*
X114221Y-55191D01*
X112631Y-57735D02*
X113367Y-56999D01*
X116775Y-56999D01*
X112303Y-58063D02*
X112631Y-57735D01*
X96680Y-56209D02*
X96680Y-54790D01*
X87429Y-55553D02*
X87996Y-56120D01*
X87429Y-55553D02*
X87429Y-55177D01*
X108392Y-55106D02*
X110766Y-54043D01*
X111461Y-53732D01*
X107620Y-55451D02*
X108392Y-55106D01*
X105888Y-52502D02*
X107188Y-54715D01*
X107620Y-55451D01*
X105500Y-51841D02*
X105888Y-52502D01*
X102850Y-53932D02*
X104904Y-52311D01*
X105500Y-51841D01*
X102188Y-54454D02*
X102850Y-53932D01*
X106954Y-84657D02*
X106954Y-84657D01*
X105227Y-80212D02*
X105392Y-80047D01*
X103520Y-80212D02*
X105227Y-80212D01*
X105100Y-82879D02*
X105354Y-83133D01*
X95232Y-80482D02*
X95502Y-80212D01*
X98120Y-80212D01*
X102296Y-80839D02*
X102923Y-80212D01*
X103520Y-80212D01*
X95843Y-60900D02*
X97137Y-60900D01*
X95843Y-63948D02*
X97137Y-63948D01*
X92819Y-62297D02*
X92819Y-60924D01*
X92843Y-60900D01*
X92819Y-63924D02*
X92843Y-63948D01*
X92819Y-63924D02*
X92819Y-62297D01*
X89306Y-68631D02*
X93327Y-68647D01*
X106255Y-73701D02*
X112173Y-73701D01*
X102979Y-70425D02*
X106255Y-73701D01*
X100820Y-70425D02*
X106636Y-76241D01*
X112173Y-76241D01*
X106636Y-71161D02*
X112173Y-71161D01*
X104122Y-68647D02*
X106636Y-71161D01*
X99677Y-68647D02*
X99804Y-68647D01*
X104122Y-68647D01*
X100947Y-67758D02*
X101963Y-67758D01*
X97137Y-63948D02*
X100947Y-67758D01*
X91168Y-67885D02*
X91168Y-59511D01*
X93454Y-57225D01*
X94343Y-58547D02*
X96680Y-56209D01*
X149381Y-58063D02*
X154901Y-58063D01*
X147526Y-56209D02*
X149381Y-58063D01*
X137957Y-67885D02*
X137957Y-65726D01*
X136941Y-64710D02*
X137957Y-65726D01*
X136941Y-64710D02*
X136941Y-58547D01*
X146156Y-82744D02*
X148117Y-82744D01*
X147952Y-83133D02*
X148976Y-82109D01*
X149133Y-82109D01*
X147317Y-84022D02*
X147952Y-84657D01*
X146118Y-84022D02*
X147317Y-84022D01*
X150430Y-85665D02*
X154764Y-81331D01*
X148960Y-85665D02*
X150430Y-85665D01*
X147952Y-84657D02*
X148960Y-85665D01*
X147526Y-54987D02*
X147609Y-54904D01*
X147469Y-55044D02*
X147526Y-54987D01*
X147526Y-54786D01*
X147526Y-55102D02*
X147526Y-54987D01*
X147526Y-56209D02*
X147526Y-55102D01*
X147469Y-55044D02*
X147526Y-55102D01*
X139279Y-56209D02*
X147526Y-56209D01*
X135719Y-52590D02*
X137396Y-52590D01*
X137976Y-52010D01*
X138584Y-52010D01*
X138758Y-51836D01*
X134655Y-53654D02*
X135719Y-52590D01*
X134655Y-54550D02*
X134655Y-53654D01*
X134020Y-55185D02*
X134655Y-54550D01*
X134020Y-56462D02*
X134020Y-55185D01*
X149552Y-83887D02*
X149552Y-83133D01*
X149552Y-84657D02*
X149552Y-83887D01*
X149536Y-83871D02*
X149552Y-83887D01*
X148879Y-83871D02*
X149536Y-83871D01*
X133247Y-54172D02*
X133249Y-54170D01*
X146118Y-82752D02*
X146245Y-82879D01*
X145991Y-82625D02*
X146118Y-82752D01*
X136052Y-57225D02*
X136596Y-56681D01*
X136596Y-55459D01*
X141490Y-51836D02*
X141866Y-51460D01*
X138758Y-51836D02*
X141490Y-51836D01*
X131573Y-57749D02*
X132860Y-56462D01*
X134020Y-56462D01*
X129975Y-59347D02*
X131573Y-57749D01*
X129317Y-59347D02*
X129975Y-59347D01*
X128973Y-59003D02*
X129317Y-59347D01*
X128178Y-59003D02*
X128973Y-59003D01*
X138894Y-53161D02*
X143494Y-53161D01*
X136596Y-55459D02*
X138894Y-53161D01*
X143494Y-53161D02*
X144787Y-54454D01*
X128147Y-57849D02*
X128147Y-57660D01*
X127470Y-56983D02*
X128147Y-57660D01*
X157300Y-59144D02*
X157300Y-57733D01*
X157300Y-59144D02*
X157486Y-59330D01*
X147736Y-54576D02*
X147736Y-53706D01*
X147526Y-54786D02*
X147736Y-54576D01*
X144919Y-51538D02*
X144996Y-51461D01*
X144919Y-52559D02*
X144919Y-51538D01*
X133247Y-54726D02*
X133247Y-54172D01*
X132799Y-53721D02*
X133249Y-54170D01*
X150806Y-53644D02*
X150806Y-52938D01*
X151146Y-52598D01*
X142023Y-54456D02*
X142148Y-54581D01*
X142148Y-55447D02*
X142148Y-54581D01*
X153832Y-55410D02*
X154052Y-55191D01*
X152792Y-56451D02*
X153832Y-55410D01*
X154052Y-55191D02*
X156820Y-55191D01*
X155230Y-57735D02*
X155966Y-56999D01*
X159374Y-56999D01*
X154901Y-58063D02*
X155230Y-57735D01*
X139279Y-56209D02*
X139279Y-54790D01*
X130028Y-55553D02*
X130594Y-56120D01*
X130028Y-55553D02*
X130028Y-55177D01*
X150991Y-55106D02*
X153365Y-54043D01*
X154060Y-53732D01*
X150219Y-55451D02*
X150991Y-55106D01*
X148487Y-52502D02*
X149787Y-54715D01*
X150219Y-55451D01*
X148099Y-51841D02*
X148487Y-52502D01*
X145449Y-53932D02*
X147502Y-52311D01*
X148099Y-51841D01*
X144787Y-54454D02*
X145449Y-53932D01*
X149552Y-84657D02*
X149552Y-84657D01*
X147825Y-80212D02*
X147990Y-80047D01*
X146118Y-80212D02*
X147825Y-80212D01*
X147698Y-82879D02*
X147952Y-83133D01*
X137830Y-80482D02*
X138100Y-80212D01*
X140718Y-80212D01*
X144894Y-80839D02*
X145521Y-80212D01*
X146118Y-80212D01*
X138441Y-60900D02*
X139735Y-60900D01*
X138441Y-63948D02*
X139735Y-63948D01*
X135417Y-62297D02*
X135417Y-60924D01*
X135441Y-60900D01*
X135417Y-63924D02*
X135441Y-63948D01*
X135417Y-63924D02*
X135417Y-62297D01*
X131904Y-68631D02*
X135925Y-68647D01*
X148854Y-73701D02*
X154772Y-73701D01*
X145577Y-70425D02*
X148854Y-73701D01*
X143418Y-70425D02*
X149235Y-76241D01*
X154772Y-76241D01*
X149235Y-71161D02*
X154772Y-71161D01*
X146720Y-68647D02*
X149235Y-71161D01*
X142275Y-68647D02*
X142402Y-68647D01*
X146720Y-68647D01*
X143545Y-67758D02*
X144561Y-67758D01*
X139735Y-63948D02*
X143545Y-67758D01*
X133766Y-67885D02*
X133766Y-59511D01*
X136052Y-57225D01*
X136941Y-58547D02*
X139279Y-56209D01*
X191979Y-58063D02*
X197500Y-58063D01*
X190125Y-56209D02*
X191979Y-58063D01*
X180556Y-67885D02*
X180556Y-65726D01*
X179540Y-64710D02*
X180556Y-65726D01*
X179540Y-64710D02*
X179540Y-58547D01*
X188755Y-82744D02*
X190716Y-82744D01*
X190551Y-83133D02*
X191575Y-82109D01*
X191732Y-82109D01*
X189916Y-84022D02*
X190551Y-84657D01*
X188717Y-84022D02*
X189916Y-84022D01*
X193029Y-85665D02*
X197363Y-81331D01*
X191559Y-85665D02*
X193029Y-85665D01*
X190551Y-84657D02*
X191559Y-85665D01*
X190125Y-54987D02*
X190208Y-54904D01*
X190067Y-55044D02*
X190125Y-54987D01*
X190125Y-54786D01*
X190125Y-55102D02*
X190125Y-54987D01*
X190125Y-56209D02*
X190125Y-55102D01*
X190067Y-55044D02*
X190125Y-55102D01*
X181878Y-56209D02*
X190125Y-56209D01*
X178318Y-52590D02*
X179995Y-52590D01*
X180575Y-52010D01*
X181183Y-52010D01*
X181357Y-51836D01*
X177254Y-53654D02*
X178318Y-52590D01*
X177254Y-54550D02*
X177254Y-53654D01*
X176618Y-55185D02*
X177254Y-54550D01*
X176618Y-56462D02*
X176618Y-55185D01*
X192151Y-83887D02*
X192151Y-83133D01*
X192151Y-84657D02*
X192151Y-83887D01*
X192135Y-83871D02*
X192151Y-83887D01*
X191478Y-83871D02*
X192135Y-83871D01*
X175846Y-54172D02*
X175848Y-54170D01*
X188717Y-82752D02*
X188844Y-82879D01*
X188590Y-82625D02*
X188717Y-82752D01*
X178651Y-57225D02*
X179195Y-56681D01*
X179195Y-55459D01*
X184088Y-51836D02*
X184465Y-51460D01*
X181357Y-51836D02*
X184088Y-51836D01*
X174172Y-57749D02*
X175459Y-56462D01*
X176618Y-56462D01*
X172574Y-59347D02*
X174172Y-57749D01*
X171916Y-59347D02*
X172574Y-59347D01*
X171572Y-59003D02*
X171916Y-59347D01*
X170777Y-59003D02*
X171572Y-59003D01*
X181493Y-53161D02*
X186092Y-53161D01*
X179195Y-55459D02*
X181493Y-53161D01*
X186092Y-53161D02*
X187386Y-54454D01*
X170746Y-57849D02*
X170746Y-57660D01*
X170069Y-56983D02*
X170746Y-57660D01*
X199898Y-59144D02*
X199898Y-57733D01*
X199898Y-59144D02*
X200084Y-59330D01*
X190335Y-54576D02*
X190335Y-53706D01*
X190125Y-54786D02*
X190335Y-54576D01*
X187518Y-51538D02*
X187595Y-51461D01*
X187518Y-52559D02*
X187518Y-51538D01*
X175846Y-54726D02*
X175846Y-54172D01*
X175398Y-53721D02*
X175848Y-54170D01*
X193405Y-53644D02*
X193405Y-52938D01*
X193745Y-52598D01*
X184622Y-54456D02*
X184747Y-54581D01*
X184747Y-55447D02*
X184747Y-54581D01*
X196431Y-55410D02*
X196651Y-55191D01*
X195391Y-56451D02*
X196431Y-55410D01*
X196651Y-55191D02*
X199418Y-55191D01*
X197829Y-57735D02*
X198565Y-56999D01*
X201972Y-56999D01*
X197500Y-58063D02*
X197829Y-57735D01*
X181878Y-56209D02*
X181878Y-54790D01*
X172626Y-55553D02*
X173193Y-56120D01*
X172626Y-55553D02*
X172626Y-55177D01*
X193590Y-55106D02*
X195964Y-54043D01*
X196658Y-53732D01*
X192818Y-55451D02*
X193590Y-55106D01*
X191086Y-52502D02*
X192386Y-54715D01*
X192818Y-55451D01*
X190697Y-51841D02*
X191086Y-52502D01*
X188048Y-53932D02*
X190101Y-52311D01*
X190697Y-51841D01*
X187386Y-54454D02*
X188048Y-53932D01*
X192151Y-84657D02*
X192151Y-84657D01*
X190424Y-80212D02*
X190589Y-80047D01*
X188717Y-80212D02*
X190424Y-80212D01*
X190297Y-82879D02*
X190551Y-83133D01*
X180429Y-80482D02*
X180699Y-80212D01*
X183317Y-80212D01*
X187493Y-80839D02*
X188120Y-80212D01*
X188717Y-80212D01*
X181040Y-60900D02*
X182334Y-60900D01*
X181040Y-63948D02*
X182334Y-63948D01*
X178016Y-62297D02*
X178016Y-60924D01*
X178040Y-60900D01*
X178016Y-63924D02*
X178040Y-63948D01*
X178016Y-63924D02*
X178016Y-62297D01*
X174503Y-68631D02*
X178524Y-68647D01*
X191453Y-73701D02*
X197371Y-73701D01*
X188176Y-70425D02*
X191453Y-73701D01*
X186017Y-70425D02*
X191834Y-76241D01*
X197371Y-76241D01*
X191834Y-71161D02*
X197371Y-71161D01*
X189319Y-68647D02*
X191834Y-71161D01*
X184874Y-68647D02*
X185001Y-68647D01*
X189319Y-68647D01*
X186144Y-67758D02*
X187160Y-67758D01*
X182334Y-63948D02*
X186144Y-67758D01*
X176365Y-67885D02*
X176365Y-59511D01*
X178651Y-57225D01*
X179540Y-58547D02*
X181878Y-56209D01*
X21585Y-6753D02*
X27105Y-6753D01*
X19730Y-4898D02*
X21585Y-6753D01*
X10161Y-16574D02*
X10161Y-14415D01*
X9145Y-13399D02*
X10161Y-14415D01*
X9145Y-13399D02*
X9145Y-7236D01*
X18360Y-31433D02*
X20321Y-31433D01*
X20156Y-31822D02*
X21180Y-30798D01*
X21337Y-30798D01*
X19521Y-32711D02*
X20156Y-33346D01*
X18322Y-32711D02*
X19521Y-32711D01*
X22634Y-34354D02*
X26968Y-30020D01*
X21164Y-34354D02*
X22634Y-34354D01*
X20156Y-33346D02*
X21164Y-34354D01*
X19730Y-3676D02*
X19813Y-3593D01*
X19673Y-3733D02*
X19730Y-3676D01*
X19730Y-3475D01*
X19730Y-3791D02*
X19730Y-3676D01*
X19730Y-4898D02*
X19730Y-3791D01*
X19673Y-3733D02*
X19730Y-3791D01*
X11483Y-4898D02*
X19730Y-4898D01*
X7923Y-1279D02*
X9600Y-1279D01*
X10180Y-699D01*
X10788Y-699D01*
X10962Y-525D01*
X6859Y-2343D02*
X7923Y-1279D01*
X6859Y-3239D02*
X6859Y-2343D01*
X6224Y-3875D02*
X6859Y-3239D01*
X6224Y-5151D02*
X6224Y-3875D01*
X21756Y-32576D02*
X21756Y-31822D01*
X21756Y-33346D02*
X21756Y-32576D01*
X21740Y-32560D02*
X21756Y-32576D01*
X21083Y-32560D02*
X21740Y-32560D01*
X5451Y-2862D02*
X5453Y-2860D01*
X18322Y-31441D02*
X18449Y-31568D01*
X18195Y-31314D02*
X18322Y-31441D01*
X8256Y-5914D02*
X8800Y-5370D01*
X8800Y-4148D01*
X13694Y-525D02*
X14070Y-149D01*
X10962Y-525D02*
X13694Y-525D01*
X3777Y-6438D02*
X5064Y-5151D01*
X6224Y-5151D01*
X2179Y-8036D02*
X3777Y-6438D01*
X1521Y-8036D02*
X2179Y-8036D01*
X1177Y-7692D02*
X1521Y-8036D01*
X382Y-7692D02*
X1177Y-7692D01*
X11098Y-1850D02*
X15698Y-1850D01*
X8800Y-4148D02*
X11098Y-1850D01*
X15698Y-1850D02*
X16991Y-3143D01*
X351Y-6539D02*
X351Y-6349D01*
X-326Y-5672D02*
X351Y-6349D01*
X29503Y-7833D02*
X29503Y-6422D01*
X29503Y-7833D02*
X29690Y-8020D01*
X19940Y-3265D02*
X19940Y-2395D01*
X19730Y-3475D02*
X19940Y-3265D01*
X17123Y-227D02*
X17200Y-150D01*
X17123Y-1248D02*
X17123Y-227D01*
X5451Y-3415D02*
X5451Y-2862D01*
X5003Y-2410D02*
X5453Y-2860D01*
X23010Y-2333D02*
X23010Y-1627D01*
X23350Y-1287D01*
X14227Y-3145D02*
X14352Y-3270D01*
X14352Y-4136D02*
X14352Y-3270D01*
X26036Y-4100D02*
X26256Y-3880D01*
X24996Y-5140D02*
X26036Y-4100D01*
X26256Y-3880D02*
X29024Y-3880D01*
X27434Y-6424D02*
X28170Y-5688D01*
X31578Y-5688D01*
X27105Y-6753D02*
X27434Y-6424D01*
X11483Y-4898D02*
X11483Y-3480D01*
X2232Y-4243D02*
X2798Y-4809D01*
X2232Y-4243D02*
X2232Y-3866D01*
X23195Y-3795D02*
X25569Y-2732D01*
X26264Y-2421D01*
X22423Y-4140D02*
X23195Y-3795D01*
X20691Y-1191D02*
X21991Y-3404D01*
X22423Y-4140D01*
X20303Y-530D02*
X20691Y-1191D01*
X17653Y-2621D02*
X19706Y-1001D01*
X20303Y-530D01*
X16991Y-3143D02*
X17653Y-2621D01*
X21756Y-33346D02*
X21756Y-33346D01*
X20029Y-28901D02*
X20194Y-28736D01*
X18322Y-28901D02*
X20029Y-28901D01*
X19902Y-31568D02*
X20156Y-31822D01*
X10034Y-29171D02*
X10304Y-28901D01*
X12922Y-28901D01*
X17098Y-29528D02*
X17725Y-28901D01*
X18322Y-28901D01*
X10645Y-9589D02*
X11939Y-9589D01*
X10645Y-12637D02*
X11939Y-12637D01*
X7621Y-10986D02*
X7621Y-9613D01*
X7645Y-9589D01*
X7621Y-12613D02*
X7645Y-12637D01*
X7621Y-12613D02*
X7621Y-10986D01*
X4108Y-17320D02*
X8129Y-17336D01*
X21058Y-22391D02*
X26976Y-22391D01*
X17781Y-19114D02*
X21058Y-22391D01*
X15622Y-19114D02*
X21439Y-24931D01*
X26976Y-24931D01*
X21439Y-19851D02*
X26976Y-19851D01*
X18924Y-17336D02*
X21439Y-19851D01*
X14479Y-17336D02*
X14606Y-17336D01*
X18924Y-17336D01*
X15749Y-16447D02*
X16765Y-16447D01*
X11939Y-12637D02*
X15749Y-16447D01*
X5970Y-16574D02*
X5970Y-8200D01*
X8256Y-5914D01*
X9145Y-7236D02*
X11483Y-4898D01*
X64183Y-6753D02*
X69704Y-6753D01*
X62329Y-4898D02*
X64183Y-6753D01*
X52760Y-16574D02*
X52760Y-14415D01*
X51744Y-13399D02*
X52760Y-14415D01*
X51744Y-13399D02*
X51744Y-7236D01*
X60959Y-31433D02*
X62920Y-31433D01*
X62755Y-31822D02*
X63779Y-30798D01*
X63936Y-30798D01*
X62120Y-32711D02*
X62755Y-33346D01*
X60921Y-32711D02*
X62120Y-32711D01*
X65233Y-34354D02*
X69567Y-30020D01*
X63763Y-34354D02*
X65233Y-34354D01*
X62755Y-33346D02*
X63763Y-34354D01*
X62329Y-3676D02*
X62412Y-3593D01*
X62271Y-3733D02*
X62329Y-3676D01*
X62329Y-3475D01*
X62329Y-3791D02*
X62329Y-3676D01*
X62329Y-4898D02*
X62329Y-3791D01*
X62271Y-3733D02*
X62329Y-3791D01*
X54082Y-4898D02*
X62329Y-4898D01*
X50522Y-1279D02*
X52199Y-1279D01*
X52779Y-699D01*
X53387Y-699D01*
X53561Y-525D01*
X49458Y-2343D02*
X50522Y-1279D01*
X49458Y-3239D02*
X49458Y-2343D01*
X48822Y-3875D02*
X49458Y-3239D01*
X48822Y-5151D02*
X48822Y-3875D01*
X64355Y-32576D02*
X64355Y-31822D01*
X64355Y-33346D02*
X64355Y-32576D01*
X64339Y-32560D02*
X64355Y-32576D01*
X63682Y-32560D02*
X64339Y-32560D01*
X48049Y-2862D02*
X48051Y-2860D01*
X60921Y-31441D02*
X61048Y-31568D01*
X60794Y-31314D02*
X60921Y-31441D01*
X50855Y-5914D02*
X51399Y-5370D01*
X51399Y-4148D01*
X56292Y-525D02*
X56669Y-149D01*
X53561Y-525D02*
X56292Y-525D01*
X46376Y-6438D02*
X47663Y-5151D01*
X48822Y-5151D01*
X44777Y-8036D02*
X46376Y-6438D01*
X44120Y-8036D02*
X44777Y-8036D01*
X43776Y-7692D02*
X44120Y-8036D01*
X42981Y-7692D02*
X43776Y-7692D01*
X53697Y-1850D02*
X58296Y-1850D01*
X51399Y-4148D02*
X53697Y-1850D01*
X58296Y-1850D02*
X59589Y-3143D01*
X42950Y-6539D02*
X42950Y-6349D01*
X42273Y-5672D02*
X42950Y-6349D01*
X72102Y-7833D02*
X72102Y-6422D01*
X72102Y-7833D02*
X72288Y-8020D01*
X62539Y-3265D02*
X62539Y-2395D01*
X62329Y-3475D02*
X62539Y-3265D01*
X59722Y-227D02*
X59799Y-150D01*
X59722Y-1248D02*
X59722Y-227D01*
X48049Y-3415D02*
X48049Y-2862D01*
X47602Y-2410D02*
X48051Y-2860D01*
X65609Y-2333D02*
X65609Y-1627D01*
X65949Y-1287D01*
X56826Y-3145D02*
X56951Y-3270D01*
X56951Y-4136D02*
X56951Y-3270D01*
X68635Y-4100D02*
X68854Y-3880D01*
X67595Y-5140D02*
X68635Y-4100D01*
X68854Y-3880D02*
X71622Y-3880D01*
X70033Y-6424D02*
X70769Y-5688D01*
X74176Y-5688D01*
X69704Y-6753D02*
X70033Y-6424D01*
X54082Y-4898D02*
X54082Y-3480D01*
X44830Y-4243D02*
X45397Y-4809D01*
X44830Y-4243D02*
X44830Y-3866D01*
X65794Y-3795D02*
X68167Y-2732D01*
X68862Y-2421D01*
X65022Y-4140D02*
X65794Y-3795D01*
X63290Y-1191D02*
X64589Y-3404D01*
X65022Y-4140D01*
X62901Y-530D02*
X63290Y-1191D01*
X60251Y-2621D02*
X62305Y-1001D01*
X62901Y-530D01*
X59589Y-3143D02*
X60251Y-2621D01*
X64355Y-33346D02*
X64355Y-33346D01*
X62628Y-28901D02*
X62793Y-28736D01*
X60921Y-28901D02*
X62628Y-28901D01*
X62501Y-31568D02*
X62755Y-31822D01*
X52633Y-29171D02*
X52903Y-28901D01*
X55521Y-28901D01*
X59697Y-29528D02*
X60324Y-28901D01*
X60921Y-28901D01*
X53244Y-9589D02*
X54538Y-9589D01*
X53244Y-12637D02*
X54538Y-12637D01*
X50220Y-10986D02*
X50220Y-9613D01*
X50244Y-9589D01*
X50220Y-12613D02*
X50244Y-12637D01*
X50220Y-12613D02*
X50220Y-10986D01*
X46707Y-17320D02*
X50728Y-17336D01*
X63656Y-22391D02*
X69575Y-22391D01*
X60380Y-19114D02*
X63656Y-22391D01*
X58221Y-19114D02*
X64037Y-24931D01*
X69575Y-24931D01*
X64037Y-19851D02*
X69575Y-19851D01*
X61523Y-17336D02*
X64037Y-19851D01*
X57078Y-17336D02*
X57205Y-17336D01*
X61523Y-17336D01*
X58348Y-16447D02*
X59364Y-16447D01*
X54538Y-12637D02*
X58348Y-16447D01*
X48569Y-16574D02*
X48569Y-8200D01*
X50855Y-5914D01*
X51744Y-7236D02*
X54082Y-4898D01*
X106782Y-6753D02*
X112303Y-6753D01*
X104928Y-4898D02*
X106782Y-6753D01*
X95359Y-16574D02*
X95359Y-14415D01*
X94343Y-13399D02*
X95359Y-14415D01*
X94343Y-13399D02*
X94343Y-7236D01*
X103558Y-31433D02*
X105519Y-31433D01*
X105354Y-31822D02*
X106378Y-30798D01*
X106535Y-30798D01*
X104719Y-32711D02*
X105354Y-33346D01*
X103520Y-32711D02*
X104719Y-32711D01*
X107832Y-34354D02*
X112166Y-30020D01*
X106362Y-34354D02*
X107832Y-34354D01*
X105354Y-33346D02*
X106362Y-34354D01*
X104928Y-3676D02*
X105011Y-3593D01*
X104870Y-3733D02*
X104928Y-3676D01*
X104928Y-3475D01*
X104928Y-3791D02*
X104928Y-3676D01*
X104928Y-4898D02*
X104928Y-3791D01*
X104870Y-3733D02*
X104928Y-3791D01*
X96680Y-4898D02*
X104928Y-4898D01*
X93121Y-1279D02*
X94798Y-1279D01*
X95378Y-699D01*
X95986Y-699D01*
X96159Y-525D01*
X92057Y-2343D02*
X93121Y-1279D01*
X92057Y-3239D02*
X92057Y-2343D01*
X91421Y-3875D02*
X92057Y-3239D01*
X91421Y-5151D02*
X91421Y-3875D01*
X106954Y-32576D02*
X106954Y-31822D01*
X106954Y-33346D02*
X106954Y-32576D01*
X106937Y-32560D02*
X106954Y-32576D01*
X106281Y-32560D02*
X106937Y-32560D01*
X90648Y-2862D02*
X90650Y-2860D01*
X103520Y-31441D02*
X103647Y-31568D01*
X103393Y-31314D02*
X103520Y-31441D01*
X93454Y-5914D02*
X93998Y-5370D01*
X93998Y-4148D01*
X98891Y-525D02*
X99267Y-149D01*
X96159Y-525D02*
X98891Y-525D01*
X88974Y-6438D02*
X90261Y-5151D01*
X91421Y-5151D01*
X87376Y-8036D02*
X88974Y-6438D01*
X86718Y-8036D02*
X87376Y-8036D01*
X86374Y-7692D02*
X86718Y-8036D01*
X85580Y-7692D02*
X86374Y-7692D01*
X96296Y-1850D02*
X100895Y-1850D01*
X93998Y-4148D02*
X96296Y-1850D01*
X100895Y-1850D02*
X102188Y-3143D01*
X85549Y-6539D02*
X85549Y-6349D01*
X84871Y-5672D02*
X85549Y-6349D01*
X114701Y-7833D02*
X114701Y-6422D01*
X114701Y-7833D02*
X114887Y-8020D01*
X105137Y-3265D02*
X105137Y-2395D01*
X104928Y-3475D02*
X105137Y-3265D01*
X102321Y-227D02*
X102397Y-150D01*
X102321Y-1248D02*
X102321Y-227D01*
X90648Y-3415D02*
X90648Y-2862D01*
X90201Y-2410D02*
X90650Y-2860D01*
X108208Y-2333D02*
X108208Y-1627D01*
X108547Y-1287D01*
X99424Y-3145D02*
X99550Y-3270D01*
X99550Y-4136D02*
X99550Y-3270D01*
X111234Y-4100D02*
X111453Y-3880D01*
X110193Y-5140D02*
X111234Y-4100D01*
X111453Y-3880D02*
X114221Y-3880D01*
X112631Y-6424D02*
X113367Y-5688D01*
X116775Y-5688D01*
X112303Y-6753D02*
X112631Y-6424D01*
X96680Y-4898D02*
X96680Y-3480D01*
X87429Y-4243D02*
X87996Y-4809D01*
X87429Y-4243D02*
X87429Y-3866D01*
X108392Y-3795D02*
X110766Y-2732D01*
X111461Y-2421D01*
X107620Y-4140D02*
X108392Y-3795D01*
X105888Y-1191D02*
X107188Y-3404D01*
X107620Y-4140D01*
X105500Y-530D02*
X105888Y-1191D01*
X102850Y-2621D02*
X104904Y-1001D01*
X105500Y-530D01*
X102188Y-3143D02*
X102850Y-2621D01*
X106954Y-33346D02*
X106954Y-33346D01*
X105227Y-28901D02*
X105392Y-28736D01*
X103520Y-28901D02*
X105227Y-28901D01*
X105100Y-31568D02*
X105354Y-31822D01*
X95232Y-29171D02*
X95502Y-28901D01*
X98120Y-28901D01*
X102296Y-29528D02*
X102923Y-28901D01*
X103520Y-28901D01*
X95843Y-9589D02*
X97137Y-9589D01*
X95843Y-12637D02*
X97137Y-12637D01*
X92819Y-10986D02*
X92819Y-9613D01*
X92843Y-9589D01*
X92819Y-12613D02*
X92843Y-12637D01*
X92819Y-12613D02*
X92819Y-10986D01*
X89306Y-17320D02*
X93327Y-17336D01*
X106255Y-22391D02*
X112173Y-22391D01*
X102979Y-19114D02*
X106255Y-22391D01*
X100820Y-19114D02*
X106636Y-24931D01*
X112173Y-24931D01*
X106636Y-19851D02*
X112173Y-19851D01*
X104122Y-17336D02*
X106636Y-19851D01*
X99677Y-17336D02*
X99804Y-17336D01*
X104122Y-17336D01*
X100947Y-16447D02*
X101963Y-16447D01*
X97137Y-12637D02*
X100947Y-16447D01*
X91168Y-16574D02*
X91168Y-8200D01*
X93454Y-5914D01*
X94343Y-7236D02*
X96680Y-4898D01*
X149381Y-6753D02*
X154901Y-6753D01*
X147526Y-4898D02*
X149381Y-6753D01*
X137957Y-16574D02*
X137957Y-14415D01*
X136941Y-13399D02*
X137957Y-14415D01*
X136941Y-13399D02*
X136941Y-7236D01*
X146156Y-31433D02*
X148117Y-31433D01*
X147952Y-31822D02*
X148976Y-30798D01*
X149133Y-30798D01*
X147317Y-32711D02*
X147952Y-33346D01*
X146118Y-32711D02*
X147317Y-32711D01*
X150430Y-34354D02*
X154764Y-30020D01*
X148960Y-34354D02*
X150430Y-34354D01*
X147952Y-33346D02*
X148960Y-34354D01*
X147526Y-3676D02*
X147609Y-3593D01*
X147469Y-3733D02*
X147526Y-3676D01*
X147526Y-3475D01*
X147526Y-3791D02*
X147526Y-3676D01*
X147526Y-4898D02*
X147526Y-3791D01*
X147469Y-3733D02*
X147526Y-3791D01*
X139279Y-4898D02*
X147526Y-4898D01*
X135719Y-1279D02*
X137396Y-1279D01*
X137976Y-699D01*
X138584Y-699D01*
X138758Y-525D01*
X134655Y-2343D02*
X135719Y-1279D01*
X134655Y-3239D02*
X134655Y-2343D01*
X134020Y-3875D02*
X134655Y-3239D01*
X134020Y-5151D02*
X134020Y-3875D01*
X149552Y-32576D02*
X149552Y-31822D01*
X149552Y-33346D02*
X149552Y-32576D01*
X149536Y-32560D02*
X149552Y-32576D01*
X148879Y-32560D02*
X149536Y-32560D01*
X133247Y-2862D02*
X133249Y-2860D01*
X146118Y-31441D02*
X146245Y-31568D01*
X145991Y-31314D02*
X146118Y-31441D01*
X136052Y-5914D02*
X136596Y-5370D01*
X136596Y-4148D01*
X141490Y-525D02*
X141866Y-149D01*
X138758Y-525D02*
X141490Y-525D01*
X131573Y-6438D02*
X132860Y-5151D01*
X134020Y-5151D01*
X129975Y-8036D02*
X131573Y-6438D01*
X129317Y-8036D02*
X129975Y-8036D01*
X128973Y-7692D02*
X129317Y-8036D01*
X128178Y-7692D02*
X128973Y-7692D01*
X138894Y-1850D02*
X143494Y-1850D01*
X136596Y-4148D02*
X138894Y-1850D01*
X143494Y-1850D02*
X144787Y-3143D01*
X128147Y-6539D02*
X128147Y-6349D01*
X127470Y-5672D02*
X128147Y-6349D01*
X157300Y-7833D02*
X157300Y-6422D01*
X157300Y-7833D02*
X157486Y-8020D01*
X147736Y-3265D02*
X147736Y-2395D01*
X147526Y-3475D02*
X147736Y-3265D01*
X144919Y-227D02*
X144996Y-150D01*
X144919Y-1248D02*
X144919Y-227D01*
X133247Y-3415D02*
X133247Y-2862D01*
X132799Y-2410D02*
X133249Y-2860D01*
X150806Y-2333D02*
X150806Y-1627D01*
X151146Y-1287D01*
X142023Y-3145D02*
X142148Y-3270D01*
X142148Y-4136D02*
X142148Y-3270D01*
X153832Y-4100D02*
X154052Y-3880D01*
X152792Y-5140D02*
X153832Y-4100D01*
X154052Y-3880D02*
X156820Y-3880D01*
X155230Y-6424D02*
X155966Y-5688D01*
X159374Y-5688D01*
X154901Y-6753D02*
X155230Y-6424D01*
X139279Y-4898D02*
X139279Y-3480D01*
X130028Y-4243D02*
X130594Y-4809D01*
X130028Y-4243D02*
X130028Y-3866D01*
X150991Y-3795D02*
X153365Y-2732D01*
X154060Y-2421D01*
X150219Y-4140D02*
X150991Y-3795D01*
X148487Y-1191D02*
X149787Y-3404D01*
X150219Y-4140D01*
X148099Y-530D02*
X148487Y-1191D01*
X145449Y-2621D02*
X147502Y-1001D01*
X148099Y-530D01*
X144787Y-3143D02*
X145449Y-2621D01*
X149552Y-33346D02*
X149552Y-33346D01*
X147825Y-28901D02*
X147990Y-28736D01*
X146118Y-28901D02*
X147825Y-28901D01*
X147698Y-31568D02*
X147952Y-31822D01*
X137830Y-29171D02*
X138100Y-28901D01*
X140718Y-28901D01*
X144894Y-29528D02*
X145521Y-28901D01*
X146118Y-28901D01*
X138441Y-9589D02*
X139735Y-9589D01*
X138441Y-12637D02*
X139735Y-12637D01*
X135417Y-10986D02*
X135417Y-9613D01*
X135441Y-9589D01*
X135417Y-12613D02*
X135441Y-12637D01*
X135417Y-12613D02*
X135417Y-10986D01*
X131904Y-17320D02*
X135925Y-17336D01*
X148854Y-22391D02*
X154772Y-22391D01*
X145577Y-19114D02*
X148854Y-22391D01*
X143418Y-19114D02*
X149235Y-24931D01*
X154772Y-24931D01*
X149235Y-19851D02*
X154772Y-19851D01*
X146720Y-17336D02*
X149235Y-19851D01*
X142275Y-17336D02*
X142402Y-17336D01*
X146720Y-17336D01*
X143545Y-16447D02*
X144561Y-16447D01*
X139735Y-12637D02*
X143545Y-16447D01*
X133766Y-16574D02*
X133766Y-8200D01*
X136052Y-5914D01*
X136941Y-7236D02*
X139279Y-4898D01*
X191979Y-6753D02*
X197500Y-6753D01*
X190125Y-4898D02*
X191979Y-6753D01*
X180556Y-16574D02*
X180556Y-14415D01*
X179540Y-13399D02*
X180556Y-14415D01*
X179540Y-13399D02*
X179540Y-7236D01*
X188755Y-31433D02*
X190716Y-31433D01*
X190551Y-31822D02*
X191575Y-30798D01*
X191732Y-30798D01*
X189916Y-32711D02*
X190551Y-33346D01*
X188717Y-32711D02*
X189916Y-32711D01*
X193029Y-34354D02*
X197363Y-30020D01*
X191559Y-34354D02*
X193029Y-34354D01*
X190551Y-33346D02*
X191559Y-34354D01*
X190125Y-3676D02*
X190208Y-3593D01*
X190067Y-3733D02*
X190125Y-3676D01*
X190125Y-3475D01*
X190125Y-3791D02*
X190125Y-3676D01*
X190125Y-4898D02*
X190125Y-3791D01*
X190067Y-3733D02*
X190125Y-3791D01*
X181878Y-4898D02*
X190125Y-4898D01*
X178318Y-1279D02*
X179995Y-1279D01*
X180575Y-699D01*
X181183Y-699D01*
X181357Y-525D01*
X177254Y-2343D02*
X178318Y-1279D01*
X177254Y-3239D02*
X177254Y-2343D01*
X176618Y-3875D02*
X177254Y-3239D01*
X176618Y-5151D02*
X176618Y-3875D01*
X192151Y-32576D02*
X192151Y-31822D01*
X192151Y-33346D02*
X192151Y-32576D01*
X192135Y-32560D02*
X192151Y-32576D01*
X191478Y-32560D02*
X192135Y-32560D01*
X175846Y-2862D02*
X175848Y-2860D01*
X188717Y-31441D02*
X188844Y-31568D01*
X188590Y-31314D02*
X188717Y-31441D01*
X178651Y-5914D02*
X179195Y-5370D01*
X179195Y-4148D01*
X184088Y-525D02*
X184465Y-149D01*
X181357Y-525D02*
X184088Y-525D01*
X174172Y-6438D02*
X175459Y-5151D01*
X176618Y-5151D01*
X172574Y-8036D02*
X174172Y-6438D01*
X171916Y-8036D02*
X172574Y-8036D01*
X171572Y-7692D02*
X171916Y-8036D01*
X170777Y-7692D02*
X171572Y-7692D01*
X181493Y-1850D02*
X186092Y-1850D01*
X179195Y-4148D02*
X181493Y-1850D01*
X186092Y-1850D02*
X187386Y-3143D01*
X170746Y-6539D02*
X170746Y-6349D01*
X170069Y-5672D02*
X170746Y-6349D01*
X199898Y-7833D02*
X199898Y-6422D01*
X199898Y-7833D02*
X200084Y-8020D01*
X190335Y-3265D02*
X190335Y-2395D01*
X190125Y-3475D02*
X190335Y-3265D01*
X187518Y-227D02*
X187595Y-150D01*
X187518Y-1248D02*
X187518Y-227D01*
X175846Y-3415D02*
X175846Y-2862D01*
X175398Y-2410D02*
X175848Y-2860D01*
X193405Y-2333D02*
X193405Y-1627D01*
X193745Y-1287D01*
X184622Y-3145D02*
X184747Y-3270D01*
X184747Y-4136D02*
X184747Y-3270D01*
X196431Y-4100D02*
X196651Y-3880D01*
X195391Y-5140D02*
X196431Y-4100D01*
X196651Y-3880D02*
X199418Y-3880D01*
X197829Y-6424D02*
X198565Y-5688D01*
X201972Y-5688D01*
X197500Y-6753D02*
X197829Y-6424D01*
X181878Y-4898D02*
X181878Y-3480D01*
X172626Y-4243D02*
X173193Y-4809D01*
X172626Y-4243D02*
X172626Y-3866D01*
X193590Y-3795D02*
X195964Y-2732D01*
X196658Y-2421D01*
X192818Y-4140D02*
X193590Y-3795D01*
X191086Y-1191D02*
X192386Y-3404D01*
X192818Y-4140D01*
X190697Y-530D02*
X191086Y-1191D01*
X188048Y-2621D02*
X190101Y-1001D01*
X190697Y-530D01*
X187386Y-3143D02*
X188048Y-2621D01*
X192151Y-33346D02*
X192151Y-33346D01*
X190424Y-28901D02*
X190589Y-28736D01*
X188717Y-28901D02*
X190424Y-28901D01*
X190297Y-31568D02*
X190551Y-31822D01*
X180429Y-29171D02*
X180699Y-28901D01*
X183317Y-28901D01*
X187493Y-29528D02*
X188120Y-28901D01*
X188717Y-28901D01*
X181040Y-9589D02*
X182334Y-9589D01*
X181040Y-12637D02*
X182334Y-12637D01*
X178016Y-10986D02*
X178016Y-9613D01*
X178040Y-9589D01*
X178016Y-12613D02*
X178040Y-12637D01*
X178016Y-12613D02*
X178016Y-10986D01*
X174503Y-17320D02*
X178524Y-17336D01*
X191453Y-22391D02*
X197371Y-22391D01*
X188176Y-19114D02*
X191453Y-22391D01*
X186017Y-19114D02*
X191834Y-24931D01*
X197371Y-24931D01*
X191834Y-19851D02*
X197371Y-19851D01*
X189319Y-17336D02*
X191834Y-19851D01*
X184874Y-17336D02*
X185001Y-17336D01*
X189319Y-17336D01*
X186144Y-16447D02*
X187160Y-16447D01*
X182334Y-12637D02*
X186144Y-16447D01*
X176365Y-16574D02*
X176365Y-8200D01*
X178651Y-5914D01*
X179540Y-7236D02*
X181878Y-4898D01*
X21585Y44558D02*
X27105Y44558D01*
X19730Y46413D02*
X21585Y44558D01*
X10161Y34737D02*
X10161Y36896D01*
X9145Y37912D02*
X10161Y36896D01*
X9145Y37912D02*
X9145Y44075D01*
X18360Y19878D02*
X20321Y19878D01*
X20156Y19489D02*
X21180Y20513D01*
X21337Y20513D01*
X19521Y18600D02*
X20156Y17965D01*
X18322Y18600D02*
X19521Y18600D01*
X22634Y16957D02*
X26968Y21291D01*
X21164Y16957D02*
X22634Y16957D01*
X20156Y17965D02*
X21164Y16957D01*
X19730Y47635D02*
X19813Y47718D01*
X19673Y47577D02*
X19730Y47635D01*
X19730Y47836D01*
X19730Y47520D02*
X19730Y47635D01*
X19730Y46413D02*
X19730Y47520D01*
X19673Y47577D02*
X19730Y47520D01*
X11483Y46413D02*
X19730Y46413D01*
X7923Y50032D02*
X9600Y50032D01*
X10180Y50612D01*
X10788Y50612D01*
X10962Y50786D01*
X6859Y48968D02*
X7923Y50032D01*
X6859Y48072D02*
X6859Y48968D01*
X6224Y47436D02*
X6859Y48072D01*
X6224Y46160D02*
X6224Y47436D01*
X21756Y18735D02*
X21756Y19489D01*
X21756Y17965D02*
X21756Y18735D01*
X21740Y18751D02*
X21756Y18735D01*
X21083Y18751D02*
X21740Y18751D01*
X5451Y48449D02*
X5453Y48451D01*
X18322Y19870D02*
X18449Y19743D01*
X18195Y19997D02*
X18322Y19870D01*
X8256Y45397D02*
X8800Y45941D01*
X8800Y47163D01*
X13694Y50786D02*
X14070Y51162D01*
X10962Y50786D02*
X13694Y50786D01*
X3777Y44873D02*
X5064Y46160D01*
X6224Y46160D01*
X2179Y43275D02*
X3777Y44873D01*
X1521Y43275D02*
X2179Y43275D01*
X1177Y43619D02*
X1521Y43275D01*
X382Y43619D02*
X1177Y43619D01*
X11098Y49461D02*
X15698Y49461D01*
X8800Y47163D02*
X11098Y49461D01*
X15698Y49461D02*
X16991Y48168D01*
X351Y44772D02*
X351Y44962D01*
X-326Y45639D02*
X351Y44962D01*
X29503Y43477D02*
X29503Y44889D01*
X29503Y43477D02*
X29690Y43291D01*
X19940Y48046D02*
X19940Y48916D01*
X19730Y47836D02*
X19940Y48046D01*
X17123Y51084D02*
X17200Y51160D01*
X17123Y50063D02*
X17123Y51084D01*
X5451Y47896D02*
X5451Y48449D01*
X5003Y48901D02*
X5453Y48451D01*
X23010Y48978D02*
X23010Y49684D01*
X23350Y50024D01*
X14227Y48166D02*
X14352Y48041D01*
X14352Y47175D02*
X14352Y48041D01*
X26036Y47211D02*
X26256Y47431D01*
X24996Y46171D02*
X26036Y47211D01*
X26256Y47431D02*
X29024Y47431D01*
X27434Y44887D02*
X28170Y45623D01*
X31578Y45623D01*
X27105Y44558D02*
X27434Y44887D01*
X11483Y46413D02*
X11483Y47831D01*
X2232Y47068D02*
X2798Y46502D01*
X2232Y47068D02*
X2232Y47445D01*
X23195Y47516D02*
X25569Y48579D01*
X26264Y48890D01*
X22423Y47171D02*
X23195Y47516D01*
X20691Y50120D02*
X21991Y47907D01*
X22423Y47171D01*
X20303Y50781D02*
X20691Y50120D01*
X17653Y48690D02*
X19706Y50310D01*
X20303Y50781D01*
X16991Y48168D02*
X17653Y48690D01*
X21756Y17965D02*
X21756Y17965D01*
X20029Y22410D02*
X20194Y22575D01*
X18322Y22410D02*
X20029Y22410D01*
X19902Y19743D02*
X20156Y19489D01*
X10034Y22140D02*
X10304Y22410D01*
X12922Y22410D01*
X17098Y21783D02*
X17725Y22410D01*
X18322Y22410D01*
X10645Y41722D02*
X11939Y41722D01*
X10645Y38674D02*
X11939Y38674D01*
X7621Y40325D02*
X7621Y41698D01*
X7645Y41722D01*
X7621Y38698D02*
X7645Y38674D01*
X7621Y38698D02*
X7621Y40325D01*
X4108Y33991D02*
X8129Y33975D01*
X21058Y28920D02*
X26976Y28920D01*
X17781Y32197D02*
X21058Y28920D01*
X15622Y32197D02*
X21439Y26380D01*
X26976Y26380D01*
X21439Y31460D02*
X26976Y31460D01*
X18924Y33975D02*
X21439Y31460D01*
X14479Y33975D02*
X14606Y33975D01*
X18924Y33975D01*
X15749Y34864D02*
X16765Y34864D01*
X11939Y38674D02*
X15749Y34864D01*
X5970Y34737D02*
X5970Y43111D01*
X8256Y45397D01*
X9145Y44075D02*
X11483Y46413D01*
X64183Y44558D02*
X69704Y44558D01*
X62329Y46413D02*
X64183Y44558D01*
X52760Y34737D02*
X52760Y36896D01*
X51744Y37912D02*
X52760Y36896D01*
X51744Y37912D02*
X51744Y44075D01*
X60959Y19878D02*
X62920Y19878D01*
X62755Y19489D02*
X63779Y20513D01*
X63936Y20513D01*
X62120Y18600D02*
X62755Y17965D01*
X60921Y18600D02*
X62120Y18600D01*
X65233Y16957D02*
X69567Y21291D01*
X63763Y16957D02*
X65233Y16957D01*
X62755Y17965D02*
X63763Y16957D01*
X62329Y47635D02*
X62412Y47718D01*
X62271Y47577D02*
X62329Y47635D01*
X62329Y47836D01*
X62329Y47520D02*
X62329Y47635D01*
X62329Y46413D02*
X62329Y47520D01*
X62271Y47577D02*
X62329Y47520D01*
X54082Y46413D02*
X62329Y46413D01*
X50522Y50032D02*
X52199Y50032D01*
X52779Y50612D01*
X53387Y50612D01*
X53561Y50786D01*
X49458Y48968D02*
X50522Y50032D01*
X49458Y48072D02*
X49458Y48968D01*
X48822Y47436D02*
X49458Y48072D01*
X48822Y46160D02*
X48822Y47436D01*
X64355Y18735D02*
X64355Y19489D01*
X64355Y17965D02*
X64355Y18735D01*
X64339Y18751D02*
X64355Y18735D01*
X63682Y18751D02*
X64339Y18751D01*
X48049Y48449D02*
X48051Y48451D01*
X60921Y19870D02*
X61048Y19743D01*
X60794Y19997D02*
X60921Y19870D01*
X50855Y45397D02*
X51399Y45941D01*
X51399Y47163D01*
X56292Y50786D02*
X56669Y51162D01*
X53561Y50786D02*
X56292Y50786D01*
X46376Y44873D02*
X47663Y46160D01*
X48822Y46160D01*
X44777Y43275D02*
X46376Y44873D01*
X44120Y43275D02*
X44777Y43275D01*
X43776Y43619D02*
X44120Y43275D01*
X42981Y43619D02*
X43776Y43619D01*
X53697Y49461D02*
X58296Y49461D01*
X51399Y47163D02*
X53697Y49461D01*
X58296Y49461D02*
X59589Y48168D01*
X42950Y44772D02*
X42950Y44962D01*
X42273Y45639D02*
X42950Y44962D01*
X72102Y43477D02*
X72102Y44889D01*
X72102Y43477D02*
X72288Y43291D01*
X62539Y48046D02*
X62539Y48916D01*
X62329Y47836D02*
X62539Y48046D01*
X59722Y51084D02*
X59799Y51160D01*
X59722Y50063D02*
X59722Y51084D01*
X48049Y47896D02*
X48049Y48449D01*
X47602Y48901D02*
X48051Y48451D01*
X65609Y48978D02*
X65609Y49684D01*
X65949Y50024D01*
X56826Y48166D02*
X56951Y48041D01*
X56951Y47175D02*
X56951Y48041D01*
X68635Y47211D02*
X68854Y47431D01*
X67595Y46171D02*
X68635Y47211D01*
X68854Y47431D02*
X71622Y47431D01*
X70033Y44887D02*
X70769Y45623D01*
X74176Y45623D01*
X69704Y44558D02*
X70033Y44887D01*
X54082Y46413D02*
X54082Y47831D01*
X44830Y47068D02*
X45397Y46502D01*
X44830Y47068D02*
X44830Y47445D01*
X65794Y47516D02*
X68167Y48579D01*
X68862Y48890D01*
X65022Y47171D02*
X65794Y47516D01*
X63290Y50120D02*
X64589Y47907D01*
X65022Y47171D01*
X62901Y50781D02*
X63290Y50120D01*
X60251Y48690D02*
X62305Y50310D01*
X62901Y50781D01*
X59589Y48168D02*
X60251Y48690D01*
X64355Y17965D02*
X64355Y17965D01*
X62628Y22410D02*
X62793Y22575D01*
X60921Y22410D02*
X62628Y22410D01*
X62501Y19743D02*
X62755Y19489D01*
X52633Y22140D02*
X52903Y22410D01*
X55521Y22410D01*
X59697Y21783D02*
X60324Y22410D01*
X60921Y22410D01*
X53244Y41722D02*
X54538Y41722D01*
X53244Y38674D02*
X54538Y38674D01*
X50220Y40325D02*
X50220Y41698D01*
X50244Y41722D01*
X50220Y38698D02*
X50244Y38674D01*
X50220Y38698D02*
X50220Y40325D01*
X46707Y33991D02*
X50728Y33975D01*
X63656Y28920D02*
X69575Y28920D01*
X60380Y32197D02*
X63656Y28920D01*
X58221Y32197D02*
X64037Y26380D01*
X69575Y26380D01*
X64037Y31460D02*
X69575Y31460D01*
X61523Y33975D02*
X64037Y31460D01*
X57078Y33975D02*
X57205Y33975D01*
X61523Y33975D01*
X58348Y34864D02*
X59364Y34864D01*
X54538Y38674D02*
X58348Y34864D01*
X48569Y34737D02*
X48569Y43111D01*
X50855Y45397D01*
X51744Y44075D02*
X54082Y46413D01*
X106782Y44558D02*
X112303Y44558D01*
X104928Y46413D02*
X106782Y44558D01*
X95359Y34737D02*
X95359Y36896D01*
X94343Y37912D02*
X95359Y36896D01*
X94343Y37912D02*
X94343Y44075D01*
X103558Y19878D02*
X105519Y19878D01*
X105354Y19489D02*
X106378Y20513D01*
X106535Y20513D01*
X104719Y18600D02*
X105354Y17965D01*
X103520Y18600D02*
X104719Y18600D01*
X107832Y16957D02*
X112166Y21291D01*
X106362Y16957D02*
X107832Y16957D01*
X105354Y17965D02*
X106362Y16957D01*
X104928Y47635D02*
X105011Y47718D01*
X104870Y47577D02*
X104928Y47635D01*
X104928Y47836D01*
X104928Y47520D02*
X104928Y47635D01*
X104928Y46413D02*
X104928Y47520D01*
X104870Y47577D02*
X104928Y47520D01*
X96680Y46413D02*
X104928Y46413D01*
X93121Y50032D02*
X94798Y50032D01*
X95378Y50612D01*
X95986Y50612D01*
X96159Y50786D01*
X92057Y48968D02*
X93121Y50032D01*
X92057Y48072D02*
X92057Y48968D01*
X91421Y47436D02*
X92057Y48072D01*
X91421Y46160D02*
X91421Y47436D01*
X106954Y18735D02*
X106954Y19489D01*
X106954Y17965D02*
X106954Y18735D01*
X106937Y18751D02*
X106954Y18735D01*
X106281Y18751D02*
X106937Y18751D01*
X90648Y48449D02*
X90650Y48451D01*
X103520Y19870D02*
X103647Y19743D01*
X103393Y19997D02*
X103520Y19870D01*
X93454Y45397D02*
X93998Y45941D01*
X93998Y47163D01*
X98891Y50786D02*
X99267Y51162D01*
X96159Y50786D02*
X98891Y50786D01*
X88974Y44873D02*
X90261Y46160D01*
X91421Y46160D01*
X87376Y43275D02*
X88974Y44873D01*
X86718Y43275D02*
X87376Y43275D01*
X86374Y43619D02*
X86718Y43275D01*
X85580Y43619D02*
X86374Y43619D01*
X96296Y49461D02*
X100895Y49461D01*
X93998Y47163D02*
X96296Y49461D01*
X100895Y49461D02*
X102188Y48168D01*
X85549Y44772D02*
X85549Y44962D01*
X84871Y45639D02*
X85549Y44962D01*
X114701Y43477D02*
X114701Y44889D01*
X114701Y43477D02*
X114887Y43291D01*
X105137Y48046D02*
X105137Y48916D01*
X104928Y47836D02*
X105137Y48046D01*
X102321Y51084D02*
X102397Y51160D01*
X102321Y50063D02*
X102321Y51084D01*
X90648Y47896D02*
X90648Y48449D01*
X90201Y48901D02*
X90650Y48451D01*
X108208Y48978D02*
X108208Y49684D01*
X108547Y50024D01*
X99424Y48166D02*
X99550Y48041D01*
X99550Y47175D02*
X99550Y48041D01*
X111234Y47211D02*
X111453Y47431D01*
X110193Y46171D02*
X111234Y47211D01*
X111453Y47431D02*
X114221Y47431D01*
X112631Y44887D02*
X113367Y45623D01*
X116775Y45623D01*
X112303Y44558D02*
X112631Y44887D01*
X96680Y46413D02*
X96680Y47831D01*
X87429Y47068D02*
X87996Y46502D01*
X87429Y47068D02*
X87429Y47445D01*
X108392Y47516D02*
X110766Y48579D01*
X111461Y48890D01*
X107620Y47171D02*
X108392Y47516D01*
X105888Y50120D02*
X107188Y47907D01*
X107620Y47171D01*
X105500Y50781D02*
X105888Y50120D01*
X102850Y48690D02*
X104904Y50310D01*
X105500Y50781D01*
X102188Y48168D02*
X102850Y48690D01*
X106954Y17965D02*
X106954Y17965D01*
X105227Y22410D02*
X105392Y22575D01*
X103520Y22410D02*
X105227Y22410D01*
X105100Y19743D02*
X105354Y19489D01*
X95232Y22140D02*
X95502Y22410D01*
X98120Y22410D01*
X102296Y21783D02*
X102923Y22410D01*
X103520Y22410D01*
X95843Y41722D02*
X97137Y41722D01*
X95843Y38674D02*
X97137Y38674D01*
X92819Y40325D02*
X92819Y41698D01*
X92843Y41722D01*
X92819Y38698D02*
X92843Y38674D01*
X92819Y38698D02*
X92819Y40325D01*
X89306Y33991D02*
X93327Y33975D01*
X106255Y28920D02*
X112173Y28920D01*
X102979Y32197D02*
X106255Y28920D01*
X100820Y32197D02*
X106636Y26380D01*
X112173Y26380D01*
X106636Y31460D02*
X112173Y31460D01*
X104122Y33975D02*
X106636Y31460D01*
X99677Y33975D02*
X99804Y33975D01*
X104122Y33975D01*
X100947Y34864D02*
X101963Y34864D01*
X97137Y38674D02*
X100947Y34864D01*
X91168Y34737D02*
X91168Y43111D01*
X93454Y45397D01*
X94343Y44075D02*
X96680Y46413D01*
X149381Y44558D02*
X154901Y44558D01*
X147526Y46413D02*
X149381Y44558D01*
X137957Y34737D02*
X137957Y36896D01*
X136941Y37912D02*
X137957Y36896D01*
X136941Y37912D02*
X136941Y44075D01*
X146156Y19878D02*
X148117Y19878D01*
X147952Y19489D02*
X148976Y20513D01*
X149133Y20513D01*
X147317Y18600D02*
X147952Y17965D01*
X146118Y18600D02*
X147317Y18600D01*
X150430Y16957D02*
X154764Y21291D01*
X148960Y16957D02*
X150430Y16957D01*
X147952Y17965D02*
X148960Y16957D01*
X147526Y47635D02*
X147609Y47718D01*
X147469Y47577D02*
X147526Y47635D01*
X147526Y47836D01*
X147526Y47520D02*
X147526Y47635D01*
X147526Y46413D02*
X147526Y47520D01*
X147469Y47577D02*
X147526Y47520D01*
X139279Y46413D02*
X147526Y46413D01*
X135719Y50032D02*
X137396Y50032D01*
X137976Y50612D01*
X138584Y50612D01*
X138758Y50786D01*
X134655Y48968D02*
X135719Y50032D01*
X134655Y48072D02*
X134655Y48968D01*
X134020Y47436D02*
X134655Y48072D01*
X134020Y46160D02*
X134020Y47436D01*
X149552Y18735D02*
X149552Y19489D01*
X149552Y17965D02*
X149552Y18735D01*
X149536Y18751D02*
X149552Y18735D01*
X148879Y18751D02*
X149536Y18751D01*
X133247Y48449D02*
X133249Y48451D01*
X146118Y19870D02*
X146245Y19743D01*
X145991Y19997D02*
X146118Y19870D01*
X136052Y45397D02*
X136596Y45941D01*
X136596Y47163D01*
X141490Y50786D02*
X141866Y51162D01*
X138758Y50786D02*
X141490Y50786D01*
X131573Y44873D02*
X132860Y46160D01*
X134020Y46160D01*
X129975Y43275D02*
X131573Y44873D01*
X129317Y43275D02*
X129975Y43275D01*
X128973Y43619D02*
X129317Y43275D01*
X128178Y43619D02*
X128973Y43619D01*
X138894Y49461D02*
X143494Y49461D01*
X136596Y47163D02*
X138894Y49461D01*
X143494Y49461D02*
X144787Y48168D01*
X128147Y44772D02*
X128147Y44962D01*
X127470Y45639D02*
X128147Y44962D01*
X157300Y43477D02*
X157300Y44889D01*
X157300Y43477D02*
X157486Y43291D01*
X147736Y48046D02*
X147736Y48916D01*
X147526Y47836D02*
X147736Y48046D01*
X144919Y51084D02*
X144996Y51160D01*
X144919Y50063D02*
X144919Y51084D01*
X133247Y47896D02*
X133247Y48449D01*
X132799Y48901D02*
X133249Y48451D01*
X150806Y48978D02*
X150806Y49684D01*
X151146Y50024D01*
X142023Y48166D02*
X142148Y48041D01*
X142148Y47175D02*
X142148Y48041D01*
X153832Y47211D02*
X154052Y47431D01*
X152792Y46171D02*
X153832Y47211D01*
X154052Y47431D02*
X156820Y47431D01*
X155230Y44887D02*
X155966Y45623D01*
X159374Y45623D01*
X154901Y44558D02*
X155230Y44887D01*
X139279Y46413D02*
X139279Y47831D01*
X130028Y47068D02*
X130594Y46502D01*
X130028Y47068D02*
X130028Y47445D01*
X150991Y47516D02*
X153365Y48579D01*
X154060Y48890D01*
X150219Y47171D02*
X150991Y47516D01*
X148487Y50120D02*
X149787Y47907D01*
X150219Y47171D01*
X148099Y50781D02*
X148487Y50120D01*
X145449Y48690D02*
X147502Y50310D01*
X148099Y50781D01*
X144787Y48168D02*
X145449Y48690D01*
X149552Y17965D02*
X149552Y17965D01*
X147825Y22410D02*
X147990Y22575D01*
X146118Y22410D02*
X147825Y22410D01*
X147698Y19743D02*
X147952Y19489D01*
X137830Y22140D02*
X138100Y22410D01*
X140718Y22410D01*
X144894Y21783D02*
X145521Y22410D01*
X146118Y22410D01*
X138441Y41722D02*
X139735Y41722D01*
X138441Y38674D02*
X139735Y38674D01*
X135417Y40325D02*
X135417Y41698D01*
X135441Y41722D01*
X135417Y38698D02*
X135441Y38674D01*
X135417Y38698D02*
X135417Y40325D01*
X131904Y33991D02*
X135925Y33975D01*
X148854Y28920D02*
X154772Y28920D01*
X145577Y32197D02*
X148854Y28920D01*
X143418Y32197D02*
X149235Y26380D01*
X154772Y26380D01*
X149235Y31460D02*
X154772Y31460D01*
X146720Y33975D02*
X149235Y31460D01*
X142275Y33975D02*
X142402Y33975D01*
X146720Y33975D01*
X143545Y34864D02*
X144561Y34864D01*
X139735Y38674D02*
X143545Y34864D01*
X133766Y34737D02*
X133766Y43111D01*
X136052Y45397D01*
X136941Y44075D02*
X139279Y46413D01*
X191979Y44558D02*
X197500Y44558D01*
X190125Y46413D02*
X191979Y44558D01*
X180556Y34737D02*
X180556Y36896D01*
X179540Y37912D02*
X180556Y36896D01*
X179540Y37912D02*
X179540Y44075D01*
X188755Y19878D02*
X190716Y19878D01*
X190551Y19489D02*
X191575Y20513D01*
X191732Y20513D01*
X189916Y18600D02*
X190551Y17965D01*
X188717Y18600D02*
X189916Y18600D01*
X193029Y16957D02*
X197363Y21291D01*
X191559Y16957D02*
X193029Y16957D01*
X190551Y17965D02*
X191559Y16957D01*
X190125Y47635D02*
X190208Y47718D01*
X190067Y47577D02*
X190125Y47635D01*
X190125Y47836D01*
X190125Y47520D02*
X190125Y47635D01*
X190125Y46413D02*
X190125Y47520D01*
X190067Y47577D02*
X190125Y47520D01*
X181878Y46413D02*
X190125Y46413D01*
X178318Y50032D02*
X179995Y50032D01*
X180575Y50612D01*
X181183Y50612D01*
X181357Y50786D01*
X177254Y48968D02*
X178318Y50032D01*
X177254Y48072D02*
X177254Y48968D01*
X176618Y47436D02*
X177254Y48072D01*
X176618Y46160D02*
X176618Y47436D01*
X192151Y18735D02*
X192151Y19489D01*
X192151Y17965D02*
X192151Y18735D01*
X192135Y18751D02*
X192151Y18735D01*
X191478Y18751D02*
X192135Y18751D01*
X175846Y48449D02*
X175848Y48451D01*
X188717Y19870D02*
X188844Y19743D01*
X188590Y19997D02*
X188717Y19870D01*
X178651Y45397D02*
X179195Y45941D01*
X179195Y47163D01*
X184088Y50786D02*
X184465Y51162D01*
X181357Y50786D02*
X184088Y50786D01*
X174172Y44873D02*
X175459Y46160D01*
X176618Y46160D01*
X172574Y43275D02*
X174172Y44873D01*
X171916Y43275D02*
X172574Y43275D01*
X171572Y43619D02*
X171916Y43275D01*
X170777Y43619D02*
X171572Y43619D01*
X181493Y49461D02*
X186092Y49461D01*
X179195Y47163D02*
X181493Y49461D01*
X186092Y49461D02*
X187386Y48168D01*
X170746Y44772D02*
X170746Y44962D01*
X170069Y45639D02*
X170746Y44962D01*
X199898Y43477D02*
X199898Y44889D01*
X199898Y43477D02*
X200084Y43291D01*
X190335Y48046D02*
X190335Y48916D01*
X190125Y47836D02*
X190335Y48046D01*
X187518Y51084D02*
X187595Y51160D01*
X187518Y50063D02*
X187518Y51084D01*
X175846Y47896D02*
X175846Y48449D01*
X175398Y48901D02*
X175848Y48451D01*
X193405Y48978D02*
X193405Y49684D01*
X193745Y50024D01*
X184622Y48166D02*
X184747Y48041D01*
X184747Y47175D02*
X184747Y48041D01*
X196431Y47211D02*
X196651Y47431D01*
X195391Y46171D02*
X196431Y47211D01*
X196651Y47431D02*
X199418Y47431D01*
X197829Y44887D02*
X198565Y45623D01*
X201972Y45623D01*
X197500Y44558D02*
X197829Y44887D01*
X181878Y46413D02*
X181878Y47831D01*
X172626Y47068D02*
X173193Y46502D01*
X172626Y47068D02*
X172626Y47445D01*
X193590Y47516D02*
X195964Y48579D01*
X196658Y48890D01*
X192818Y47171D02*
X193590Y47516D01*
X191086Y50120D02*
X192386Y47907D01*
X192818Y47171D01*
X190697Y50781D02*
X191086Y50120D01*
X188048Y48690D02*
X190101Y50310D01*
X190697Y50781D01*
X187386Y48168D02*
X188048Y48690D01*
X192151Y17965D02*
X192151Y17965D01*
X190424Y22410D02*
X190589Y22575D01*
X188717Y22410D02*
X190424Y22410D01*
X190297Y19743D02*
X190551Y19489D01*
X180429Y22140D02*
X180699Y22410D01*
X183317Y22410D01*
X187493Y21783D02*
X188120Y22410D01*
X188717Y22410D01*
X181040Y41722D02*
X182334Y41722D01*
X181040Y38674D02*
X182334Y38674D01*
X178016Y40325D02*
X178016Y41698D01*
X178040Y41722D01*
X178016Y38698D02*
X178040Y38674D01*
X178016Y38698D02*
X178016Y40325D01*
X174503Y33991D02*
X178524Y33975D01*
X191453Y28920D02*
X197371Y28920D01*
X188176Y32197D02*
X191453Y28920D01*
X186017Y32197D02*
X191834Y26380D01*
X197371Y26380D01*
X191834Y31460D02*
X197371Y31460D01*
X189319Y33975D02*
X191834Y31460D01*
X184874Y33975D02*
X185001Y33975D01*
X189319Y33975D01*
X186144Y34864D02*
X187160Y34864D01*
X182334Y38674D02*
X186144Y34864D01*
X176365Y34737D02*
X176365Y43111D01*
X178651Y45397D01*
X179540Y44075D02*
X181878Y46413D01*
D31*
X331000Y-159420D02*
X331000Y-155000D01*
X318000Y-155000D02*
X318000Y-149000D01*
X272000Y-143000D02*
X353820Y-143000D01*
X300000Y-159420D02*
X300000Y-143000D01*
X338500Y-159420D02*
X338500Y-149000D01*
X272000Y-149000D02*
X353820Y-149000D01*
X272000Y-155000D02*
X353820Y-155000D01*
X203960Y-159420D02*
X239520Y-159420D01*
X41400Y-164500D02*
X41400Y-159420D01*
X-22100Y-104175D02*
X-17020Y-104175D01*
X-22100Y-43850D02*
X-17020Y-43850D01*
X-22100Y16475D02*
X-17020Y16475D01*
X-17020Y-159420D02*
X353820Y-159420D01*
X-17020Y-159420D02*
X-17020Y71720D01*
X-22100Y-164500D02*
X358900Y-164500D01*
X-22100Y-164500D02*
X-22100Y76800D01*
X353820Y-159420D02*
X353820Y-128940D01*
X104900Y-164500D02*
X104900Y-159420D01*
X168400Y-164500D02*
X168400Y-159420D01*
X231900Y-164500D02*
X231900Y-159420D01*
X295400Y-164500D02*
X295400Y-159420D01*
X353820Y-104175D02*
X358900Y-104175D01*
X353820Y-43850D02*
X358900Y-43850D01*
X353820Y16475D02*
X358900Y16475D01*
X358900Y-164500D02*
X358900Y76800D01*
X353820Y-159420D02*
X353820Y71720D01*
X41400Y71720D02*
X41400Y76800D01*
X-22100Y76800D02*
X358900Y76800D01*
X-17020Y71720D02*
X353820Y71720D01*
X104900Y71720D02*
X104900Y76800D01*
X168400Y71720D02*
X168400Y76800D01*
X231900Y71720D02*
X231900Y76800D01*
X295400Y71720D02*
X295400Y76800D01*
X238000Y-134000D02*
X353820Y-134000D01*
X238000Y-159420D02*
X238000Y-134000D01*
X272000Y-159420D02*
X272000Y-134000D01*
X331750Y-155607D02*
X331750Y-156750D01*
X331750Y-155607D02*
X332240Y-155607D01*
X332403Y-155662D01*
X332457Y-155716D01*
X332512Y-155825D01*
X332512Y-155934D01*
X332457Y-156043D01*
X332403Y-156097D01*
X332240Y-156151D01*
X331750Y-156151D01*
X332131Y-156151D02*
X332512Y-156750D01*
X333475Y-155607D02*
X332768Y-155607D01*
X332768Y-156750D01*
X333475Y-156750D01*
X332768Y-156151D02*
X333203Y-156151D01*
X333665Y-155607D02*
X334101Y-156750D01*
X334536Y-155607D02*
X334101Y-156750D01*
X334737Y-155988D02*
X334683Y-156043D01*
X334737Y-156097D01*
X334792Y-156043D01*
X334737Y-155988D01*
X334737Y-156641D02*
X334683Y-156696D01*
X334737Y-156750D01*
X334792Y-156696D01*
X334737Y-156641D01*
X301000Y-155357D02*
X301000Y-156500D01*
X301653Y-156500D01*
X302649Y-156500D02*
X302214Y-155357D01*
X301778Y-156500D01*
X301941Y-156119D02*
X302486Y-156119D01*
X302915Y-155357D02*
X303351Y-155901D01*
X303351Y-156500D01*
X303786Y-155357D02*
X303351Y-155901D01*
X304641Y-155357D02*
X303933Y-155357D01*
X303933Y-156500D01*
X304641Y-156500D01*
X303933Y-155901D02*
X304368Y-155901D01*
X304831Y-155357D02*
X304831Y-156500D01*
X304831Y-155357D02*
X305321Y-155357D01*
X305484Y-155412D01*
X305538Y-155466D01*
X305593Y-155575D01*
X305593Y-155684D01*
X305538Y-155793D01*
X305484Y-155847D01*
X305321Y-155901D01*
X304831Y-155901D01*
X305212Y-155901D02*
X305593Y-156500D01*
X306746Y-155357D02*
X306746Y-156500D01*
X306746Y-155357D02*
X307508Y-156500D01*
X307508Y-155357D02*
X307508Y-156500D01*
X308695Y-156500D02*
X308259Y-155357D01*
X307824Y-156500D01*
X307987Y-156119D02*
X308531Y-156119D01*
X308961Y-155357D02*
X308961Y-156500D01*
X308961Y-155357D02*
X309397Y-156500D01*
X309832Y-155357D02*
X309397Y-156500D01*
X309832Y-155357D02*
X309832Y-156500D01*
X310866Y-155357D02*
X310158Y-155357D01*
X310158Y-156500D01*
X310866Y-156500D01*
X310158Y-155901D02*
X310594Y-155901D01*
X311111Y-155738D02*
X311056Y-155793D01*
X311111Y-155847D01*
X311165Y-155793D01*
X311111Y-155738D01*
X311111Y-156391D02*
X311056Y-156446D01*
X311111Y-156500D01*
X311165Y-156446D01*
X311111Y-156391D01*
X339700Y-149857D02*
X339700Y-151000D01*
X339700Y-149857D02*
X340081Y-149857D01*
X340244Y-149912D01*
X340353Y-150020D01*
X340407Y-150129D01*
X340462Y-150293D01*
X340462Y-150565D01*
X340407Y-150728D01*
X340353Y-150837D01*
X340244Y-150946D01*
X340081Y-151000D01*
X339700Y-151000D01*
X341588Y-151000D02*
X341153Y-149857D01*
X340718Y-151000D01*
X340881Y-150619D02*
X341425Y-150619D01*
X342236Y-149857D02*
X342236Y-151000D01*
X341855Y-149857D02*
X342617Y-149857D01*
X343460Y-149857D02*
X342753Y-149857D01*
X342753Y-151000D01*
X343460Y-151000D01*
X342753Y-150401D02*
X343188Y-150401D01*
X343705Y-150238D02*
X343651Y-150293D01*
X343705Y-150347D01*
X343760Y-150293D01*
X343705Y-150238D01*
X343705Y-150891D02*
X343651Y-150946D01*
X343705Y-151000D01*
X343760Y-150946D01*
X343705Y-150891D01*
X301000Y-149857D02*
X301000Y-151000D01*
X301000Y-149857D02*
X301490Y-149857D01*
X301653Y-149912D01*
X301707Y-149966D01*
X301762Y-150075D01*
X301762Y-150184D01*
X301707Y-150293D01*
X301653Y-150347D01*
X301490Y-150401D01*
X301000Y-150401D02*
X301490Y-150401D01*
X301653Y-150456D01*
X301707Y-150510D01*
X301762Y-150619D01*
X301762Y-150782D01*
X301707Y-150891D01*
X301653Y-150946D01*
X301490Y-151000D01*
X301000Y-151000D01*
X302344Y-149857D02*
X302235Y-149912D01*
X302126Y-150020D01*
X302072Y-150129D01*
X302018Y-150293D01*
X302018Y-150565D01*
X302072Y-150728D01*
X302126Y-150837D01*
X302235Y-150946D01*
X302344Y-151000D01*
X302562Y-151000D01*
X302671Y-150946D01*
X302779Y-150837D01*
X302834Y-150728D01*
X302888Y-150565D01*
X302888Y-150293D01*
X302834Y-150129D01*
X302779Y-150020D01*
X302671Y-149912D01*
X302562Y-149857D01*
X302344Y-149857D01*
X304026Y-151000D02*
X303590Y-149857D01*
X303155Y-151000D01*
X303318Y-150619D02*
X303862Y-150619D01*
X304292Y-149857D02*
X304292Y-151000D01*
X304292Y-149857D02*
X304782Y-149857D01*
X304945Y-149912D01*
X305000Y-149966D01*
X305054Y-150075D01*
X305054Y-150184D01*
X305000Y-150293D01*
X304945Y-150347D01*
X304782Y-150401D01*
X304292Y-150401D01*
X304673Y-150401D02*
X305054Y-151000D01*
X305310Y-149857D02*
X305310Y-151000D01*
X305310Y-149857D02*
X305691Y-149857D01*
X305854Y-149912D01*
X305963Y-150020D01*
X306017Y-150129D01*
X306072Y-150293D01*
X306072Y-150565D01*
X306017Y-150728D01*
X305963Y-150837D01*
X305854Y-150946D01*
X305691Y-151000D01*
X305310Y-151000D01*
X307225Y-149857D02*
X307225Y-151000D01*
X307225Y-149857D02*
X307987Y-151000D01*
X307987Y-149857D02*
X307987Y-151000D01*
X308303Y-149857D02*
X308303Y-150673D01*
X308357Y-150837D01*
X308466Y-150946D01*
X308629Y-151000D01*
X308738Y-151000D01*
X308901Y-150946D01*
X309010Y-150837D01*
X309065Y-150673D01*
X309065Y-149857D01*
X309380Y-149857D02*
X309380Y-151000D01*
X309380Y-149857D02*
X309816Y-151000D01*
X310251Y-149857D02*
X309816Y-151000D01*
X310251Y-149857D02*
X310251Y-151000D01*
X310577Y-149857D02*
X310577Y-151000D01*
X310577Y-149857D02*
X311067Y-149857D01*
X311230Y-149912D01*
X311285Y-149966D01*
X311339Y-150075D01*
X311339Y-150184D01*
X311285Y-150293D01*
X311230Y-150347D01*
X311067Y-150401D01*
X310577Y-150401D02*
X311067Y-150401D01*
X311230Y-150456D01*
X311285Y-150510D01*
X311339Y-150619D01*
X311339Y-150782D01*
X311285Y-150891D01*
X311230Y-150946D01*
X311067Y-151000D01*
X310577Y-151000D01*
X312302Y-149857D02*
X311595Y-149857D01*
X311595Y-151000D01*
X312302Y-151000D01*
X311595Y-150401D02*
X312030Y-150401D01*
X312493Y-149857D02*
X312493Y-151000D01*
X312493Y-149857D02*
X312983Y-149857D01*
X313146Y-149912D01*
X313200Y-149966D01*
X313255Y-150075D01*
X313255Y-150184D01*
X313200Y-150293D01*
X313146Y-150347D01*
X312983Y-150401D01*
X312493Y-150401D01*
X312874Y-150401D02*
X313255Y-151000D01*
X313565Y-150238D02*
X313510Y-150293D01*
X313565Y-150347D01*
X313619Y-150293D01*
X313565Y-150238D01*
X313565Y-150891D02*
X313510Y-150946D01*
X313565Y-151000D01*
X313619Y-150946D01*
X313565Y-150891D01*
X273000Y-156206D02*
X273490Y-156206D01*
X273653Y-156151D01*
X273707Y-156097D01*
X273762Y-155988D01*
X273762Y-155825D01*
X273707Y-155716D01*
X273653Y-155662D01*
X273490Y-155607D01*
X273000Y-155607D01*
X273000Y-156750D01*
X274834Y-155879D02*
X274779Y-155770D01*
X274671Y-155662D01*
X274562Y-155607D01*
X274344Y-155607D01*
X274235Y-155662D01*
X274126Y-155770D01*
X274072Y-155879D01*
X274018Y-156043D01*
X274018Y-156315D01*
X274072Y-156478D01*
X274126Y-156587D01*
X274235Y-156696D01*
X274344Y-156750D01*
X274562Y-156750D01*
X274671Y-156696D01*
X274779Y-156587D01*
X274834Y-156478D01*
X275155Y-155607D02*
X275155Y-156750D01*
X275155Y-155607D02*
X275645Y-155607D01*
X275808Y-155662D01*
X275862Y-155716D01*
X275917Y-155825D01*
X275917Y-155934D01*
X275862Y-156043D01*
X275808Y-156097D01*
X275645Y-156151D01*
X275155Y-156151D02*
X275645Y-156151D01*
X275808Y-156206D01*
X275862Y-156260D01*
X275917Y-156369D01*
X275917Y-156532D01*
X275862Y-156641D01*
X275808Y-156696D01*
X275645Y-156750D01*
X275155Y-156750D01*
X277070Y-155607D02*
X277070Y-156750D01*
X277070Y-155607D02*
X277778Y-155607D01*
X277070Y-156151D02*
X277506Y-156151D01*
X277908Y-155607D02*
X277908Y-156750D01*
X278148Y-155607D02*
X278148Y-156750D01*
X278801Y-156750D01*
X279633Y-155607D02*
X278926Y-155607D01*
X278926Y-156750D01*
X279633Y-156750D01*
X278926Y-156151D02*
X279361Y-156151D01*
X280722Y-155607D02*
X280722Y-156750D01*
X280722Y-155607D02*
X281484Y-156750D01*
X281484Y-155607D02*
X281484Y-156750D01*
X282670Y-156750D02*
X282235Y-155607D01*
X281799Y-156750D01*
X281962Y-156369D02*
X282507Y-156369D01*
X282937Y-155607D02*
X282937Y-156750D01*
X282937Y-155607D02*
X283372Y-156750D01*
X283807Y-155607D02*
X283372Y-156750D01*
X283807Y-155607D02*
X283807Y-156750D01*
X284841Y-155607D02*
X284134Y-155607D01*
X284134Y-156750D01*
X284841Y-156750D01*
X284134Y-156151D02*
X284569Y-156151D01*
X285086Y-155988D02*
X285032Y-156043D01*
X285086Y-156097D01*
X285140Y-156043D01*
X285086Y-155988D01*
X285086Y-156641D02*
X285032Y-156696D01*
X285086Y-156750D01*
X285140Y-156696D01*
X285086Y-156641D01*
X273000Y-144456D02*
X273490Y-144456D01*
X273653Y-144401D01*
X273707Y-144347D01*
X273762Y-144238D01*
X273762Y-144075D01*
X273707Y-143966D01*
X273653Y-143912D01*
X273490Y-143857D01*
X273000Y-143857D01*
X273000Y-145000D01*
X274834Y-144129D02*
X274779Y-144020D01*
X274671Y-143912D01*
X274562Y-143857D01*
X274344Y-143857D01*
X274235Y-143912D01*
X274126Y-144020D01*
X274072Y-144129D01*
X274018Y-144293D01*
X274018Y-144565D01*
X274072Y-144728D01*
X274126Y-144837D01*
X274235Y-144946D01*
X274344Y-145000D01*
X274562Y-145000D01*
X274671Y-144946D01*
X274779Y-144837D01*
X274834Y-144728D01*
X275155Y-143857D02*
X275155Y-145000D01*
X275155Y-143857D02*
X275645Y-143857D01*
X275808Y-143912D01*
X275862Y-143966D01*
X275917Y-144075D01*
X275917Y-144184D01*
X275862Y-144293D01*
X275808Y-144347D01*
X275645Y-144401D01*
X275155Y-144401D02*
X275645Y-144401D01*
X275808Y-144456D01*
X275862Y-144510D01*
X275917Y-144619D01*
X275917Y-144782D01*
X275862Y-144891D01*
X275808Y-144946D01*
X275645Y-145000D01*
X275155Y-145000D01*
X277070Y-143857D02*
X277070Y-145000D01*
X277070Y-143857D02*
X277451Y-143857D01*
X277615Y-143912D01*
X277723Y-144020D01*
X277778Y-144129D01*
X277832Y-144293D01*
X277832Y-144565D01*
X277778Y-144728D01*
X277723Y-144837D01*
X277615Y-144946D01*
X277451Y-145000D01*
X277070Y-145000D01*
X278795Y-143857D02*
X278088Y-143857D01*
X278088Y-145000D01*
X278795Y-145000D01*
X278088Y-144401D02*
X278523Y-144401D01*
X279748Y-144020D02*
X279639Y-143912D01*
X279476Y-143857D01*
X279258Y-143857D01*
X279095Y-143912D01*
X278986Y-144020D01*
X278986Y-144129D01*
X279040Y-144238D01*
X279095Y-144293D01*
X279204Y-144347D01*
X279530Y-144456D01*
X279639Y-144510D01*
X279693Y-144565D01*
X279748Y-144673D01*
X279748Y-144837D01*
X279639Y-144946D01*
X279476Y-145000D01*
X279258Y-145000D01*
X279095Y-144946D01*
X278986Y-144837D01*
X280003Y-143857D02*
X280003Y-145000D01*
X281059Y-144129D02*
X281005Y-144020D01*
X280896Y-143912D01*
X280787Y-143857D01*
X280569Y-143857D01*
X280461Y-143912D01*
X280352Y-144020D01*
X280297Y-144129D01*
X280243Y-144293D01*
X280243Y-144565D01*
X280297Y-144728D01*
X280352Y-144837D01*
X280461Y-144946D01*
X280569Y-145000D01*
X280787Y-145000D01*
X280896Y-144946D01*
X281005Y-144837D01*
X281059Y-144728D01*
X281059Y-144565D01*
X280787Y-144565D02*
X281059Y-144565D01*
X281320Y-143857D02*
X281320Y-145000D01*
X281320Y-143857D02*
X282082Y-145000D01*
X282082Y-143857D02*
X282082Y-145000D01*
X283105Y-143857D02*
X282398Y-143857D01*
X282398Y-145000D01*
X283105Y-145000D01*
X282398Y-144401D02*
X282833Y-144401D01*
X283296Y-143857D02*
X283296Y-145000D01*
X283296Y-143857D02*
X283785Y-143857D01*
X283949Y-143912D01*
X284003Y-143966D01*
X284058Y-144075D01*
X284058Y-144184D01*
X284003Y-144293D01*
X283949Y-144347D01*
X283785Y-144401D01*
X283296Y-144401D01*
X283677Y-144401D02*
X284058Y-145000D01*
X284368Y-144238D02*
X284313Y-144293D01*
X284368Y-144347D01*
X284422Y-144293D01*
X284368Y-144238D01*
X284368Y-144891D02*
X284313Y-144946D01*
X284368Y-145000D01*
X284422Y-144946D01*
X284368Y-144891D01*
X273381Y-135357D02*
X273381Y-136500D01*
X273000Y-135357D02*
X273762Y-135357D01*
X273898Y-135357D02*
X273898Y-136500D01*
X274518Y-135357D02*
X274518Y-136500D01*
X274137Y-135357D02*
X274899Y-135357D01*
X275035Y-135357D02*
X275035Y-136500D01*
X275688Y-136500D01*
X276521Y-135357D02*
X275813Y-135357D01*
X275813Y-136500D01*
X276521Y-136500D01*
X275813Y-135901D02*
X276249Y-135901D01*
X276766Y-135738D02*
X276711Y-135793D01*
X276766Y-135847D01*
X276820Y-135793D01*
X276766Y-135738D01*
X276766Y-136391D02*
X276711Y-136446D01*
X276766Y-136500D01*
X276820Y-136446D01*
X276766Y-136391D01*
X273707Y-149857D02*
X273000Y-149857D01*
X273000Y-151000D01*
X273707Y-151000D01*
X273000Y-150401D02*
X273435Y-150401D01*
X273898Y-149857D02*
X273898Y-151000D01*
X273898Y-149857D02*
X274660Y-151000D01*
X274660Y-149857D02*
X274660Y-151000D01*
X275792Y-150129D02*
X275737Y-150020D01*
X275628Y-149912D01*
X275520Y-149857D01*
X275302Y-149857D01*
X275193Y-149912D01*
X275084Y-150020D01*
X275030Y-150129D01*
X274975Y-150293D01*
X274975Y-150565D01*
X275030Y-150728D01*
X275084Y-150837D01*
X275193Y-150946D01*
X275302Y-151000D01*
X275520Y-151000D01*
X275628Y-150946D01*
X275737Y-150837D01*
X275792Y-150728D01*
X275792Y-150565D01*
X275520Y-150565D02*
X275792Y-150565D01*
X276053Y-149857D02*
X276053Y-151000D01*
X276292Y-149857D02*
X276292Y-151000D01*
X276292Y-149857D02*
X277054Y-151000D01*
X277054Y-149857D02*
X277054Y-151000D01*
X278077Y-149857D02*
X277370Y-149857D01*
X277370Y-151000D01*
X278077Y-151000D01*
X277370Y-150401D02*
X277805Y-150401D01*
X278975Y-149857D02*
X278268Y-149857D01*
X278268Y-151000D01*
X278975Y-151000D01*
X278268Y-150401D02*
X278703Y-150401D01*
X279165Y-149857D02*
X279165Y-151000D01*
X279165Y-149857D02*
X279655Y-149857D01*
X279818Y-149912D01*
X279873Y-149966D01*
X279927Y-150075D01*
X279927Y-150184D01*
X279873Y-150293D01*
X279818Y-150347D01*
X279655Y-150401D01*
X279165Y-150401D01*
X279546Y-150401D02*
X279927Y-151000D01*
X280237Y-150238D02*
X280183Y-150293D01*
X280237Y-150347D01*
X280292Y-150293D01*
X280237Y-150238D01*
X280237Y-150891D02*
X280183Y-150946D01*
X280237Y-151000D01*
X280292Y-150946D01*
X280237Y-150891D01*
X273000Y-158206D02*
X273490Y-158206D01*
X273653Y-158151D01*
X273707Y-158097D01*
X273762Y-157988D01*
X273762Y-157825D01*
X273707Y-157716D01*
X273653Y-157662D01*
X273490Y-157607D01*
X273000Y-157607D01*
X273000Y-158750D01*
X274888Y-158750D02*
X274453Y-157607D01*
X274018Y-158750D01*
X274181Y-158369D02*
X274725Y-158369D01*
X275155Y-157607D02*
X275155Y-158750D01*
X275155Y-157607D02*
X275917Y-158750D01*
X275917Y-157607D02*
X275917Y-158750D01*
X276940Y-157607D02*
X276232Y-157607D01*
X276232Y-158750D01*
X276940Y-158750D01*
X276232Y-158151D02*
X276668Y-158151D01*
X277130Y-157607D02*
X277130Y-158750D01*
X277783Y-158750D01*
X277963Y-158641D02*
X277908Y-158696D01*
X277963Y-158750D01*
X278017Y-158696D01*
X277963Y-158641D01*
X278268Y-157988D02*
X278268Y-159131D01*
X278268Y-158151D02*
X278376Y-158043D01*
X278485Y-157988D01*
X278648Y-157988D01*
X278757Y-158043D01*
X278866Y-158151D01*
X278921Y-158315D01*
X278921Y-158423D01*
X278866Y-158587D01*
X278757Y-158696D01*
X278648Y-158750D01*
X278485Y-158750D01*
X278376Y-158696D01*
X278268Y-158587D01*
X279818Y-158151D02*
X279710Y-158043D01*
X279601Y-157988D01*
X279438Y-157988D01*
X279329Y-158043D01*
X279220Y-158151D01*
X279165Y-158315D01*
X279165Y-158423D01*
X279220Y-158587D01*
X279329Y-158696D01*
X279438Y-158750D01*
X279601Y-158750D01*
X279710Y-158696D01*
X279818Y-158587D01*
X280063Y-157607D02*
X280063Y-158750D01*
X280063Y-158151D02*
X280172Y-158043D01*
X280281Y-157988D01*
X280444Y-157988D01*
X280553Y-158043D01*
X280662Y-158151D01*
X280716Y-158315D01*
X280716Y-158423D01*
X280662Y-158587D01*
X280553Y-158696D01*
X280444Y-158750D01*
X280281Y-158750D01*
X280172Y-158696D01*
X280063Y-158587D01*
X301816Y-144129D02*
X301762Y-144020D01*
X301653Y-143912D01*
X301544Y-143857D01*
X301327Y-143857D01*
X301218Y-143912D01*
X301109Y-144020D01*
X301054Y-144129D01*
X301000Y-144293D01*
X301000Y-144565D01*
X301054Y-144728D01*
X301109Y-144837D01*
X301218Y-144946D01*
X301327Y-145000D01*
X301544Y-145000D01*
X301653Y-144946D01*
X301762Y-144837D01*
X301816Y-144728D01*
X301816Y-144565D01*
X301544Y-144565D02*
X301816Y-144565D01*
X302785Y-143857D02*
X302077Y-143857D01*
X302077Y-145000D01*
X302785Y-145000D01*
X302077Y-144401D02*
X302513Y-144401D01*
X302975Y-143857D02*
X302975Y-145000D01*
X302975Y-143857D02*
X303465Y-143857D01*
X303628Y-143912D01*
X303683Y-143966D01*
X303737Y-144075D01*
X303737Y-144184D01*
X303683Y-144293D01*
X303628Y-144347D01*
X303465Y-144401D01*
X302975Y-144401D01*
X303356Y-144401D02*
X303737Y-145000D01*
X303993Y-143857D02*
X303993Y-145000D01*
X303993Y-143857D02*
X304483Y-143857D01*
X304646Y-143912D01*
X304700Y-143966D01*
X304755Y-144075D01*
X304755Y-144184D01*
X304700Y-144293D01*
X304646Y-144347D01*
X304483Y-144401D01*
X303993Y-144401D02*
X304483Y-144401D01*
X304646Y-144456D01*
X304700Y-144510D01*
X304755Y-144619D01*
X304755Y-144782D01*
X304700Y-144891D01*
X304646Y-144946D01*
X304483Y-145000D01*
X303993Y-145000D01*
X305718Y-143857D02*
X305011Y-143857D01*
X305011Y-145000D01*
X305718Y-145000D01*
X305011Y-144401D02*
X305446Y-144401D01*
X305908Y-143857D02*
X305908Y-145000D01*
X305908Y-143857D02*
X306398Y-143857D01*
X306561Y-143912D01*
X306616Y-143966D01*
X306670Y-144075D01*
X306670Y-144184D01*
X306616Y-144293D01*
X306561Y-144347D01*
X306398Y-144401D01*
X305908Y-144401D01*
X306289Y-144401D02*
X306670Y-145000D01*
X307824Y-143857D02*
X307824Y-145000D01*
X307824Y-143857D02*
X308531Y-143857D01*
X307824Y-144401D02*
X308259Y-144401D01*
X308662Y-143857D02*
X308662Y-145000D01*
X308901Y-143857D02*
X308901Y-145000D01*
X309554Y-145000D01*
X310387Y-143857D02*
X309680Y-143857D01*
X309680Y-145000D01*
X310387Y-145000D01*
X309680Y-144401D02*
X310115Y-144401D01*
X310632Y-144238D02*
X310577Y-144293D01*
X310632Y-144347D01*
X310686Y-144293D01*
X310632Y-144238D01*
X310632Y-144891D02*
X310577Y-144946D01*
X310632Y-145000D01*
X310686Y-144946D01*
X310632Y-144891D01*
D32*
X255500Y62500D02*
X255500Y67000D01*
X232000Y67000D02*
X232000Y71500D01*
X232000Y67000D02*
X353500Y67000D01*
X243000Y67000D02*
X243000Y71500D01*
X255500Y67000D02*
X255500Y71500D01*
X334000Y67000D02*
X334000Y71500D01*
X232000Y62500D02*
X232000Y67000D01*
X232000Y62500D02*
X353500Y62500D01*
X334000Y62500D02*
X334000Y67000D01*
X243000Y62500D02*
X243000Y67000D01*
X234500Y68500D02*
X234500Y70024D01*
X235262Y70024D01*
X235516Y69770D01*
X235516Y69262D01*
X235262Y69008D01*
X234500Y69008D01*
X235008Y69008D02*
X235516Y68500D01*
X237039Y70024D02*
X236024Y70024D01*
X236024Y68500D01*
X237039Y68500D01*
X236024Y69262D02*
X236531Y69262D01*
X237547Y70024D02*
X237547Y69008D01*
X238055Y68500D01*
X238563Y69008D01*
X238563Y70024D01*
X245516Y70024D02*
X244500Y70024D01*
X244500Y68500D01*
X245516Y68500D01*
X244500Y69262D02*
X245008Y69262D01*
X247039Y69770D02*
X246785Y70024D01*
X246277Y70024D01*
X246024Y69770D01*
X246024Y68754D01*
X246277Y68500D01*
X246785Y68500D01*
X247039Y68754D01*
X248309Y70024D02*
X247801Y70024D01*
X247547Y69770D01*
X247547Y68754D01*
X247801Y68500D01*
X248309Y68500D01*
X248563Y68754D01*
X248563Y69770D01*
X248309Y70024D01*
X292016Y69270D02*
X291762Y69524D01*
X291254Y69524D01*
X291000Y69270D01*
X291000Y68254D01*
X291254Y68000D01*
X291762Y68000D01*
X292016Y68254D01*
X292777Y68000D02*
X293285Y68000D01*
X293539Y68254D01*
X293539Y68762D01*
X293285Y69016D01*
X292777Y69016D01*
X292524Y68762D01*
X292524Y68254D01*
X292777Y68000D01*
X294047Y68000D02*
X294047Y69016D01*
X294301Y69016D01*
X294555Y68762D01*
X294555Y68000D01*
X294555Y68762D01*
X294809Y69016D01*
X295063Y68762D01*
X295063Y68000D01*
X295571Y68000D02*
X295571Y69016D01*
X295824Y69016D01*
X296078Y68762D01*
X296078Y68000D01*
X296078Y68762D01*
X296332Y69016D01*
X296586Y68762D01*
X296586Y68000D01*
X297856Y68000D02*
X297348Y68000D01*
X297094Y68254D01*
X297094Y68762D01*
X297348Y69016D01*
X297856Y69016D01*
X298110Y68762D01*
X298110Y68508D01*
X297094Y68508D01*
X298618Y68000D02*
X298618Y69016D01*
X299379Y69016D01*
X299633Y68762D01*
X299633Y68000D01*
X300395Y69270D02*
X300395Y69016D01*
X300141Y69016D01*
X300649Y69016D01*
X300395Y69016D01*
X300395Y68254D01*
X300649Y68000D01*
X301411Y68000D02*
X302172Y68000D01*
X302426Y68254D01*
X302172Y68508D01*
X301665Y68508D01*
X301411Y68762D01*
X301665Y69016D01*
X302426Y69016D01*
X339000Y69524D02*
X339000Y68000D01*
X339762Y68000D01*
X340016Y68254D01*
X340016Y69270D01*
X339762Y69524D01*
X339000Y69524D01*
X340777Y69016D02*
X341285Y69016D01*
X341539Y68762D01*
X341539Y68000D01*
X340777Y68000D01*
X340524Y68254D01*
X340777Y68508D01*
X341539Y68508D01*
X342301Y69270D02*
X342301Y69016D01*
X342047Y69016D01*
X342555Y69016D01*
X342301Y69016D01*
X342301Y68254D01*
X342555Y68000D01*
X344078Y68000D02*
X343571Y68000D01*
X343317Y68254D01*
X343317Y68762D01*
X343571Y69016D01*
X344078Y69016D01*
X344332Y68762D01*
X344332Y68508D01*
X343317Y68508D01*
D33*
X342700Y-156300D02*
X352700Y-156300D01*
X342700Y-156800D02*
X342700Y-155800D01*
X352700Y-156800D02*
X352700Y-155800D01*
X342540Y-158000D02*
X352700Y-158000D01*
X342540Y-158635D02*
X342540Y-157365D01*
X352700Y-158635D02*
X352700Y-157365D01*
X345080Y-158635D02*
X345080Y-157365D01*
X347620Y-158635D02*
X347620Y-157365D01*
X350160Y-158635D02*
X350160Y-157365D01*
X347700Y-156600D02*
X347700Y-156000D01*
X329000Y-137000D02*
X353820Y-137000D01*
X353820Y-137000D02*
X353820Y-137000D01*
X329000Y-137000D02*
X329000Y-134000D01*
X272000Y-141500D02*
X353820Y-141500D01*
X339000Y-156033D02*
X339067Y-156000D01*
X339167Y-155900D01*
X339167Y-156600D01*
X339713Y-155900D02*
X339613Y-155933D01*
X339547Y-156033D01*
X339513Y-156200D01*
X339513Y-156300D01*
X339547Y-156467D01*
X339613Y-156567D01*
X339713Y-156600D01*
X339780Y-156600D01*
X339880Y-156567D01*
X339946Y-156467D01*
X339980Y-156300D01*
X339980Y-156200D01*
X339946Y-156033D01*
X339880Y-155933D01*
X339780Y-155900D01*
X339713Y-155900D01*
X340136Y-156133D02*
X340136Y-156600D01*
X340136Y-156267D02*
X340236Y-156167D01*
X340303Y-156133D01*
X340403Y-156133D01*
X340470Y-156167D01*
X340503Y-156267D01*
X340503Y-156600D01*
X340503Y-156267D02*
X340603Y-156167D01*
X340670Y-156133D01*
X340770Y-156133D01*
X340836Y-156167D01*
X340870Y-156267D01*
X340870Y-156600D01*
X341090Y-156133D02*
X341090Y-156600D01*
X341090Y-156267D02*
X341190Y-156167D01*
X341256Y-156133D01*
X341356Y-156133D01*
X341423Y-156167D01*
X341456Y-156267D01*
X341456Y-156600D01*
X341456Y-156267D02*
X341556Y-156167D01*
X341623Y-156133D01*
X341723Y-156133D01*
X341789Y-156167D01*
X341823Y-156267D01*
X341823Y-156600D01*
X339233Y-157600D02*
X338900Y-158067D01*
X339400Y-158067D01*
X339233Y-157600D02*
X339233Y-158300D01*
X339723Y-157600D02*
X339623Y-157633D01*
X339557Y-157733D01*
X339523Y-157900D01*
X339523Y-158000D01*
X339557Y-158167D01*
X339623Y-158267D01*
X339723Y-158300D01*
X339790Y-158300D01*
X339890Y-158267D01*
X339956Y-158167D01*
X339990Y-158000D01*
X339990Y-157900D01*
X339956Y-157733D01*
X339890Y-157633D01*
X339790Y-157600D01*
X339723Y-157600D01*
X340346Y-157600D02*
X340246Y-157633D01*
X340180Y-157733D01*
X340146Y-157900D01*
X340146Y-158000D01*
X340180Y-158167D01*
X340246Y-158267D01*
X340346Y-158300D01*
X340413Y-158300D01*
X340513Y-158267D01*
X340580Y-158167D01*
X340613Y-158000D01*
X340613Y-157900D01*
X340580Y-157733D01*
X340513Y-157633D01*
X340413Y-157600D01*
X340346Y-157600D01*
X340770Y-157833D02*
X340770Y-158300D01*
X340770Y-157967D02*
X340870Y-157867D01*
X340936Y-157833D01*
X341036Y-157833D01*
X341103Y-157867D01*
X341136Y-157967D01*
X341136Y-158300D01*
X341136Y-157967D02*
X341236Y-157867D01*
X341303Y-157833D01*
X341403Y-157833D01*
X341469Y-157867D01*
X341503Y-157967D01*
X341503Y-158300D01*
X341789Y-157600D02*
X341823Y-157633D01*
X341856Y-157600D01*
X341823Y-157567D01*
X341789Y-157600D01*
X341823Y-157833D02*
X341823Y-158300D01*
X341979Y-157600D02*
X341979Y-158300D01*
D34*
X342714Y-134750D02*
X342000Y-135750D01*
X343071Y-135750D01*
X342714Y-134750D02*
X342714Y-136250D01*
X344335Y-134750D02*
X343621Y-136250D01*
X343335Y-134750D02*
X344335Y-134750D01*
X344671Y-134750D02*
X344671Y-136250D01*
X345528Y-136250D01*
X346549Y-134965D02*
X346478Y-134822D01*
X346263Y-134750D01*
X346121Y-134750D01*
X345906Y-134822D01*
X345763Y-135036D01*
X345692Y-135393D01*
X345692Y-135750D01*
X345763Y-136036D01*
X345906Y-136179D01*
X346121Y-136250D01*
X346192Y-136250D01*
X346406Y-136179D01*
X346549Y-136036D01*
X346620Y-135821D01*
X346620Y-135750D01*
X346549Y-135536D01*
X346406Y-135393D01*
X346192Y-135322D01*
X346121Y-135322D01*
X345906Y-135393D01*
X345763Y-135536D01*
X345692Y-135750D01*
X347663Y-134750D02*
X346949Y-135750D01*
X348020Y-135750D01*
X347663Y-134750D02*
X347663Y-136250D01*
D35*
X301508Y-152222D02*
X301254Y-152307D01*
X301085Y-152561D01*
X301000Y-152984D01*
X301000Y-153238D01*
X301085Y-153661D01*
X301254Y-153915D01*
X301508Y-154000D01*
X301677Y-154000D01*
X301931Y-153915D01*
X302100Y-153661D01*
X302185Y-153238D01*
X302185Y-152984D01*
X302100Y-152561D01*
X301931Y-152307D01*
X301677Y-152222D01*
X301508Y-152222D01*
X303429Y-152222D02*
X302583Y-153407D01*
X303853Y-153407D01*
X303429Y-152222D02*
X303429Y-154000D01*
X304166Y-153238D02*
X305690Y-153238D01*
X307100Y-152222D02*
X306000Y-152222D01*
X306000Y-154000D01*
X307100Y-154000D01*
X306000Y-153069D02*
X306677Y-153069D01*
X308497Y-152222D02*
X307397Y-152222D01*
X307397Y-154000D01*
X308497Y-154000D01*
X307397Y-153069D02*
X308074Y-153069D01*
X308793Y-152222D02*
X308793Y-154000D01*
X308793Y-152222D02*
X309555Y-152222D01*
X309809Y-152307D01*
X309894Y-152392D01*
X309978Y-152561D01*
X309978Y-152730D01*
X309894Y-152900D01*
X309809Y-152984D01*
X309555Y-153069D01*
X308793Y-153069D01*
X309386Y-153069D02*
X309978Y-154000D01*
X311731Y-154000D02*
X311054Y-152222D01*
X310376Y-154000D01*
X310630Y-153407D02*
X311477Y-153407D01*
X312145Y-152222D02*
X312145Y-154000D01*
X312145Y-152222D02*
X312823Y-154000D01*
X313500Y-152222D02*
X312823Y-154000D01*
X313500Y-152222D02*
X313500Y-154000D01*
X314008Y-154593D02*
X315362Y-154593D01*
X315591Y-152222D02*
X315591Y-154000D01*
X315591Y-152222D02*
X316183Y-152222D01*
X316437Y-152307D01*
X316606Y-152476D01*
X316691Y-152646D01*
X316776Y-152900D01*
X316776Y-153323D01*
X316691Y-153577D01*
X316606Y-153746D01*
X316437Y-153915D01*
X316183Y-154000D01*
X315591Y-154000D01*
X318274Y-152222D02*
X317174Y-152222D01*
X317174Y-154000D01*
X318274Y-154000D01*
X317174Y-153069D02*
X317851Y-153069D01*
X318570Y-152222D02*
X318570Y-154000D01*
X318570Y-152222D02*
X319247Y-154000D01*
X319925Y-152222D02*
X319247Y-154000D01*
X319925Y-152222D02*
X319925Y-154000D01*
X320940Y-152222D02*
X320771Y-152307D01*
X320602Y-152476D01*
X320517Y-152646D01*
X320433Y-152900D01*
X320433Y-153323D01*
X320517Y-153577D01*
X320602Y-153746D01*
X320771Y-153915D01*
X320940Y-154000D01*
X321279Y-154000D01*
X321448Y-153915D01*
X321618Y-153746D01*
X321702Y-153577D01*
X321787Y-153323D01*
X321787Y-152900D01*
X321702Y-152646D01*
X321618Y-152476D01*
X321448Y-152307D01*
X321279Y-152222D01*
X320940Y-152222D01*
X322202Y-154593D02*
X323556Y-154593D01*
X323785Y-152222D02*
X323785Y-154000D01*
X323785Y-152222D02*
X324885Y-152222D01*
X323785Y-153069D02*
X324462Y-153069D01*
X326443Y-154000D02*
X325765Y-152222D01*
X325088Y-154000D01*
X325342Y-153407D02*
X326189Y-153407D01*
X327958Y-152222D02*
X326857Y-152222D01*
X326857Y-154000D01*
X327958Y-154000D01*
X326857Y-153069D02*
X327535Y-153069D01*
X328254Y-154593D02*
X329608Y-154593D01*
X329837Y-152561D02*
X330006Y-152476D01*
X330260Y-152222D01*
X330260Y-154000D01*
X331225Y-153831D02*
X331141Y-153915D01*
X331225Y-154000D01*
X331310Y-153915D01*
X331225Y-153831D01*
X332207Y-152222D02*
X331953Y-152307D01*
X331784Y-152561D01*
X331699Y-152984D01*
X331699Y-153238D01*
X331784Y-153661D01*
X331953Y-153915D01*
X332207Y-154000D01*
X332376Y-154000D01*
X332630Y-153915D01*
X332800Y-153661D01*
X332884Y-153238D01*
X332884Y-152984D01*
X332800Y-152561D01*
X332630Y-152307D01*
X332376Y-152222D01*
X332207Y-152222D01*
X333790Y-152222D02*
X333536Y-152307D01*
X333367Y-152561D01*
X333282Y-152984D01*
X333282Y-153238D01*
X333367Y-153661D01*
X333536Y-153915D01*
X333790Y-154000D01*
X333959Y-154000D01*
X334213Y-153915D01*
X334383Y-153661D01*
X334467Y-153238D01*
X334467Y-152984D01*
X334383Y-152561D01*
X334213Y-152307D01*
X333959Y-152222D01*
X333790Y-152222D01*
D36*
X26976Y-86401D02*
D03*
X26976Y-83861D02*
D03*
X26976Y-76241D02*
D03*
X26976Y-73701D02*
D03*
X26976Y-71161D02*
D03*
X26976Y-78781D02*
D03*
X26976Y-81321D02*
D03*
X4108Y-86411D02*
D03*
X4108Y-83871D02*
D03*
X4108Y-76251D02*
D03*
X4108Y-73711D02*
D03*
X4108Y-71171D02*
D03*
X4108Y-78791D02*
D03*
X4108Y-81331D02*
D03*
X69575Y-86401D02*
D03*
X69575Y-83861D02*
D03*
X69575Y-76241D02*
D03*
X69575Y-73701D02*
D03*
X69575Y-71161D02*
D03*
X69575Y-78781D02*
D03*
X69575Y-81321D02*
D03*
X46707Y-86411D02*
D03*
X46707Y-83871D02*
D03*
X46707Y-76251D02*
D03*
X46707Y-73711D02*
D03*
X46707Y-71171D02*
D03*
X46707Y-78791D02*
D03*
X46707Y-81331D02*
D03*
X112173Y-86401D02*
D03*
X112173Y-83861D02*
D03*
X112173Y-76241D02*
D03*
X112173Y-73701D02*
D03*
X112173Y-71161D02*
D03*
X112173Y-78781D02*
D03*
X112173Y-81321D02*
D03*
X89306Y-86411D02*
D03*
X89306Y-83871D02*
D03*
X89306Y-76251D02*
D03*
X89306Y-73711D02*
D03*
X89306Y-71171D02*
D03*
X89306Y-78791D02*
D03*
X89306Y-81331D02*
D03*
X154772Y-86401D02*
D03*
X154772Y-83861D02*
D03*
X154772Y-76241D02*
D03*
X154772Y-73701D02*
D03*
X154772Y-71161D02*
D03*
X154772Y-78781D02*
D03*
X154772Y-81321D02*
D03*
X131904Y-86411D02*
D03*
X131904Y-83871D02*
D03*
X131904Y-76251D02*
D03*
X131904Y-73711D02*
D03*
X131904Y-71171D02*
D03*
X131904Y-78791D02*
D03*
X131904Y-81331D02*
D03*
X197371Y-86401D02*
D03*
X197371Y-83861D02*
D03*
X197371Y-76241D02*
D03*
X197371Y-73701D02*
D03*
X197371Y-71161D02*
D03*
X197371Y-78781D02*
D03*
X197371Y-81321D02*
D03*
X174503Y-86411D02*
D03*
X174503Y-83871D02*
D03*
X174503Y-76251D02*
D03*
X174503Y-73711D02*
D03*
X174503Y-71171D02*
D03*
X174503Y-78791D02*
D03*
X174503Y-81331D02*
D03*
X26976Y-35091D02*
D03*
X26976Y-32551D02*
D03*
X26976Y-24931D02*
D03*
X26976Y-22391D02*
D03*
X26976Y-19851D02*
D03*
X26976Y-27471D02*
D03*
X26976Y-30011D02*
D03*
X4108Y-35100D02*
D03*
X4108Y-32560D02*
D03*
X4108Y-24940D02*
D03*
X4108Y-22400D02*
D03*
X4108Y-19860D02*
D03*
X4108Y-27480D02*
D03*
X4108Y-30020D02*
D03*
X69575Y-35091D02*
D03*
X69575Y-32551D02*
D03*
X69575Y-24931D02*
D03*
X69575Y-22391D02*
D03*
X69575Y-19851D02*
D03*
X69575Y-27471D02*
D03*
X69575Y-30011D02*
D03*
X46707Y-35100D02*
D03*
X46707Y-32560D02*
D03*
X46707Y-24940D02*
D03*
X46707Y-22400D02*
D03*
X46707Y-19860D02*
D03*
X46707Y-27480D02*
D03*
X46707Y-30020D02*
D03*
X112173Y-35091D02*
D03*
X112173Y-32551D02*
D03*
X112173Y-24931D02*
D03*
X112173Y-22391D02*
D03*
X112173Y-19851D02*
D03*
X112173Y-27471D02*
D03*
X112173Y-30011D02*
D03*
X89306Y-35100D02*
D03*
X89306Y-32560D02*
D03*
X89306Y-24940D02*
D03*
X89306Y-22400D02*
D03*
X89306Y-19860D02*
D03*
X89306Y-27480D02*
D03*
X89306Y-30020D02*
D03*
X154772Y-35091D02*
D03*
X154772Y-32551D02*
D03*
X154772Y-24931D02*
D03*
X154772Y-22391D02*
D03*
X154772Y-19851D02*
D03*
X154772Y-27471D02*
D03*
X154772Y-30011D02*
D03*
X131904Y-35100D02*
D03*
X131904Y-32560D02*
D03*
X131904Y-24940D02*
D03*
X131904Y-22400D02*
D03*
X131904Y-19860D02*
D03*
X131904Y-27480D02*
D03*
X131904Y-30020D02*
D03*
X197371Y-35091D02*
D03*
X197371Y-32551D02*
D03*
X197371Y-24931D02*
D03*
X197371Y-22391D02*
D03*
X197371Y-19851D02*
D03*
X197371Y-27471D02*
D03*
X197371Y-30011D02*
D03*
X174503Y-35100D02*
D03*
X174503Y-32560D02*
D03*
X174503Y-24940D02*
D03*
X174503Y-22400D02*
D03*
X174503Y-19860D02*
D03*
X174503Y-27480D02*
D03*
X174503Y-30020D02*
D03*
X26976Y16220D02*
D03*
X26976Y18760D02*
D03*
X26976Y26380D02*
D03*
X26976Y28920D02*
D03*
X26976Y31460D02*
D03*
X26976Y23840D02*
D03*
X26976Y21300D02*
D03*
X4108Y16211D02*
D03*
X4108Y18751D02*
D03*
X4108Y26371D02*
D03*
X4108Y28911D02*
D03*
X4108Y31451D02*
D03*
X4108Y23831D02*
D03*
X4108Y21291D02*
D03*
X69575Y16220D02*
D03*
X69575Y18760D02*
D03*
X69575Y26380D02*
D03*
X69575Y28920D02*
D03*
X69575Y31460D02*
D03*
X69575Y23840D02*
D03*
X69575Y21300D02*
D03*
X46707Y16211D02*
D03*
X46707Y18751D02*
D03*
X46707Y26371D02*
D03*
X46707Y28911D02*
D03*
X46707Y31451D02*
D03*
X46707Y23831D02*
D03*
X46707Y21291D02*
D03*
X112173Y16220D02*
D03*
X112173Y18760D02*
D03*
X112173Y26380D02*
D03*
X112173Y28920D02*
D03*
X112173Y31460D02*
D03*
X112173Y23840D02*
D03*
X112173Y21300D02*
D03*
X89306Y16211D02*
D03*
X89306Y18751D02*
D03*
X89306Y26371D02*
D03*
X89306Y28911D02*
D03*
X89306Y31451D02*
D03*
X89306Y23831D02*
D03*
X89306Y21291D02*
D03*
X154772Y16220D02*
D03*
X154772Y18760D02*
D03*
X154772Y26380D02*
D03*
X154772Y28920D02*
D03*
X154772Y31460D02*
D03*
X154772Y23840D02*
D03*
X154772Y21300D02*
D03*
X131904Y16211D02*
D03*
X131904Y18751D02*
D03*
X131904Y26371D02*
D03*
X131904Y28911D02*
D03*
X131904Y31451D02*
D03*
X131904Y23831D02*
D03*
X131904Y21291D02*
D03*
X197371Y16220D02*
D03*
X197371Y18760D02*
D03*
X197371Y26380D02*
D03*
X197371Y28920D02*
D03*
X197371Y31460D02*
D03*
X197371Y23840D02*
D03*
X197371Y21300D02*
D03*
X174503Y16211D02*
D03*
X174503Y18751D02*
D03*
X174503Y26371D02*
D03*
X174503Y28911D02*
D03*
X174503Y31451D02*
D03*
X174503Y23831D02*
D03*
X174503Y21291D02*
D03*
D37*
X26976Y-68621D02*
D03*
X4108Y-68631D02*
D03*
X69575Y-68621D02*
D03*
X46707Y-68631D02*
D03*
X112173Y-68621D02*
D03*
X89306Y-68631D02*
D03*
X154772Y-68621D02*
D03*
X131904Y-68631D02*
D03*
X197371Y-68621D02*
D03*
X174503Y-68631D02*
D03*
X26976Y-17311D02*
D03*
X4108Y-17320D02*
D03*
X69575Y-17311D02*
D03*
X46707Y-17320D02*
D03*
X112173Y-17311D02*
D03*
X89306Y-17320D02*
D03*
X154772Y-17311D02*
D03*
X131904Y-17320D02*
D03*
X197371Y-17311D02*
D03*
X174503Y-17320D02*
D03*
X26976Y34000D02*
D03*
X4108Y33991D02*
D03*
X69575Y34000D02*
D03*
X46707Y33991D02*
D03*
X112173Y34000D02*
D03*
X89306Y33991D02*
D03*
X154772Y34000D02*
D03*
X131904Y33991D02*
D03*
X197371Y34000D02*
D03*
X174503Y33991D02*
D03*
D38*
X28525Y-64100D02*
D03*
X28525Y-65370D02*
D03*
X28525Y-66640D02*
D03*
X31573Y-64100D02*
D03*
X31573Y-65370D02*
D03*
X31573Y-66640D02*
D03*
X2592Y-64100D02*
D03*
X2592Y-65370D02*
D03*
X2592Y-66640D02*
D03*
X-456Y-64100D02*
D03*
X-456Y-65370D02*
D03*
X-456Y-66640D02*
D03*
X1728Y-46041D02*
D03*
X1728Y-47311D02*
D03*
X1728Y-48581D02*
D03*
X-1320Y-46041D02*
D03*
X-1320Y-47311D02*
D03*
X-1320Y-48581D02*
D03*
X71124Y-64100D02*
D03*
X71124Y-65370D02*
D03*
X71124Y-66640D02*
D03*
X74172Y-64100D02*
D03*
X74172Y-65370D02*
D03*
X74172Y-66640D02*
D03*
X45191Y-64100D02*
D03*
X45191Y-65370D02*
D03*
X45191Y-66640D02*
D03*
X42143Y-64100D02*
D03*
X42143Y-65370D02*
D03*
X42143Y-66640D02*
D03*
X44327Y-46041D02*
D03*
X44327Y-47311D02*
D03*
X44327Y-48581D02*
D03*
X41279Y-46041D02*
D03*
X41279Y-47311D02*
D03*
X41279Y-48581D02*
D03*
X113723Y-64100D02*
D03*
X113723Y-65370D02*
D03*
X113723Y-66640D02*
D03*
X116771Y-64100D02*
D03*
X116771Y-65370D02*
D03*
X116771Y-66640D02*
D03*
X87789Y-64100D02*
D03*
X87789Y-65370D02*
D03*
X87789Y-66640D02*
D03*
X84741Y-64100D02*
D03*
X84741Y-65370D02*
D03*
X84741Y-66640D02*
D03*
X86926Y-46041D02*
D03*
X86926Y-47311D02*
D03*
X86926Y-48581D02*
D03*
X83878Y-46041D02*
D03*
X83878Y-47311D02*
D03*
X83878Y-48581D02*
D03*
X156321Y-64100D02*
D03*
X156321Y-65370D02*
D03*
X156321Y-66640D02*
D03*
X159369Y-64100D02*
D03*
X159369Y-65370D02*
D03*
X159369Y-66640D02*
D03*
X130388Y-64100D02*
D03*
X130388Y-65370D02*
D03*
X130388Y-66640D02*
D03*
X127340Y-64100D02*
D03*
X127340Y-65370D02*
D03*
X127340Y-66640D02*
D03*
X129524Y-46041D02*
D03*
X129524Y-47311D02*
D03*
X129524Y-48581D02*
D03*
X126476Y-46041D02*
D03*
X126476Y-47311D02*
D03*
X126476Y-48581D02*
D03*
X198920Y-64100D02*
D03*
X198920Y-65370D02*
D03*
X198920Y-66640D02*
D03*
X201968Y-64100D02*
D03*
X201968Y-65370D02*
D03*
X201968Y-66640D02*
D03*
X172987Y-64100D02*
D03*
X172987Y-65370D02*
D03*
X172987Y-66640D02*
D03*
X169939Y-64100D02*
D03*
X169939Y-65370D02*
D03*
X169939Y-66640D02*
D03*
X172123Y-46041D02*
D03*
X172123Y-47311D02*
D03*
X172123Y-48581D02*
D03*
X169075Y-46041D02*
D03*
X169075Y-47311D02*
D03*
X169075Y-48581D02*
D03*
X28525Y-12789D02*
D03*
X28525Y-14059D02*
D03*
X28525Y-15329D02*
D03*
X31573Y-12789D02*
D03*
X31573Y-14059D02*
D03*
X31573Y-15329D02*
D03*
X2592Y-12789D02*
D03*
X2592Y-14059D02*
D03*
X2592Y-15329D02*
D03*
X-456Y-12789D02*
D03*
X-456Y-14059D02*
D03*
X-456Y-15329D02*
D03*
X1728Y5270D02*
D03*
X1728Y4000D02*
D03*
X1728Y2730D02*
D03*
X-1320Y5270D02*
D03*
X-1320Y4000D02*
D03*
X-1320Y2730D02*
D03*
X71124Y-12789D02*
D03*
X71124Y-14059D02*
D03*
X71124Y-15329D02*
D03*
X74172Y-12789D02*
D03*
X74172Y-14059D02*
D03*
X74172Y-15329D02*
D03*
X45191Y-12789D02*
D03*
X45191Y-14059D02*
D03*
X45191Y-15329D02*
D03*
X42143Y-12789D02*
D03*
X42143Y-14059D02*
D03*
X42143Y-15329D02*
D03*
X44327Y5270D02*
D03*
X44327Y4000D02*
D03*
X44327Y2730D02*
D03*
X41279Y5270D02*
D03*
X41279Y4000D02*
D03*
X41279Y2730D02*
D03*
X113723Y-12789D02*
D03*
X113723Y-14059D02*
D03*
X113723Y-15329D02*
D03*
X116771Y-12789D02*
D03*
X116771Y-14059D02*
D03*
X116771Y-15329D02*
D03*
X87789Y-12789D02*
D03*
X87789Y-14059D02*
D03*
X87789Y-15329D02*
D03*
X84741Y-12789D02*
D03*
X84741Y-14059D02*
D03*
X84741Y-15329D02*
D03*
X86926Y5270D02*
D03*
X86926Y4000D02*
D03*
X86926Y2730D02*
D03*
X83878Y5270D02*
D03*
X83878Y4000D02*
D03*
X83878Y2730D02*
D03*
X156321Y-12789D02*
D03*
X156321Y-14059D02*
D03*
X156321Y-15329D02*
D03*
X159369Y-12789D02*
D03*
X159369Y-14059D02*
D03*
X159369Y-15329D02*
D03*
X130388Y-12789D02*
D03*
X130388Y-14059D02*
D03*
X130388Y-15329D02*
D03*
X127340Y-12789D02*
D03*
X127340Y-14059D02*
D03*
X127340Y-15329D02*
D03*
X129524Y5270D02*
D03*
X129524Y4000D02*
D03*
X129524Y2730D02*
D03*
X126476Y5270D02*
D03*
X126476Y4000D02*
D03*
X126476Y2730D02*
D03*
X198920Y-12789D02*
D03*
X198920Y-14059D02*
D03*
X198920Y-15329D02*
D03*
X201968Y-12789D02*
D03*
X201968Y-14059D02*
D03*
X201968Y-15329D02*
D03*
X172987Y-12789D02*
D03*
X172987Y-14059D02*
D03*
X172987Y-15329D02*
D03*
X169939Y-12789D02*
D03*
X169939Y-14059D02*
D03*
X169939Y-15329D02*
D03*
X172123Y5270D02*
D03*
X172123Y4000D02*
D03*
X172123Y2730D02*
D03*
X169075Y5270D02*
D03*
X169075Y4000D02*
D03*
X169075Y2730D02*
D03*
X28525Y38521D02*
D03*
X28525Y37251D02*
D03*
X28525Y35981D02*
D03*
X31573Y38521D02*
D03*
X31573Y37251D02*
D03*
X31573Y35981D02*
D03*
X2592Y38521D02*
D03*
X2592Y37251D02*
D03*
X2592Y35981D02*
D03*
X-456Y38521D02*
D03*
X-456Y37251D02*
D03*
X-456Y35981D02*
D03*
X1728Y56581D02*
D03*
X1728Y55311D02*
D03*
X1728Y54041D02*
D03*
X-1320Y56581D02*
D03*
X-1320Y55311D02*
D03*
X-1320Y54041D02*
D03*
X71124Y38521D02*
D03*
X71124Y37251D02*
D03*
X71124Y35981D02*
D03*
X74172Y38521D02*
D03*
X74172Y37251D02*
D03*
X74172Y35981D02*
D03*
X45191Y38521D02*
D03*
X45191Y37251D02*
D03*
X45191Y35981D02*
D03*
X42143Y38521D02*
D03*
X42143Y37251D02*
D03*
X42143Y35981D02*
D03*
X44327Y56581D02*
D03*
X44327Y55311D02*
D03*
X44327Y54041D02*
D03*
X41279Y56581D02*
D03*
X41279Y55311D02*
D03*
X41279Y54041D02*
D03*
X113723Y38521D02*
D03*
X113723Y37251D02*
D03*
X113723Y35981D02*
D03*
X116771Y38521D02*
D03*
X116771Y37251D02*
D03*
X116771Y35981D02*
D03*
X87789Y38521D02*
D03*
X87789Y37251D02*
D03*
X87789Y35981D02*
D03*
X84741Y38521D02*
D03*
X84741Y37251D02*
D03*
X84741Y35981D02*
D03*
X86926Y56581D02*
D03*
X86926Y55311D02*
D03*
X86926Y54041D02*
D03*
X83878Y56581D02*
D03*
X83878Y55311D02*
D03*
X83878Y54041D02*
D03*
X156321Y38521D02*
D03*
X156321Y37251D02*
D03*
X156321Y35981D02*
D03*
X159369Y38521D02*
D03*
X159369Y37251D02*
D03*
X159369Y35981D02*
D03*
X130388Y38521D02*
D03*
X130388Y37251D02*
D03*
X130388Y35981D02*
D03*
X127340Y38521D02*
D03*
X127340Y37251D02*
D03*
X127340Y35981D02*
D03*
X129524Y56581D02*
D03*
X129524Y55311D02*
D03*
X129524Y54041D02*
D03*
X126476Y56581D02*
D03*
X126476Y55311D02*
D03*
X126476Y54041D02*
D03*
X198920Y38521D02*
D03*
X198920Y37251D02*
D03*
X198920Y35981D02*
D03*
X201968Y38521D02*
D03*
X201968Y37251D02*
D03*
X201968Y35981D02*
D03*
X172987Y38521D02*
D03*
X172987Y37251D02*
D03*
X172987Y35981D02*
D03*
X169939Y38521D02*
D03*
X169939Y37251D02*
D03*
X169939Y35981D02*
D03*
X172123Y56581D02*
D03*
X172123Y55311D02*
D03*
X172123Y54041D02*
D03*
X169075Y56581D02*
D03*
X169075Y55311D02*
D03*
X169075Y54041D02*
D03*
D39*
X21337Y-82109D02*
D03*
X15749Y-79839D02*
D03*
X23183Y-82490D02*
D03*
X382Y-59003D02*
D03*
X351Y-57849D02*
D03*
X8256Y-57225D02*
D03*
X5451Y-54726D02*
D03*
X14352Y-55447D02*
D03*
X29503Y-57733D02*
D03*
X26036Y-55410D02*
D03*
X23010Y-53644D02*
D03*
X19940Y-53706D02*
D03*
X17123Y-52559D02*
D03*
X11483Y-56209D02*
D03*
X2798Y-56120D02*
D03*
X21083Y-83871D02*
D03*
X17098Y-80839D02*
D03*
X7621Y-62297D02*
D03*
X11939Y-60900D02*
D03*
X11939Y-63948D02*
D03*
X8129Y-68647D02*
D03*
X14606Y-68647D02*
D03*
X15622Y-70425D02*
D03*
X17781Y-70425D02*
D03*
X16765Y-67758D02*
D03*
X5970Y-67885D02*
D03*
X10161Y-67885D02*
D03*
X63936Y-82109D02*
D03*
X58348Y-79839D02*
D03*
X65781Y-82490D02*
D03*
X42981Y-59003D02*
D03*
X42950Y-57849D02*
D03*
X50855Y-57225D02*
D03*
X48049Y-54726D02*
D03*
X56951Y-55447D02*
D03*
X72102Y-57733D02*
D03*
X68635Y-55410D02*
D03*
X65609Y-53644D02*
D03*
X62539Y-53706D02*
D03*
X59722Y-52559D02*
D03*
X54082Y-56209D02*
D03*
X45397Y-56120D02*
D03*
X63682Y-83871D02*
D03*
X59697Y-80839D02*
D03*
X50220Y-62297D02*
D03*
X54538Y-60900D02*
D03*
X54538Y-63948D02*
D03*
X50728Y-68647D02*
D03*
X57205Y-68647D02*
D03*
X58221Y-70425D02*
D03*
X60380Y-70425D02*
D03*
X59364Y-67758D02*
D03*
X48569Y-67885D02*
D03*
X52760Y-67885D02*
D03*
X106535Y-82109D02*
D03*
X100947Y-79839D02*
D03*
X108380Y-82490D02*
D03*
X85580Y-59003D02*
D03*
X85549Y-57849D02*
D03*
X93454Y-57225D02*
D03*
X90648Y-54726D02*
D03*
X99550Y-55447D02*
D03*
X114701Y-57733D02*
D03*
X111234Y-55410D02*
D03*
X108208Y-53644D02*
D03*
X105137Y-53706D02*
D03*
X102321Y-52559D02*
D03*
X96680Y-56209D02*
D03*
X87996Y-56120D02*
D03*
X106281Y-83871D02*
D03*
X102296Y-80839D02*
D03*
X92819Y-62297D02*
D03*
X97137Y-60900D02*
D03*
X97137Y-63948D02*
D03*
X93327Y-68647D02*
D03*
X99804Y-68647D02*
D03*
X100820Y-70425D02*
D03*
X102979Y-70425D02*
D03*
X101963Y-67758D02*
D03*
X91168Y-67885D02*
D03*
X95359Y-67885D02*
D03*
X149133Y-82109D02*
D03*
X143545Y-79839D02*
D03*
X150979Y-82490D02*
D03*
X128178Y-59003D02*
D03*
X128147Y-57849D02*
D03*
X136052Y-57225D02*
D03*
X133247Y-54726D02*
D03*
X142148Y-55447D02*
D03*
X157300Y-57733D02*
D03*
X153832Y-55410D02*
D03*
X150806Y-53644D02*
D03*
X147736Y-53706D02*
D03*
X144919Y-52559D02*
D03*
X139279Y-56209D02*
D03*
X130594Y-56120D02*
D03*
X148879Y-83871D02*
D03*
X144894Y-80839D02*
D03*
X135417Y-62297D02*
D03*
X139735Y-60900D02*
D03*
X139735Y-63948D02*
D03*
X135925Y-68647D02*
D03*
X142402Y-68647D02*
D03*
X143418Y-70425D02*
D03*
X145577Y-70425D02*
D03*
X144561Y-67758D02*
D03*
X133766Y-67885D02*
D03*
X137957Y-67885D02*
D03*
X191732Y-82109D02*
D03*
X186144Y-79839D02*
D03*
X193577Y-82490D02*
D03*
X170777Y-59003D02*
D03*
X170746Y-57849D02*
D03*
X178651Y-57225D02*
D03*
X175846Y-54726D02*
D03*
X184747Y-55447D02*
D03*
X199898Y-57733D02*
D03*
X196431Y-55410D02*
D03*
X193405Y-53644D02*
D03*
X190335Y-53706D02*
D03*
X187518Y-52559D02*
D03*
X181878Y-56209D02*
D03*
X173193Y-56120D02*
D03*
X191478Y-83871D02*
D03*
X187493Y-80839D02*
D03*
X178016Y-62297D02*
D03*
X182334Y-60900D02*
D03*
X182334Y-63948D02*
D03*
X178524Y-68647D02*
D03*
X185001Y-68647D02*
D03*
X186017Y-70425D02*
D03*
X188176Y-70425D02*
D03*
X187160Y-67758D02*
D03*
X176365Y-67885D02*
D03*
X180556Y-67885D02*
D03*
X21337Y-30798D02*
D03*
X15749Y-28528D02*
D03*
X23183Y-31179D02*
D03*
X382Y-7692D02*
D03*
X351Y-6539D02*
D03*
X8256Y-5914D02*
D03*
X5451Y-3415D02*
D03*
X14352Y-4136D02*
D03*
X29503Y-6422D02*
D03*
X26036Y-4100D02*
D03*
X23010Y-2333D02*
D03*
X19940Y-2395D02*
D03*
X17123Y-1248D02*
D03*
X11483Y-4898D02*
D03*
X2798Y-4809D02*
D03*
X21083Y-32560D02*
D03*
X17098Y-29528D02*
D03*
X7621Y-10986D02*
D03*
X11939Y-9589D02*
D03*
X11939Y-12637D02*
D03*
X8129Y-17336D02*
D03*
X14606Y-17336D02*
D03*
X15622Y-19114D02*
D03*
X17781Y-19114D02*
D03*
X16765Y-16447D02*
D03*
X5970Y-16574D02*
D03*
X10161Y-16574D02*
D03*
X63936Y-30798D02*
D03*
X58348Y-28528D02*
D03*
X65781Y-31179D02*
D03*
X42981Y-7692D02*
D03*
X42950Y-6539D02*
D03*
X50855Y-5914D02*
D03*
X48049Y-3415D02*
D03*
X56951Y-4136D02*
D03*
X72102Y-6422D02*
D03*
X68635Y-4100D02*
D03*
X65609Y-2333D02*
D03*
X62539Y-2395D02*
D03*
X59722Y-1248D02*
D03*
X54082Y-4898D02*
D03*
X45397Y-4809D02*
D03*
X63682Y-32560D02*
D03*
X59697Y-29528D02*
D03*
X50220Y-10986D02*
D03*
X54538Y-9589D02*
D03*
X54538Y-12637D02*
D03*
X50728Y-17336D02*
D03*
X57205Y-17336D02*
D03*
X58221Y-19114D02*
D03*
X60380Y-19114D02*
D03*
X59364Y-16447D02*
D03*
X48569Y-16574D02*
D03*
X52760Y-16574D02*
D03*
X106535Y-30798D02*
D03*
X100947Y-28528D02*
D03*
X108380Y-31179D02*
D03*
X85580Y-7692D02*
D03*
X85549Y-6539D02*
D03*
X93454Y-5914D02*
D03*
X90648Y-3415D02*
D03*
X99550Y-4136D02*
D03*
X114701Y-6422D02*
D03*
X111234Y-4100D02*
D03*
X108208Y-2333D02*
D03*
X105137Y-2395D02*
D03*
X102321Y-1248D02*
D03*
X96680Y-4898D02*
D03*
X87996Y-4809D02*
D03*
X106281Y-32560D02*
D03*
X102296Y-29528D02*
D03*
X92819Y-10986D02*
D03*
X97137Y-9589D02*
D03*
X97137Y-12637D02*
D03*
X93327Y-17336D02*
D03*
X99804Y-17336D02*
D03*
X100820Y-19114D02*
D03*
X102979Y-19114D02*
D03*
X101963Y-16447D02*
D03*
X91168Y-16574D02*
D03*
X95359Y-16574D02*
D03*
X149133Y-30798D02*
D03*
X143545Y-28528D02*
D03*
X150979Y-31179D02*
D03*
X128178Y-7692D02*
D03*
X128147Y-6539D02*
D03*
X136052Y-5914D02*
D03*
X133247Y-3415D02*
D03*
X142148Y-4136D02*
D03*
X157300Y-6422D02*
D03*
X153832Y-4100D02*
D03*
X150806Y-2333D02*
D03*
X147736Y-2395D02*
D03*
X144919Y-1248D02*
D03*
X139279Y-4898D02*
D03*
X130594Y-4809D02*
D03*
X148879Y-32560D02*
D03*
X144894Y-29528D02*
D03*
X135417Y-10986D02*
D03*
X139735Y-9589D02*
D03*
X139735Y-12637D02*
D03*
X135925Y-17336D02*
D03*
X142402Y-17336D02*
D03*
X143418Y-19114D02*
D03*
X145577Y-19114D02*
D03*
X144561Y-16447D02*
D03*
X133766Y-16574D02*
D03*
X137957Y-16574D02*
D03*
X191732Y-30798D02*
D03*
X186144Y-28528D02*
D03*
X193577Y-31179D02*
D03*
X170777Y-7692D02*
D03*
X170746Y-6539D02*
D03*
X178651Y-5914D02*
D03*
X175846Y-3415D02*
D03*
X184747Y-4136D02*
D03*
X199898Y-6422D02*
D03*
X196431Y-4100D02*
D03*
X193405Y-2333D02*
D03*
X190335Y-2395D02*
D03*
X187518Y-1248D02*
D03*
X181878Y-4898D02*
D03*
X173193Y-4809D02*
D03*
X191478Y-32560D02*
D03*
X187493Y-29528D02*
D03*
X178016Y-10986D02*
D03*
X182334Y-9589D02*
D03*
X182334Y-12637D02*
D03*
X178524Y-17336D02*
D03*
X185001Y-17336D02*
D03*
X186017Y-19114D02*
D03*
X188176Y-19114D02*
D03*
X187160Y-16447D02*
D03*
X176365Y-16574D02*
D03*
X180556Y-16574D02*
D03*
X21337Y20513D02*
D03*
X15749Y22783D02*
D03*
X23183Y20132D02*
D03*
X382Y43619D02*
D03*
X351Y44772D02*
D03*
X8256Y45397D02*
D03*
X5451Y47896D02*
D03*
X14352Y47175D02*
D03*
X29503Y44889D02*
D03*
X26036Y47211D02*
D03*
X23010Y48978D02*
D03*
X19940Y48916D02*
D03*
X17123Y50063D02*
D03*
X11483Y46413D02*
D03*
X2798Y46502D02*
D03*
X21083Y18751D02*
D03*
X17098Y21783D02*
D03*
X7621Y40325D02*
D03*
X11939Y41722D02*
D03*
X11939Y38674D02*
D03*
X8129Y33975D02*
D03*
X14606Y33975D02*
D03*
X15622Y32197D02*
D03*
X17781Y32197D02*
D03*
X16765Y34864D02*
D03*
X5970Y34737D02*
D03*
X10161Y34737D02*
D03*
X63936Y20513D02*
D03*
X58348Y22783D02*
D03*
X65781Y20132D02*
D03*
X42981Y43619D02*
D03*
X42950Y44772D02*
D03*
X50855Y45397D02*
D03*
X48049Y47896D02*
D03*
X56951Y47175D02*
D03*
X72102Y44889D02*
D03*
X68635Y47211D02*
D03*
X65609Y48978D02*
D03*
X62539Y48916D02*
D03*
X59722Y50063D02*
D03*
X54082Y46413D02*
D03*
X45397Y46502D02*
D03*
X63682Y18751D02*
D03*
X59697Y21783D02*
D03*
X50220Y40325D02*
D03*
X54538Y41722D02*
D03*
X54538Y38674D02*
D03*
X50728Y33975D02*
D03*
X57205Y33975D02*
D03*
X58221Y32197D02*
D03*
X60380Y32197D02*
D03*
X59364Y34864D02*
D03*
X48569Y34737D02*
D03*
X52760Y34737D02*
D03*
X106535Y20513D02*
D03*
X100947Y22783D02*
D03*
X108380Y20132D02*
D03*
X85580Y43619D02*
D03*
X85549Y44772D02*
D03*
X93454Y45397D02*
D03*
X90648Y47896D02*
D03*
X99550Y47175D02*
D03*
X114701Y44889D02*
D03*
X111234Y47211D02*
D03*
X108208Y48978D02*
D03*
X105137Y48916D02*
D03*
X102321Y50063D02*
D03*
X96680Y46413D02*
D03*
X87996Y46502D02*
D03*
X106281Y18751D02*
D03*
X102296Y21783D02*
D03*
X92819Y40325D02*
D03*
X97137Y41722D02*
D03*
X97137Y38674D02*
D03*
X93327Y33975D02*
D03*
X99804Y33975D02*
D03*
X100820Y32197D02*
D03*
X102979Y32197D02*
D03*
X101963Y34864D02*
D03*
X91168Y34737D02*
D03*
X95359Y34737D02*
D03*
X149133Y20513D02*
D03*
X143545Y22783D02*
D03*
X150979Y20132D02*
D03*
X128178Y43619D02*
D03*
X128147Y44772D02*
D03*
X136052Y45397D02*
D03*
X133247Y47896D02*
D03*
X142148Y47175D02*
D03*
X157300Y44889D02*
D03*
X153832Y47211D02*
D03*
X150806Y48978D02*
D03*
X147736Y48916D02*
D03*
X144919Y50063D02*
D03*
X139279Y46413D02*
D03*
X130594Y46502D02*
D03*
X148879Y18751D02*
D03*
X144894Y21783D02*
D03*
X135417Y40325D02*
D03*
X139735Y41722D02*
D03*
X139735Y38674D02*
D03*
X135925Y33975D02*
D03*
X142402Y33975D02*
D03*
X143418Y32197D02*
D03*
X145577Y32197D02*
D03*
X144561Y34864D02*
D03*
X133766Y34737D02*
D03*
X137957Y34737D02*
D03*
X191732Y20513D02*
D03*
X186144Y22783D02*
D03*
X193577Y20132D02*
D03*
X170777Y43619D02*
D03*
X170746Y44772D02*
D03*
X178651Y45397D02*
D03*
X175846Y47896D02*
D03*
X184747Y47175D02*
D03*
X199898Y44889D02*
D03*
X196431Y47211D02*
D03*
X193405Y48978D02*
D03*
X190335Y48916D02*
D03*
X187518Y50063D02*
D03*
X181878Y46413D02*
D03*
X173193Y46502D02*
D03*
X191478Y18751D02*
D03*
X187493Y21783D02*
D03*
X178016Y40325D02*
D03*
X182334Y41722D02*
D03*
X182334Y38674D02*
D03*
X178524Y33975D02*
D03*
X185001Y33975D02*
D03*
X186017Y32197D02*
D03*
X188176Y32197D02*
D03*
X187160Y34864D02*
D03*
X176365Y34737D02*
D03*
X180556Y34737D02*
D03*
M02*
